<svg viewBox="0 0 32 32" xml:space="preserve" xmlns="http://www.w3.org/2000/svg" fill-rule="evenodd" clip-rule="evenodd" stroke-linejoin="round" stroke-miterlimit="2"><path d="M15.5 5.5c-5.519 0-10 4.481-10 10s4.481 10 10 10 10-4.481 10-10-4.481-10-10-10Zm0 1c4.967 0 9 4.033 9 9s-4.033 9-9 9-9-4.033-9-9 4.033-9 9-9Z" fill="#636363" class="fill-000000"></path><path d="m22.119 22.248 3.502 4.078a.5.5 0 0 0 .758-.652l-3.502-4.078a.5.5 0 0 0-.758.652Z" fill="#636363" class="fill-000000"></path></svg>