<svg id="svg" version="1.1" xmlns="http://www.w3.org/2000/svg" xmlns:xlink="http://www.w3.org/1999/xlink" width="400" height="500.2237136465324" viewBox="0, 0, 400,500.2237136465324"><g id="svgg"><path id="path0" d="M185.682 54.649 C 148.547 56.550,117.240 60.828,93.163 67.292 C 89.525 68.269,85.499 69.258,84.215 69.491 C 74.047 71.335,74.180 70.701,75.295 112.304 C 76.840 169.922,74.935 326.009,72.062 377.181 C 70.047 413.056,70.179 449.369,72.330 451.315 C 73.970 452.800,77.925 453.320,79.047 452.199 C 79.375 451.870,92.832 451.528,108.950 451.438 C 126.839 451.339,145.465 450.693,156.763 449.780 C 166.943 448.958,176.406 448.314,177.792 448.351 C 181.736 448.454,194.564 447.571,217.897 445.590 C 229.709 444.587,244.700 443.402,251.210 442.956 C 262.345 442.194,283.496 439.850,287.895 438.891 C 294.592 437.430,295.400 427.028,288.982 424.888 C 288.155 424.612,287.894 423.060,288.099 419.631 C 288.259 416.955,288.344 414.161,288.288 413.423 C 288.232 412.685,288.002 409.262,287.775 405.817 C 287.549 402.371,286.736 392.506,285.968 383.893 C 284.566 368.175,282.658 329.445,282.749 318.568 C 282.888 301.950,281.052 268.437,279.530 259.834 C 279.122 257.525,279.447 256.733,281.368 255.360 C 282.652 254.442,284.742 252.838,286.014 251.795 C 289.166 249.209,307.515 238.926,308.978 238.926 C 309.626 238.926,310.539 238.546,311.007 238.082 C 311.863 237.232,323.916 232.911,330.751 231.005 C 340.473 228.294,342.905 219.876,335.638 214.090 C 326.255 206.620,284.830 181.875,273.244 176.821 L 269.531 175.201 269.953 166.124 C 270.496 154.422,274.710 129.724,280.128 106.488 C 281.103 102.304,282.048 97.673,282.228 96.197 C 283.594 84.956,287.479 69.335,289.508 66.924 C 292.761 63.058,290.670 55.475,286.005 54.223 C 283.274 53.489,201.555 53.837,185.682 54.649 M263.854 69.693 C 270.933 69.782,272.147 70.008,271.708 71.152 C 271.422 71.897,270.756 76.024,270.226 80.324 C 269.697 84.625,268.696 90.358,268.000 93.065 C 267.305 95.772,266.554 99.464,266.331 101.270 C 266.107 103.077,265.096 108.513,264.083 113.351 C 260.293 131.460,258.396 144.881,257.939 156.823 L 257.468 169.128 254.093 169.128 C 243.607 169.128,243.640 181.757,254.139 186.476 C 257.287 187.892,271.205 195.292,279.764 200.102 C 294.179 208.202,297.146 209.941,303.517 214.028 C 311.777 219.327,311.719 219.129,305.780 221.722 C 295.941 226.019,285.741 231.533,277.724 236.891 C 273.139 239.955,268.363 242.720,267.111 243.034 C 264.413 243.711,262.192 246.582,262.192 249.392 C 262.192 250.500,261.324 253.194,260.262 255.380 C 258.178 259.670,259.063 264.877,261.876 264.877 C 264.542 264.877,265.532 272.851,266.262 300.224 C 267.391 342.521,269.935 392.246,271.596 404.474 C 272.298 409.642,273.040 416.576,273.244 419.884 C 273.684 427.014,274.388 426.581,261.298 427.228 C 256.130 427.484,243.647 428.490,233.557 429.463 C 197.162 432.975,181.784 434.175,163.311 434.947 C 152.975 435.378,133.445 436.347,119.911 437.100 C 79.908 439.324,82.088 439.413,82.737 435.570 C 83.694 429.902,87.929 354.960,87.705 347.651 C 87.593 344.018,88.206 323.764,89.627 284.110 C 90.377 263.200,90.803 220.136,90.785 167.195 L 90.756 83.384 93.924 82.444 C 103.644 79.561,131.553 74.365,142.729 73.358 C 147.651 72.914,155.906 72.103,161.074 71.555 C 179.379 69.616,211.536 69.033,263.854 69.693 " stroke="none" fill="#FFDAB9" fill-rule="evenodd"></path></g></svg>