<svg id="svg" version="1.1" xmlns="http://www.w3.org/2000/svg" xmlns:xlink="http://www.w3.org/1999/xlink" width="400" height="292.4657534246575" viewBox="0, 0, 400,292.4657534246575"><g id="svgg"><path id="path0" d="M198.630 19.267 C 195.051 19.584,189.503 20.157,186.301 20.540 C 183.099 20.922,179.092 21.385,177.397 21.569 C 166.231 22.776,139.064 28.410,124.658 32.507 C 124.092 32.668,121.318 33.451,118.493 34.248 C 115.668 35.045,111.199 36.476,108.562 37.429 C 105.925 38.382,103.305 39.276,102.740 39.417 C 100.748 39.912,96.595 41.533,96.132 41.996 C 95.873 42.255,95.093 42.466,94.397 42.466 C 93.701 42.466,92.597 42.769,91.943 43.140 C 91.289 43.511,88.728 44.715,86.252 45.816 C 80.566 48.345,71.553 52.821,68.726 54.521 C 67.536 55.236,65.071 56.716,63.247 57.810 C 54.549 63.025,43.197 72.502,38.239 78.687 C 36.241 81.180,34.428 83.373,34.210 83.562 C 31.859 85.592,25.048 98.571,22.168 106.507 C 16.404 122.391,15.379 144.360,19.452 164.726 C 23.540 185.171,40.235 208.499,59.247 220.330 C 76.164 230.858,99.046 234.626,129.110 231.834 C 156.309 229.308,183.014 230.439,190.972 234.453 C 192.321 235.134,195.673 240.142,197.709 244.521 C 202.436 254.685,215.878 271.233,219.408 271.233 C 224.949 271.233,225.672 269.747,228.065 253.425 C 232.010 226.514,236.875 219.630,254.901 215.449 C 261.399 213.941,275.020 211.892,279.666 211.722 C 282.047 211.635,295.932 209.752,299.658 209.011 C 301.164 208.711,302.551 208.441,302.740 208.411 C 304.502 208.132,312.036 205.643,315.726 204.121 C 345.146 191.989,367.062 168.996,376.344 140.523 C 382.706 121.009,381.548 94.578,373.639 78.767 C 373.167 77.825,372.077 75.668,371.215 73.973 C 363.892 59.567,349.307 46.084,331.447 37.209 C 323.921 33.469,312.339 28.767,310.653 28.767 C 310.103 28.767,308.946 28.498,308.080 28.169 C 304.924 26.968,299.568 25.414,295.890 24.632 C 286.835 22.706,282.310 21.868,279.110 21.524 C 277.226 21.322,275.218 21.022,274.647 20.857 C 267.563 18.813,215.930 17.733,198.630 19.267 M262.329 27.979 C 271.680 29.018,282.168 30.674,287.329 31.927 C 289.589 32.476,292.055 33.030,292.808 33.159 C 329.957 39.499,361.794 65.418,369.021 95.205 C 376.005 123.990,364.166 157.570,340.459 176.221 C 337.984 178.169,335.805 179.944,335.616 180.166 C 335.236 180.615,329.074 184.611,325.309 186.852 C 312.285 194.600,297.765 198.851,278.082 200.676 C 248.943 203.379,237.449 206.921,228.804 215.860 C 225.987 218.774,220.548 228.901,220.548 231.235 C 220.548 231.883,220.107 233.982,219.568 235.899 C 219.029 237.815,218.215 241.541,217.758 244.178 C 216.358 252.271,216.488 252.250,211.876 245.106 C 209.601 241.582,206.424 236.233,204.814 233.219 C 200.227 224.629,198.635 223.300,194.545 224.650 C 192.459 225.338,191.475 225.293,188.806 224.387 C 177.978 220.710,156.040 219.839,125.000 221.853 C 89.352 224.165,67.664 217.167,50.027 197.662 C 48.694 196.187,47.289 194.646,46.906 194.237 C 32.581 178.949,24.977 146.428,30.109 122.404 C 36.564 92.189,56.552 71.422,94.863 55.125 C 107.668 49.678,129.791 42.299,142.123 39.362 C 144.760 38.733,148.767 37.768,151.027 37.217 C 164.657 33.891,193.350 29.497,210.616 28.090 C 215.514 27.691,220.445 27.286,221.575 27.190 C 227.138 26.718,256.006 27.276,262.329 27.979 " stroke="none" fill="#DDA0DD" fill-rule="evenodd"></path></g></svg>