<svg id="svg" version="1.1" xmlns="http://www.w3.org/2000/svg" xmlns:xlink="http://www.w3.org/1999/xlink" width="400" height="300.69444444444446" viewBox="0, 0, 400,300.69444444444446"><g id="svgg"><path id="path0" d="M181.944 17.729 C 173.007 18.729,160.887 20.423,154.167 21.611 C 145.461 23.150,142.810 23.760,131.250 26.878 C 125.442 28.444,109.478 33.816,106.110 35.337 C 79.355 47.422,69.864 53.637,54.493 69.135 C 42.388 81.341,34.897 93.336,29.146 109.722 C 21.098 132.658,25.387 163.534,39.410 183.602 C 60.028 213.107,75.887 224.791,117.014 240.776 C 118.542 241.369,120.729 242.242,121.875 242.715 C 123.021 243.187,125.521 244.148,127.431 244.850 C 145.513 251.495,148.660 254.638,151.724 269.110 C 153.971 279.719,154.931 281.250,159.339 281.250 C 163.961 281.250,172.993 273.935,182.667 262.358 C 186.083 258.270,191.888 251.963,195.567 248.343 L 202.256 241.762 230.816 241.497 C 249.732 241.322,260.782 240.944,263.542 240.377 C 265.833 239.906,269.427 239.180,271.528 238.765 C 311.897 230.780,355.880 198.948,372.715 165.532 C 392.124 127.008,375.061 76.572,333.303 49.030 C 329.309 46.396,325.260 43.714,324.306 43.071 C 318.761 39.333,297.254 29.974,289.236 27.810 C 288.090 27.500,286.293 26.906,285.243 26.488 C 284.193 26.070,283.333 25.863,283.333 26.028 C 283.333 26.193,282.025 25.866,280.426 25.302 C 277.545 24.285,269.688 22.298,267.014 21.909 C 266.250 21.798,264.375 21.495,262.847 21.236 C 257.232 20.283,247.412 18.768,241.667 17.968 C 232.648 16.712,192.465 16.552,181.944 17.729 M226.463 29.158 C 239.173 30.095,250.350 31.223,254.514 31.989 C 256.424 32.341,259.236 32.814,260.764 33.041 C 263.585 33.460,278.895 37.134,286.420 39.198 C 294.549 41.428,317.645 51.469,321.181 54.310 C 321.563 54.617,324.063 56.330,326.736 58.116 C 341.996 68.313,354.583 82.506,362.343 98.264 C 365.135 103.934,366.351 106.790,367.370 110.069 C 367.845 111.597,368.511 113.576,368.850 114.467 C 371.713 121.984,371.784 138.735,368.995 148.611 C 367.887 152.535,367.724 152.998,365.573 158.333 C 364.016 162.194,358.637 171.844,356.476 174.653 C 353.886 178.018,351.192 181.333,348.894 183.983 C 347.713 185.344,346.151 187.187,345.422 188.078 C 344.693 188.969,340.503 192.874,336.111 196.757 C 331.719 200.640,327.969 203.990,327.778 204.202 C 327.587 204.414,326.181 205.507,324.653 206.630 C 323.125 207.753,321.719 208.851,321.528 209.068 C 319.140 211.790,294.668 225.000,292.014 225.000 C 291.747 225.000,290.545 225.449,289.341 225.997 C 285.368 227.807,272.188 231.433,263.542 233.094 C 254.222 234.884,203.604 235.523,201.691 233.874 C 197.413 230.187,190.889 235.013,175.506 253.249 C 172.549 256.754,168.647 260.895,166.836 262.451 L 163.542 265.280 161.206 257.844 C 158.563 249.433,153.881 243.680,147.049 240.449 C 140.369 237.290,131.391 233.333,130.903 233.333 C 130.703 233.333,129.216 232.725,127.597 231.982 C 125.977 231.239,119.028 228.406,112.153 225.687 C 95.950 219.277,84.076 213.256,82.431 210.614 C 82.125 210.124,81.448 209.722,80.926 209.722 C 80.404 209.722,79.873 209.463,79.745 209.147 C 79.618 208.830,77.483 206.845,75.000 204.734 C 37.202 172.607,27.358 137.024,46.121 100.347 C 51.698 89.446,68.740 68.750,72.140 68.750 C 72.567 68.750,72.917 68.464,72.917 68.115 C 72.917 67.766,74.401 66.526,76.215 65.359 C 78.030 64.192,80.764 62.334,82.292 61.230 C 84.802 59.415,88.963 57.021,96.875 52.839 C 100.300 51.029,107.308 47.980,112.847 45.890 C 115.139 45.025,118.108 43.887,119.444 43.361 C 121.694 42.475,128.781 40.276,137.153 37.864 C 139.063 37.314,142.344 36.496,144.444 36.046 C 146.545 35.596,150.451 34.680,153.125 34.010 C 155.799 33.341,160.799 32.424,164.236 31.973 C 167.674 31.521,172.361 30.874,174.653 30.535 C 176.944 30.196,182.882 29.713,187.847 29.461 C 192.812 29.209,197.005 28.883,197.164 28.737 C 197.743 28.207,217.397 28.490,226.463 29.158 " stroke="none" fill="#FFDAB9" fill-rule="evenodd"></path></g></svg>