<svg id="svg" version="1.1" xmlns="http://www.w3.org/2000/svg" xmlns:xlink="http://www.w3.org/1999/xlink" width="400" height="415.51020408163265" viewBox="0, 0, 400,415.51020408163265"><g id="svgg"><path id="path0" d="M155.918 16.084 C 149.881 16.560,132.168 19.654,129.881 20.633 C 128.712 21.134,127.388 21.599,126.939 21.667 C 126.490 21.735,125.571 21.993,124.898 22.240 C 124.224 22.488,120.184 23.860,115.918 25.289 C 94.672 32.407,76.923 44.022,61.058 61.187 C 56.080 66.574,51.601 71.719,51.106 72.620 C 50.610 73.522,48.148 77.296,45.634 81.008 C 39.292 90.373,32.664 103.606,28.967 114.286 C 27.801 117.653,26.526 121.143,26.134 122.041 C 22.341 130.732,16.477 168.615,16.973 181.224 C 17.489 194.353,20.209 216.155,22.525 225.714 C 23.846 231.170,29.899 250.702,31.252 253.878 C 31.730 255.000,32.058 256.194,31.979 256.531 C 31.901 256.867,32.243 257.143,32.740 257.143 C 33.237 257.143,33.443 257.667,33.197 258.308 C 32.951 258.948,33.279 259.912,33.926 260.448 C 34.573 260.985,35.102 261.736,35.102 262.117 C 35.102 264.564,44.857 282.055,51.110 290.818 C 52.632 292.952,53.878 295.064,53.878 295.512 C 53.878 295.960,54.189 296.327,54.569 296.327 C 54.950 296.327,55.592 297.046,55.998 297.926 C 56.678 299.403,66.446 310.382,72.307 316.258 C 75.556 319.515,81.558 324.596,84.248 326.365 C 85.410 327.130,88.043 328.961,90.100 330.435 C 108.003 343.260,124.405 349.158,144.444 349.975 L 156.236 350.456 158.294 352.983 C 161.190 356.539,186.275 382.289,187.738 383.206 C 192.882 386.434,196.948 383.104,199.334 373.709 C 202.853 359.853,210.301 348.752,218.889 344.562 C 221.541 343.268,224.190 341.812,224.776 341.325 C 225.363 340.839,226.548 340.306,227.411 340.141 C 228.274 339.976,230.030 339.412,231.314 338.887 C 232.598 338.361,240.128 336.815,248.048 335.450 C 255.969 334.085,265.204 332.237,268.571 331.345 C 276.139 329.339,275.839 329.430,278.637 328.284 C 279.908 327.763,282.663 326.925,284.760 326.422 C 288.346 325.561,291.314 324.218,301.969 318.640 C 304.399 317.368,308.723 314.214,311.577 311.633 C 314.432 309.051,317.079 306.939,317.461 306.939 C 318.478 306.939,327.436 296.002,329.694 292.004 C 330.760 290.116,332.641 287.102,333.873 285.306 C 335.776 282.534,344.672 265.717,344.885 264.490 C 344.924 264.265,345.353 263.347,345.838 262.449 C 347.048 260.210,350.204 250.857,350.204 249.510 C 350.204 248.907,350.733 247.347,351.379 246.044 C 352.717 243.346,355.798 232.075,359.280 217.143 C 360.589 211.531,361.871 206.204,362.131 205.306 C 371.135 174.133,370.094 124.887,359.957 102.508 C 336.303 50.288,239.943 9.473,155.918 16.084 M199.592 33.470 C 210.828 34.490,225.450 36.687,226.531 37.517 C 226.980 37.862,227.898 38.174,228.571 38.209 C 241.398 38.879,281.916 54.113,298.699 64.576 C 300.761 65.862,303.735 67.563,305.306 68.355 C 306.878 69.148,310.349 71.541,313.020 73.673 C 315.692 75.806,318.304 77.551,318.825 77.551 C 319.347 77.551,321.548 79.204,323.718 81.224 C 325.888 83.245,327.798 84.898,327.963 84.898 C 329.252 84.898,339.273 96.653,341.726 101.042 C 343.412 104.061,345.810 108.140,347.056 110.106 C 348.301 112.072,349.565 115.379,349.865 117.453 C 350.165 119.527,350.683 121.592,351.016 122.041 C 354.234 126.372,354.121 175.995,350.878 182.575 C 350.402 183.543,350.197 184.645,350.424 185.024 C 350.950 185.904,349.024 198.868,347.345 205.754 C 343.452 221.713,336.262 245.495,334.645 247.755 C 333.796 248.943,329.796 259.164,329.796 260.146 C 329.796 260.604,327.923 264.433,325.633 268.653 C 313.305 291.376,300.371 303.381,280.816 310.249 C 277.898 311.274,275.143 312.385,274.694 312.718 C 273.199 313.827,264.234 315.814,249.388 318.327 C 211.946 324.665,196.958 334.772,188.194 359.592 C 187.699 360.995,186.038 359.593,176.353 349.592 C 163.719 336.545,161.815 335.570,158.289 340.340 C 156.463 342.809,153.397 343.097,148.980 341.215 C 148.082 340.832,146.245 340.351,144.898 340.146 C 137.799 339.063,117.805 331.765,115.391 329.376 C 114.877 328.867,112.673 327.776,110.493 326.953 C 103.513 324.316,77.150 303.699,75.236 299.381 C 75.085 299.040,73.662 297.207,72.075 295.307 C 67.225 289.501,59.905 278.863,55.833 271.699 C 52.148 265.217,51.318 263.362,46.894 251.719 C 45.846 248.961,44.250 245.104,43.348 243.148 C 41.163 238.410,37.179 222.828,35.490 212.410 C 33.218 198.402,31.533 175.096,32.674 173.469 C 32.989 173.020,33.477 168.980,33.757 164.490 C 34.577 151.377,40.377 123.910,42.652 122.367 C 43.049 122.098,43.495 121.363,43.644 120.735 C 45.542 112.701,55.856 93.218,61.535 86.939 C 63.160 85.143,64.493 83.306,64.499 82.857 C 64.515 81.557,77.505 67.352,82.587 63.077 C 95.337 52.351,107.758 45.480,122.041 41.253 C 126.082 40.057,129.939 38.847,130.612 38.565 C 131.286 38.283,132.204 38.022,132.653 37.984 C 133.102 37.947,133.880 37.659,134.382 37.344 C 135.609 36.574,148.166 34.461,156.735 33.582 C 166.598 32.570,189.035 32.511,199.592 33.470 " stroke="none" fill="#DDA0DD" fill-rule="evenodd"></path></g></svg>