<svg id="svg" version="1.1" xmlns="http://www.w3.org/2000/svg" xmlns:xlink="http://www.w3.org/1999/xlink" width="400" height="166.40826873385012" viewBox="0, 0, 400,166.40826873385012"><g id="svgg"><path id="path0" d="M345.220 9.665 C 343.372 9.739,338.023 10.154,333.333 10.588 C 328.643 11.021,323.527 11.482,321.964 11.611 C 320.401 11.741,316.796 12.088,313.953 12.384 C 289.119 14.965,291.319 14.858,249.354 15.517 C 220.873 15.965,214.517 16.200,193.023 17.599 C 184.615 18.147,170.538 19.518,158.398 20.972 C 154.703 21.415,151.098 21.792,150.388 21.811 C 149.677 21.830,146.886 22.149,144.186 22.521 C 141.486 22.892,137.881 23.340,136.176 23.515 C 134.470 23.691,129.935 24.266,126.098 24.794 C 119.751 25.667,112.100 26.609,106.718 27.179 C 103.995 27.467,94.247 28.649,83.979 29.935 C 73.580 31.237,63.029 32.327,62.016 32.202 C 61.169 32.098,50.760 33.394,48.417 33.894 C 47.575 34.074,46.724 34.729,46.396 35.449 C 46.084 36.133,45.414 36.693,44.907 36.693 C 42.334 36.693,41.124 38.887,41.744 42.428 C 42.062 44.247,42.665 47.713,43.083 50.129 C 43.501 52.545,43.950 58.779,44.079 63.983 L 44.315 73.443 40.594 77.938 C 37.225 82.009,34.900 84.220,25.085 92.691 C 15.977 100.552,11.005 106.487,11.587 108.806 C 12.068 110.724,15.066 111.918,17.543 111.178 C 19.765 110.514,33.842 109.557,41.359 109.559 L 46.802 109.561 47.752 116.408 C 48.304 120.385,48.893 129.106,49.155 137.209 C 49.680 153.386,49.875 154.803,51.761 156.211 L 53.134 157.236 60.029 155.897 C 75.546 152.884,77.942 152.710,103.618 152.747 C 120.512 152.772,130.680 153.029,138.760 153.637 C 164.574 155.578,185.274 156.060,198.966 155.038 C 211.541 154.100,225.885 152.965,238.501 151.911 C 245.323 151.341,254.974 150.539,259.948 150.129 C 264.922 149.719,273.178 149.027,278.295 148.593 C 283.411 148.159,289.225 147.686,291.214 147.544 C 293.204 147.401,298.320 146.946,302.584 146.532 C 306.848 146.119,311.964 145.670,313.953 145.536 C 319.936 145.133,331.422 144.180,342.377 143.178 C 348.062 142.657,353.876 142.199,355.297 142.160 C 357.606 142.095,363.181 141.471,373.790 140.088 C 375.718 139.836,377.861 139.260,378.552 138.808 C 379.243 138.355,380.171 137.984,380.613 137.984 C 384.150 137.984,386.145 113.118,384.039 95.289 C 382.263 80.259,380.223 65.716,378.825 58.140 C 378.301 55.297,377.483 50.530,377.006 47.545 C 376.529 44.561,375.817 40.491,375.423 38.501 C 375.028 36.512,374.588 33.824,374.443 32.528 C 374.299 31.232,373.818 28.325,373.374 26.068 C 372.930 23.811,372.446 20.568,372.297 18.863 C 371.953 14.906,371.238 12.161,370.365 11.436 C 368.945 10.258,354.985 9.274,345.220 9.665 M366.077 22.868 C 366.583 26.066,367.420 30.775,367.938 33.333 C 368.456 35.891,369.274 40.194,369.756 42.894 C 370.779 48.622,371.734 53.629,373.108 60.465 C 379.208 90.829,381.015 115.684,378.270 131.450 L 377.683 134.818 365.198 135.000 C 358.331 135.099,348.643 135.577,343.669 136.061 C 331.172 137.277,312.002 138.866,301.809 139.531 C 297.119 139.837,288.049 140.540,281.654 141.093 C 258.824 143.069,245.567 144.150,234.109 144.969 C 227.713 145.427,217.364 146.246,211.111 146.790 C 189.715 148.652,166.677 148.573,141.085 146.550 C 135.827 146.134,127.455 145.667,122.481 145.511 C 117.506 145.355,110.065 145.080,105.943 144.899 C 97.291 144.518,76.935 145.457,69.787 146.565 C 67.098 146.982,63.959 147.439,62.811 147.581 C 61.663 147.722,59.910 148.061,58.915 148.335 C 55.091 149.385,55.010 149.309,55.208 144.832 C 55.495 138.351,54.341 116.351,53.493 112.145 C 53.064 110.013,52.629 107.518,52.527 106.600 C 52.163 103.328,52.295 103.359,38.612 103.359 L 26.189 103.359 32.577 97.287 C 48.476 82.174,50.797 78.903,51.374 70.790 C 51.791 64.942,50.636 47.495,49.591 43.854 C 49.319 42.903,49.096 41.990,49.096 41.825 C 49.096 41.659,52.875 41.117,57.494 40.620 C 62.112 40.123,69.496 39.286,73.902 38.760 C 83.454 37.620,90.779 36.777,94.315 36.410 C 98.767 35.948,105.125 35.070,105.444 34.873 C 105.612 34.769,107.479 34.549,109.593 34.384 C 111.707 34.218,115.532 33.749,118.092 33.340 C 120.653 32.931,124.025 32.475,125.586 32.326 C 130.017 31.904,137.556 31.021,145.736 29.966 C 157.323 28.471,174.171 26.676,189.406 25.313 C 192.817 25.007,197.933 24.546,200.775 24.287 C 203.618 24.028,220.827 23.574,239.018 23.277 C 286.410 22.505,292.415 22.194,319.380 19.114 C 334.639 17.370,337.268 17.208,351.442 17.130 L 365.158 17.054 366.077 22.868 " stroke="none" fill="#F6ADC6" fill-rule="evenodd"></path></g></svg>