<svg id="svg" version="1.1" xmlns="http://www.w3.org/2000/svg" xmlns:xlink="http://www.w3.org/1999/xlink" width="400" height="168.5305591677503" viewBox="0, 0, 400,168.5305591677503"><g id="svgg"><path id="path0" d="M342.783 13.040 C 340.699 13.419,336.064 13.963,327.178 14.871 C 316.435 15.970,305.178 16.247,255.657 16.633 C 202.850 17.044,181.836 17.514,164.109 18.679 C 159.818 18.961,154.902 19.192,153.186 19.191 C 151.469 19.191,145.852 19.444,140.702 19.753 C 129.542 20.423,106.722 21.123,72.302 21.850 C 58.427 22.143,39.701 22.594,30.689 22.853 C 20.728 23.139,14.111 23.136,13.810 22.845 C 13.179 22.234,10.888 22.240,9.915 22.856 C 8.010 24.061,7.372 37.620,8.321 56.697 C 9.176 73.872,10.328 104.277,11.170 131.860 L 11.932 156.827 13.332 158.044 C 14.361 158.939,15.157 159.195,16.338 159.012 C 17.222 158.875,23.329 158.978,29.909 159.240 C 48.664 159.987,95.555 158.533,166.450 155.007 C 178.366 154.414,195.676 153.624,207.022 153.156 C 211.456 152.973,215.202 152.753,215.345 152.668 C 215.488 152.584,219.116 152.368,223.407 152.190 C 227.698 152.011,235.657 151.641,241.092 151.368 C 283.029 149.255,355.148 147.455,357.925 148.451 C 359.004 148.838,359.687 148.690,361.236 147.732 L 363.188 146.526 362.894 129.310 C 362.732 119.841,362.464 111.391,362.298 110.533 C 362.018 109.088,362.272 108.761,365.726 106.112 C 375.803 98.382,392.718 79.198,392.718 75.499 C 392.718 70.173,388.230 69.331,373.294 71.852 C 369.422 72.506,367.608 72.702,361.436 73.137 L 356.422 73.491 356.107 71.986 C 355.934 71.158,355.660 69.545,355.499 68.401 C 355.338 67.256,355.113 65.969,355.000 65.540 C 354.887 65.111,354.650 63.355,354.474 61.638 C 354.298 59.922,354.045 58.134,353.913 57.664 C 353.781 57.195,353.459 54.503,353.198 51.683 C 351.951 38.217,351.455 33.454,350.551 26.268 C 350.226 23.693,349.988 21.235,350.020 20.806 C 350.053 20.377,350.213 18.830,350.377 17.369 C 350.854 13.121,348.793 11.946,342.783 13.040 M344.943 23.537 C 345.514 35.710,346.613 50.554,347.531 58.518 C 348.383 65.899,348.484 66.661,349.030 69.831 C 351.099 81.846,349.641 80.884,365.780 80.884 C 372.585 80.884,378.095 81.046,378.023 81.244 C 377.582 82.465,365.113 94.541,359.844 98.849 C 352.393 104.942,352.533 104.633,353.732 112.354 C 354.021 114.213,354.393 121.169,354.559 127.812 L 354.860 139.888 336.894 139.908 C 327.013 139.918,318.619 140.031,318.242 140.159 C 317.864 140.287,306.905 140.638,293.888 140.939 C 280.871 141.240,265.423 141.722,259.558 142.009 C 225.833 143.664,208.204 144.581,199.480 145.133 C 195.189 145.405,188.986 145.760,185.696 145.921 C 182.406 146.082,176.905 146.427,173.472 146.687 C 170.039 146.948,163.251 147.291,158.388 147.450 C 153.524 147.609,145.800 147.964,141.222 148.238 C 127.908 149.035,111.587 149.772,71.782 151.373 C 64.486 151.666,53.017 152.020,46.294 152.159 C 39.571 152.297,31.074 152.651,27.413 152.944 C 23.751 153.237,20.569 153.361,20.340 153.219 C 20.111 153.078,19.768 144.703,19.577 134.609 C 19.386 124.514,19.007 112.042,18.734 106.892 C 18.462 101.743,17.994 92.029,17.693 85.306 C 17.392 78.583,16.917 68.049,16.638 61.899 C 16.359 55.748,16.032 45.634,15.913 39.424 L 15.697 28.133 17.341 28.501 C 21.708 29.478,87.044 28.624,131.339 27.012 C 158.623 26.018,171.487 25.502,175.553 25.235 C 192.956 24.095,212.359 23.825,235.713 24.400 C 266.565 25.158,303.147 25.190,314.677 24.469 C 326.709 23.716,336.388 22.895,339.142 22.395 C 344.078 21.498,344.854 21.651,344.943 23.537 " stroke="none" fill="#FFDAB9" fill-rule="evenodd"></path></g></svg>