<svg id="svg" version="1.1" xmlns="http://www.w3.org/2000/svg" xmlns:xlink="http://www.w3.org/1999/xlink" width="400" height="277.3333333333333" viewBox="0, 0, 400,277.3333333333333"><g id="svgg"><path id="path0" d="M199.667 17.050 C 195.267 17.537,188.517 18.263,184.667 18.662 C 174.642 19.701,170.272 20.357,153.333 23.367 C 148.372 24.248,148.730 24.179,141.667 25.633 C 138.733 26.236,135.133 27.039,133.667 27.416 C 132.200 27.792,129.200 28.552,127.000 29.103 C 120.183 30.812,118.463 31.262,114.333 32.414 C 51.930 49.827,17.528 78.298,10.920 118.000 C 10.767 118.917,10.348 121.106,9.988 122.866 C 6.210 141.329,12.625 167.684,24.399 182.079 C 35.119 195.186,46.883 202.406,67.667 208.636 C 69.942 209.318,79.328 211.209,82.333 211.591 C 83.433 211.730,86.883 212.168,90.000 212.563 C 95.203 213.223,105.279 214.334,112.667 215.063 C 116.333 215.425,126.062 216.742,127.056 217.011 C 127.453 217.118,128.262 218.810,128.852 220.770 C 129.443 222.730,130.843 227.333,131.963 231.000 C 133.082 234.667,134.598 240.067,135.332 243.000 C 138.708 256.509,139.956 257.676,145.454 252.468 C 150.028 248.135,151.441 244.604,157.037 223.522 C 159.043 215.964,159.057 215.950,165.986 214.976 C 167.628 214.746,169.141 214.452,169.347 214.325 C 170.361 213.698,191.375 211.360,199.000 211.025 C 203.767 210.815,209.317 210.498,211.333 210.320 C 213.350 210.142,223.100 209.847,233.000 209.665 C 248.551 209.379,273.328 207.823,274.586 207.052 C 274.814 206.913,276.500 206.635,278.333 206.434 C 309.339 203.041,346.767 181.829,364.382 157.667 C 365.451 156.200,366.508 154.850,366.732 154.667 C 369.046 152.765,377.966 136.764,380.853 129.333 C 393.609 96.506,381.944 63.707,349.667 41.645 C 347.821 40.384,343.800 38.039,338.000 34.843 C 334.450 32.887,322.982 28.315,317.000 26.471 C 300.719 21.453,290.600 19.563,266.269 16.993 C 254.157 15.713,211.397 15.750,199.667 17.050 M266.000 25.250 C 269.483 25.681,274.283 26.327,276.667 26.687 C 279.050 27.047,282.200 27.509,283.667 27.714 C 285.133 27.920,287.383 28.348,288.667 28.667 C 289.950 28.985,292.050 29.404,293.333 29.597 C 302.195 30.932,320.781 37.299,331.667 42.729 C 365.027 59.370,381.647 90.787,372.545 120.000 C 365.447 142.779,343.982 168.082,320.667 181.154 C 319.383 181.873,316.683 183.392,314.667 184.528 C 309.646 187.358,297.195 192.239,292.333 193.284 C 290.133 193.756,287.583 194.415,286.667 194.748 C 278.780 197.611,255.301 199.611,217.667 200.626 C 196.053 201.209,187.798 201.739,174.333 203.406 C 167.641 204.235,168.202 204.141,161.333 205.590 C 149.944 207.993,150.802 207.212,148.081 217.667 C 146.935 222.067,145.472 227.410,144.830 229.542 L 143.661 233.417 140.747 224.208 C 135.848 208.731,135.243 207.807,130.218 208.128 C 127.629 208.293,126.871 208.626,126.342 209.833 C 125.606 211.511,124.788 211.637,121.164 210.631 C 119.788 210.249,117.688 209.814,116.498 209.664 C 115.307 209.514,112.383 209.088,110.000 208.718 C 107.617 208.347,102.367 207.569,98.333 206.988 C 72.759 203.304,62.980 200.471,49.000 192.693 C 46.800 191.469,44.850 190.285,44.667 190.063 C 44.483 189.841,43.133 188.766,41.667 187.674 C 8.932 163.306,9.246 110.343,42.323 77.076 C 52.322 67.021,66.878 58.409,87.333 50.449 C 99.573 45.686,122.652 38.621,132.545 36.609 C 134.127 36.287,135.654 35.880,135.938 35.705 C 136.850 35.141,160.794 30.360,166.333 29.636 C 167.433 29.492,170.283 29.072,172.667 28.702 C 186.123 26.612,202.279 25.033,216.333 24.433 C 226.589 23.995,260.336 24.551,266.000 25.250 " stroke="none" fill="#DDA0DD" fill-rule="evenodd"></path></g></svg>