<svg id="svg" version="1.1" xmlns="http://www.w3.org/2000/svg" xmlns:xlink="http://www.w3.org/1999/xlink" width="400" height="320.4301075268817" viewBox="0, 0, 400,320.4301075268817"><g id="svgg"><path id="path0" d="M259.140 17.591 C 256.636 18.837,234.326 36.405,232.258 38.759 C 232.061 38.984,229.319 41.364,226.165 44.048 C 220.314 49.028,219.084 50.177,205.458 63.397 C 197.102 71.505,197.026 71.544,192.988 69.849 C 183.063 65.685,159.841 63.999,144.444 66.324 C 140.502 66.920,135.986 67.568,134.409 67.764 C 132.832 67.960,129.767 68.591,127.599 69.166 C 125.430 69.740,122.849 70.410,121.864 70.653 C 117.529 71.725,105.667 75.512,104.996 76.038 C 104.589 76.357,103.460 76.773,102.487 76.964 C 99.295 77.589,85.845 83.975,76.344 89.377 C 18.364 122.343,-7.054 178.564,15.221 224.575 C 16.706 227.643,17.921 230.321,17.921 230.526 C 17.921 230.965,25.879 243.201,26.506 243.728 C 26.741 243.925,28.900 246.505,31.304 249.462 C 40.923 261.296,51.904 270.221,67.742 279.077 C 76.800 284.142,99.649 293.082,106.810 294.363 C 107.796 294.539,110.860 295.274,113.620 295.994 C 144.431 304.042,190.105 305.232,224.373 298.882 C 228.513 298.114,232.924 297.326,234.177 297.129 C 237.667 296.582,248.756 293.885,251.971 292.802 C 253.548 292.271,255.798 291.665,256.969 291.456 C 258.141 291.247,260.883 290.401,263.063 289.575 C 265.242 288.749,268.638 287.479,270.609 286.752 C 279.825 283.357,284.118 281.517,290.722 278.133 C 298.961 273.911,298.500 274.179,307.883 268.161 C 321.308 259.551,333.920 248.286,341.259 238.351 C 343.006 235.986,344.621 233.889,344.846 233.692 C 348.590 230.417,361.103 204.298,362.368 197.118 C 362.568 195.984,363.026 194.281,363.386 193.334 C 366.918 184.044,368.381 155.366,365.991 142.294 C 363.183 126.941,356.179 110.904,348.067 101.252 C 335.692 86.528,322.548 77.173,300.000 67.042 C 294.793 64.702,276.762 59.498,273.861 59.498 C 273.097 59.498,270.805 59.141,268.768 58.704 L 265.064 57.909 265.453 54.940 C 265.666 53.307,266.323 49.713,266.911 46.953 C 267.500 44.194,268.150 40.000,268.355 37.634 C 268.561 35.269,268.950 31.201,269.220 28.595 C 270.202 19.121,265.775 14.288,259.140 17.591 M251.299 48.206 C 250.602 51.460,249.420 55.697,248.672 57.622 C 244.239 69.030,246.393 70.766,269.176 74.147 C 289.285 77.131,315.484 89.975,329.229 103.586 C 350.798 124.944,358.349 159.842,348.319 191.807 C 347.568 194.200,346.953 196.612,346.953 197.165 C 346.953 198.085,344.926 203.806,342.012 211.111 C 340.331 215.324,334.778 225.941,333.388 227.599 C 332.727 228.387,331.240 230.484,330.084 232.258 C 322.711 243.576,304.826 257.685,286.022 267.016 C 278.131 270.932,276.790 271.556,270.870 274.064 C 259.939 278.694,230.514 286.740,220.076 287.952 C 218.694 288.112,213.102 288.882,207.650 289.663 C 180.395 293.564,135.196 290.627,110.394 283.344 C 108.226 282.707,105.968 282.128,105.376 282.056 C 104.785 281.985,100.243 280.440,95.284 278.624 C 80.566 273.234,69.002 266.892,54.839 256.446 C 52.969 255.067,39.214 241.357,36.749 238.416 C 28.042 228.026,17.173 202.095,18.845 195.700 C 19.052 194.912,18.960 194.106,18.642 193.910 C 17.755 193.361,18.531 180.091,19.726 175.390 C 20.310 173.092,20.961 170.234,21.171 169.039 C 21.874 165.050,29.270 148.577,31.344 146.382 C 31.827 145.871,32.715 144.416,33.316 143.149 C 33.917 141.882,35.135 140.042,36.022 139.061 C 36.909 138.079,38.584 135.986,39.744 134.409 C 46.950 124.612,66.242 107.927,77.778 101.514 C 78.961 100.856,81.057 99.635,82.437 98.799 C 86.006 96.638,99.658 89.909,101.792 89.259 C 102.778 88.959,103.907 88.472,104.301 88.176 C 104.909 87.721,114.981 84.227,123.134 81.643 C 136.816 77.307,163.263 75.060,178.136 76.971 C 188.540 78.307,191.398 79.054,191.398 80.437 C 191.398 83.993,194.974 87.455,198.647 87.455 C 201.543 87.455,202.151 86.946,220.033 69.534 C 228.923 60.878,251.695 41.422,252.268 41.994 C 252.431 42.157,251.995 44.952,251.299 48.206 " stroke="none" fill="#DDA0DD" fill-rule="evenodd"></path></g></svg>