<svg id="svg" version="1.1" xmlns="http://www.w3.org/2000/svg" xmlns:xlink="http://www.w3.org/1999/xlink" width="400" height="261.9124797406807" viewBox="0, 0, 400,261.9124797406807"><g id="svgg"><path id="path0" d="M185.301 12.771 C 184.115 13.733,181.530 15.994,179.558 17.795 C 172.761 24.002,170.803 25.659,163.695 31.220 C 139.691 49.999,119.974 57.135,97.731 55.093 C 84.053 53.838,71.814 50.226,71.413 47.326 C 70.867 43.383,68.028 42.940,66.221 46.515 C 62.962 52.966,62.156 65.803,63.631 87.761 C 64.215 96.457,64.198 100.763,63.554 107.618 C 62.595 117.824,62.737 117.414,60.451 116.572 C 58.792 115.961,37.354 122.534,27.799 126.583 C 21.093 129.426,22.039 134.709,29.946 138.576 C 37.022 142.036,41.377 143.922,42.292 143.922 C 42.779 143.922,43.454 144.168,43.793 144.468 C 44.131 144.768,46.451 145.617,48.947 146.356 C 51.442 147.094,55.964 148.438,58.995 149.343 C 62.026 150.248,65.332 151.186,66.341 151.429 C 69.186 152.111,68.874 154.909,64.828 164.992 C 64.214 166.522,63.080 169.573,57.477 184.765 C 52.851 197.308,49.951 204.857,45.648 215.559 C 41.502 225.869,42.422 230.253,48.522 229.263 C 50.249 228.982,63.494 221.293,64.830 219.795 C 65.008 219.595,66.904 218.268,69.044 216.847 C 71.183 215.426,73.079 214.103,73.258 213.907 C 73.992 213.102,88.707 203.649,91.095 202.449 C 106.463 194.724,118.352 199.070,132.250 217.492 C 135.515 221.820,142.626 235.194,142.626 237.008 C 142.626 238.748,146.077 241.167,148.561 241.167 C 150.764 241.167,151.328 240.718,156.023 235.218 C 179.895 207.255,189.156 199.028,196.759 199.028 C 204.414 199.028,213.192 208.312,224.031 227.872 C 231.883 242.041,234.726 243.070,241.491 234.194 C 243.274 231.855,245.170 229.467,245.705 228.887 C 246.240 228.308,247.972 226.093,249.554 223.966 C 254.459 217.370,265.026 207.293,270.179 204.297 C 284.743 195.827,294.637 196.498,331.280 208.442 C 358.301 217.249,360.202 215.666,350.371 192.545 C 334.125 154.338,334.317 145.945,351.938 124.149 C 360.450 113.621,376.780 97.929,385.202 92.185 C 393.839 86.296,392.753 82.664,381.209 78.829 C 353.870 69.747,338.908 54.271,326.394 22.131 C 323.249 14.054,323.729 14.057,303.627 21.983 C 294.412 25.616,286.288 28.839,285.575 29.145 C 277.381 32.665,256.217 39.484,245.550 42.042 C 225.767 46.787,209.831 38.602,196.839 17.025 C 192.960 10.581,189.550 9.324,185.301 12.771 M190.732 24.799 C 196.818 34.357,206.180 43.355,215.473 48.574 C 228.135 55.686,252.950 52.848,282.982 40.853 C 283.695 40.568,287.488 39.104,291.410 37.601 C 295.332 36.097,299.417 34.468,300.486 33.980 C 306.257 31.347,317.353 27.315,317.697 27.726 C 317.916 27.987,319.483 31.356,321.179 35.212 C 329.050 53.109,338.633 66.153,350.484 75.099 C 354.791 78.351,370.759 86.872,372.544 86.872 C 374.190 86.872,373.420 88.058,370.016 90.768 C 362.542 96.719,341.005 118.813,341.005 120.530 C 341.005 120.781,340.426 121.608,339.719 122.367 C 333.384 129.167,327.391 143.735,327.391 152.333 C 327.391 160.349,332.366 177.712,338.991 192.816 C 342.688 201.244,343.021 200.942,333.486 197.801 C 298.132 186.154,284.423 185.103,268.682 192.834 C 258.728 197.724,251.476 204.345,239.532 219.449 C 237.840 221.588,236.090 223.733,235.643 224.215 C 234.978 224.932,234.149 223.876,231.064 218.380 C 216.988 193.298,201.378 183.171,187.575 190.166 C 179.280 194.369,164.464 208.270,151.327 224.175 L 149.980 225.807 147.488 221.331 C 141.780 211.077,132.413 199.952,125.446 195.152 C 108.123 183.217,93.421 186.065,64.609 206.936 C 59.055 210.959,59.042 210.937,62.212 202.979 C 63.654 199.359,65.534 194.436,66.389 192.039 C 67.244 189.643,68.867 185.203,69.995 182.172 C 72.614 175.134,78.051 159.904,80.136 153.766 C 82.872 145.709,81.919 144.766,66.920 140.668 C 59.664 138.685,47.720 134.945,44.951 133.788 C 41.876 132.503,42.231 132.285,52.836 128.947 C 58.796 127.071,61.651 125.838,62.585 124.736 C 63.312 123.878,64.382 123.177,64.963 123.177 C 69.211 123.177,71.178 116.277,70.877 102.431 C 70.788 98.331,70.522 86.164,70.286 75.393 C 69.804 53.460,69.816 53.341,72.436 54.682 C 84.835 61.029,108.764 64.154,122.787 61.257 C 139.979 57.706,157.540 47.673,181.106 27.936 C 189.321 21.056,188.517 21.318,190.732 24.799 " stroke="none" fill="#90EE90" fill-rule="evenodd"></path></g></svg>