<svg id="svg" version="1.1" xmlns="http://www.w3.org/2000/svg" xmlns:xlink="http://www.w3.org/1999/xlink" width="400" height="591.727493917275" viewBox="0, 0, 400,591.727493917275"><g id="svgg"><path id="path0" d="M231.144 21.033 C 230.073 21.215,216.934 21.829,201.946 22.399 C 186.959 22.968,161.119 24.069,144.526 24.845 C 127.932 25.620,102.530 26.681,88.078 27.202 C 49.897 28.579,42.543 29.563,39.373 33.720 C 33.581 41.314,33.877 36.904,33.003 128.467 C 32.184 214.237,30.902 287.246,29.158 347.445 C 27.243 413.535,26.066 451.181,25.751 456.448 C 25.575 459.392,25.293 470.214,25.124 480.497 C 24.832 498.332,24.728 499.207,22.871 499.475 C 20.480 499.821,19.703 504.261,21.738 505.950 C 22.506 506.588,27.018 507.317,31.762 507.570 C 47.800 508.427,65.416 510.054,74.824 511.549 C 93.008 514.438,103.794 515.780,116.788 516.767 C 151.822 519.430,153.460 520.488,162.916 546.566 C 166.340 556.010,173.273 568.428,175.752 569.558 C 180.940 571.922,183.147 569.485,187.848 556.204 C 202.815 513.922,207.670 509.971,239.416 514.239 C 246.642 515.210,255.620 516.373,259.367 516.823 C 263.114 517.273,287.224 517.668,312.944 517.701 C 361.447 517.764,362.044 517.716,362.044 513.796 C 362.044 512.761,363.116 511.951,364.980 511.578 C 368.339 510.906,369.673 508.311,369.303 503.163 C 369.169 501.290,368.577 492.749,367.987 484.185 C 367.397 475.620,366.490 462.701,365.972 455.474 C 363.910 426.749,362.906 410.261,361.972 389.781 C 359.947 345.390,358.161 308.344,357.117 289.051 C 356.492 277.509,356.011 232.179,355.976 181.509 C 355.906 79.227,354.835 57.044,348.709 30.860 C 346.062 19.548,351.212 20.416,287.703 20.570 C 257.666 20.643,232.214 20.852,231.144 21.033 M334.732 34.586 C 335.287 35.141,336.400 41.710,337.205 49.184 C 338.009 56.659,338.903 64.526,339.191 66.667 C 341.368 82.873,341.986 107.587,342.172 185.888 C 342.286 233.867,342.852 280.210,343.448 290.511 C 344.038 300.681,345.180 322.798,345.987 339.659 C 347.435 369.927,347.965 380.044,350.801 431.630 C 352.010 453.609,354.798 495.599,355.519 502.676 C 355.715 504.593,355.055 504.627,312.409 504.893 C 269.049 505.164,262.819 504.855,237.470 501.183 C 208.334 496.962,197.555 502.586,185.109 528.502 C 182.419 534.103,179.725 540.547,179.122 542.822 C 177.563 548.712,176.996 548.193,172.217 536.496 C 166.279 521.963,163.924 518.086,158.750 514.328 C 151.302 508.919,148.400 508.326,113.382 505.058 C 101.228 503.923,93.465 502.966,77.859 500.676 C 72.774 499.930,61.729 498.784,53.315 498.130 C 44.486 497.444,37.882 496.507,37.697 495.916 C 37.521 495.352,37.695 485.693,38.083 474.453 C 39.527 432.655,39.904 418.882,40.827 374.209 C 41.937 320.470,42.171 151.301,41.224 86.906 C 40.696 50.975,40.814 41.636,41.812 40.434 C 42.859 39.172,46.143 38.924,62.163 38.899 C 72.669 38.882,91.776 38.450,104.623 37.939 C 117.470 37.428,138.710 36.581,151.825 36.055 C 164.939 35.530,184.866 34.823,196.107 34.486 C 207.348 34.148,216.744 33.680,216.986 33.445 C 217.984 32.480,333.749 33.602,334.732 34.586 " stroke="none " fill="#A9D0F5" fill-rule="evenodd"></path></g></svg>