<svg id="svg" version="1.1" xmlns="http://www.w3.org/2000/svg" xmlns:xlink="http://www.w3.org/1999/xlink" width="400" height="312.9203539823009" viewBox="0, 0, 400,312.9203539823009"><g id="svgg"><path id="path0" d="M177.879 13.919 C 176.939 14.299,175.205 19.750,174.538 24.425 C 174.316 25.982,173.823 29.009,173.443 31.150 C 173.064 33.292,172.595 36.721,172.402 38.769 C 172.209 40.818,171.570 44.801,170.982 47.619 C 170.394 50.437,169.912 52.782,169.912 52.830 C 169.912 52.878,162.664 53.087,153.805 53.295 C 136.598 53.698,125.090 54.635,115.398 56.421 C 112.088 57.031,108.454 57.648,107.321 57.791 C 105.394 58.035,102.418 58.828,93.805 61.394 C 91.858 61.973,89.788 62.545,89.204 62.663 C 66.720 67.211,37.210 91.896,27.201 114.525 C 26.214 116.758,25.116 119.221,24.761 120.000 C 13.533 144.636,12.417 185.746,22.367 208.142 C 25.920 216.138,33.813 229.117,35.843 230.301 C 36.377 230.612,36.814 231.233,36.814 231.681 C 36.814 234.901,60.706 255.164,73.692 262.958 C 81.480 267.632,104.181 278.938,105.778 278.938 C 106.016 278.938,107.561 279.537,109.211 280.269 C 118.059 284.192,143.769 291.664,154.690 293.487 C 155.858 293.681,159.204 294.312,162.124 294.889 C 165.044 295.465,168.708 296.061,170.265 296.214 C 171.823 296.367,176.761 296.992,181.239 297.603 C 192.086 299.085,218.023 300.401,226.095 299.879 C 229.654 299.649,236.324 299.300,240.917 299.104 C 248.552 298.777,257.047 297.864,260.808 296.965 C 261.629 296.769,264.531 296.319,267.257 295.965 C 271.349 295.434,276.447 294.411,286.726 292.061 C 289.069 291.525,304.209 286.564,306.195 285.681 C 307.363 285.162,310.230 283.933,312.566 282.951 C 329.907 275.663,348.205 262.257,356.696 250.619 C 357.690 249.257,359.221 247.345,360.098 246.372 C 361.659 244.640,372.013 224.730,373.537 220.531 C 378.790 206.059,378.831 205.927,381.156 195.752 C 386.904 170.599,386.896 140.467,381.137 122.832 C 373.189 98.495,362.911 85.019,344.296 74.527 C 337.833 70.884,327.700 66.426,323.894 65.551 C 323.504 65.462,321.434 64.867,319.292 64.229 C 302.911 59.350,278.388 57.227,255.575 58.713 C 248.761 59.157,238.407 59.675,232.566 59.864 L 221.947 60.207 216.819 54.351 C 213.998 51.131,208.948 44.354,205.595 39.292 C 191.805 18.471,184.093 11.410,177.879 13.919 M192.241 38.230 C 206.165 58.805,206.831 59.680,213.430 66.099 C 218.864 71.384,221.939 72.092,225.041 68.771 L 226.933 66.745 242.139 66.387 C 256.068 66.058,280.387 66.677,288.142 67.557 C 289.894 67.755,293.080 68.094,295.221 68.309 C 297.363 68.524,300.843 69.046,302.956 69.470 C 305.069 69.894,307.458 70.324,308.266 70.427 C 319.087 71.799,332.779 77.688,345.732 86.540 C 349.873 89.370,361.690 103.176,361.747 105.251 C 361.760 105.705,362.010 106.183,362.304 106.313 C 364.155 107.130,369.495 121.539,371.575 131.327 C 374.127 143.338,374.217 172.377,371.736 183.484 C 371.359 185.170,370.857 187.664,370.619 189.027 C 369.446 195.759,366.183 206.597,362.213 216.947 C 355.247 235.112,342.190 251.951,327.338 261.925 C 320.614 266.441,302.143 276.106,300.238 276.106 C 299.765 276.106,297.885 276.696,296.060 277.416 C 242.714 298.483,155.984 292.890,96.991 264.578 C 58.918 246.306,32.383 218.083,27.956 191.150 C 27.732 189.788,27.195 187.398,26.762 185.841 C 25.520 181.366,25.804 160.170,27.227 151.150 C 32.147 119.963,44.519 99.132,66.876 84.389 C 72.750 80.515,82.418 75.516,84.036 75.516 C 84.542 75.516,84.956 75.251,84.956 74.926 C 84.956 74.602,85.529 74.336,86.230 74.336 C 86.931 74.336,87.807 74.037,88.177 73.671 C 88.547 73.305,89.646 72.856,90.619 72.674 C 91.593 72.492,93.345 71.966,94.513 71.507 C 95.681 71.047,97.115 70.549,97.699 70.400 C 118.485 65.110,132.038 63.481,157.084 63.264 C 168.135 63.168,177.551 62.946,178.009 62.770 C 179.029 62.378,180.706 55.128,182.701 42.478 C 183.530 37.221,184.353 32.160,184.531 31.231 L 184.854 29.542 186.990 31.585 C 188.165 32.709,190.528 35.699,192.241 38.230 " stroke="none" fill="#F6ADC6" fill-rule="evenodd"></path></g></svg>