<svg id="svg" version="1.1" xmlns="http://www.w3.org/2000/svg" xmlns:xlink="http://www.w3.org/1999/xlink" width="400" height="148.2926829268293" viewBox="0, 0, 400,148.2926829268293"><g id="svgg"><path id="path0" d="M147.073 23.716 C 101.105 25.284,93.693 25.502,72.927 25.889 C 44.989 26.411,41.951 26.718,41.951 29.019 C 41.951 29.666,42.303 30.392,42.733 30.633 C 43.447 31.033,43.441 31.399,42.661 34.905 C 41.807 38.743,41.852 54.129,42.750 65.401 L 43.044 69.095 40.091 68.882 C 36.419 68.616,31.982 69.577,22.555 72.679 C -2.115 80.796,-1.763 82.199,27.073 90.717 C 27.878 90.955,32.049 92.172,36.341 93.421 C 40.634 94.671,46.284 96.498,48.896 97.481 L 53.646 99.268 53.652 113.020 C 53.657 122.863,53.818 126.870,54.220 127.119 C 55.340 127.811,89.414 127.932,129.024 127.384 C 192.351 126.508,267.183 125.169,282.439 124.639 C 286.061 124.513,308.372 124.269,332.019 124.097 C 355.666 123.924,375.270 123.624,375.585 123.430 C 376.802 122.678,377.188 116.156,376.588 106.517 C 376.267 101.382,376.129 95.126,376.281 92.615 C 376.433 90.104,376.700 80.247,376.876 70.711 C 377.212 52.498,377.002 49.514,374.585 38.049 C 373.461 32.713,373.624 31.335,375.421 30.997 C 378.298 30.458,379.578 26.947,377.562 25.123 C 376.518 24.178,372.877 24.228,360.000 25.361 C 357.183 25.608,343.902 25.824,330.488 25.840 C 307.199 25.868,300.030 25.653,257.317 23.640 C 237.821 22.722,174.962 22.765,147.073 23.716 M249.512 30.275 C 270.629 30.906,288.872 31.597,299.756 32.179 C 317.700 33.138,359.613 32.686,367.115 31.453 L 368.620 31.205 368.408 34.993 C 368.259 37.650,368.518 40.455,369.276 44.390 C 370.486 50.672,370.693 73.104,369.778 98.936 C 369.540 105.662,369.425 111.562,369.521 112.046 C 369.618 112.530,369.802 114.163,369.929 115.673 L 370.161 118.420 333.739 118.727 C 313.707 118.895,286.671 119.249,273.659 119.512 C 260.646 119.776,238.915 120.215,225.366 120.489 C 211.817 120.763,188.878 121.314,174.390 121.712 C 159.902 122.111,130.598 122.655,109.268 122.921 C 87.939 123.188,67.579 123.515,64.024 123.650 L 57.561 123.895 57.506 113.289 C 57.476 107.456,57.312 100.617,57.141 98.093 L 56.829 93.502 53.659 92.356 C 48.259 90.403,37.619 86.926,35.854 86.536 C 34.415 86.219,29.332 84.761,24.274 83.214 C 21.124 82.251,18.435 81.463,18.298 81.463 C 15.468 81.463,26.318 77.606,34.878 75.568 C 37.293 74.994,40.145 74.104,41.216 73.590 C 42.379 73.033,43.668 72.768,44.416 72.932 C 47.380 73.583,47.528 72.720,46.949 58.171 C 46.502 46.937,46.786 32.076,47.461 31.401 C 47.553 31.309,49.589 31.480,51.985 31.781 C 56.355 32.331,81.360 32.007,135.610 30.698 C 193.545 29.301,214.323 29.223,249.512 30.275 " stroke="none" fill="#DDA0DD" fill-rule="evenodd"></path></g></svg>