<svg id="svg" version="1.1" xmlns="http://www.w3.org/2000/svg" xmlns:xlink="http://www.w3.org/1999/xlink" width="400" height="219.91084695393758" viewBox="0, 0, 400,219.91084695393758"><g id="svgg"><path id="path0" d="M90.045 20.495 C 89.718 20.601,84.636 20.996,78.752 21.372 C 51.475 23.114,24.441 26.844,21.521 29.267 C 20.548 30.075,20.779 43.471,21.969 55.275 C 26.080 96.028,27.426 114.398,27.664 132.974 C 27.766 140.895,28.018 147.648,28.224 147.982 C 29.047 149.312,34.473 148.524,34.473 147.074 C 34.473 145.840,35.224 145.618,40.524 145.290 C 43.243 145.122,48.276 144.724,51.709 144.405 C 55.141 144.087,60.490 143.689,63.596 143.522 C 66.701 143.355,73.254 142.954,78.158 142.630 C 83.061 142.306,107.533 141.906,132.541 141.741 C 176.250 141.452,188.008 141.085,227.340 138.783 C 278.415 135.793,297.040 134.921,318.951 134.493 L 336.267 134.154 338.726 137.954 C 340.884 141.288,354.829 168.711,354.829 169.619 C 354.829 169.914,357.654 176.116,361.224 183.655 C 363.899 189.305,366.252 190.417,369.714 187.667 C 370.639 186.932,372.082 185.849,372.920 185.262 C 374.355 184.256,374.443 183.895,374.450 179.021 C 374.454 176.176,374.852 169.435,375.334 164.042 C 376.023 156.339,376.213 143.337,376.219 103.442 C 376.225 61.482,376.384 51.352,377.137 45.193 C 377.647 41.020,377.974 34.486,377.880 30.347 L 377.712 22.956 375.632 22.411 C 374.307 22.064,371.392 22.109,367.608 22.536 C 342.213 25.398,284.445 25.534,225.557 22.869 C 214.770 22.381,196.984 21.577,186.033 21.084 C 168.586 20.297,92.096 19.828,90.045 20.495 M171.174 28.490 C 178.529 28.844,191.233 29.406,199.406 29.740 C 207.578 30.074,221.486 30.731,230.312 31.200 C 284.068 34.056,354.207 34.310,368.982 31.702 L 370.950 31.355 370.636 35.142 C 370.464 37.226,370.013 42.407,369.635 46.657 C 369.168 51.908,368.977 71.520,369.038 107.875 C 369.121 156.768,368.755 173.478,367.558 175.415 C 367.344 175.762,366.117 173.679,364.831 170.786 C 363.546 167.894,360.736 161.917,358.587 157.504 C 347.499 134.736,346.768 133.451,342.112 128.529 L 339.723 126.003 322.165 125.991 C 303.586 125.979,278.640 127.205,236.850 130.183 C 232.273 130.509,225.601 130.906,222.023 131.064 C 218.445 131.222,212.695 131.614,209.245 131.934 C 205.795 132.255,199.361 132.660,194.948 132.836 C 190.535 133.011,181.709 133.414,175.334 133.731 C 168.960 134.048,148.098 134.315,128.975 134.324 C 109.851 134.333,89.658 134.606,84.101 134.930 C 78.544 135.254,69.450 135.773,63.893 136.083 C 52.770 136.704,46.502 137.444,39.971 138.907 C 34.546 140.122,35.020 141.170,34.761 127.397 C 34.471 111.973,33.018 92.663,30.610 72.214 C 30.148 68.291,29.349 60.669,28.834 55.275 C 27.776 44.180,26.927 36.345,26.642 35.052 C 26.500 34.409,27.083 34.140,28.826 34.043 C 30.134 33.970,34.279 33.511,38.039 33.022 C 60.706 30.074,66.483 29.552,87.964 28.506 C 95.319 28.148,102.273 27.766,103.418 27.657 C 107.693 27.249,158.302 27.872,171.174 28.490 " stroke="none" fill="#A9D0F5" fill-rule="evenodd"></path></g></svg>