<svg id="svg" xmlns="http://www.w3.org/2000/svg" xmlns:xlink="http://www.w3.org/1999/xlink" width="400" height="128.57142857142856" viewBox="0, 0, 400,128.57142857142856"><g id="svgg"><path id="path0" d="M110.000 11.306 C 35.699 13.730,45.714 9.927,45.714 35.714 C 45.714 54.540,45.082 57.143,40.509 57.143 C 32.784 57.143,8.571 65.876,8.571 68.663 C 8.571 69.989,19.441 74.614,32.727 78.941 L 56.882 86.807 57.727 101.261 L 58.571 115.714 194.286 114.574 C 268.929 113.947,342.782 112.661,358.404 111.717 L 386.807 110.000 386.975 60.714 L 387.143 11.428 344.033 11.428 C 320.323 11.429,272.109 10.940,236.890 10.342 C 201.672 9.744,144.571 10.178,110.000 11.306 M379.358 61.859 L 380.145 104.971 346.501 106.719 C 327.997 107.679,256.607 109.304,187.857 110.330 L 62.857 112.193 62.857 99.158 C 62.857 83.170,58.866 78.812,40.106 74.311 C 22.341 70.049,21.968 67.336,38.571 63.155 L 51.429 59.918 51.429 38.558 L 51.429 17.198 215.000 17.972 L 378.571 18.746 379.358 61.859 " stroke="none" fill="#000000" fill-rule="evenodd"></path></g></svg>