<?xml version="1.0" encoding="UTF-8"?>
<svg version="1.1" xmlns="http://www.w3.org/2000/svg" width="77" height="119">
<path d="M0 0 C3.74926092 10.36930283 3.07612951 21.30092484 2.9375 32.1875 C2.80092679 48.06317407 3.55860182 63.86263983 4.42857361 79.7106781 C5.27300545 95.2782607 5.27300545 95.2782607 5 101 C3 103 3 103 -0.07275391 103.22705078 C-1.36101074 103.21657715 -2.64926758 103.20610352 -3.9765625 103.1953125 C-4.66181 103.1924826 -5.3470575 103.18965271 -6.05307007 103.18673706 C-8.24389027 103.17553281 -10.43430316 103.15042859 -12.625 103.125 C-14.1093691 103.11497048 -15.5937446 103.10584458 -17.078125 103.09765625 C-20.71888261 103.07559294 -24.35940156 103.04106176 -28 103 C-29.65 106.3 -31.3 109.6 -33 113 C-33.99 113 -34.98 113 -36 113 C-37.485 108.545 -37.485 108.545 -39 104 C-39.81267334 103.91959473 -40.62534668 103.83918945 -41.46264648 103.75634766 C-45.12197429 103.38886842 -48.77967475 103.00713343 -52.4375 102.625 C-54.3565918 102.43550781 -54.3565918 102.43550781 -56.31445312 102.2421875 C-57.52939453 102.11328125 -58.74433594 101.984375 -59.99609375 101.8515625 C-61.12200928 101.73635254 -62.2479248 101.62114258 -63.40795898 101.50244141 C-64.69101929 101.25373291 -64.69101929 101.25373291 -66 101 C-67.40272462 98.19455077 -66.87618781 96.18629352 -66.59375 93.06347656 C-65.94640774 84.90348882 -65.72541492 76.76217666 -65.55444336 68.58003998 C-65.49872297 65.92349085 -65.43840699 63.26707908 -65.37695312 60.61065674 C-65.20338431 53.07016418 -65.03858477 45.52948441 -64.875 37.98876953 C-64.77404955 33.34953701 -64.66853112 28.71042585 -64.56030273 24.07135773 C-64.50071704 21.45337919 -64.44660718 18.83532234 -64.39257812 16.21722412 C-64.35576695 14.62495239 -64.31867336 13.03268715 -64.28125 11.44042969 C-64.26094727 10.34809273 -64.26094727 10.34809273 -64.24023438 9.23368835 C-64.11391002 4.22782004 -64.11391002 4.22782004 -63 2 C-60.65625 1.58935547 -60.65625 1.58935547 -57.5 1.3671875 C-55.72616943 1.24126221 -55.72616943 1.24126221 -53.91650391 1.11279297 C-52.62405762 1.03432129 -51.33161133 0.95584961 -50 0.875 C-49.34537781 0.83264221 -48.69075562 0.79028442 -48.01629639 0.74664307 C-32.01885423 -0.27733668 -16.02186384 -0.19916258 0 0 Z M-63 4 C-63 35.35 -63 66.7 -63 99 C-55.08 99.99 -47.16 100.98 -39 102 C-37.68 103.98 -36.36 105.96 -35 108 C-34.5875 107.4225 -34.175 106.845 -33.75 106.25 C-28.99885975 100.14139111 -28.99885975 100.14139111 -24.79199219 99.54589844 C-23.55610352 99.5668457 -22.32021484 99.58779297 -21.046875 99.609375 C-20.38665344 99.61503479 -19.72643188 99.62069458 -19.04620361 99.62652588 C-16.94671737 99.6488377 -14.8489663 99.69901686 -12.75 99.75 C-11.3229414 99.77007206 -9.89585592 99.78832161 -8.46875 99.8046875 C-4.97860707 99.84868307 -1.48947301 99.91767124 2 100 C2.17890463 90.21988046 1.66655095 80.50264646 1.14523315 70.74176025 C0.37008136 56.10818437 -0.23414201 41.53576079 -0.01367188 26.87890625 C0.30045877 14.77232153 0.30045877 14.77232153 -2 3 C-7.95499377 2.97492878 -13.90995555 2.95696796 -19.86499023 2.94506836 C-21.88289934 2.94009774 -23.90080495 2.93331892 -25.91870117 2.92456055 C-28.85075755 2.91217055 -31.7827656 2.90669905 -34.71484375 2.90234375 C-35.58954819 2.89718246 -36.46425262 2.89202118 -37.36546326 2.88670349 C-45.97142847 2.88596452 -54.35248803 3.49132283 -63 4 Z " fill="#000000" transform="translate(70,4)"/>
</svg>
