<svg id="svg" version="1.1" xmlns="http://www.w3.org/2000/svg" xmlns:xlink="http://www.w3.org/1999/xlink" width="400" height="497.32142857142856" viewBox="0, 0, 400,497.32142857142856"><g id="svgg"><path id="path0" d="M208.501 19.400 C 208.505 20.280,208.587 20.593,208.683 20.095 C 208.779 19.598,208.775 18.878,208.675 18.495 C 208.575 18.113,208.496 18.520,208.501 19.400 M208.520 34.400 C 208.520 35.610,208.595 36.105,208.687 35.500 C 208.778 34.895,208.778 33.905,208.687 33.300 C 208.595 32.695,208.520 33.190,208.520 34.400 M22.400 184.800 L 20.600 185.080 22.500 185.140 C 23.545 185.173,24.400 185.020,24.400 184.800 C 24.400 184.580,24.355 184.427,24.300 184.460 C 24.245 184.493,23.390 184.646,22.400 184.800 M38.352 184.912 C 38.545 185.105,39.219 185.198,39.851 185.119 C 40.909 184.987,40.881 184.959,39.500 184.768 C 38.640 184.649,38.150 184.710,38.352 184.912 M232.600 398.800 C 231.829 399.131,231.831 399.145,232.676 399.172 C 233.158 399.187,233.664 399.020,233.800 398.800 C 234.092 398.327,233.701 398.327,232.600 398.800 M160.400 402.443 C 160.400 402.718,160.014 402.790,159.384 402.632 C 157.097 402.058,152.417 405.132,150.658 408.363 C 149.103 411.222,148.925 419.911,150.442 418.974 C 150.634 418.856,150.695 419.009,150.577 419.316 C 150.013 420.786,156.589 426.074,158.208 425.452 C 158.534 425.327,158.800 425.354,158.800 425.513 C 158.800 425.671,178.150 425.800,201.800 425.800 C 225.450 425.800,244.800 425.682,244.800 425.537 C 244.800 425.393,245.188 425.376,245.663 425.500 C 246.305 425.668,246.442 425.592,246.201 425.201 C 245.989 424.859,246.033 424.773,246.324 424.953 C 248.188 426.105,254.712 418.832,253.844 416.571 C 253.724 416.257,253.799 416.000,254.013 416.000 C 254.226 416.000,254.400 415.190,254.400 414.200 C 254.400 413.210,254.237 412.400,254.037 412.400 C 253.838 412.400,253.769 412.040,253.884 411.600 C 253.999 411.160,253.898 410.800,253.659 410.800 C 253.420 410.800,253.329 410.530,253.455 410.200 C 253.582 409.870,253.486 409.600,253.243 409.600 C 252.999 409.600,252.821 409.465,252.847 409.300 C 252.980 408.457,252.676 407.865,251.361 406.410 C 249.683 404.552,247.391 403.035,246.807 403.395 C 246.583 403.534,246.400 403.437,246.400 403.181 C 246.400 402.924,246.130 402.818,245.800 402.945 C 245.470 403.071,245.200 402.986,245.200 402.756 C 245.200 402.498,244.738 402.438,244.000 402.600 C 243.245 402.766,242.800 402.703,242.800 402.432 C 242.800 402.126,230.822 402.000,201.600 402.000 C 171.714 402.000,160.400 402.122,160.400 402.443 M156.942 429.116 C 155.969 429.400,155.267 429.785,155.382 429.971 C 155.497 430.157,155.278 430.285,154.896 430.255 C 154.511 430.225,154.249 430.437,154.310 430.730 C 154.370 431.021,154.251 431.155,154.045 431.028 C 153.522 430.705,150.325 434.428,150.573 435.073 C 150.684 435.363,150.607 435.600,150.403 435.600 C 149.180 435.600,149.049 442.963,150.231 445.276 C 151.333 447.432,152.435 448.826,152.840 448.575 C 153.049 448.446,153.170 448.564,153.110 448.837 C 152.901 449.779,157.970 452.075,159.637 451.794 C 160.527 451.643,161.223 451.714,161.383 451.972 C 161.747 452.561,241.843 452.577,242.208 451.988 C 242.355 451.749,243.037 451.683,243.831 451.832 C 244.703 451.996,245.200 451.932,245.200 451.657 C 245.200 451.419,245.470 451.329,245.800 451.455 C 246.130 451.582,246.400 451.476,246.400 451.219 C 246.400 450.963,246.575 450.861,246.788 450.993 C 247.428 451.388,249.335 450.177,251.121 448.240 C 252.650 446.580,252.985 445.972,252.847 445.100 C 252.821 444.935,252.999 444.800,253.243 444.800 C 253.486 444.800,253.586 444.542,253.465 444.226 C 253.344 443.910,253.428 443.591,253.652 443.516 C 254.236 443.321,254.636 438.400,254.068 438.400 C 253.824 438.400,253.724 438.143,253.844 437.829 C 254.816 435.295,247.532 427.973,245.005 428.943 C 244.672 429.070,244.400 429.046,244.400 428.887 C 244.400 428.324,158.890 428.548,156.942 429.116 M181.026 455.243 C 181.211 455.541,181.022 455.597,180.450 455.416 C 179.927 455.250,179.600 455.319,179.600 455.597 C 179.600 455.844,179.420 455.936,179.200 455.800 C 178.980 455.664,178.800 455.773,178.800 456.043 C 178.800 456.313,178.680 456.413,178.532 456.266 C 178.142 455.875,176.773 457.233,177.071 457.715 C 177.216 457.949,177.126 458.002,176.861 457.838 C 176.278 457.477,175.524 459.337,175.879 460.262 C 176.052 460.713,175.983 460.837,175.668 460.642 C 175.340 460.439,175.200 460.844,175.200 462.000 C 175.200 463.156,175.340 463.561,175.668 463.358 C 175.981 463.165,176.053 463.285,175.886 463.721 C 175.583 464.510,176.678 468.400,177.203 468.400 C 177.408 468.400,177.485 468.634,177.376 468.920 C 176.949 470.032,183.176 478.309,184.039 477.776 C 184.207 477.672,184.475 477.798,184.634 478.055 C 184.826 478.366,184.734 478.426,184.362 478.233 C 184.053 478.073,184.340 478.409,185.000 478.980 C 186.768 480.509,189.553 482.076,190.006 481.797 C 190.223 481.662,190.400 481.715,190.400 481.912 C 190.400 482.400,192.369 483.267,192.830 482.981 C 193.033 482.856,193.200 482.963,193.200 483.219 C 193.200 483.476,193.470 483.582,193.800 483.455 C 194.130 483.329,194.400 483.419,194.400 483.656 C 194.400 483.916,194.797 483.987,195.400 483.836 C 196.025 483.679,196.400 483.754,196.400 484.037 C 196.400 484.337,196.871 484.401,197.800 484.226 C 198.675 484.062,199.200 484.121,199.200 484.382 C 199.200 484.626,200.197 484.800,201.600 484.800 C 202.920 484.800,204.000 484.631,204.000 484.425 C 204.000 484.219,204.630 484.153,205.400 484.277 C 206.246 484.415,206.800 484.341,206.800 484.090 C 206.800 483.862,207.160 483.769,207.600 483.884 C 208.040 483.999,208.400 483.898,208.400 483.659 C 208.400 483.420,208.670 483.329,209.000 483.455 C 209.330 483.582,209.600 483.506,209.600 483.287 C 209.600 483.068,209.825 482.897,210.100 482.907 C 211.470 482.958,212.027 482.768,211.762 482.338 C 211.591 482.063,211.651 481.985,211.911 482.145 C 212.405 482.450,215.254 481.211,215.000 480.801 C 214.910 480.654,215.058 480.533,215.330 480.533 C 216.177 480.533,218.007 479.134,217.735 478.694 C 217.590 478.460,217.668 478.395,217.912 478.546 C 218.480 478.897,222.497 474.880,222.146 474.312 C 221.992 474.063,222.061 473.990,222.305 474.141 C 222.830 474.466,225.692 470.017,225.418 469.303 C 225.312 469.027,225.382 468.800,225.573 468.800 C 226.004 468.800,226.864 466.428,226.593 465.988 C 226.484 465.812,226.593 465.602,226.835 465.522 C 227.648 465.251,227.568 459.973,226.724 458.284 C 225.877 456.587,223.769 455.092,222.701 455.431 C 222.316 455.554,222.000 455.462,222.000 455.227 C 222.000 454.930,215.727 454.800,201.376 454.800 C 186.399 454.800,180.828 454.921,181.026 455.243 " stroke="none" fill="#062c48" fill-rule="evenodd"></path><path id="path1" d="M196.583 4.752 C 194.470 5.712,192.965 7.549,192.210 10.092 C 191.558 12.288,191.269 36.650,191.900 36.263 C 192.065 36.162,192.212 36.663,192.227 37.375 C 192.387 44.928,204.195 46.834,207.575 39.852 C 208.703 37.521,208.898 11.567,207.807 8.956 C 206.026 4.693,200.922 2.781,196.583 4.752 M131.200 17.556 C 131.200 17.724,130.705 17.798,130.100 17.720 C 128.827 17.556,125.742 19.209,125.910 19.964 C 125.970 20.237,125.833 20.344,125.604 20.203 C 123.549 18.932,122.611 28.554,124.596 30.539 C 124.907 30.850,125.082 31.185,124.985 31.282 C 124.725 31.541,128.807 41.376,129.239 41.534 C 129.440 41.608,129.514 41.815,129.403 41.994 C 129.155 42.396,131.555 48.148,132.049 48.334 C 132.245 48.408,132.307 48.626,132.188 48.819 C 131.459 49.999,134.853 54.362,137.293 55.381 C 139.571 56.333,145.259 55.867,144.589 54.783 C 144.462 54.577,144.613 54.507,144.925 54.627 C 145.593 54.883,147.476 52.786,148.261 50.913 C 149.452 48.070,149.101 46.283,145.805 38.400 C 144.563 35.430,142.990 31.605,142.311 29.900 C 141.631 28.195,140.929 26.800,140.750 26.800 C 140.571 26.800,140.510 26.575,140.615 26.300 C 141.066 25.109,137.854 19.855,136.000 18.753 C 134.241 17.706,131.200 16.948,131.200 17.556 M266.803 18.637 C 264.105 19.807,262.905 21.512,260.443 27.676 C 259.800 29.284,257.891 33.840,256.201 37.800 C 254.505 41.774,253.099 45.654,253.064 46.459 C 253.029 47.261,252.840 47.820,252.645 47.701 C 252.143 47.395,252.742 50.321,253.481 51.786 C 254.329 53.467,255.637 54.825,256.120 54.526 C 256.352 54.383,256.400 54.476,256.233 54.747 C 255.893 55.296,257.972 56.273,259.800 56.423 C 261.994 56.602,263.653 56.409,263.403 56.005 C 263.268 55.787,263.411 55.706,263.721 55.825 C 265.341 56.447,267.735 53.517,270.102 48.019 C 271.369 45.078,272.322 42.589,272.221 42.488 C 272.121 42.387,272.310 42.033,272.642 41.701 C 272.974 41.369,273.151 40.850,273.036 40.548 C 272.920 40.247,272.971 40.000,273.148 40.000 C 273.610 40.000,274.455 38.012,274.181 37.570 C 274.056 37.367,274.115 37.200,274.312 37.200 C 274.800 37.200,275.667 35.231,275.381 34.770 C 275.256 34.567,275.315 34.400,275.514 34.400 C 276.100 34.400,278.400 28.078,278.398 26.474 C 278.395 24.371,277.651 21.921,277.117 22.252 C 276.845 22.419,276.790 22.339,276.974 22.043 C 277.367 21.406,274.485 18.682,273.727 18.973 C 273.414 19.093,273.256 19.033,273.375 18.841 C 273.962 17.890,268.888 17.733,266.803 18.637 M68.902 57.563 C 66.845 58.527,65.052 60.237,65.440 60.865 C 65.612 61.142,65.547 61.215,65.277 61.048 C 64.459 60.542,63.485 64.888,63.994 66.777 C 64.234 67.670,64.598 68.400,64.803 68.400 C 65.007 68.400,65.069 68.677,64.939 69.016 C 64.560 70.002,82.809 88.149,85.507 89.470 C 92.930 93.102,100.157 84.731,95.857 77.481 C 94.591 75.347,77.851 58.720,76.055 57.812 C 73.921 56.734,70.897 56.629,68.902 57.563 M325.977 57.179 C 323.838 57.828,322.760 58.748,314.052 67.355 C 307.327 74.003,304.869 76.697,304.156 78.200 C 300.664 85.565,307.737 92.896,315.000 89.441 C 317.504 88.249,335.480 70.377,334.983 69.573 C 334.796 69.269,334.841 69.178,335.099 69.338 C 335.692 69.704,336.400 67.453,336.400 65.200 C 336.400 62.947,335.692 60.696,335.099 61.062 C 334.867 61.206,334.787 61.145,334.922 60.927 C 336.140 58.955,329.412 56.137,325.977 57.179 M197.137 63.396 C 197.030 63.504,194.705 63.663,191.971 63.751 C 184.641 63.985,167.866 66.885,168.680 67.777 C 168.856 67.970,168.793 68.010,168.541 67.866 C 167.857 67.475,165.569 68.027,165.868 68.511 C 166.014 68.746,165.929 68.803,165.670 68.643 C 164.512 67.927,143.644 75.900,144.223 76.837 C 144.343 77.032,144.133 77.072,143.755 76.927 C 143.293 76.750,143.162 76.815,143.355 77.127 C 143.548 77.440,143.418 77.505,142.955 77.327 C 142.453 77.135,142.356 77.206,142.596 77.594 C 142.804 77.930,142.768 78.028,142.498 77.861 C 141.894 77.487,140.753 78.000,141.064 78.504 C 141.211 78.741,141.133 78.806,140.886 78.653 C 140.328 78.308,137.902 79.759,138.301 80.199 C 138.466 80.380,138.385 80.405,138.123 80.255 C 137.365 79.820,128.176 85.619,128.702 86.199 C 128.866 86.380,128.795 86.411,128.545 86.269 C 126.559 85.134,100.302 109.824,101.476 111.723 C 101.612 111.943,101.525 112.001,101.282 111.851 C 100.842 111.579,99.744 113.100,99.925 113.730 C 99.977 113.911,99.875 113.970,99.699 113.861 C 99.275 113.599,94.961 119.882,95.133 120.512 C 95.207 120.780,95.133 120.866,94.969 120.702 C 94.237 119.970,86.916 133.423,83.439 141.889 C 79.744 150.888,75.736 165.675,75.496 171.200 C 75.443 172.410,75.249 173.510,75.065 173.645 C 74.881 173.780,74.701 175.894,74.665 178.342 C 74.629 180.790,74.465 182.794,74.300 182.796 C 73.928 182.801,73.898 198.564,74.270 198.936 C 74.418 199.084,74.497 200.240,74.445 201.504 C 74.190 207.757,78.938 233.325,80.468 233.934 C 80.653 234.008,80.705 234.230,80.582 234.428 C 80.143 235.140,86.367 251.656,87.176 251.925 C 87.385 251.995,87.475 252.265,87.378 252.526 C 86.942 253.690,99.352 276.582,100.167 276.118 C 100.405 275.983,100.465 276.020,100.301 276.202 C 99.953 276.585,100.705 277.918,105.321 285.101 C 107.182 287.995,108.844 290.236,109.016 290.082 C 109.188 289.927,109.225 289.983,109.099 290.206 C 108.973 290.429,110.193 292.679,111.810 295.206 C 118.152 305.111,124.400 315.491,124.400 316.119 C 124.400 316.300,124.608 316.319,124.862 316.162 C 125.154 315.981,125.215 316.052,125.027 316.356 C 124.864 316.619,125.053 317.322,125.447 317.918 C 125.841 318.513,127.259 321.212,128.598 323.917 C 129.938 326.621,131.190 328.691,131.381 328.517 C 131.572 328.342,131.613 328.402,131.472 328.649 C 131.331 328.896,131.907 330.696,132.751 332.649 C 133.595 334.602,135.167 338.810,136.243 342.000 C 137.319 345.190,138.290 347.890,138.400 348.000 C 138.510 348.110,138.658 348.740,138.728 349.400 C 138.798 350.060,139.024 350.660,139.230 350.734 C 139.436 350.808,139.513 351.018,139.400 351.200 C 139.184 351.550,140.421 357.256,140.787 357.600 C 140.904 357.710,141.025 358.250,141.056 358.800 C 141.190 361.198,142.174 366.800,142.460 366.800 C 142.633 366.800,142.672 367.067,142.547 367.393 C 142.201 368.296,143.169 377.514,143.865 379.939 C 145.141 384.382,148.754 390.723,149.684 390.148 C 149.926 389.999,150.011 390.058,149.874 390.280 C 149.553 390.799,151.350 392.506,151.794 392.104 C 151.978 391.937,152.009 392.009,151.862 392.265 C 151.310 393.231,158.602 397.617,159.666 396.959 C 159.931 396.795,160.015 396.853,159.865 397.096 C 159.557 397.593,161.437 398.148,162.080 397.750 C 162.338 397.591,162.412 397.658,162.256 397.909 C 161.976 398.362,165.405 398.961,167.232 398.778 C 167.764 398.725,168.473 398.801,168.807 398.948 C 169.473 399.240,230.634 399.067,235.800 398.758 C 240.565 398.474,249.223 395.076,248.890 393.621 C 248.830 393.357,248.960 393.252,249.180 393.388 C 249.781 393.759,254.155 389.374,253.783 388.772 C 253.606 388.486,253.641 388.378,253.866 388.517 C 255.040 389.243,258.869 379.818,258.952 376.000 C 258.979 374.790,259.098 373.710,259.217 373.600 C 259.446 373.389,260.867 362.322,260.951 360.100 C 260.978 359.385,261.124 358.800,261.275 358.800 C 261.427 358.800,261.676 357.945,261.830 356.900 C 261.983 355.855,262.627 353.143,263.261 350.872 C 263.895 348.602,264.310 346.577,264.183 346.372 C 264.056 346.168,264.129 346.000,264.345 346.000 C 264.560 346.000,264.864 345.415,265.021 344.700 C 265.402 342.959,268.939 333.728,270.632 330.054 C 271.379 328.434,271.875 326.921,271.733 326.692 C 271.573 326.432,271.675 326.399,272.006 326.604 C 272.403 326.849,272.464 326.742,272.247 326.178 C 272.088 325.763,272.087 325.554,272.246 325.713 C 272.405 325.871,273.826 323.526,275.404 320.500 C 276.982 317.475,279.946 312.210,281.990 308.800 C 284.035 305.390,285.714 302.383,285.721 302.118 C 285.728 301.852,285.883 301.728,286.067 301.841 C 286.371 302.029,286.565 301.446,286.447 300.700 C 286.421 300.535,286.559 300.400,286.754 300.400 C 287.204 300.400,288.533 298.391,288.533 297.712 C 288.533 297.431,288.616 297.282,288.716 297.383 C 288.980 297.647,301.996 277.489,303.741 274.114 C 304.086 273.447,304.240 272.760,304.084 272.587 C 303.928 272.413,303.996 272.383,304.236 272.520 C 304.973 272.940,313.447 257.151,312.950 256.284 C 312.797 256.017,312.829 255.943,313.022 256.119 C 313.466 256.525,315.283 252.470,314.932 251.856 C 314.789 251.605,314.821 251.535,315.003 251.700 C 315.393 252.055,318.491 244.870,318.171 244.353 C 318.051 244.159,318.127 244.000,318.340 244.000 C 318.791 244.000,320.476 239.246,320.189 238.782 C 320.082 238.609,320.184 238.405,320.415 238.328 C 320.945 238.152,323.316 230.111,322.993 229.588 C 322.861 229.375,322.912 229.200,323.108 229.200 C 323.303 229.200,323.684 228.255,323.954 227.100 C 325.388 220.976,326.406 215.629,326.497 213.735 C 326.554 212.564,326.712 211.604,326.848 211.603 C 327.988 211.590,328.613 185.137,327.667 177.000 C 326.947 170.811,325.991 165.423,325.588 165.274 C 325.399 165.205,325.334 164.915,325.444 164.630 C 325.773 163.772,322.492 151.464,320.797 147.200 C 320.404 146.210,319.682 144.365,319.194 143.100 C 318.706 141.835,318.154 140.800,317.966 140.800 C 317.779 140.800,317.712 140.574,317.818 140.297 C 318.666 138.089,300.701 108.925,299.069 109.860 C 298.811 110.007,298.730 109.985,298.888 109.809 C 299.317 109.334,297.622 107.143,297.069 107.459 C 296.811 107.607,296.728 107.586,296.885 107.413 C 297.285 106.969,294.402 103.551,293.893 103.866 C 293.664 104.008,293.585 103.947,293.718 103.732 C 293.951 103.355,288.282 97.400,287.690 97.400 C 287.530 97.400,287.438 97.285,287.485 97.146 C 287.573 96.882,280.470 90.844,277.051 88.277 C 275.979 87.472,274.899 86.929,274.651 87.071 C 274.403 87.212,274.329 87.185,274.487 87.011 C 275.061 86.375,265.252 80.111,264.603 80.700 C 264.421 80.865,264.390 80.794,264.534 80.542 C 264.875 79.945,252.107 73.473,251.243 73.805 C 250.903 73.935,250.760 73.907,250.925 73.742 C 251.327 73.340,245.665 71.113,245.110 71.455 C 244.872 71.603,244.788 71.542,244.925 71.321 C 245.211 70.858,233.554 67.155,231.515 67.061 C 230.792 67.027,230.089 66.848,229.954 66.663 C 229.818 66.478,228.964 66.298,228.056 66.263 C 227.148 66.228,226.404 66.044,226.402 65.853 C 226.401 65.663,225.956 65.592,225.414 65.695 C 224.872 65.799,224.377 65.741,224.314 65.567 C 224.165 65.152,214.926 63.883,213.726 64.112 C 213.217 64.209,212.800 64.123,212.800 63.921 C 212.800 63.717,211.097 63.587,208.987 63.630 C 206.890 63.672,205.060 63.593,204.920 63.453 C 204.625 63.158,197.428 63.105,197.137 63.396 M30.800 115.250 C 26.747 116.460,24.191 120.857,25.049 125.144 C 25.185 125.827,25.453 126.291,25.644 126.173 C 25.835 126.055,25.891 126.218,25.769 126.536 C 25.000 128.542,28.235 130.451,42.129 136.190 C 52.899 140.639,54.782 141.159,57.486 140.431 C 60.088 139.730,63.351 136.416,62.614 135.222 C 62.493 135.028,62.611 134.796,62.874 134.709 C 64.775 134.075,62.491 127.340,59.777 125.574 C 57.566 124.136,51.209 121.551,50.658 121.867 C 50.406 122.010,50.341 121.974,50.512 121.785 C 50.890 121.370,44.818 118.749,44.079 119.008 C 43.793 119.109,43.645 119.051,43.750 118.881 C 44.498 117.671,33.251 114.517,30.800 115.250 M365.893 116.287 C 365.284 116.379,364.889 116.620,365.014 116.823 C 365.139 117.025,364.996 117.097,364.696 116.981 C 363.978 116.706,360.716 118.174,361.102 118.599 C 361.266 118.780,361.188 118.807,360.929 118.659 C 360.527 118.428,354.605 120.688,344.016 125.112 C 335.042 128.861,335.360 140.113,344.489 141.808 C 346.262 142.138,350.122 141.321,349.737 140.699 C 349.588 140.457,349.667 140.394,349.922 140.552 C 350.306 140.789,354.195 139.282,369.100 133.123 C 370.834 132.407,371.895 131.754,371.739 131.501 C 371.594 131.267,371.663 131.192,371.891 131.333 C 372.817 131.905,376.008 128.183,375.414 127.222 C 375.293 127.028,375.406 126.798,375.664 126.712 C 375.938 126.621,376.133 125.740,376.133 124.600 C 376.133 123.460,375.938 122.579,375.664 122.488 C 375.406 122.402,375.293 122.172,375.414 121.978 C 376.454 120.295,370.520 115.537,368.748 116.632 C 368.452 116.815,368.383 116.751,368.562 116.462 C 368.853 115.990,368.158 115.945,365.893 116.287 M24.400 184.847 C 24.400 185.164,23.416 185.213,21.033 185.014 C 16.130 184.606,13.247 186.050,11.563 189.758 C 10.791 191.458,10.526 194.800,11.163 194.800 C 11.362 194.800,11.424 195.188,11.300 195.663 C 11.146 196.249,11.221 196.434,11.532 196.242 C 11.826 196.060,11.908 196.174,11.762 196.556 C 11.330 197.679,14.824 200.653,17.164 201.155 C 23.881 202.595,48.059 201.413,47.690 199.662 C 47.630 199.375,47.738 199.238,47.932 199.358 C 49.008 200.023,51.200 195.798,51.200 193.059 C 51.200 187.992,47.053 184.523,41.528 184.967 C 39.606 185.122,38.362 185.062,38.204 184.807 C 37.840 184.217,24.400 184.257,24.400 184.847 M359.600 184.751 C 359.600 184.944,358.794 185.011,357.808 184.900 C 354.298 184.504,348.839 188.639,349.747 191.005 C 349.872 191.332,349.775 191.600,349.531 191.600 C 349.231 191.600,349.164 192.336,349.323 193.878 C 349.567 196.237,351.388 199.509,352.343 199.300 C 352.594 199.245,352.755 199.421,352.700 199.691 C 352.354 201.391,376.597 202.579,383.111 201.182 C 392.414 199.187,391.174 185.218,381.670 184.937 C 380.499 184.902,379.434 184.767,379.304 184.637 C 378.921 184.254,359.600 184.366,359.600 184.751 M47.936 246.309 C 45.371 247.345,43.344 248.309,43.432 248.451 C 43.520 248.593,43.368 248.702,43.096 248.692 C 41.727 248.643,41.173 248.833,41.438 249.262 C 41.604 249.530,41.549 249.616,41.308 249.467 C 41.079 249.325,38.247 250.289,35.015 251.607 C 27.934 254.496,27.502 254.718,27.851 255.282 C 28.001 255.526,27.943 255.612,27.720 255.474 C 26.601 254.782,24.400 258.927,24.400 261.727 C 24.400 263.871,25.121 266.096,25.701 265.738 C 25.952 265.582,26.005 265.668,25.832 265.948 C 24.948 267.378,29.626 270.010,33.000 269.982 C 34.880 269.967,41.388 267.535,40.920 267.023 C 40.743 266.829,40.816 266.796,41.084 266.950 C 41.627 267.261,57.514 260.825,59.436 259.515 C 61.546 258.076,62.607 256.136,62.547 253.828 C 62.509 252.354,62.590 252.019,62.846 252.600 C 63.091 253.156,63.123 252.974,62.950 252.000 C 62.814 251.230,62.555 250.543,62.374 250.474 C 62.193 250.405,62.125 250.135,62.223 249.874 C 62.464 249.235,60.883 246.701,60.421 246.987 C 60.220 247.111,59.925 247.002,59.766 246.745 C 59.573 246.433,59.651 246.384,60.000 246.600 C 60.362 246.824,60.428 246.768,60.212 246.420 C 58.672 243.928,53.937 243.885,47.936 246.309 M341.772 246.335 C 336.589 248.759,335.396 255.780,339.492 259.758 C 340.316 260.558,341.226 261.122,341.516 261.011 C 341.839 260.887,341.931 260.988,341.755 261.273 C 341.557 261.593,341.701 261.647,342.222 261.447 C 342.637 261.288,342.843 261.290,342.682 261.451 C 342.268 261.866,349.521 264.891,350.114 264.551 C 350.381 264.397,350.465 264.421,350.300 264.603 C 349.500 265.484,364.083 270.991,367.229 270.996 C 371.530 271.002,376.021 267.517,375.032 264.940 C 374.908 264.615,374.984 264.466,375.205 264.603 C 375.443 264.750,375.600 264.115,375.600 263.000 C 375.600 261.885,375.443 261.250,375.205 261.397 C 374.984 261.534,374.908 261.385,375.032 261.060 C 376.094 258.292,373.021 256.224,359.370 250.515 C 346.910 245.305,344.963 244.843,341.772 246.335 M85.400 296.763 C 83.127 297.822,65.708 315.243,64.781 317.385 C 63.917 319.379,63.344 322.094,63.975 321.200 C 64.299 320.741,64.347 320.883,64.180 321.800 C 63.293 326.653,70.891 331.009,75.835 328.483 C 79.451 326.634,97.192 308.000,96.659 306.610 C 96.530 306.274,96.624 306.000,96.868 306.000 C 97.495 306.000,97.011 301.152,96.330 300.615 C 96.039 300.385,95.740 299.928,95.667 299.600 C 95.460 298.670,94.752 297.982,94.293 298.266 C 94.049 298.417,93.996 298.330,94.166 298.055 C 95.142 296.476,88.208 295.455,85.400 296.763 M307.590 296.900 C 303.926 298.753,302.240 303.372,303.768 307.373 C 304.731 309.893,322.517 327.673,325.039 328.636 C 329.289 330.259,333.561 328.633,335.567 324.629 C 336.602 322.563,336.896 319.165,336.064 318.888 C 335.806 318.802,335.693 318.572,335.814 318.378 C 336.497 317.272,318.039 298.141,314.909 296.710 C 312.760 295.728,309.753 295.806,307.590 296.900 M180.700 425.900 C 192.195 425.959,211.005 425.959,222.500 425.900 C 233.995 425.841,224.590 425.793,201.600 425.793 C 178.610 425.793,169.205 425.841,180.700 425.900 M181.331 428.700 C 192.732 428.759,211.272 428.759,222.531 428.700 C 233.789 428.641,224.460 428.593,201.800 428.593 C 179.140 428.593,169.929 428.641,181.331 428.700 " stroke="none" fill="#fbcc04" fill-rule="evenodd"></path></g></svg>