<svg id="svg" xmlns="http://www.w3.org/2000/svg" xmlns:xlink="http://www.w3.org/1999/xlink" width="400" height="442.10526315789474" viewBox="0, 0, 400,442.10526315789474"><g id="svgg"><path id="path0" d="M192.481 3.648 C 70.425 18.715,11.032 81.622,16.853 189.667 C 23.090 305.426,68.554 378.796,136.341 382.497 C 155.954 383.568,155.902 383.536,180.451 409.757 C 197.226 427.675,205.607 423.708,201.008 400.028 C 197.883 383.939,200.186 381.953,238.313 367.852 C 327.938 334.705,363.620 280.256,361.655 179.640 C 359.729 81.060,321.637 21.332,250.871 5.933 C 241.350 3.861,202.932 2.357,192.481 3.648 M240.283 18.597 C 321.258 30.620,364.562 112.841,346.386 220.050 C 333.710 294.815,307.256 325.797,229.073 357.445 C 194.057 371.618,188.892 375.271,186.978 387.218 C 186.646 389.286,186.207 390.977,186.001 390.977 C 184.160 390.977,181.475 388.533,174.997 380.958 C 164.077 368.191,162.228 367.445,143.487 368.261 C 132.617 368.734,127.109 368.535,122.201 367.490 C 45.613 351.186,-2.786 176.112,46.798 94.737 C 78.487 42.731,167.340 7.765,240.283 18.597 " stroke="none" fill="#000000" fill-rule="evenodd"></path></g></svg>