<svg id="svg" xmlns="http://www.w3.org/2000/svg" xmlns:xlink="http://www.w3.org/1999/xlink" width="400" height="185.98130841121497" viewBox="0, 0, 400,185.98130841121497"><g id="svgg"><path id="path0" d="M61.215 9.404 C 37.372 10.458,10.166 14.272,6.776 17.034 C 5.065 18.428,5.296 30.770,7.519 56.685 C 8.571 68.943,9.813 93.061,10.279 110.280 C 10.745 127.500,11.146 141.637,11.170 141.695 C 11.195 141.753,16.998 141.644,24.065 141.451 C 31.133 141.259,55.631 140.676,78.505 140.156 C 120.357 139.205,162.802 137.634,216.355 135.054 C 257.020 133.095,300.587 131.781,324.962 131.778 L 345.719 131.776 356.007 152.120 C 369.404 178.612,374.057 185.514,378.517 185.514 C 381.749 185.514,381.785 185.469,382.868 179.980 C 384.962 169.370,387.845 79.175,387.849 24.130 L 387.850 10.410 331.075 10.915 C 293.283 11.250,249.743 10.916,200.860 9.915 C 124.343 8.348,88.077 8.215,61.215 9.404 M229.439 19.583 C 248.458 20.058,290.470 20.472,322.799 20.504 L 381.580 20.561 380.964 87.150 C 380.368 151.604,379.845 170.107,378.621 170.081 C 377.554 170.059,369.387 156.704,362.922 144.410 C 355.265 129.850,351.661 125.845,344.912 124.398 C 335.071 122.287,303.747 122.935,192.056 127.560 C 95.571 131.555,22.515 134.042,21.828 133.355 C 20.745 132.272,13.102 38.377,13.086 25.959 C 13.076 18.148,85.914 16.002,229.439 19.583 " stroke="none" fill="#000000" fill-rule="evenodd"></path></g></svg>