<svg id="svg" version="1.1" xmlns="http://www.w3.org/2000/svg" xmlns:xlink="http://www.w3.org/1999/xlink" width="400" height="482.4" viewBox="0, 0, 400,482.4"><g id="svgg"><path id="path0" d="M158.200 34.261 C 156.440 34.316,148.430 34.558,140.400 34.800 C 132.370 35.041,124.990 35.402,124.000 35.601 C 123.010 35.801,116.080 36.257,108.600 36.616 C 101.120 36.975,93.110 37.427,90.800 37.621 C 88.490 37.815,81.380 38.340,75.000 38.788 C 58.840 39.923,35.874 42.172,30.200 43.175 C 28.880 43.409,25.910 43.878,23.600 44.219 C 19.220 44.866,18.619 45.191,18.119 47.179 C 17.962 47.807,18.164 48.668,18.683 49.579 C 19.470 50.959,19.487 51.479,19.298 67.600 C 19.027 90.691,20.059 145.842,21.214 170.000 C 21.409 174.070,21.936 185.590,22.385 195.600 C 23.163 212.926,23.937 228.509,24.829 244.800 C 25.052 248.870,25.685 262.280,26.235 274.600 C 26.786 286.920,27.393 300.420,27.585 304.600 C 28.839 331.970,29.755 385.458,29.388 409.891 L 29.110 428.382 29.995 429.882 C 30.866 431.357,30.878 431.586,30.740 443.525 L 30.600 455.668 31.722 456.634 C 33.071 457.795,33.973 457.850,35.246 456.850 C 35.870 456.360,37.446 455.942,39.800 455.642 C 41.780 455.390,44.030 454.931,44.800 454.623 C 54.242 450.840,68.258 449.304,89.343 449.739 C 106.148 450.086,127.792 451.124,130.400 451.708 C 133.501 452.402,173.594 452.409,175.600 451.716 C 177.748 450.974,197.774 450.442,241.800 449.956 C 277.360 449.564,290.424 449.248,296.600 448.629 C 306.468 447.639,320.778 447.139,321.653 447.752 C 323.042 448.725,324.949 448.576,326.058 447.407 C 326.576 446.861,327.243 446.411,327.540 446.407 C 328.708 446.392,330.865 445.034,331.418 443.966 C 332.721 441.446,331.726 437.200,329.833 437.200 C 328.413 437.200,328.303 436.257,328.755 427.908 C 329.896 406.862,330.090 393.393,330.144 331.820 L 330.200 267.439 331.615 266.694 C 333.254 265.831,335.049 263.297,336.640 259.600 C 343.359 243.988,364.790 215.696,377.754 205.325 C 384.678 199.787,385.597 197.885,382.618 195.269 C 380.981 193.832,373.205 191.219,366.981 190.015 C 364.770 189.587,362.684 189.130,362.345 189.000 C 361.641 188.730,349.255 186.835,338.600 185.367 C 333.073 184.605,330.052 184.400,325.600 184.485 C 322.410 184.545,319.598 184.465,319.352 184.306 C 319.033 184.100,318.959 181.173,319.096 174.109 C 319.202 168.659,319.096 157.900,318.863 150.200 C 318.629 142.500,318.151 126.300,317.801 114.200 C 317.452 102.100,316.996 91.300,316.790 90.200 C 316.583 89.100,316.226 80.910,315.996 72.000 C 315.766 63.090,315.391 52.698,315.163 48.907 L 314.749 42.014 315.743 40.707 C 317.611 38.252,317.238 34.725,315.052 34.178 C 314.256 33.979,306.532 34.846,296.800 36.226 C 286.083 37.746,257.874 37.353,224.600 35.219 C 209.264 34.235,174.901 33.740,158.200 34.261 M212.800 42.344 C 213.790 42.578,225.310 43.237,238.400 43.810 C 251.490 44.382,262.830 45.028,263.600 45.246 C 265.386 45.750,289.131 45.479,294.663 44.890 C 296.898 44.653,300.740 44.162,303.199 43.800 C 305.659 43.438,307.896 43.228,308.171 43.333 C 308.547 43.478,308.737 46.607,308.943 56.003 C 309.093 62.866,309.371 68.778,309.561 69.140 C 310.029 70.035,311.123 117.112,311.575 155.846 C 311.981 190.619,311.913 189.770,314.365 190.785 C 315.455 191.237,315.841 191.213,317.174 190.612 C 318.528 190.001,319.131 189.969,322.059 190.353 C 323.897 190.593,328.640 191.157,332.600 191.606 C 343.564 192.849,351.846 194.456,364.600 197.813 C 367.680 198.624,370.965 199.489,371.900 199.735 C 374.309 200.369,374.055 201.028,370.329 203.800 C 367.461 205.934,359.259 213.830,356.299 217.307 C 353.737 220.315,347.438 228.367,346.055 230.400 C 342.030 236.319,338.048 242.322,337.433 243.400 C 336.070 245.790,333.748 249.702,331.216 253.876 C 328.641 258.119,327.238 261.363,327.213 263.129 C 327.206 263.640,326.771 264.810,326.246 265.729 C 323.899 269.838,323.004 299.206,323.906 342.503 C 324.707 380.965,322.658 435.805,320.366 437.221 C 319.736 437.611,317.913 437.847,311.000 438.435 C 293.777 439.902,279.914 440.323,232.800 440.811 C 211.130 441.036,192.860 441.379,192.200 441.575 C 191.540 441.770,187.760 442.029,183.800 442.149 C 179.840 442.270,172.820 442.579,168.200 442.836 C 158.390 443.382,137.018 443.069,121.800 442.157 C 116.300 441.828,109.280 441.408,106.200 441.224 C 98.963 440.792,73.664 440.778,69.000 441.203 C 55.271 442.455,48.810 443.580,42.081 445.892 C 40.475 446.444,39.083 446.817,38.988 446.721 C 38.892 446.625,38.765 438.909,38.707 429.573 C 38.627 416.893,38.474 412.379,38.100 411.726 C 37.722 411.065,37.590 406.389,37.557 392.526 C 37.519 376.191,37.156 359.446,36.600 348.400 C 36.494 346.310,36.120 335.690,35.768 324.800 C 35.416 313.910,34.878 299.870,34.573 293.600 C 33.427 270.084,32.414 250.388,32.022 244.000 C 30.826 224.522,28.652 183.819,27.579 160.800 C 26.907 146.390,26.191 133.700,25.987 132.600 C 25.464 129.775,23.618 72.191,23.606 58.344 L 23.600 51.288 25.100 51.035 C 25.925 50.896,29.390 50.590,32.800 50.355 C 40.767 49.806,60.282 48.154,65.200 47.612 C 68.486 47.249,83.982 45.908,97.600 44.807 C 103.191 44.355,138.042 42.614,153.400 42.020 C 164.980 41.572,210.586 41.820,212.800 42.344 " stroke="none" fill="#050505" fill-rule="evenodd"></path><path id="path1" d="M0.000 241.200 L 0.000 482.400 200.000 482.400 L 400.000 482.400 400.000 241.200 L 400.000 0.000 200.000 0.000 L 0.000 0.000 0.000 241.200 M216.000 34.009 C 257.246 36.627,285.210 37.038,298.600 35.224 C 316.468 32.802,314.937 32.876,316.431 34.369 C 318.052 35.990,318.104 38.940,316.545 40.793 C 315.553 41.971,315.505 42.216,315.750 44.852 C 316.010 47.651,316.965 74.958,317.399 92.000 C 317.525 96.950,317.792 101.900,317.993 103.000 C 318.575 106.189,319.783 149.437,319.792 167.428 L 319.800 183.855 325.000 183.681 C 330.021 183.513,338.446 184.234,342.800 185.205 C 343.790 185.425,348.290 186.138,352.800 186.789 C 364.874 188.530,374.188 190.676,380.854 193.252 C 385.648 195.104,386.071 199.812,381.735 203.054 C 377.543 206.188,374.184 209.163,369.977 213.469 C 364.107 219.476,363.343 220.371,357.232 228.400 C 355.473 230.710,353.678 233.065,353.242 233.634 C 349.268 238.814,340.664 252.734,338.181 258.000 C 337.403 259.650,336.369 261.782,335.883 262.738 C 334.862 264.749,332.258 267.600,331.444 267.600 C 330.970 267.600,330.901 274.949,330.983 316.700 C 331.106 379.435,330.698 408.308,329.356 431.700 C 329.109 436.003,329.145 436.400,329.783 436.400 C 333.711 436.400,333.761 444.594,329.843 446.206 C 328.121 446.914,327.753 447.114,325.800 448.404 C 324.344 449.366,322.890 449.419,321.657 448.555 C 320.808 447.961,319.872 447.963,309.868 448.582 C 283.946 450.188,269.440 450.683,246.200 450.758 C 220.031 450.842,187.122 451.559,177.000 452.265 C 165.809 453.047,142.221 453.414,139.400 452.850 C 138.300 452.631,131.190 452.167,123.600 451.820 C 72.297 449.473,62.439 449.878,46.000 455.011 C 44.350 455.526,41.470 456.162,39.600 456.423 C 37.730 456.684,35.930 457.132,35.600 457.418 C 34.188 458.641,32.939 458.538,31.333 457.066 L 29.800 455.661 29.935 443.512 C 30.066 431.693,30.046 431.324,29.214 429.913 C 28.385 428.508,28.365 428.169,28.596 419.131 C 29.135 398.082,28.798 366.968,27.601 327.200 C 27.016 307.781,26.219 289.408,23.981 243.800 C 22.381 211.183,21.515 192.449,20.016 158.000 C 19.181 138.794,18.712 114.512,18.583 83.650 C 18.458 54.106,18.376 50.558,17.787 49.317 C 16.095 45.751,17.888 44.274,25.200 43.210 C 28.390 42.746,32.080 42.193,33.400 41.981 C 35.567 41.634,49.133 40.202,60.000 39.173 C 64.603 38.737,80.735 37.572,98.200 36.415 C 104.360 36.007,114.440 35.469,120.600 35.221 C 126.760 34.972,132.700 34.593,133.800 34.379 C 139.162 33.334,200.978 33.056,216.000 34.009 M148.200 42.832 C 140.940 43.030,134.349 43.374,133.554 43.596 C 132.758 43.818,130.778 44.000,129.154 43.999 C 122.097 43.996,93.671 45.715,83.400 46.766 C 81.420 46.968,74.940 47.515,69.000 47.980 C 63.060 48.446,57.570 48.987,56.800 49.183 C 56.030 49.379,49.550 49.916,42.400 50.377 C 35.250 50.837,28.230 51.346,26.800 51.507 L 24.200 51.800 24.262 60.800 C 24.296 65.750,24.510 74.840,24.737 81.000 C 24.964 87.160,25.446 100.480,25.807 110.600 C 26.168 120.720,26.621 131.880,26.814 135.400 C 27.007 138.920,27.618 150.890,28.171 162.000 C 28.724 173.110,29.362 185.080,29.588 188.600 C 29.962 194.427,31.509 221.432,33.015 248.400 C 34.883 281.860,36.546 320.583,37.173 345.200 C 37.422 354.990,37.719 364.800,37.833 367.000 C 37.947 369.200,38.185 380.180,38.362 391.400 C 38.542 402.774,38.875 412.773,39.113 414.000 C 39.367 415.302,39.554 422.271,39.571 431.078 L 39.600 445.957 41.900 445.162 C 48.024 443.047,53.620 442.052,66.800 440.735 C 72.945 440.120,100.003 439.831,102.600 440.352 C 109.776 441.792,155.016 442.730,172.800 441.808 C 190.834 440.873,206.677 440.462,241.400 440.028 C 278.872 439.559,308.464 438.555,312.600 437.611 C 313.480 437.411,315.447 437.150,316.972 437.031 C 318.496 436.913,319.873 436.678,320.031 436.508 C 320.462 436.047,321.559 424.263,321.828 417.200 C 321.958 413.790,322.231 410.550,322.434 410.000 C 323.140 408.094,323.524 362.869,323.091 332.800 C 322.525 293.564,323.331 270.217,325.404 265.800 C 325.920 264.700,326.465 263.080,326.615 262.200 C 326.914 260.441,329.001 255.796,330.479 253.600 C 330.997 252.830,332.975 249.590,334.874 246.400 C 339.967 237.846,345.422 229.849,350.699 223.200 C 351.660 221.990,352.841 220.500,353.323 219.890 C 355.882 216.649,357.048 215.370,362.000 210.368 C 364.970 207.368,368.120 204.451,369.000 203.886 C 369.880 203.320,371.122 202.426,371.760 201.898 L 372.921 200.939 370.160 200.069 C 366.995 199.070,361.287 197.637,353.800 195.961 C 344.455 193.869,343.078 193.620,336.400 192.823 C 332.770 192.390,327.376 191.735,324.414 191.368 C 320.259 190.854,318.745 190.804,317.786 191.151 C 315.800 191.869,314.154 191.694,312.922 190.635 C 311.449 189.369,311.316 186.891,310.814 151.400 C 310.294 114.606,309.180 69.938,308.764 69.145 C 308.574 68.784,308.296 62.959,308.145 56.201 L 307.870 43.912 306.235 44.148 C 305.336 44.278,302.440 44.703,299.800 45.092 C 289.266 46.646,256.811 45.909,216.200 43.194 C 208.290 42.665,163.109 42.424,148.200 42.832 " stroke="none" fill="#fbfbfb" fill-rule="evenodd"></path><path id="path2" d="M126.915 35.096 C 128.188 35.176,130.168 35.175,131.315 35.094 C 132.462 35.014,131.420 34.949,129.000 34.950 C 126.580 34.951,125.642 35.016,126.915 35.096 M224.313 35.095 C 225.476 35.176,227.276 35.176,228.313 35.093 C 229.351 35.011,228.400 34.945,226.200 34.946 C 224.000 34.947,223.151 35.014,224.313 35.095 M52.705 40.283 C 53.202 40.379,53.922 40.375,54.305 40.275 C 54.687 40.175,54.280 40.096,53.400 40.101 C 52.520 40.105,52.207 40.187,52.705 40.283 M136.517 43.097 C 138.011 43.174,140.351 43.174,141.717 43.096 C 143.082 43.018,141.860 42.955,139.000 42.955 C 136.140 42.956,135.022 43.020,136.517 43.097 M216.711 43.093 C 217.651 43.178,219.091 43.177,219.911 43.091 C 220.730 43.005,219.960 42.936,218.200 42.937 C 216.440 42.939,215.770 43.009,216.711 43.093 M88.700 45.889 C 89.415 45.978,90.585 45.978,91.300 45.889 C 92.015 45.801,91.430 45.728,90.000 45.728 C 88.570 45.728,87.985 45.801,88.700 45.889 M270.925 45.899 C 274.624 45.966,280.564 45.965,284.125 45.899 C 287.686 45.833,284.660 45.779,277.400 45.779 C 270.140 45.779,267.226 45.833,270.925 45.899 M58.105 48.687 C 58.714 48.779,59.614 48.777,60.105 48.682 C 60.597 48.587,60.100 48.511,59.000 48.514 C 57.900 48.517,57.497 48.595,58.105 48.687 M23.771 60.800 C 23.771 65.750,23.828 67.775,23.899 65.300 C 23.969 62.825,23.969 58.775,23.899 56.300 C 23.828 53.825,23.771 55.850,23.771 60.800 M317.359 96.800 C 317.359 99.990,317.421 101.295,317.497 99.700 C 317.573 98.105,317.573 95.495,317.497 93.900 C 317.421 92.305,317.359 93.610,317.359 96.800 M26.550 137.400 C 26.551 139.820,26.616 140.758,26.696 139.485 C 26.776 138.212,26.775 136.232,26.694 135.085 C 26.614 133.938,26.549 134.980,26.550 137.400 M20.954 172.000 C 20.954 174.750,21.018 175.875,21.096 174.500 C 21.174 173.125,21.174 170.875,21.096 169.500 C 21.018 168.125,20.954 169.250,20.954 172.000 M311.750 183.400 C 311.751 185.820,311.816 186.758,311.896 185.485 C 311.976 184.212,311.975 182.232,311.894 181.085 C 311.814 179.938,311.749 180.980,311.750 183.400 M29.342 191.000 C 29.341 192.980,29.408 193.840,29.492 192.912 C 29.576 191.984,29.577 190.364,29.495 189.312 C 29.412 188.260,29.343 189.020,29.342 191.000 M326.900 191.476 C 327.285 191.576,327.915 191.576,328.300 191.476 C 328.685 191.375,328.370 191.293,327.600 191.293 C 326.830 191.293,326.515 191.375,326.900 191.476 M23.748 232.400 C 23.748 234.710,23.814 235.655,23.895 234.500 C 23.976 233.345,23.976 231.455,23.895 230.300 C 23.814 229.145,23.748 230.090,23.748 232.400 M34.550 287.000 C 34.551 289.420,34.616 290.358,34.696 289.085 C 34.776 287.812,34.775 285.832,34.694 284.685 C 34.614 283.538,34.549 284.580,34.550 287.000 M26.553 291.400 C 26.553 294.040,26.618 295.068,26.697 293.684 C 26.775 292.301,26.774 290.141,26.695 288.884 C 26.616 287.628,26.552 288.760,26.553 291.400 M322.981 310.200 C 322.980 318.120,323.034 321.417,323.099 317.526 C 323.165 313.635,323.165 307.155,323.100 303.126 C 323.034 299.097,322.981 302.280,322.981 310.200 M37.371 361.600 C 37.371 366.550,37.428 368.575,37.499 366.100 C 37.569 363.625,37.569 359.575,37.499 357.100 C 37.428 354.625,37.371 356.650,37.371 361.600 M29.381 395.000 C 29.381 403.140,29.434 406.413,29.500 402.274 C 29.565 398.134,29.565 391.474,29.499 387.474 C 29.434 383.473,29.381 386.860,29.381 395.000 M322.960 403.800 C 322.961 407.100,323.022 408.397,323.098 406.682 C 323.173 404.967,323.172 402.267,323.097 400.682 C 323.021 399.097,322.959 400.500,322.960 403.800 M308.707 438.290 C 309.426 438.379,310.506 438.377,311.107 438.286 C 311.708 438.195,311.120 438.122,309.800 438.124 C 308.480 438.126,307.988 438.201,308.707 438.290 M67.107 441.090 C 67.826 441.179,68.906 441.177,69.507 441.086 C 70.108 440.995,69.520 440.922,68.200 440.924 C 66.880 440.926,66.388 441.001,67.107 441.090 M105.100 441.095 C 106.255 441.176,108.145 441.176,109.300 441.095 C 110.455 441.014,109.510 440.948,107.200 440.948 C 104.890 440.948,103.945 441.014,105.100 441.095 M197.523 441.099 C 200.231 441.168,204.551 441.168,207.123 441.099 C 209.695 441.029,207.480 440.972,202.200 440.973 C 196.920 440.973,194.815 441.030,197.523 441.099 M286.700 449.496 C 288.075 449.574,290.325 449.574,291.700 449.496 C 293.075 449.418,291.950 449.354,289.200 449.354 C 286.450 449.354,285.325 449.418,286.700 449.496 M133.113 452.295 C 134.276 452.376,136.076 452.376,137.113 452.293 C 138.151 452.211,137.200 452.145,135.000 452.146 C 132.800 452.147,131.951 452.214,133.113 452.295 M170.300 452.293 C 171.235 452.377,172.765 452.377,173.700 452.293 C 174.635 452.209,173.870 452.140,172.000 452.140 C 170.130 452.140,169.365 452.209,170.300 452.293 " stroke="none" fill="#7c7c7c" fill-rule="evenodd"></path><path id="path3" d="M153.600 33.587 C 149.310 33.704,160.650 33.800,178.800 33.800 C 196.950 33.800,208.470 33.688,204.400 33.551 C 195.716 33.259,164.807 33.281,153.600 33.587 M310.600 33.600 C 308.680 33.863,308.664 33.876,310.200 33.908 C 311.080 33.926,312.610 33.797,313.600 33.620 C 315.970 33.199,313.641 33.183,310.600 33.600 M316.279 34.389 C 316.542 34.734,316.936 35.463,317.154 36.008 C 317.417 36.668,317.558 36.773,317.575 36.322 C 317.589 35.950,317.195 35.221,316.700 34.703 C 316.205 34.185,316.016 34.043,316.279 34.389 M133.913 34.328 C 133.536 34.478,135.606 34.549,138.513 34.487 C 145.964 34.328,146.818 34.126,140.200 34.088 C 137.120 34.071,134.291 34.179,133.913 34.328 M214.316 34.297 C 215.699 34.375,217.859 34.374,219.116 34.295 C 220.372 34.216,219.240 34.152,216.600 34.153 C 213.960 34.153,212.932 34.218,214.316 34.297 M304.600 34.396 C 304.102 34.608,304.631 34.651,306.000 34.512 C 307.210 34.389,308.275 34.223,308.367 34.144 C 308.711 33.847,305.367 34.070,304.600 34.396 M296.800 35.458 C 289.387 36.422,264.877 36.598,247.907 35.809 C 239.708 35.428,232.550 35.184,232.000 35.267 C 231.450 35.350,238.380 35.754,247.400 36.164 C 270.730 37.225,300.312 36.622,301.881 35.053 C 302.177 34.756,302.223 34.753,296.800 35.458 M107.800 35.797 C 103.620 36.056,101.460 36.283,103.000 36.301 C 104.540 36.319,109.850 36.103,114.800 35.822 C 120.664 35.488,122.336 35.313,119.600 35.318 C 117.290 35.323,111.980 35.539,107.800 35.797 M95.100 36.693 C 96.035 36.777,97.565 36.777,98.500 36.693 C 99.435 36.609,98.670 36.540,96.800 36.540 C 94.930 36.540,94.165 36.609,95.100 36.693 M88.711 37.093 C 89.651 37.178,91.091 37.177,91.911 37.091 C 92.730 37.005,91.960 36.936,90.200 36.937 C 88.440 36.939,87.770 37.009,88.711 37.093 M82.800 37.600 L 79.400 37.851 82.600 37.919 C 84.360 37.957,86.070 37.813,86.400 37.600 C 86.730 37.387,86.820 37.243,86.600 37.281 C 86.380 37.318,84.670 37.462,82.800 37.600 M67.200 38.556 C 64.010 38.792,62.030 39.035,62.800 39.095 C 63.570 39.154,67.620 38.956,71.800 38.653 C 75.980 38.350,77.960 38.108,76.200 38.114 C 74.440 38.121,70.390 38.319,67.200 38.556 M317.200 38.969 C 317.200 39.282,316.745 40.079,316.189 40.740 L 315.177 41.942 315.564 47.271 L 315.951 52.600 315.772 47.262 C 315.596 42.024,315.612 41.901,316.596 40.731 C 317.495 39.664,317.930 38.400,317.400 38.400 C 317.290 38.400,317.200 38.656,317.200 38.969 M55.696 39.532 C 55.420 39.708,56.320 39.785,57.696 39.703 C 61.325 39.487,61.786 39.299,58.800 39.253 C 57.370 39.230,55.973 39.356,55.696 39.532 M47.300 40.687 C 47.905 40.778,48.895 40.778,49.500 40.687 C 50.105 40.595,49.610 40.520,48.400 40.520 C 47.190 40.520,46.695 40.595,47.300 40.687 M38.200 41.395 C 36.000 41.663,34.830 41.896,35.600 41.914 C 36.370 41.932,39.070 41.712,41.600 41.425 C 44.130 41.138,45.300 40.904,44.200 40.906 C 43.100 40.908,40.400 41.128,38.200 41.395 M30.821 42.379 C 30.446 42.616,30.870 42.665,32.021 42.518 C 32.999 42.392,33.875 42.225,33.967 42.145 C 34.342 41.819,31.355 42.040,30.821 42.379 M153.400 42.359 C 149.000 42.491,159.350 42.600,176.400 42.600 C 193.450 42.600,209.200 42.718,211.400 42.862 C 214.247 43.049,214.823 43.022,213.400 42.769 C 210.977 42.338,164.599 42.021,153.400 42.359 M25.800 43.200 L 24.200 43.486 25.600 43.515 C 26.370 43.531,27.360 43.389,27.800 43.200 C 28.743 42.795,28.062 42.795,25.800 43.200 M221.857 43.652 C 222.266 43.812,224.400 43.932,226.600 43.917 C 231.313 43.886,230.606 43.695,225.057 43.499 C 222.888 43.422,221.448 43.491,221.857 43.652 M22.100 43.876 C 22.485 43.976,23.115 43.976,23.500 43.876 C 23.885 43.775,23.570 43.693,22.800 43.693 C 22.030 43.693,21.715 43.775,22.100 43.876 M119.000 44.015 C 116.800 44.156,118.960 44.189,123.800 44.087 C 128.640 43.984,132.675 43.833,132.767 43.750 C 133.007 43.533,123.695 43.712,119.000 44.015 M306.836 43.880 L 307.872 44.041 308.143 56.111 C 308.292 62.750,308.587 68.726,308.798 69.391 C 309.266 70.866,310.379 112.567,310.500 133.200 L 310.589 148.200 310.722 135.000 C 310.878 119.637,309.731 70.624,309.185 69.296 C 308.981 68.798,308.691 62.813,308.542 55.996 L 308.272 43.600 307.036 43.660 C 305.920 43.714,305.900 43.735,306.836 43.880 M18.562 44.900 C 17.806 45.793,17.806 45.795,18.600 45.136 C 19.040 44.772,19.850 44.391,20.400 44.291 L 21.400 44.109 20.362 44.054 C 19.729 44.021,19.027 44.351,18.562 44.900 M243.800 44.807 C 262.193 45.787,264.770 45.885,263.400 45.551 C 262.122 45.240,235.434 43.942,232.400 44.043 C 231.410 44.076,236.540 44.420,243.800 44.807 M299.800 44.626 C 297.820 44.908,295.210 45.165,294.000 45.198 C 292.790 45.230,291.440 45.406,291.000 45.590 C 290.504 45.797,291.111 45.855,292.600 45.742 C 296.213 45.467,305.377 44.353,305.567 44.165 C 305.833 43.902,303.682 44.074,299.800 44.626 M103.400 44.800 L 99.800 45.049 102.800 45.074 C 104.450 45.087,107.780 44.972,110.200 44.817 L 114.600 44.536 110.800 44.544 C 108.710 44.548,105.380 44.663,103.400 44.800 M93.002 45.568 C 92.564 45.739,93.734 45.803,95.602 45.709 C 100.010 45.490,100.610 45.264,96.800 45.260 C 95.150 45.258,93.441 45.396,93.002 45.568 M17.449 46.615 C 17.312 46.973,17.215 47.566,17.234 47.933 C 17.253 48.300,17.427 48.069,17.621 47.420 C 17.998 46.158,17.865 45.533,17.449 46.615 M79.000 46.800 L 76.200 47.059 78.600 47.080 C 79.920 47.091,82.260 46.971,83.800 46.813 L 86.600 46.526 84.200 46.534 C 82.880 46.538,80.540 46.658,79.000 46.800 M69.200 47.600 L 66.600 47.862 68.800 47.884 C 70.010 47.896,72.170 47.775,73.600 47.614 L 76.200 47.322 74.000 47.330 C 72.790 47.334,70.630 47.456,69.200 47.600 M61.400 48.380 C 60.942 48.565,61.798 48.616,63.400 48.499 C 64.940 48.386,66.275 48.228,66.367 48.147 C 66.700 47.853,62.178 48.065,61.400 48.380 M17.615 49.000 C 17.621 49.220,17.871 49.724,18.172 50.120 C 18.620 50.712,18.680 53.607,18.505 66.320 C 18.299 81.242,18.959 128.695,19.607 145.600 L 19.922 153.800 19.763 143.800 C 19.676 138.300,19.402 122.640,19.154 109.000 C 18.906 95.360,18.793 76.700,18.902 67.534 C 19.090 51.742,19.061 50.808,18.353 49.734 C 17.942 49.110,17.610 48.780,17.615 49.000 M45.800 49.825 L 40.200 50.331 45.000 50.131 C 51.350 49.866,57.351 49.310,53.800 49.316 C 52.480 49.318,48.880 49.547,45.800 49.825 M35.700 50.691 C 36.525 50.778,37.875 50.778,38.700 50.691 C 39.525 50.605,38.850 50.534,37.200 50.534 C 35.550 50.534,34.875 50.605,35.700 50.691 M28.912 51.095 C 29.964 51.177,31.584 51.176,32.512 51.092 C 33.440 51.008,32.580 50.941,30.600 50.942 C 28.620 50.943,27.860 51.012,28.912 51.095 M316.161 58.800 C 316.161 62.210,316.222 63.605,316.297 61.900 C 316.372 60.195,316.372 57.405,316.297 55.700 C 316.222 53.995,316.161 55.390,316.161 58.800 M316.674 77.374 C 316.787 84.180,317.006 90.088,317.160 90.504 C 317.314 90.919,317.373 89.581,317.291 87.530 C 317.209 85.478,316.990 79.570,316.804 74.400 C 316.480 65.355,316.475 65.467,316.674 77.374 M24.619 82.000 C 24.849 98.601,25.979 130.803,26.379 132.200 C 26.670 133.213,26.699 133.120,26.563 131.600 C 26.416 129.945,25.615 107.093,24.796 81.200 L 24.461 70.600 24.619 82.000 M318.082 108.000 C 318.045 110.530,318.278 119.890,318.600 128.800 C 318.922 137.710,319.224 147.520,319.273 150.600 C 319.336 154.608,319.405 155.290,319.514 153.000 C 319.599 151.240,319.374 140.260,319.015 128.600 C 318.245 103.615,318.169 101.937,318.082 108.000 M27.107 145.884 C 27.285 151.898,27.486 152.639,27.517 147.400 C 27.532 144.980,27.417 142.678,27.261 142.284 C 27.106 141.891,27.036 143.511,27.107 145.884 M310.890 163.000 C 310.847 171.140,310.944 178.008,311.106 178.263 C 311.373 178.684,311.358 161.973,311.082 152.200 C 311.020 150.000,310.934 154.860,310.890 163.000 M27.716 155.400 C 27.702 157.380,27.820 161.340,27.978 164.200 L 28.265 169.400 28.278 165.400 C 28.285 163.200,28.167 159.240,28.016 156.600 C 27.748 151.930,27.740 151.897,27.716 155.400 M20.160 160.200 C 20.161 163.500,20.222 164.797,20.298 163.082 C 20.373 161.367,20.372 158.667,20.297 157.082 C 20.221 155.497,20.159 156.900,20.160 160.200 M319.777 167.800 C 319.777 174.180,319.832 176.734,319.899 173.476 C 319.967 170.217,319.966 164.997,319.899 161.876 C 319.831 158.754,319.776 161.420,319.777 167.800 M28.550 173.800 C 28.551 176.220,28.616 177.158,28.696 175.885 C 28.776 174.612,28.775 172.632,28.694 171.485 C 28.614 170.338,28.549 171.380,28.550 173.800 M21.296 182.600 C 21.284 185.020,21.500 191.860,21.776 197.800 C 22.052 203.740,22.288 206.800,22.299 204.600 C 22.311 202.400,22.095 195.560,21.819 189.400 C 21.544 183.240,21.308 180.180,21.296 182.600 M28.883 182.200 C 28.868 184.400,28.988 186.534,29.148 186.943 C 29.309 187.352,29.378 185.912,29.301 183.743 C 29.105 178.194,28.914 177.487,28.883 182.200 M319.367 181.898 L 319.400 184.200 325.000 184.068 C 328.579 183.983,332.519 184.174,335.918 184.595 C 338.843 184.958,341.453 185.182,341.718 185.092 C 343.053 184.641,329.277 183.504,324.643 183.683 L 319.636 183.876 319.485 181.736 L 319.334 179.596 319.367 181.898 M345.800 185.997 C 346.564 186.328,349.514 186.555,349.167 186.256 C 349.075 186.177,348.100 186.009,347.000 185.882 C 345.713 185.733,345.285 185.774,345.800 185.997 M352.600 187.018 C 354.360 187.305,356.250 187.531,356.800 187.520 C 357.350 187.508,356.450 187.263,354.800 186.975 C 353.150 186.686,351.260 186.460,350.600 186.473 C 349.940 186.485,350.840 186.731,352.600 187.018 M358.033 187.744 C 358.125 187.824,359.010 187.996,360.000 188.127 C 361.202 188.286,361.534 188.247,361.000 188.010 C 360.236 187.672,357.686 187.443,358.033 187.744 M363.000 188.781 C 363.768 189.129,365.910 189.356,365.567 189.053 C 365.475 188.972,364.680 188.796,363.800 188.662 C 362.685 188.493,362.442 188.529,363.000 188.781 M312.012 189.471 C 311.996 190.102,313.944 191.604,314.754 191.584 C 315.109 191.576,314.833 191.322,314.140 191.021 C 313.447 190.719,312.688 190.141,312.452 189.736 C 312.217 189.331,312.019 189.212,312.012 189.471 M367.000 189.600 C 368.692 190.031,370.144 190.031,368.800 189.600 C 368.250 189.424,367.350 189.283,366.800 189.287 C 365.902 189.294,365.922 189.326,367.000 189.600 M317.000 191.052 C 316.099 191.492,316.049 191.563,316.800 191.333 C 317.350 191.165,319.420 191.043,321.400 191.062 C 324.497 191.092,324.721 191.053,323.000 190.783 C 320.039 190.319,318.342 190.395,317.000 191.052 M375.200 191.800 C 375.970 192.097,376.870 192.339,377.200 192.339 C 377.530 192.339,377.170 192.097,376.400 191.800 C 375.630 191.503,374.730 191.261,374.400 191.261 C 374.070 191.261,374.430 191.503,375.200 191.800 M329.800 192.010 C 330.460 192.193,334.240 192.714,338.200 193.168 C 342.160 193.621,345.850 194.089,346.400 194.207 L 347.400 194.423 346.455 194.008 C 345.652 193.655,336.410 192.410,330.400 191.845 C 328.923 191.707,328.815 191.736,329.800 192.010 M380.600 193.555 C 386.093 196.085,385.730 199.763,379.543 204.243 C 373.643 208.515,361.035 222.227,354.468 231.516 C 353.735 232.552,352.790 233.772,352.368 234.226 C 351.945 234.680,351.600 235.194,351.600 235.369 C 351.600 235.721,352.532 234.568,357.230 228.400 C 363.357 220.356,364.111 219.472,369.977 213.469 C 374.184 209.163,377.543 206.188,381.735 203.054 C 384.404 201.058,385.527 198.105,384.409 196.018 C 383.922 195.107,380.483 192.797,379.631 192.809 C 379.284 192.814,379.720 193.149,380.600 193.555 M348.600 194.755 C 349.040 194.944,350.210 195.207,351.200 195.341 C 352.384 195.500,352.658 195.471,352.000 195.254 C 350.507 194.762,347.630 194.340,348.600 194.755 M30.053 197.000 C 29.912 200.029,31.665 236.201,31.992 237.000 C 32.215 237.546,32.269 237.293,32.162 236.200 C 32.076 235.320,31.638 226.320,31.190 216.200 C 30.331 196.815,30.180 194.276,30.053 197.000 M354.200 196.000 C 355.892 196.431,357.344 196.431,356.000 196.000 C 355.450 195.824,354.550 195.683,354.000 195.687 C 353.102 195.694,353.122 195.726,354.200 196.000 M359.200 197.167 C 360.410 197.596,361.760 197.943,362.200 197.938 C 362.640 197.933,362.100 197.661,361.000 197.334 C 357.876 196.406,356.765 196.303,359.200 197.167 M365.000 198.628 C 366.100 198.934,367.270 199.172,367.600 199.157 C 367.930 199.141,367.300 198.878,366.200 198.572 C 365.100 198.266,363.930 198.028,363.600 198.043 C 363.270 198.059,363.900 198.322,365.000 198.628 M368.400 199.346 C 368.400 199.473,369.427 199.876,370.682 200.241 L 372.964 200.904 371.782 201.881 C 371.132 202.418,369.880 203.320,369.000 203.886 C 368.120 204.451,364.970 207.368,362.000 210.368 C 357.048 215.370,355.882 216.649,353.323 219.890 C 348.126 226.470,346.089 229.166,346.892 228.400 C 347.238 228.070,349.141 225.730,351.122 223.200 C 353.103 220.670,355.202 218.026,355.787 217.325 C 357.407 215.385,366.882 205.896,368.008 205.087 C 373.627 201.052,373.889 200.668,371.452 200.055 C 370.490 199.813,369.410 199.502,369.052 199.364 C 368.693 199.227,368.400 199.219,368.400 199.346 M22.551 213.200 C 22.551 215.730,22.616 216.765,22.696 215.500 C 22.775 214.235,22.775 212.165,22.696 210.900 C 22.616 209.635,22.551 210.670,22.551 213.200 M22.870 222.600 C 22.838 225.240,22.944 227.609,23.106 227.863 C 23.268 228.118,23.350 226.498,23.289 224.263 C 23.117 218.017,22.934 217.289,22.870 222.600 M345.187 230.500 C 342.521 234.098,335.382 245.200,335.735 245.200 C 335.845 245.200,336.344 244.525,336.845 243.700 C 338.480 241.006,344.585 231.813,345.101 231.269 C 345.657 230.683,346.509 229.200,346.289 229.200 C 346.213 229.200,345.717 229.785,345.187 230.500 M349.013 239.251 C 346.841 242.404,345.511 244.616,346.278 243.800 C 346.958 243.076,351.648 236.000,351.448 236.000 C 351.341 236.000,350.245 237.463,349.013 239.251 M23.776 237.400 C 23.874 238.060,24.178 244.672,24.450 252.094 C 24.723 259.516,25.032 265.501,25.139 265.395 C 25.460 265.073,24.312 237.862,23.941 237.000 C 23.674 236.380,23.636 236.470,23.776 237.400 M32.485 240.600 C 32.419 244.852,34.202 282.336,34.484 282.617 C 34.619 282.752,34.654 281.814,34.561 280.532 C 34.469 279.249,34.030 269.650,33.586 259.200 C 32.732 239.085,32.554 236.093,32.485 240.600 M344.294 246.500 C 342.181 249.836,341.037 251.833,341.489 251.400 C 342.066 250.847,346.050 244.400,345.815 244.400 C 345.710 244.400,345.026 245.345,344.294 246.500 M333.148 249.207 C 328.713 256.656,327.608 258.611,327.611 259.000 C 327.613 259.220,328.430 257.960,329.427 256.200 C 330.423 254.440,331.862 252.010,332.624 250.800 C 334.277 248.174,335.679 245.600,335.456 245.600 C 335.367 245.600,334.329 247.223,333.148 249.207 M340.082 253.627 C 339.584 254.492,339.257 255.200,339.355 255.200 C 339.631 255.200,341.312 252.379,341.139 252.206 C 341.055 252.122,340.580 252.762,340.082 253.627 M337.486 258.483 C 337.369 258.767,336.984 259.675,336.631 260.500 C 336.278 261.325,336.073 262.000,336.176 262.000 C 336.443 262.000,338.041 258.308,337.854 258.121 C 337.769 258.035,337.603 258.198,337.486 258.483 M327.049 260.215 C 326.912 260.573,326.815 261.166,326.834 261.533 C 326.853 261.900,327.027 261.669,327.221 261.020 C 327.598 259.758,327.465 259.133,327.049 260.215 M326.446 262.960 C 326.421 263.378,325.965 264.638,325.432 265.760 C 324.358 268.024,323.801 273.393,323.393 285.400 C 323.274 288.920,323.104 292.790,323.017 294.000 C 322.897 295.650,322.940 295.900,323.187 295.000 C 323.369 294.340,323.619 290.560,323.743 286.600 C 324.141 273.860,324.726 268.092,325.862 265.700 C 326.410 264.545,326.776 263.285,326.676 262.900 C 326.514 262.282,326.487 262.289,326.446 262.960 M334.220 264.771 C 333.622 265.634,332.508 266.637,331.745 266.999 L 330.359 267.657 330.633 281.329 C 330.784 288.848,330.998 295.090,331.108 295.200 C 331.218 295.310,331.185 289.145,331.035 281.500 C 330.793 269.228,330.832 267.600,331.367 267.600 C 332.036 267.600,334.524 265.264,335.199 264.002 C 335.905 262.682,335.383 263.092,334.220 264.771 M25.353 270.600 C 25.353 273.240,25.418 274.268,25.497 272.884 C 25.575 271.501,25.574 269.341,25.495 268.084 C 25.416 266.828,25.352 267.960,25.353 270.600 M25.688 280.400 C 25.671 283.150,25.780 285.712,25.931 286.093 C 26.082 286.473,26.152 284.673,26.088 282.093 C 25.920 275.387,25.725 274.562,25.688 280.400 M35.111 295.536 C 35.279 302.029,35.465 302.768,35.530 297.200 C 35.562 294.450,35.456 291.991,35.294 291.736 C 35.132 291.482,35.050 293.192,35.111 295.536 M330.549 342.600 C 330.558 368.560,330.418 395.200,330.237 401.800 C 330.057 408.400,330.015 413.700,330.144 413.577 C 330.695 413.054,331.140 358.947,330.846 328.200 L 330.533 295.400 330.549 342.600 M26.705 299.455 C 26.790 301.405,27.012 306.960,27.197 311.800 C 27.521 320.262,27.526 320.155,27.328 309.028 C 27.214 302.664,26.992 297.108,26.835 296.684 C 26.678 296.259,26.619 297.506,26.705 299.455 M35.757 307.600 C 35.757 310.570,35.820 311.785,35.897 310.300 C 35.974 308.815,35.974 306.385,35.897 304.900 C 35.820 303.415,35.757 304.630,35.757 307.600 M36.122 317.800 C 36.110 320.440,36.225 325.840,36.378 329.800 L 36.657 337.000 36.674 331.400 C 36.684 328.320,36.569 322.920,36.418 319.400 C 36.148 313.089,36.144 313.067,36.122 317.800 M27.765 327.600 C 27.765 331.450,27.825 333.025,27.898 331.100 C 27.971 329.175,27.971 326.025,27.898 324.100 C 27.825 322.175,27.765 323.750,27.765 327.600 M323.040 325.547 C 323.355 327.282,323.348 395.138,323.034 396.883 C 322.815 398.097,322.830 398.122,323.228 397.200 C 323.836 395.790,323.840 326.598,323.231 325.200 C 322.834 324.286,322.817 324.316,323.040 325.547 M28.169 343.000 C 28.170 347.620,28.228 349.455,28.299 347.078 C 28.370 344.701,28.369 340.921,28.298 338.678 C 28.227 336.435,28.169 338.380,28.169 343.000 M36.895 344.200 C 36.874 348.160,36.979 351.710,37.128 352.088 C 37.278 352.467,37.351 349.857,37.291 346.288 C 37.132 336.891,36.941 335.879,36.895 344.200 M28.490 365.200 C 28.447 372.790,28.544 379.208,28.706 379.463 C 28.973 379.884,28.957 364.486,28.681 355.200 C 28.618 353.110,28.533 357.610,28.490 365.200 M37.911 390.683 C 37.972 401.807,38.152 411.142,38.311 411.427 C 38.470 411.711,38.550 402.842,38.489 391.717 C 38.428 380.593,38.248 371.258,38.089 370.973 C 37.930 370.689,37.850 379.558,37.911 390.683 M322.243 410.233 C 322.109 410.581,321.995 412.246,321.988 413.933 C 321.982 415.620,321.807 419.340,321.600 422.200 C 320.786 433.412,320.792 433.286,321.194 430.800 C 321.586 428.378,322.803 409.600,322.568 409.600 C 322.523 409.600,322.376 409.885,322.243 410.233 M28.487 419.600 C 28.409 427.946,28.460 428.694,29.194 429.897 C 29.910 431.072,29.996 432.053,30.100 440.297 L 30.216 449.400 30.308 440.286 C 30.390 432.182,30.322 431.054,29.700 430.105 C 29.103 429.194,28.969 427.688,28.786 419.819 L 28.571 410.600 28.487 419.600 M39.134 429.200 C 39.208 438.550,39.314 446.246,39.369 446.302 C 39.425 446.358,40.049 446.202,40.756 445.956 C 41.462 445.709,41.967 445.433,41.876 445.343 C 41.785 445.252,41.236 445.358,40.655 445.579 L 39.600 445.980 39.565 431.090 C 39.546 422.901,39.411 415.300,39.265 414.200 C 39.119 413.100,39.060 419.850,39.134 429.200 M329.465 422.140 C 329.289 426.727,329.228 430.562,329.329 430.662 C 329.571 430.904,330.124 416.543,329.932 415.000 C 329.850 414.340,329.640 417.553,329.465 422.140 M328.878 433.721 C 328.801 436.398,328.819 436.448,329.974 436.851 C 333.077 437.933,333.363 443.009,330.462 445.519 L 329.400 446.438 330.444 445.980 C 333.777 444.519,333.280 436.400,329.858 436.400 C 329.371 436.400,329.206 435.814,329.097 433.700 L 328.957 431.000 328.878 433.721 M320.467 434.676 C 320.383 436.765,320.407 436.752,316.007 437.158 C 314.009 437.342,312.259 437.608,312.118 437.748 C 311.978 437.889,312.659 437.917,313.632 437.811 C 314.604 437.705,316.422 437.513,317.672 437.384 C 320.354 437.107,320.907 436.585,320.693 434.528 L 320.534 433.000 320.467 434.676 M302.800 438.400 L 299.000 438.647 302.600 438.695 C 304.580 438.722,306.560 438.589,307.000 438.400 C 307.440 438.211,307.530 438.078,307.200 438.105 C 306.870 438.131,304.890 438.264,302.800 438.400 M288.400 439.083 C 287.630 439.165,279.800 439.391,271.000 439.585 L 255.000 439.939 271.600 439.725 C 280.730 439.607,290.630 439.382,293.600 439.224 L 299.000 438.937 294.400 438.936 C 291.870 438.935,289.170 439.001,288.400 439.083 M71.115 440.328 C 70.738 440.478,77.796 440.600,86.800 440.600 C 95.804 440.600,102.862 440.478,102.485 440.328 C 102.108 440.179,95.050 440.056,86.800 440.056 C 78.550 440.056,71.492 440.179,71.115 440.328 M212.138 440.306 C 211.719 440.572,233.986 440.560,249.000 440.287 C 252.300 440.227,245.460 440.140,233.800 440.095 C 222.140 440.049,212.392 440.144,212.138 440.306 M62.600 441.200 L 60.200 441.466 62.400 441.505 C 63.610 441.526,64.960 441.389,65.400 441.200 C 66.292 440.817,66.064 440.817,62.600 441.200 M112.200 441.175 C 116.294 442.345,163.979 443.025,175.600 442.080 C 180.151 441.709,179.900 441.697,172.800 441.936 C 156.062 442.502,123.104 441.990,112.800 441.005 C 111.301 440.861,111.201 440.890,112.200 441.175 M186.200 441.200 L 180.600 441.435 186.000 441.489 C 188.970 441.519,191.760 441.389,192.200 441.200 C 192.640 441.011,192.730 440.881,192.400 440.911 C 192.070 440.941,189.280 441.071,186.200 441.200 M57.905 441.883 C 58.402 441.979,59.122 441.975,59.505 441.875 C 59.887 441.775,59.480 441.696,58.600 441.701 C 57.720 441.705,57.407 441.787,57.905 441.883 M54.705 442.283 C 55.202 442.379,55.922 442.375,56.305 442.275 C 56.687 442.175,56.280 442.096,55.400 442.101 C 54.520 442.105,54.207 442.187,54.705 442.283 M50.200 442.800 C 48.537 443.223,50.174 443.242,52.200 442.823 C 53.545 442.545,53.609 442.492,52.600 442.493 C 51.940 442.494,50.860 442.632,50.200 442.800 M44.400 444.383 C 43.190 444.787,42.380 445.134,42.600 445.154 C 42.820 445.173,44.080 444.848,45.400 444.431 C 46.720 444.014,47.530 443.668,47.200 443.661 C 46.870 443.654,45.610 443.979,44.400 444.383 M326.800 447.190 C 326.800 448.478,323.116 449.177,321.668 448.162 C 320.846 447.587,319.916 447.576,312.079 448.050 C 307.305 448.339,303.760 448.649,304.200 448.738 C 304.640 448.828,308.540 448.677,312.866 448.404 C 319.972 447.955,320.821 447.969,321.655 448.553 C 322.796 449.352,324.098 449.377,325.549 448.626 C 326.858 447.950,327.928 446.800,327.249 446.800 C 327.002 446.800,326.800 446.975,326.800 447.190 M294.657 449.148 C 294.248 449.309,295.688 449.378,297.857 449.301 C 303.406 449.105,304.113 448.914,299.400 448.883 C 297.200 448.868,295.066 448.988,294.657 449.148 M29.797 452.600 C 29.962 455.983,31.524 458.428,33.494 458.384 C 33.937 458.375,33.753 458.171,33.000 457.839 C 30.957 456.937,30.400 455.954,30.006 452.553 L 29.641 449.400 29.797 452.600 M282.931 449.855 C 282.673 449.960,268.723 450.201,251.931 450.390 L 221.400 450.733 252.001 450.590 C 271.026 450.501,282.981 450.297,283.601 450.049 C 284.151 449.830,284.330 449.654,284.000 449.657 C 283.670 449.660,283.189 449.749,282.931 449.855 M69.200 450.385 C 67.110 450.512,71.700 450.543,79.400 450.454 C 87.100 450.366,93.475 450.227,93.567 450.146 C 93.821 449.923,73.518 450.122,69.200 450.385 M94.033 450.550 C 94.125 450.632,98.700 450.790,104.200 450.901 C 111.027 451.039,112.550 451.006,109.000 450.797 C 103.368 450.466,93.763 450.307,94.033 450.550 M58.920 451.255 C 57.556 451.451,56.026 451.793,55.520 452.015 C 54.711 452.370,54.745 452.388,55.800 452.169 C 56.460 452.032,58.890 451.687,61.200 451.403 C 63.788 451.085,64.632 450.889,63.400 450.893 C 62.300 450.896,60.284 451.059,58.920 451.255 M186.400 451.268 C 181.230 451.457,176.550 451.791,176.000 452.009 L 175.000 452.405 176.000 452.224 C 177.464 451.959,202.372 451.175,212.600 451.072 C 217.440 451.023,215.640 450.970,208.600 450.953 C 201.560 450.936,191.570 451.078,186.400 451.268 M119.600 451.599 C 130.114 452.250,131.394 452.297,130.338 451.994 C 129.755 451.827,125.885 451.594,121.738 451.477 C 114.996 451.287,114.770 451.300,119.600 451.599 M146.674 453.099 C 150.455 453.165,156.755 453.165,160.674 453.099 C 164.593 453.034,161.500 452.980,153.800 452.980 C 146.100 452.980,142.893 453.034,146.674 453.099 M49.600 453.600 C 48.796 453.857,48.757 453.923,49.400 453.932 C 49.840 453.938,50.560 453.789,51.000 453.600 C 52.019 453.162,50.968 453.162,49.600 453.600 M45.473 454.660 C 45.330 454.803,44.355 455.151,43.306 455.433 C 42.258 455.715,41.767 455.958,42.215 455.973 C 42.664 455.988,44.014 455.646,45.215 455.214 C 46.417 454.782,47.025 454.422,46.567 454.414 C 46.108 454.406,45.616 454.517,45.473 454.660 M37.419 456.294 C 36.324 456.456,33.832 458.000,34.666 458.000 C 34.872 458.000,35.262 457.775,35.533 457.500 C 35.804 457.225,37.235 456.796,38.713 456.547 C 41.219 456.125,40.077 455.902,37.419 456.294 " stroke="none" fill="#848484" fill-rule="evenodd"></path><path id="path4" d="M153.600 33.987 C 149.310 34.104,160.650 34.200,178.800 34.200 C 196.950 34.200,208.470 34.088,204.400 33.951 C 195.716 33.659,164.807 33.681,153.600 33.987 M310.800 34.014 C 309.495 34.223,309.825 34.259,312.000 34.146 C 315.335 33.973,315.683 34.100,316.574 35.809 C 316.918 36.469,317.196 36.714,317.198 36.358 C 317.206 34.178,314.946 33.350,310.800 34.014 M133.913 34.728 C 133.536 34.878,135.606 34.949,138.513 34.887 C 145.964 34.728,146.818 34.526,140.200 34.488 C 137.120 34.471,134.291 34.579,133.913 34.728 M214.316 34.697 C 215.699 34.775,217.859 34.774,219.116 34.695 C 220.372 34.616,219.240 34.552,216.600 34.553 C 213.960 34.553,212.932 34.618,214.316 34.697 M304.600 34.796 C 304.102 35.008,304.631 35.051,306.000 34.912 C 307.210 34.789,308.275 34.623,308.367 34.544 C 308.711 34.247,305.367 34.470,304.600 34.796 M296.800 35.858 C 289.387 36.822,264.877 36.998,247.907 36.209 C 239.708 35.828,232.550 35.584,232.000 35.667 C 231.450 35.750,238.380 36.154,247.400 36.565 C 270.455 37.615,299.904 37.029,301.443 35.490 C 301.603 35.331,301.568 35.225,301.367 35.256 C 301.165 35.287,299.110 35.557,296.800 35.858 M117.315 35.896 C 118.588 35.976,120.568 35.975,121.715 35.894 C 122.862 35.814,121.820 35.749,119.400 35.750 C 116.980 35.751,116.042 35.816,117.315 35.896 M104.000 36.400 L 100.200 36.647 103.400 36.674 C 105.160 36.690,108.490 36.574,110.800 36.418 L 115.000 36.134 111.400 36.144 C 109.420 36.149,106.090 36.264,104.000 36.400 M95.100 37.093 C 96.035 37.177,97.565 37.177,98.500 37.093 C 99.435 37.009,98.670 36.940,96.800 36.940 C 94.930 36.940,94.165 37.009,95.100 37.093 M88.711 37.493 C 89.651 37.578,91.091 37.577,91.911 37.491 C 92.730 37.405,91.960 37.336,90.200 37.337 C 88.440 37.339,87.770 37.409,88.711 37.493 M82.800 38.000 L 79.400 38.251 82.600 38.319 C 84.360 38.357,86.070 38.213,86.400 38.000 C 86.730 37.787,86.820 37.643,86.600 37.681 C 86.380 37.718,84.670 37.862,82.800 38.000 M67.200 38.956 C 64.010 39.192,62.030 39.435,62.800 39.495 C 63.570 39.554,67.620 39.356,71.800 39.053 C 75.980 38.750,77.960 38.508,76.200 38.514 C 74.440 38.521,70.390 38.719,67.200 38.956 M316.832 38.762 C 316.814 39.071,316.341 39.926,315.781 40.661 L 314.761 41.997 315.195 49.499 C 315.433 53.624,315.674 58.800,315.730 61.000 C 315.828 64.833,315.836 64.792,315.916 60.000 C 315.961 57.250,315.806 52.079,315.571 48.510 L 315.144 42.020 316.210 40.623 C 316.796 39.854,317.183 38.995,317.069 38.713 C 316.914 38.326,316.855 38.338,316.832 38.762 M55.400 39.976 C 54.946 40.157,55.899 40.217,57.600 40.115 C 61.507 39.882,62.081 39.664,58.800 39.660 C 57.370 39.658,55.840 39.800,55.400 39.976 M47.300 41.087 C 47.905 41.178,48.895 41.178,49.500 41.087 C 50.105 40.995,49.610 40.920,48.400 40.920 C 47.190 40.920,46.695 40.995,47.300 41.087 M38.200 41.795 C 36.000 42.063,34.830 42.296,35.600 42.314 C 36.370 42.332,39.070 42.112,41.600 41.825 C 44.130 41.538,45.300 41.304,44.200 41.306 C 43.100 41.308,40.400 41.528,38.200 41.795 M153.600 41.989 C 149.310 42.107,158.040 42.133,173.000 42.047 C 187.960 41.961,200.275 41.825,200.367 41.745 C 200.605 41.537,162.887 41.733,153.600 41.989 M203.500 42.297 C 205.095 42.373,207.705 42.373,209.300 42.297 C 210.895 42.221,209.590 42.159,206.400 42.159 C 203.210 42.159,201.905 42.221,203.500 42.297 M30.821 42.779 C 30.446 43.016,30.870 43.065,32.021 42.918 C 32.999 42.792,33.875 42.625,33.967 42.545 C 34.342 42.219,31.355 42.440,30.821 42.779 M221.857 43.252 C 222.266 43.412,224.400 43.532,226.600 43.517 C 231.313 43.486,230.606 43.295,225.057 43.099 C 222.888 43.022,221.448 43.091,221.857 43.252 M25.800 43.600 L 24.200 43.886 25.600 43.915 C 26.370 43.931,27.360 43.789,27.800 43.600 C 28.743 43.195,28.062 43.195,25.800 43.600 M119.000 43.615 C 116.800 43.756,118.960 43.789,123.800 43.687 C 128.640 43.584,132.675 43.433,132.767 43.350 C 133.007 43.133,123.695 43.312,119.000 43.615 M301.600 43.999 C 299.070 44.390,297.540 44.727,298.200 44.748 C 298.860 44.769,301.110 44.522,303.200 44.200 C 305.290 43.878,307.286 43.611,307.636 43.607 C 308.198 43.601,308.303 45.043,308.542 55.996 C 308.691 62.813,308.981 68.798,309.185 69.296 C 309.611 70.332,310.804 115.294,310.928 135.000 L 311.011 148.200 311.112 133.200 C 311.228 115.805,310.157 71.258,309.573 69.200 C 309.354 68.430,309.046 62.310,308.888 55.600 L 308.600 43.400 307.400 43.344 C 306.740 43.314,304.130 43.609,301.600 43.999 M239.400 44.220 C 244.240 44.496,249.640 44.713,251.400 44.701 C 253.160 44.689,250.730 44.454,246.000 44.177 C 241.270 43.901,235.870 43.684,234.000 43.696 C 232.130 43.708,234.560 43.944,239.400 44.220 M22.100 44.276 C 22.485 44.376,23.115 44.376,23.500 44.276 C 23.885 44.175,23.570 44.093,22.800 44.093 C 22.030 44.093,21.715 44.175,22.100 44.276 M103.400 44.400 L 99.800 44.649 102.800 44.674 C 104.450 44.687,107.780 44.572,110.200 44.417 L 114.600 44.136 110.800 44.144 C 108.710 44.148,105.380 44.263,103.400 44.400 M18.396 45.700 C 17.960 46.415,17.618 47.360,17.636 47.800 C 17.662 48.438,17.732 48.393,17.979 47.577 C 18.565 45.645,19.201 44.853,20.300 44.687 L 21.400 44.520 20.294 44.460 C 19.443 44.414,19.006 44.699,18.396 45.700 M95.111 45.093 C 96.051 45.178,97.491 45.177,98.311 45.091 C 99.130 45.005,98.360 44.936,96.600 44.937 C 94.840 44.939,94.170 45.009,95.111 45.093 M255.600 45.047 C 257.861 45.333,263.892 45.379,263.463 45.106 C 263.208 44.944,261.110 44.836,258.800 44.866 C 256.490 44.896,255.050 44.977,255.600 45.047 M291.000 45.176 C 290.546 45.357,291.499 45.417,293.200 45.315 C 297.107 45.082,297.681 44.864,294.400 44.860 C 292.970 44.858,291.440 45.000,291.000 45.176 M79.000 46.400 L 76.200 46.659 78.600 46.680 C 79.920 46.691,82.260 46.571,83.800 46.413 L 86.600 46.126 84.200 46.134 C 82.880 46.138,80.540 46.258,79.000 46.400 M69.200 47.200 L 66.600 47.462 68.800 47.484 C 70.010 47.496,72.170 47.375,73.600 47.214 L 76.200 46.922 74.000 46.930 C 72.790 46.934,70.630 47.056,69.200 47.200 M61.683 47.940 C 61.394 48.124,62.189 48.196,63.483 48.104 C 66.642 47.879,67.058 47.668,64.400 47.638 C 63.190 47.624,61.967 47.760,61.683 47.940 M48.600 49.200 L 45.800 49.459 48.200 49.480 C 49.520 49.491,51.860 49.371,53.400 49.213 L 56.200 48.926 53.800 48.934 C 52.480 48.938,50.140 49.058,48.600 49.200 M41.491 49.889 C 42.201 49.977,43.461 49.979,44.291 49.892 C 45.121 49.805,44.540 49.733,43.000 49.731 C 41.460 49.729,40.781 49.800,41.491 49.889 M35.700 50.291 C 36.525 50.378,37.875 50.378,38.700 50.291 C 39.525 50.205,38.850 50.134,37.200 50.134 C 35.550 50.134,34.875 50.205,35.700 50.291 M28.912 50.695 C 29.964 50.777,31.584 50.776,32.512 50.692 C 33.440 50.608,32.580 50.541,30.600 50.542 C 28.620 50.543,27.860 50.612,28.912 50.695 M19.344 54.400 C 19.344 56.490,19.412 57.345,19.494 56.300 C 19.576 55.255,19.576 53.545,19.494 52.500 C 19.412 51.455,19.344 52.310,19.344 54.400 M18.986 78.600 C 18.986 89.820,19.037 94.468,19.100 88.928 C 19.162 83.388,19.162 74.208,19.100 68.528 C 19.037 62.848,18.986 67.380,18.986 78.600 M316.054 71.033 C 316.084 74.315,316.239 79.790,316.399 83.200 C 316.586 87.204,316.620 85.149,316.496 77.400 C 316.390 70.800,316.235 65.325,316.152 65.233 C 316.068 65.142,316.024 67.752,316.054 71.033 M24.167 78.400 C 24.167 82.690,24.226 84.445,24.298 82.300 C 24.370 80.155,24.370 76.645,24.298 74.500 C 24.226 72.355,24.167 74.110,24.167 78.400 M24.471 89.800 C 24.339 95.574,25.601 130.883,25.987 132.200 C 26.305 133.287,26.323 133.250,26.176 131.800 C 26.086 130.920,25.736 121.470,25.396 110.800 C 24.600 85.757,24.577 85.226,24.471 89.800 M19.492 118.800 C 19.608 129.470,19.839 141.710,20.006 146.000 C 20.327 154.301,20.185 143.651,19.583 114.200 C 19.317 101.223,19.306 101.789,19.492 118.800 M317.508 107.736 C 317.681 116.183,317.851 117.110,317.922 110.000 C 317.958 106.370,317.856 103.191,317.694 102.936 C 317.532 102.681,317.449 104.841,317.508 107.736 M318.289 127.400 C 318.732 148.360,319.056 157.318,319.092 149.600 C 319.109 145.970,318.884 137.060,318.592 129.800 L 318.061 116.600 318.289 127.400 M26.707 145.884 C 26.885 151.898,27.086 152.639,27.117 147.400 C 27.132 144.980,27.017 142.678,26.861 142.284 C 26.706 141.891,26.636 143.511,26.707 145.884 M311.310 163.000 C 311.280 171.140,311.379 178.110,311.528 178.488 C 311.779 179.122,311.741 158.743,311.478 151.400 C 311.414 149.640,311.339 154.860,311.310 163.000 M27.316 155.400 C 27.302 157.380,27.420 161.340,27.578 164.200 L 27.865 169.400 27.878 165.400 C 27.885 163.200,27.767 159.240,27.616 156.600 C 27.348 151.930,27.340 151.897,27.316 155.400 M20.560 160.200 C 20.561 163.500,20.622 164.797,20.698 163.082 C 20.773 161.367,20.772 158.667,20.697 157.082 C 20.621 155.497,20.559 156.900,20.560 160.200 M319.377 167.800 C 319.377 174.180,319.432 176.734,319.499 173.476 C 319.567 170.217,319.566 164.997,319.499 161.876 C 319.431 158.754,319.376 161.420,319.377 167.800 M28.150 173.800 C 28.151 176.220,28.216 177.158,28.296 175.885 C 28.376 174.612,28.375 172.632,28.294 171.485 C 28.214 170.338,28.149 171.380,28.150 173.800 M21.696 182.600 C 21.684 185.020,21.900 191.860,22.176 197.800 C 22.452 203.740,22.688 206.800,22.699 204.600 C 22.711 202.400,22.495 195.560,22.219 189.400 C 21.944 183.240,21.708 180.180,21.696 182.600 M28.483 182.200 C 28.468 184.400,28.588 186.534,28.748 186.943 C 28.909 187.352,28.978 185.912,28.901 183.743 C 28.705 178.194,28.514 177.487,28.483 182.200 M318.867 181.620 C 318.775 184.674,318.823 184.697,324.764 184.483 C 328.218 184.358,331.824 184.524,335.775 184.990 C 339.006 185.371,341.733 185.601,341.833 185.500 C 342.336 184.997,329.748 183.934,324.800 184.061 L 319.400 184.200 319.167 181.800 L 318.934 179.400 318.867 181.620 M345.800 186.397 C 346.564 186.728,349.514 186.955,349.167 186.656 C 349.075 186.577,348.100 186.409,347.000 186.282 C 345.713 186.133,345.285 186.174,345.800 186.397 M352.600 187.418 C 354.360 187.705,356.250 187.931,356.800 187.920 C 357.350 187.908,356.450 187.663,354.800 187.375 C 353.150 187.086,351.260 186.860,350.600 186.873 C 349.940 186.885,350.840 187.131,352.600 187.418 M358.033 188.144 C 358.125 188.224,359.010 188.396,360.000 188.527 C 361.202 188.686,361.534 188.647,361.000 188.410 C 360.236 188.072,357.686 187.843,358.033 188.144 M363.000 189.181 C 363.768 189.529,365.910 189.756,365.567 189.453 C 365.475 189.372,364.680 189.196,363.800 189.062 C 362.685 188.893,362.442 188.929,363.000 189.181 M312.400 189.591 C 312.400 190.117,314.359 191.375,314.679 191.054 C 314.819 190.914,314.723 190.800,314.467 190.800 C 314.210 190.800,313.640 190.440,313.200 190.000 C 312.760 189.560,312.400 189.376,312.400 189.591 M367.000 190.000 C 368.692 190.431,370.144 190.431,368.800 190.000 C 368.250 189.824,367.350 189.683,366.800 189.687 C 365.902 189.694,365.922 189.726,367.000 190.000 M317.200 190.642 C 316.560 191.035,316.488 191.151,317.000 190.966 C 317.440 190.807,318.610 190.549,319.600 190.392 L 321.400 190.107 319.800 190.068 C 318.920 190.046,317.750 190.304,317.200 190.642 M322.300 190.682 C 322.795 190.778,323.605 190.778,324.100 190.682 C 324.595 190.587,324.190 190.509,323.200 190.509 C 322.210 190.509,321.805 190.587,322.300 190.682 M328.865 191.396 C 329.186 191.719,342.717 193.294,343.353 193.082 C 343.599 193.000,341.010 192.627,337.600 192.252 C 334.190 191.878,330.770 191.472,330.000 191.350 C 329.230 191.228,328.719 191.249,328.865 191.396 M379.763 193.604 C 382.545 194.690,383.925 196.135,384.110 198.155 L 384.260 199.800 384.330 198.116 C 384.425 195.838,381.000 192.784,378.400 192.827 C 378.070 192.833,378.683 193.182,379.763 193.604 M344.033 193.347 C 344.125 193.428,344.920 193.604,345.800 193.738 C 346.915 193.907,347.158 193.871,346.600 193.619 C 345.832 193.271,343.690 193.044,344.033 193.347 M348.600 194.355 C 349.040 194.544,350.210 194.807,351.200 194.941 C 352.384 195.100,352.658 195.071,352.000 194.854 C 350.507 194.362,347.630 193.940,348.600 194.355 M29.381 195.400 C 29.475 196.060,29.872 203.800,30.263 212.600 C 30.653 221.400,31.046 228.240,31.136 227.800 C 31.407 226.468,29.956 196.275,29.569 195.200 C 29.233 194.264,29.220 194.277,29.381 195.400 M354.200 195.600 C 355.892 196.031,357.344 196.031,356.000 195.600 C 355.450 195.424,354.550 195.283,354.000 195.287 C 353.102 195.294,353.122 195.326,354.200 195.600 M358.600 196.566 C 360.420 197.243,366.983 198.821,367.715 198.758 C 367.982 198.735,366.130 198.186,363.600 197.538 C 357.796 196.051,356.580 195.815,358.600 196.566 M369.400 199.414 C 370.060 199.717,370.870 199.958,371.200 199.952 C 371.530 199.945,371.170 199.697,370.400 199.400 C 368.574 198.697,367.855 198.707,369.400 199.414 M372.500 200.276 C 373.411 200.514,373.384 200.746,372.300 201.942 L 371.400 202.936 372.487 202.168 C 373.846 201.208,373.969 199.981,372.700 200.046 C 372.023 200.081,371.973 200.138,372.500 200.276 M382.181 201.623 C 381.312 202.516,380.870 203.131,381.200 202.989 C 381.763 202.747,384.263 200.000,383.921 200.000 C 383.834 200.000,383.051 200.731,382.181 201.623 M369.200 204.434 L 367.400 206.065 369.300 204.584 C 370.966 203.286,371.459 202.797,371.100 202.801 C 371.045 202.802,370.190 203.536,369.200 204.434 M370.841 211.900 C 366.720 216.025,362.574 220.390,361.627 221.600 C 360.094 223.560,360.158 223.516,362.209 221.200 C 363.476 219.770,367.729 215.405,371.660 211.500 C 375.592 207.595,378.702 204.400,378.571 204.400 C 378.440 204.400,374.962 207.775,370.841 211.900 M361.855 210.812 C 359.466 213.225,357.614 215.200,357.741 215.200 C 357.985 215.200,365.016 208.248,365.949 207.085 C 367.170 205.562,365.986 206.640,361.855 210.812 M22.951 213.200 C 22.951 215.730,23.016 216.765,23.096 215.500 C 23.175 214.235,23.175 212.165,23.096 210.900 C 23.016 209.635,22.951 210.670,22.951 213.200 M355.865 217.500 C 354.825 218.518,351.271 222.916,348.026 227.200 C 345.429 230.629,347.937 227.779,351.547 223.200 C 353.541 220.670,355.674 218.105,356.286 217.500 C 356.899 216.896,357.307 216.401,357.194 216.400 C 357.081 216.400,356.483 216.895,355.865 217.500 M23.270 222.600 C 23.238 225.240,23.344 227.609,23.506 227.863 C 23.668 228.118,23.750 226.498,23.689 224.263 C 23.517 218.017,23.334 217.289,23.270 222.600 M358.935 224.900 C 358.493 225.395,357.726 226.430,357.231 227.200 C 356.409 228.478,356.405 228.513,357.178 227.600 C 357.645 227.050,358.348 226.240,358.741 225.800 C 359.551 224.893,360.123 224.000,359.893 224.000 C 359.809 224.000,359.378 224.405,358.935 224.900 M31.444 232.800 C 31.665 240.256,32.672 254.874,32.697 251.000 C 32.719 247.657,32.471 243.358,31.647 232.800 L 31.319 228.600 31.444 232.800 M353.713 231.900 C 349.968 236.911,340.693 251.160,341.503 250.660 C 341.701 250.537,342.557 249.304,343.405 247.919 C 345.849 243.927,352.183 234.455,354.385 231.500 C 355.491 230.015,356.314 228.800,356.213 228.800 C 356.113 228.800,354.988 230.195,353.713 231.900 M344.044 232.800 C 342.674 234.780,341.639 236.400,341.743 236.400 C 341.848 236.400,342.905 235.005,344.093 233.300 C 346.539 229.789,346.912 229.200,346.691 229.200 C 346.605 229.200,345.413 230.820,344.044 232.800 M24.310 240.896 C 24.481 247.146,24.686 247.902,24.717 242.400 C 24.732 239.870,24.619 237.483,24.465 237.096 C 24.312 236.710,24.242 238.420,24.310 240.896 M338.892 240.500 C 337.384 242.736,335.763 245.621,336.588 244.600 C 337.501 243.472,340.418 238.800,340.210 238.800 C 340.116 238.800,339.523 239.565,338.892 240.500 M334.596 247.500 C 334.037 248.545,332.324 251.457,330.790 253.971 C 329.255 256.485,328.000 258.731,328.000 258.962 C 328.000 259.192,328.778 258.035,329.728 256.390 C 330.679 254.746,332.023 252.500,332.716 251.400 C 334.372 248.771,336.065 245.600,335.813 245.600 C 335.703 245.600,335.156 246.455,334.596 247.500 M24.917 250.800 C 24.906 252.890,25.024 257.120,25.179 260.200 C 25.458 265.732,25.462 265.749,25.485 261.600 C 25.498 259.290,25.380 255.060,25.222 252.200 C 24.950 247.258,24.935 247.188,24.917 250.800 M32.853 256.600 C 32.687 261.496,33.757 282.906,34.140 282.347 C 34.195 282.266,33.943 275.990,33.580 268.400 C 33.217 260.810,32.890 255.500,32.853 256.600 M336.672 259.419 C 335.732 261.389,335.864 261.724,336.847 259.862 C 337.293 259.016,337.587 258.254,337.501 258.167 C 337.414 258.081,337.041 258.644,336.672 259.419 M327.449 260.215 C 327.312 260.573,327.215 261.166,327.234 261.533 C 327.253 261.900,327.427 261.669,327.621 261.020 C 327.998 259.758,327.865 259.133,327.449 260.215 M325.755 265.812 C 325.390 266.369,325.164 266.898,325.253 266.987 C 325.342 267.076,325.718 266.620,326.089 265.974 C 326.914 264.536,326.669 264.417,325.755 265.812 M25.753 270.600 C 25.753 273.240,25.818 274.268,25.897 272.884 C 25.975 271.501,25.974 269.341,25.895 268.084 C 25.816 266.828,25.752 267.960,25.753 270.600 M331.400 266.761 L 330.200 267.464 330.183 272.632 L 330.165 277.800 330.294 272.686 C 330.420 267.725,330.452 267.560,331.373 267.210 C 331.895 267.012,332.440 266.658,332.585 266.425 C 332.915 265.891,332.860 265.906,331.400 266.761 M324.591 271.791 C 324.432 274.126,324.389 276.123,324.496 276.229 C 324.602 276.336,324.817 274.511,324.974 272.174 C 325.130 269.837,325.173 267.840,325.070 267.736 C 324.966 267.632,324.750 269.457,324.591 271.791 M26.088 280.400 C 26.071 283.150,26.180 285.712,26.331 286.093 C 26.482 286.473,26.552 284.673,26.488 282.093 C 26.320 275.387,26.125 274.562,26.088 280.400 M323.899 281.800 C 323.736 284.660,323.630 288.710,323.662 290.800 C 323.702 293.338,323.835 292.010,324.064 286.800 C 324.253 282.510,324.359 278.460,324.301 277.800 C 324.243 277.140,324.062 278.940,323.899 281.800 M330.570 286.800 C 330.570 291.530,330.628 293.465,330.698 291.100 C 330.769 288.735,330.769 284.865,330.698 282.500 C 330.628 280.135,330.570 282.070,330.570 286.800 M34.711 295.536 C 34.879 302.029,35.065 302.768,35.130 297.200 C 35.162 294.450,35.056 291.991,34.894 291.736 C 34.732 291.482,34.650 293.192,34.711 295.536 M330.056 319.633 C 330.087 332.925,330.233 350.550,330.381 358.800 C 330.528 367.050,330.568 356.250,330.469 334.800 C 330.370 313.350,330.224 295.725,330.144 295.633 C 330.065 295.542,330.025 306.342,330.056 319.633 M27.114 301.114 C 27.274 308.312,27.474 309.159,27.512 302.800 C 27.529 299.830,27.421 297.091,27.272 296.714 C 27.122 296.337,27.051 298.317,27.114 301.114 M35.306 306.400 C 35.291 308.710,35.518 316.540,35.811 323.800 L 36.342 337.000 36.120 326.000 C 35.839 312.061,35.345 300.170,35.306 306.400 M27.761 314.400 C 27.761 317.810,27.822 319.205,27.897 317.500 C 27.972 315.795,27.972 313.005,27.897 311.300 C 27.822 309.595,27.761 310.990,27.761 314.400 M28.165 327.600 C 28.165 331.450,28.225 333.025,28.298 331.100 C 28.371 329.175,28.371 326.025,28.298 324.100 C 28.225 322.175,28.165 323.750,28.165 327.600 M323.423 325.548 C 323.567 326.069,323.709 342.269,323.739 361.548 C 323.781 388.216,323.848 392.678,324.020 380.200 C 324.307 359.353,324.009 325.986,323.529 325.200 C 323.272 324.780,323.240 324.884,323.423 325.548 M28.569 343.000 C 28.570 347.620,28.628 349.455,28.699 347.078 C 28.770 344.701,28.769 340.921,28.698 338.678 C 28.627 336.435,28.569 338.380,28.569 343.000 M36.495 344.200 C 36.474 348.160,36.579 351.710,36.728 352.088 C 36.878 352.467,36.951 349.857,36.891 346.288 C 36.732 336.891,36.541 335.879,36.495 344.200 M28.909 365.200 C 28.880 372.790,28.979 379.310,29.128 379.688 C 29.379 380.323,29.340 361.267,29.076 354.400 C 29.013 352.750,28.937 357.610,28.909 365.200 M37.511 390.684 C 37.593 405.707,37.747 411.112,38.111 411.746 C 38.470 412.374,38.628 417.100,38.706 429.600 C 38.764 438.950,38.970 446.653,39.163 446.719 C 39.355 446.784,40.118 446.557,40.857 446.213 C 41.595 445.869,41.868 445.682,41.463 445.796 C 41.057 445.910,40.337 446.101,39.863 446.220 L 39.000 446.436 39.000 429.518 C 39.000 416.716,38.878 412.387,38.500 411.726 C 38.119 411.060,37.999 406.165,37.994 391.126 C 37.991 380.277,37.856 371.192,37.694 370.938 C 37.532 370.683,37.450 379.569,37.511 390.684 M330.180 387.800 C 330.180 395.500,330.234 398.593,330.299 394.674 C 330.365 390.755,330.365 384.455,330.299 380.674 C 330.234 376.893,330.180 380.100,330.180 387.800 M329.760 407.800 C 329.761 411.100,329.822 412.397,329.898 410.682 C 329.973 408.967,329.972 406.267,329.897 404.682 C 329.821 403.097,329.759 404.500,329.760 407.800 M29.043 410.233 C 28.332 412.085,28.801 428.597,29.601 429.910 C 30.329 431.103,30.408 432.023,30.492 440.310 L 30.584 449.400 30.704 440.400 C 30.817 431.904,30.777 431.316,29.991 429.909 C 29.203 428.497,29.165 427.919,29.279 419.008 C 29.346 413.833,29.374 409.599,29.343 409.600 C 29.311 409.600,29.176 409.885,29.043 410.233 M322.643 410.233 C 322.509 410.581,322.395 412.246,322.388 413.933 C 322.382 415.620,322.207 419.340,322.000 422.200 C 321.186 433.412,321.192 433.286,321.594 430.800 C 321.986 428.378,323.203 409.600,322.968 409.600 C 322.923 409.600,322.776 409.885,322.643 410.233 M329.065 422.140 C 328.889 426.727,328.828 430.562,328.929 430.662 C 329.171 430.904,329.724 416.543,329.532 415.000 C 329.450 414.340,329.240 417.553,329.065 422.140 M328.573 433.996 C 328.599 436.476,328.654 436.618,329.800 437.163 C 332.674 438.530,332.925 443.051,330.253 445.327 L 329.400 446.054 330.296 445.615 C 333.291 444.148,333.076 437.932,329.993 436.857 C 328.908 436.479,328.829 436.300,328.692 433.927 L 328.545 431.400 328.573 433.996 M320.800 434.751 C 320.800 436.857,320.278 437.164,316.035 437.555 C 314.021 437.741,312.259 438.008,312.118 438.148 C 311.978 438.289,312.659 438.317,313.632 438.211 C 314.604 438.105,316.435 437.911,317.700 437.780 C 318.965 437.649,320.270 437.272,320.600 436.943 C 321.141 436.402,321.483 433.200,321.000 433.200 C 320.890 433.200,320.800 433.898,320.800 434.751 M300.912 439.095 C 301.964 439.177,303.584 439.176,304.512 439.092 C 305.440 439.008,304.580 438.941,302.600 438.942 C 300.620 438.943,299.860 439.012,300.912 439.095 M288.400 439.483 C 287.630 439.565,279.800 439.791,271.000 439.985 L 255.000 440.339 271.600 440.125 C 280.730 440.007,290.630 439.782,293.600 439.624 L 299.000 439.337 294.400 439.336 C 291.870 439.335,289.170 439.401,288.400 439.483 M71.115 440.728 C 70.738 440.878,77.796 441.000,86.800 441.000 C 95.804 441.000,102.862 440.878,102.485 440.728 C 102.108 440.579,95.050 440.456,86.800 440.456 C 78.550 440.456,71.492 440.579,71.115 440.728 M212.138 440.706 C 211.719 440.972,233.986 440.960,249.000 440.687 C 252.300 440.627,245.460 440.540,233.800 440.495 C 222.140 440.449,212.392 440.544,212.138 440.706 M186.200 441.600 L 180.600 441.835 186.000 441.889 C 188.970 441.919,191.760 441.789,192.200 441.600 C 192.640 441.411,192.730 441.281,192.400 441.311 C 192.070 441.341,189.280 441.471,186.200 441.600 M61.300 441.887 C 61.905 441.978,62.895 441.978,63.500 441.887 C 64.105 441.795,63.610 441.720,62.400 441.720 C 61.190 441.720,60.695 441.795,61.300 441.887 M114.915 441.896 C 116.188 441.976,118.168 441.975,119.315 441.894 C 120.462 441.814,119.420 441.749,117.000 441.750 C 114.580 441.751,113.642 441.816,114.915 441.896 M57.905 442.283 C 58.402 442.379,59.122 442.375,59.505 442.275 C 59.887 442.175,59.480 442.096,58.600 442.101 C 57.720 442.105,57.407 442.187,57.905 442.283 M123.500 442.295 C 124.655 442.376,126.545 442.376,127.700 442.295 C 128.855 442.214,127.910 442.148,125.600 442.148 C 123.290 442.148,122.345 442.214,123.500 442.295 M167.400 442.484 C 164.100 442.685,154.290 442.777,145.600 442.688 C 132.940 442.560,131.191 442.599,136.800 442.884 C 143.823 443.242,169.110 442.949,176.600 442.423 L 180.600 442.143 177.000 442.131 C 175.020 442.124,170.700 442.283,167.400 442.484 M54.705 442.683 C 55.202 442.779,55.922 442.775,56.305 442.675 C 56.687 442.575,56.280 442.496,55.400 442.501 C 54.520 442.505,54.207 442.587,54.705 442.683 M50.200 443.200 C 48.537 443.623,50.174 443.642,52.200 443.223 C 53.545 442.945,53.609 442.892,52.600 442.893 C 51.940 442.894,50.860 443.032,50.200 443.200 M45.600 444.400 C 44.796 444.657,44.757 444.723,45.400 444.732 C 45.840 444.738,46.560 444.589,47.000 444.400 C 48.019 443.962,46.968 443.962,45.600 444.400 M309.800 447.803 C 306.280 448.064,304.210 448.307,305.200 448.343 C 306.190 448.379,310.083 448.201,313.852 447.947 C 320.028 447.532,320.796 447.552,321.641 448.143 C 322.156 448.505,323.123 448.779,323.789 448.754 C 324.912 448.711,324.889 448.687,323.480 448.414 C 322.643 448.252,321.752 447.912,321.500 447.660 C 320.961 447.121,318.617 447.150,309.800 447.803 M294.938 448.706 C 294.684 448.868,296.034 448.949,297.938 448.886 C 303.208 448.712,303.855 448.526,299.400 448.466 C 297.200 448.436,295.192 448.544,294.938 448.706 M274.600 449.600 L 265.800 449.824 274.400 449.884 C 279.130 449.917,283.360 449.789,283.800 449.600 C 284.240 449.411,284.330 449.283,284.000 449.316 C 283.670 449.349,279.440 449.477,274.600 449.600 M30.124 451.800 C 30.126 453.120,30.201 453.612,30.290 452.893 C 30.379 452.174,30.377 451.094,30.286 450.493 C 30.195 449.892,30.122 450.480,30.124 451.800 M67.807 450.047 C 64.950 450.229,62.340 450.465,62.007 450.572 C 61.673 450.679,63.110 450.658,65.200 450.524 C 67.290 450.390,74.580 450.159,81.400 450.011 L 93.800 449.741 83.400 449.729 C 77.680 449.722,70.663 449.865,67.807 450.047 M94.033 450.150 C 94.125 450.232,98.700 450.390,104.200 450.501 C 111.027 450.639,112.550 450.606,109.000 450.397 C 103.368 450.066,93.763 449.907,94.033 450.150 M232.500 450.300 C 238.605 450.362,248.595 450.362,254.700 450.300 C 260.805 450.238,255.810 450.187,243.600 450.187 C 231.390 450.187,226.395 450.238,232.500 450.300 M202.325 450.699 C 205.914 450.766,211.674 450.766,215.125 450.699 C 218.576 450.633,215.640 450.578,208.600 450.578 C 201.560 450.579,198.736 450.633,202.325 450.699 M59.105 451.083 C 59.602 451.179,60.322 451.175,60.705 451.075 C 61.087 450.975,60.680 450.896,59.800 450.901 C 58.920 450.905,58.607 450.987,59.105 451.083 M118.600 451.217 C 121.020 451.372,124.530 451.490,126.400 451.481 C 129.792 451.464,129.790 451.463,125.400 451.183 C 122.980 451.028,119.470 450.910,117.600 450.919 C 114.208 450.936,114.210 450.937,118.600 451.217 M179.733 451.167 C 177.496 451.295,175.537 451.529,175.379 451.688 C 175.221 451.846,175.971 451.876,177.046 451.755 C 178.121 451.635,182.780 451.398,187.400 451.230 C 195.224 450.945,195.388 450.924,189.800 450.929 C 186.500 450.932,181.970 451.039,179.733 451.167 M55.400 451.619 C 54.842 451.871,55.085 451.907,56.200 451.738 C 57.080 451.604,57.875 451.428,57.967 451.347 C 58.310 451.044,56.168 451.271,55.400 451.619 M146.674 452.699 C 150.455 452.765,156.755 452.765,160.674 452.699 C 164.593 452.634,161.500 452.580,153.800 452.580 C 146.100 452.580,142.893 452.634,146.674 452.699 M49.600 453.200 C 48.796 453.457,48.757 453.523,49.400 453.532 C 49.840 453.538,50.560 453.389,51.000 453.200 C 52.019 452.762,50.968 452.762,49.600 453.200 M44.800 454.600 C 43.522 455.330,43.796 455.334,45.800 454.612 C 46.680 454.295,47.040 454.034,46.600 454.032 C 46.160 454.030,45.350 454.286,44.800 454.600 M30.446 455.064 C 30.394 456.039,32.475 458.009,33.531 457.984 C 33.906 457.976,33.672 457.739,33.000 457.446 C 31.632 456.849,30.972 456.151,30.689 455.000 C 30.505 454.250,30.490 454.254,30.446 455.064 M37.330 455.887 C 36.631 455.975,35.821 456.335,35.530 456.687 C 35.060 457.256,35.091 457.276,35.800 456.869 C 36.240 456.616,37.680 456.249,39.000 456.053 C 41.331 455.707,39.902 455.565,37.330 455.887 " stroke="none" fill="#747474" fill-rule="evenodd"></path></g></svg>