<?xml version="1.0" encoding="UTF-8"?>
<svg version="1.1" xmlns="http://www.w3.org/2000/svg" width="82" height="62">
<path d="M0 0 C5.01747596 5.01747596 6.97411282 9.50057799 7.3125 16.625 C7.01769127 24.40795052 4.23683936 30.74647928 -1.4375 36.125 C-8.55144022 41.56054306 -16.45042966 43.3755502 -25.25 43.75 C-25.25 45.73 -25.25 47.71 -25.25 49.75 C-28.25 48.75 -28.25 48.75 -29.93359375 45.7890625 C-32.51981597 42.39600872 -33.93843826 41.92566015 -38.08837891 41.36010742 C-38.82233887 41.28252197 -39.55629883 41.20493652 -40.3125 41.125 C-41.84348083 40.90687026 -43.37346001 40.68159217 -44.90234375 40.44921875 C-45.64597168 40.33755371 -46.38959961 40.22588867 -47.15576172 40.11083984 C-55.90924791 38.60260336 -63.18130419 35.15070932 -68.5625 28.0078125 C-71.9876643 22.27541947 -72.09271201 16.25468335 -71.25 9.75 C-69.43783172 3.07895553 -64.87533065 -1.4548283 -59.25 -5.25 C-40.84175427 -14.62456959 -16.72143829 -11.57638035 0 0 Z M-64.125 1.75 C-68.86209643 7.3904497 -69.70532095 11.43601134 -69.5625 18.7734375 C-68.96795488 24.4364798 -66.58631142 27.41368858 -62.5625 31.4375 C-54.71763859 37.39959467 -45.06633556 39.84232279 -35.3125 39.6875 C-31.87220137 39.75771018 -30.69315062 40.4045754 -28.25 42.75 C-27.92 42.42 -27.59 42.09 -27.25 41.75 C-25.27403942 41.47580939 -23.2939499 41.23120769 -21.3125 41 C-12.68601009 39.72165078 -4.73764874 36.85166307 0.75 29.75 C4.20324666 23.91481092 5.76438509 18.51684734 4.75 11.75 C2.56264209 4.91450654 -2.85408542 0.57009526 -9.01953125 -2.734375 C-25.46611034 -10.06312584 -50.84832118 -12.9170497 -64.125 1.75 Z " fill="#000000" transform="translate(73.25,12.25)"/>
</svg>
