<svg version="1.1" id="Layer_1" xmlns="http://www.w3.org/2000/svg" xmlns:xlink="http://www.w3.org/1999/xlink" x="0px" y="0px"
	 width="100%" viewBox="0 0 67 61" enable-background="new 0 0 67 61" xml:space="preserve">
<path fill="#FAFAFA" opacity="1.000000" stroke="none" 
	d="
M1.000000,24.000080 
	C1.000000,16.833437 1.114764,10.163657 0.934016,3.501894 
	C0.875494,1.344970 1.351889,0.926155 3.500216,0.937076 
	C24.166348,1.042135 44.833443,1.042108 65.499573,0.937105 
	C67.647461,0.926192 68.075859,1.351570 68.063240,3.500263 
	C67.953568,22.166285 67.953606,40.833496 68.063217,59.499519 
	C68.075829,61.647755 67.648132,62.073845 65.499794,62.062923 
	C44.833660,61.957863 24.166569,61.957890 3.500435,62.062893 
	C1.352565,62.073807 0.909990,61.650639 0.935181,59.499355 
	C1.071771,47.834267 1.000000,36.166744 1.000000,24.000080 
z"/>
<path fill="#FCFCFC" opacity="1.000000" stroke="none" 
	d="
M38.073761,6.112233 
	C39.420635,6.415638 40.368420,6.678655 41.685265,6.979641 
	C45.272449,7.862106 48.325661,9.078710 51.174282,10.829895 
	C63.012367,18.107340 65.638573,29.398413 58.190918,41.133785 
	C50.888290,52.640644 36.771900,58.697010 23.582945,55.981674 
	C9.272984,53.035545 1.954278,39.635910 7.344853,25.746702 
	C11.858017,14.118209 20.282188,7.094998 32.826862,5.259200 
	C34.622349,4.996448 36.067753,5.773065 38.073761,6.112233 
z"/>
<path fill="#161616" opacity="1.000000" stroke="none" 
	d="
M38.260132,5.873395 
	C25.156815,5.711503 15.422154,11.442312 9.633487,23.401604 
	C1.693083,39.806339 11.416042,55.353382 29.646646,55.684647 
	C41.994862,55.909027 54.965801,47.335289 59.526382,35.934269 
	C63.311619,26.471521 60.281380,17.476234 51.461395,12.412325 
	C48.456421,10.687047 45.272057,9.274210 42.111996,7.368111 
	C55.294662,5.411154 67.025505,19.730265 63.756565,33.508194 
	C59.302834,52.279819 35.125130,63.913750 17.588463,55.723553 
	C7.217116,50.879795 2.378628,41.171394 4.717742,29.898525 
	C7.508419,16.449444 19.067907,5.445943 31.423515,4.622319 
	C33.646378,4.474144 36.034870,3.970396 38.260132,5.873395 
z"/>
</svg>