<svg version="1.1" id="Layer_1" xmlns="http://www.w3.org/2000/svg" xmlns:xlink="http://www.w3.org/1999/xlink" x="0px" y="0px"
	 width="100%" viewBox="0 0 145 58" enable-background="new 0 0 145 58" xml:space="preserve">
<path fill="#FBFBFB" opacity="1.000000" stroke="none" 
	d="
M106.000000,59.000000 
	C71.833336,59.000000 38.166473,58.951092 4.500335,59.084476 
	C1.516375,59.096298 0.881330,58.486977 0.912588,55.499084 
	C1.092158,38.334297 1.060300,21.166220 0.933351,4.000493 
	C0.914845,1.498138 1.500389,0.931526 4.000120,0.936220 
	C50.333290,1.023217 96.666710,1.023217 142.999878,0.936220 
	C145.499619,0.931526 146.084854,1.498179 146.066620,4.000486 
	C145.940231,21.332899 145.940231,38.667103 146.066620,55.999516 
	C146.084869,58.501820 145.503754,59.098766 142.999161,59.067841 
	C130.834351,58.917641 118.666664,59.000000 106.000000,59.000000 
z"/>
<path fill="#181818" opacity="1.000000" stroke="none" 
	d="
M100.062462,5.132633 
	C111.697578,5.173599 122.818146,3.898545 133.986755,4.617061 
	C136.671768,4.789797 137.797760,5.469256 137.860413,8.278987 
	C138.161011,21.758684 138.569183,35.236538 139.042770,48.711403 
	C139.149658,51.752567 138.459549,52.921207 134.949448,52.933372 
	C101.655495,53.048771 68.415665,55.651711 35.100559,55.173996 
	C30.463091,55.107502 25.799465,55.738976 21.176025,56.285072 
	C18.786634,56.567299 18.035324,56.043602 17.941263,53.477558 
	C17.764894,48.666267 16.959833,43.881634 16.586082,39.072720 
	C16.329296,35.768723 15.034884,34.444553 11.551810,35.181995 
	C8.915774,35.740105 5.120239,37.532387 3.706184,35.002602 
	C2.056807,32.051826 5.708752,29.534021 7.819000,27.939875 
	C12.896106,24.104475 14.725292,19.559399 13.448579,13.396954 
	C12.693558,9.752616 14.012991,8.311684 18.255075,8.307740 
	C45.394684,8.282510 72.480179,6.558662 100.062462,5.132633 
z"/>
<path fill="#FDFDFD" opacity="1.000000" stroke="none" 
	d="
M33.520500,11.236479 
	C66.104309,9.815347 98.224548,8.496818 130.332031,6.918858 
	C134.306839,6.723512 134.886566,7.925104 134.929535,11.519501 
	C135.072861,23.508636 135.650604,35.492508 136.053177,47.478687 
	C136.114182,49.295128 136.522186,50.894653 133.431244,50.805515 
	C113.104568,50.219292 92.809326,51.583996 72.500412,52.132309 
	C55.853462,52.581749 39.173424,50.944538 22.557945,52.930305 
	C20.563530,53.168667 19.963417,52.524357 19.869209,50.587101 
	C19.667030,46.429672 19.097147,42.288857 18.933392,38.131172 
	C18.756802,33.647552 17.002647,31.275499 12.179198,32.109867 
	C11.253243,32.270039 10.275851,32.132858 9.372989,32.132858 
	C9.067751,30.867832 9.882891,30.309898 10.476997,29.924202 
	C16.097475,26.275383 18.197466,21.235727 16.685553,14.706204 
	C16.115147,12.242782 17.222067,11.476158 19.564941,11.486612 
	C24.060547,11.506672 28.556961,11.345747 33.520500,11.236479 
z"/>
</svg>