<?xml version="1.0"?>
<svg width="NaN" height="NaN" xmlns="http://www.w3.org/2000/svg" xmlns:svg="http://www.w3.org/2000/svg">
 <g class="layer">
  <title>Layer 1</title>
  <g id="svgg">
   <path d="m-39.05,0.29c-5.4,6.49 32.31,26.15 32.14,27.25c-0.17,1.1 -26.54,-8.27 -15.16,-12.49c16.98,-6.29 5.31,5.73 5.31,-3.13c0,-5.49 3.35,-11.03 -5.29,-0.63m98.19,16.58c-6.45,13.47 -11.73,26.43 -11.73,28.81c0,2.88 -5.13,4.34 -15.26,4.34c-8.39,0 -15.25,-1.53 -15.25,-3.39c0,-13.92 -6.3,1.17 -8.14,19.49c-1.26,12.58 -5.29,40.24 -8.94,61.45c-12.37,71.77 -20.54,67.65 144.2,72.7c194.83,5.98 217.85,4.69 222.44,-12.48c6.44,-24.11 10,-132.55 4.47,-136.62c-10.01,-7.37 -47.17,-9.38 -156.14,-8.47c-123.42,1.04 -112.77,3.49 -128.65,-29.57c-12.45,-25.91 -12.81,-25.86 -27,3.74m29.19,15.35l10.06,17.8l117.73,0.29c64.75,0.17 125.16,1.31 134.25,2.55l16.52,2.24l-0.6,40.14c-0.63,41.94 -5.35,93.22 -8.9,96.77c-5.19,5.2 -309.96,-0.65 -334.9,-6.43c-26.51,-6.14 -26.16,-0.25 -7.02,-118.01c1.81,-11.18 1.94,-11.25 19.01,-10.34l17.19,0.91l5.74,-18.47c3.16,-10.16 7.78,-22.24 10.26,-26.86c5.05,-9.38 3.66,-10.69 20.66,19.41" fill="#000000" fill-rule="evenodd" id="path0"/>
  </g>
 </g>
</svg>