<svg id="svg" xmlns="http://www.w3.org/2000/svg" xmlns:xlink="http://www.w3.org/1999/xlink" width="400" height="572.3076923076923" viewBox="0, 0, 400,572.3076923076923"><g id="svgg"><path id="path0" d="M119.167 24.013 C -15.737 58.365,-5.539 449.911,131.171 484.867 C 146.084 488.681,154.736 497.157,167.363 520.324 C 187.407 557.100,191.862 556.945,199.930 519.186 L 206.154 490.058 247.184 480.064 C 382.923 447.004,431.575 276.606,349.556 121.512 C 312.297 51.056,199.849 3.468,119.167 24.013 M244.831 50.802 C 325.822 79.813,362.457 141.835,367.770 258.934 C 373.288 380.534,333.862 447.094,246.154 464.249 C 207.339 471.841,190.753 480.999,186.720 497.066 L 182.828 512.574 174.294 496.287 C 168.803 485.805,160.672 480.000,151.483 480.000 C 35.798 480.000,-8.172 123.081,98.555 50.369 C 123.617 33.295,196.561 33.511,244.831 50.802 " stroke="none" fill="#000000" fill-rule="evenodd"></path></g></svg>