<svg id="svg" xmlns="http://www.w3.org/2000/svg" xmlns:xlink="http://www.w3.org/1999/xlink" width="400" height="318.0722891566265" viewBox="0, 0, 400,318.0722891566265"><g id="svgg"><path id="path0" d="M240.964 19.277 C 220.026 30.740,211.923 30.979,183.731 20.966 C 152.620 9.917,118.983 15.215,100.051 34.148 C 92.326 41.872,81.549 48.193,76.102 48.193 C 14.848 48.193,-22.564 186.951,33.861 204.859 C 39.093 206.520,43.373 211.734,43.373 216.445 C 43.373 236.801,78.416 253.217,106.008 245.788 C 120.848 241.792,127.028 242.403,138.534 249.007 C 152.080 256.781,153.678 256.696,172.923 247.174 C 191.744 237.862,194.638 237.660,215.830 244.178 C 252.606 255.488,294.882 244.599,307.784 220.491 C 312.135 212.361,318.164 208.835,327.715 208.835 C 383.540 208.835,407.830 101.407,359.209 69.550 C 352.235 64.980,343.509 54.015,339.819 45.184 C 326.052 12.233,277.210 -0.567,240.964 19.277 M299.858 24.311 C 319.493 29.764,332.530 44.400,332.530 60.989 C 332.530 67.156,336.320 72.842,341.533 74.497 C 394.113 91.185,374.276 205.591,320.550 195.511 C 306.957 192.961,304.686 194.280,298.482 208.326 C 286.437 235.594,253.323 243.478,212.029 228.909 C 192.854 222.144,190.507 222.300,175.915 231.319 C 155.074 244.199,145.293 243.472,139.649 228.626 C 134.944 216.252,125.301 216.440,125.301 228.905 C 125.301 233.124,117.100 236.784,102.862 238.919 C 73.186 243.369,55.401 233.374,55.468 212.284 C 55.506 200.227,53.561 197.590,44.625 197.590 C 26.831 197.590,14.458 181.141,14.458 157.485 C 14.458 107.373,47.659 57.831,81.243 57.831 C 87.638 57.831,97.758 52.558,103.731 46.113 C 123.124 25.188,151.393 21.170,188.682 34.040 C 219.912 44.819,221.081 44.879,234.049 36.382 C 258.681 20.242,274.657 17.312,299.858 24.311 M316.410 230.500 C 306.393 241.568,306.254 252.553,316.007 262.306 C 327.137 273.436,340.852 271.549,349.970 257.634 C 366.671 232.145,336.787 207.983,316.410 230.500 M344.240 239.410 C 348.905 251.568,335.166 263.609,325.644 255.706 C 320.138 251.136,319.510 247.282,323.162 240.458 C 329.212 229.154,340.097 228.613,344.240 239.410 M304.719 285.161 C 296.753 293.126,297.214 306.796,305.556 309.997 C 315.500 313.813,329.035 302.000,326.975 291.303 C 324.838 280.206,312.953 276.926,304.719 285.161 " stroke="none" fill="#000000" fill-rule="evenodd"></path></g></svg>