<?xml version="1.0" encoding="UTF-8"?>
<svg version="1.1" xmlns="http://www.w3.org/2000/svg" width="1981" height="1118">
<path d="M0 0 C1.92869884 -0.0043933 1.92869884 -0.0043933 3.8963613 -0.00887535 C7.46669589 -0.01672148 11.03692253 -0.01214367 14.60725563 -0.00553953 C18.50547097 -0.00054719 22.40366965 -0.00719642 26.30188239 -0.0123432 C33.16075416 -0.01979062 40.0195949 -0.0197842 46.87846856 -0.01495371 C57.14649565 -0.00775792 67.41449592 -0.01207206 77.68252229 -0.01863506 C95.18148878 -0.02947795 112.68044453 -0.03078868 130.17941344 -0.02693671 C147.91700068 -0.02306338 165.6545799 -0.02351086 183.39216673 -0.02924651 C185.07158814 -0.02978475 185.07158814 -0.02978475 186.78493724 -0.03033386 C191.34482724 -0.03180874 195.90471722 -0.03331313 200.46460719 -0.03485533 C246.77794655 -0.0505004 293.0912804 -0.05316819 339.40462193 -0.05069926 C345.80641932 -0.05036083 352.2082167 -0.05003873 358.61001408 -0.04973358 C359.88151705 -0.04967254 361.15302002 -0.04961149 362.46305339 -0.0495486 C390.62590071 -0.04827737 418.78874727 -0.05087685 446.95159437 -0.05425965 C453.37975716 -0.05503038 459.80791995 -0.05577511 466.23608274 -0.05652466 C468.81590652 -0.05682635 471.39573029 -0.05712823 473.97555407 -0.0574303 C475.89369361 -0.05765482 475.89369361 -0.05765482 477.85058344 -0.05788388 C480.43712382 -0.05818741 483.02366419 -0.05849209 485.61020456 -0.05879792 C558.33051815 -0.06739175 631.05083084 -0.07219451 703.77114478 -0.06796985 C705.83099153 -0.06785026 707.89083827 -0.06773188 709.95068502 -0.06761376 C725.11323108 -0.06674232 740.27577713 -0.06581172 755.43832318 -0.06486312 C756.8211439 -0.06477674 758.20396462 -0.06469036 759.58678534 -0.064604 C760.97017264 -0.06451757 762.35355994 -0.06443112 763.73694724 -0.06434468 C764.76441342 -0.06428049 764.76441342 -0.06428049 765.8126365 -0.06421501 C769.2736794 -0.06399862 772.7347223 -0.06378118 776.19576521 -0.06356178 C841.57112637 -0.05942287 906.94648431 -0.05834673 972.3218447 -0.07072181 C973.35435655 -0.07091723 973.35435655 -0.07091723 974.40772724 -0.0711166 C995.22275441 -0.07506851 1016.03778149 -0.07942807 1036.85280856 -0.08388776 C1059.61309361 -0.08876378 1082.37337866 -0.09359767 1105.13366377 -0.09816951 C1105.81314597 -0.09830628 1106.49262816 -0.09844305 1107.19270073 -0.09858396 C1149.74312193 -0.10713777 1192.29354215 -0.11203489 1234.84396422 -0.11287707 C1236.81492996 -0.11291662 1236.81492996 -0.11291662 1238.82571318 -0.11295697 C1267.66780095 -0.1134977 1296.50988865 -0.11312541 1325.3519764 -0.11191725 C1335.67162744 -0.11149161 1345.99127849 -0.11112649 1356.31092954 -0.11078781 C1358.87827316 -0.11070251 1361.44561679 -0.11061358 1364.01296041 -0.11052099 C1404.95282054 -0.10907112 1445.89267352 -0.11620558 1486.83253193 -0.12752496 C1529.20068661 -0.1391634 1571.56882849 -0.1397514 1613.93698321 -0.12768153 C1618.48364792 -0.12642965 1623.03031264 -0.12522618 1627.57697737 -0.12406081 C1628.69283111 -0.12377052 1629.80868484 -0.12348022 1630.95835232 -0.12318113 C1648.64980413 -0.11885032 1666.34123781 -0.12459597 1684.03268677 -0.134501 C1701.41521934 -0.14402206 1718.79772384 -0.14288492 1736.18025477 -0.13029478 C1746.37957563 -0.12322784 1756.57881594 -0.12440859 1766.77813112 -0.13764316 C1773.54608022 -0.145609 1780.31396816 -0.1427567 1787.08191161 -0.13099352 C1790.92218891 -0.12462446 1794.76230672 -0.12294214 1798.60257533 -0.13456073 C1802.7289279 -0.14694113 1806.8548976 -0.13612146 1810.9812479 -0.12304783 C1812.16363531 -0.13033819 1813.34602272 -0.13762855 1814.56424005 -0.14513983 C1831.52604152 -0.03366502 1846.72674229 6.70574163 1859.11597311 18.251849 C1864.11597311 23.38790342 1864.11597311 23.38790342 1864.11597311 26.251849 C1864.97964499 26.35755212 1865.84331686 26.46325525 1866.73316061 26.5721615 C1880.86004398 29.41058841 1892.97528047 41.52937903 1901.37378561 52.611224 C1911.20102268 67.50631875 1913.731237 83.92279266 1913.61933768 101.30915338 C1913.62352076 102.9755242 1913.62945354 104.64189136 1913.63695514 106.30825055 C1913.6524322 110.8606092 1913.64326447 115.41262538 1913.62984333 119.96497802 C1913.61965143 124.92775614 1913.63275397 129.89048375 1913.64281666 134.85325462 C1913.65723595 143.54239432 1913.65684209 152.23143454 1913.64662802 160.92057878 C1913.63148058 173.84175988 1913.63924214 186.76285726 1913.65146125 199.68403782 C1913.67251413 222.76297054 1913.67070271 245.84185935 1913.6591456 268.92079623 C1913.64904517 289.11761325 1913.64645087 309.31441413 1913.65123618 329.51123315 C1913.6515461 330.86471618 1913.65185472 332.21819921 1913.65216206 333.57168224 C1913.65340397 339.01103331 1913.65467864 344.45038437 1913.65600111 349.88973541 C1913.65966879 365.09412662 1913.66195145 380.29851788 1913.66314566 395.50290948 C1913.66320024 396.19522978 1913.66325483 396.88755008 1913.66331106 397.60084979 C1913.66494771 419.65479911 1913.66044305 441.70874281 1913.65174735 463.76269037 C1913.65132585 464.83533529 1913.65132585 464.83533529 1913.65089584 465.92964981 C1913.64631628 477.54169852 1913.64143832 489.15374712 1913.63653515 500.7657957 C1913.61711042 546.81796576 1913.61801202 592.8700893 1913.63745749 638.92225915 C1913.64234242 650.5285086 1913.64718669 662.13475805 1913.65174735 673.74100763 C1913.65202914 674.45568704 1913.65231093 675.17036646 1913.65260126 675.90670282 C1913.66122848 697.93806546 1913.66488263 719.96942423 1913.66314566 742.00078851 C1913.66306416 743.03850237 1913.66306416 743.03850237 1913.662981 744.09718014 C1913.66173098 759.28479755 1913.65919622 774.47241455 1913.65550365 789.66003156 C1913.65418714 795.09446346 1913.6529348 800.52889538 1913.65170081 805.9633273 C1913.65139125 807.31522081 1913.65107633 808.66711431 1913.65075602 810.01900782 C1913.64598538 830.2094277 1913.65004016 850.39982939 1913.66015081 870.590247 C1913.67197815 894.20904032 1913.67036687 917.82777858 1913.64803141 941.44656581 C1913.63628662 954.28968205 1913.63551906 967.13268735 1913.65061611 979.97580071 C1913.65958995 988.55652482 1913.6539956 997.13716004 1913.63659704 1005.71787099 C1913.62708995 1010.60544083 1913.62381157 1015.49279037 1913.63822097 1020.38035321 C1913.65121654 1024.83384756 1913.6455469 1029.28692779 1913.62549832 1033.74039241 C1913.62149662 1035.33450796 1913.62406246 1036.92865844 1913.63432208 1038.522746 C1913.71491419 1052.0106174 1911.9186059 1065.38226038 1905.55347311 1077.501849 C1905.21686667 1078.15604821 1904.88026022 1078.81024743 1904.53345358 1079.48427087 C1895.79929644 1095.59315269 1880.95779503 1106.22134647 1864.01808584 1112.37770727 C1850.54306557 1116.37120532 1836.76212348 1115.81632301 1822.83552996 1115.76148363 C1818.94580726 1115.75066651 1815.05614415 1115.76331146 1811.16642773 1115.77283102 C1804.33339794 1115.78636206 1797.50049591 1115.78510787 1790.66746342 1115.77409685 C1780.43818095 1115.75768756 1770.20900161 1115.76444471 1759.97971673 1115.77562741 C1742.54388458 1115.79401122 1725.10809913 1115.79343528 1707.67226279 1115.7825039 C1690.00533218 1115.77149513 1672.3384323 1115.76918054 1654.67149985 1115.77745324 C1652.99710534 1115.77822828 1652.99710534 1115.77822828 1651.28888468 1115.77901897 C1646.7424476 1115.78115208 1642.19601055 1115.78334691 1637.64957354 1115.78562007 C1595.3111784 1115.80677384 1552.97280386 1115.8082138 1510.63440573 1115.79703027 C1509.38002567 1115.79669909 1508.12564561 1115.79636791 1506.83325402 1115.79602669 C1505.57686728 1115.79569497 1504.32048055 1115.79536325 1503.02602148 1115.79502148 C1464.75851752 1115.78493114 1426.49102207 1115.78232207 1388.22351706 1115.78711206 C1385.66153174 1115.78742197 1383.09954641 1115.7877306 1380.53756109 1115.78803794 C1370.2421545 1115.78927979 1359.94674791 1115.79055446 1349.65134133 1115.79187699 C1320.87093628 1115.79554513 1292.0905312 1115.79782746 1263.31012595 1115.79902154 C1261.99950507 1115.79907613 1260.6888842 1115.79913071 1259.33854754 1115.79918695 C1217.57284663 1115.8008242 1175.80714911 1115.79631949 1134.04144919 1115.78762323 C1133.36417754 1115.78748275 1132.68690589 1115.78734228 1131.98911085 1115.78719755 C1109.3041765 1115.78249222 1086.61924222 1115.77746792 1063.93430794 1115.77241103 C995.33561697 1115.7571295 926.73693695 1115.74875479 804.2281561 1115.77287235 C781.54893644 1115.77792524 758.86971678 1115.78291933 736.19049704 1115.78762323 C735.51341569 1115.78776421 734.83633434 1115.78790518 734.13873537 1115.78805044 C691.73309647 1115.79687239 649.32746016 1115.8007876 606.92182028 1115.79902154 C604.95733031 1115.79894004 604.95733031 1115.79894004 602.95315368 1115.79885688 C574.20479091 1115.797607 545.45642835 1115.79507251 516.70806579 1115.79137953 C506.4218311 1115.79006295 496.1355964 1115.78881063 485.8493617 1115.78757669 C483.29038502 1115.78726713 480.73140834 1115.78695221 478.17243167 1115.7866319 C439.91451492 1115.78185634 401.65660776 1115.78592562 363.39869221 1115.79602669 C361.51712211 1115.79652346 361.51712211 1115.79652346 359.5975405 1115.79703027 C357.71943728 1115.79752636 357.71943728 1115.79752636 355.80339257 1115.79803248 C313.58782779 1115.80906162 271.37228773 1115.80501455 229.15672648 1115.78390729 C224.62463314 1115.78169785 220.09253977 1115.77955104 215.56044638 1115.77745324 C214.44818426 1115.77693242 213.33592213 1115.77641159 212.18995509 1115.77587498 C194.56968401 1115.76798177 176.94944362 1115.77348226 159.3291753 1115.78452927 C142.00832376 1115.79510383 124.68752408 1115.79140815 107.36667912 1115.77247292 C97.20924926 1115.7617926 87.05196154 1115.76203122 76.89453845 1115.7783993 C70.14802382 1115.78817685 63.40161983 1115.78344306 56.65511858 1115.76693189 C52.83111112 1115.75797733 49.00738661 1115.75514004 45.18339187 1115.77019796 C10.49459824 1115.89740599 10.49459824 1115.89740599 -5.13402689 1107.689349 C-6.11532571 1107.18443933 -6.11532571 1107.18443933 -7.11644876 1106.66932946 C-21.87297584 1098.66841246 -33.09736652 1084.88021582 -38.88402689 1069.251849 C-38.88402689 1068.261849 -38.88402689 1067.271849 -38.88402689 1066.251849 C-39.44090189 1066.004349 -39.99777689 1065.756849 -40.57152689 1065.501849 C-51.69540046 1059.48894436 -58.72176241 1046.78336861 -62.88402689 1035.251849 C-65.28852757 1026.87393091 -65.16418551 1018.60432146 -65.13850248 1009.963826 C-65.1408939 1008.29557709 -65.1441601 1006.62732924 -65.14821908 1004.95908356 C-65.15684141 1000.36898904 -65.15301164 995.77897627 -65.14716335 991.18888048 C-65.14299526 986.19735472 -65.15039375 981.20584393 -65.15631586 976.21432179 C-65.16508528 967.46400423 -65.16638734 958.71371008 -65.16281259 949.96338922 C-65.15751082 936.95137565 -65.16359559 923.93938478 -65.17189552 910.92737368 C-65.18672946 887.01378922 -65.18898408 863.10021275 -65.18657514 839.18662484 C-65.1862367 835.79862149 -65.1859146 832.41061813 -65.18560946 829.02261478 C-65.18554842 828.34967134 -65.18548737 827.67672791 -65.18542448 826.98339225 C-65.18415249 812.06887592 -65.18675413 797.15436102 -65.19013553 782.23984512 C-65.19090627 778.83416389 -65.191651 775.42848265 -65.19240054 772.02280142 C-65.19270223 770.65596101 -65.19300411 769.2891206 -65.19330618 767.92228019 C-65.19345586 767.24476132 -65.19360554 766.56724245 -65.19375976 765.86919271 C-65.19406329 764.4987594 -65.19436797 763.12832609 -65.1946738 761.75789279 C-65.20334693 722.87229816 -65.20799064 683.9867048 -65.20372617 645.10110933 C-65.20364812 644.38106569 -65.20357006 643.66102206 -65.20348964 642.91915893 C-65.20261684 634.88991655 -65.20168757 626.86067419 -65.200739 618.83143182 C-65.20065349 618.10651006 -65.20056799 617.3815883 -65.20047988 616.63469921 C-65.19976909 610.61120662 -65.19976909 610.61120662 -65.19943766 607.83977537 C-65.19390149 561.46817359 -65.20144508 515.09659171 -65.22020853 468.72499353 C-65.22493073 457.04015432 -65.22961123 445.3553151 -65.23404539 433.67047578 C-65.23431871 432.95099663 -65.23459203 432.23151747 -65.23487364 431.49023592 C-65.24324453 409.31651432 -65.24792456 387.14279438 -65.24875295 364.96907121 C-65.24877932 364.27294479 -65.24880568 363.57681838 -65.24883285 362.85959722 C-65.24937362 347.57825491 -65.24900119 332.29691274 -65.24779314 317.01557047 C-65.24736751 311.54772221 -65.24700238 306.07987395 -65.24666369 300.61202568 C-65.24657839 299.25176523 -65.24648946 297.89150478 -65.24639688 296.53124433 C-65.24494805 274.85580807 -65.25207467 253.18038535 -65.26340084 231.50495234 C-65.2750488 209.06841677 -65.275616 186.63190449 -65.26355741 164.19536872 C-65.25691573 151.25793706 -65.25859 138.32056901 -65.27214593 125.3831424 C-65.28036809 116.7456908 -65.27772202 108.10828703 -65.26617066 99.47083935 C-65.25989208 94.54666723 -65.25837042 89.62261955 -65.27003399 84.69845445 C-65.28055017 80.21755277 -65.27722541 75.73688126 -65.26292947 71.25599199 C-65.26020415 69.64630536 -65.26248595 68.03660032 -65.27043661 66.42693102 C-65.35610272 47.81045264 -60.28233404 30.8107523 -46.88402689 17.251849 C-32.79556355 4.80299131 -18.44604123 -0.07245838 0 0 Z " fill="#FEFEFE" transform="translate(64.88402688503265,-0.2518489956855774)"/>
<path d="M0 0 C1.83462131 -0.00346123 1.83462131 -0.00346123 3.70630568 -0.00699239 C7.09362853 -0.01136596 10.48072361 -0.00680392 13.86802458 0.00156416 C17.54743339 0.00844283 21.22683019 0.00368221 24.90624142 0.00039864 C31.359055 -0.00375448 37.81183163 -0.00046669 44.26464093 0.0076654 C53.98434921 0.01987434 63.70403516 0.02040467 73.42374974 0.0187348 C89.71262886 0.01625099 106.00149185 0.02283605 122.29036617 0.03494453 C144.31515741 0.05128796 166.33992105 0.05515032 188.36472225 0.05688667 C241.3237506 0.06739253 294.28277433 0.09531468 347.24179745 0.12109566 C465.52617245 0.16234566 583.81054745 0.20359566 705.67929745 0.24609566 C705.67929745 355.98609566 705.67929745 711.72609566 705.67929745 1078.24609566 C899.53731164 1078.15848714 899.53731164 1078.15848714 1093.39530468 1078.04327929 C1094.89948829 1078.04226082 1096.4036719 1078.04124248 1097.90785551 1078.04022427 C1098.66206756 1078.0397137 1099.4162796 1078.03920313 1100.19334656 1078.03867709 C1126.83950871 1078.02064709 1153.48567098 1078.00281243 1180.13183348 1077.98531984 C1182.67507314 1077.98364854 1185.2183128 1077.98197212 1187.76155245 1077.98029444 C1226.70536461 1077.95462388 1265.6491762 1077.93145305 1304.59299374 1077.91565132 C1305.43047705 1077.91531146 1306.26796037 1077.91497159 1307.13082197 1077.91462143 C1320.63354341 1077.90915724 1334.13626493 1077.90390598 1347.63898647 1077.89868299 C1386.53072135 1077.88363602 1425.42245267 1077.86701462 1464.31418133 1077.8399725 C1465.51383843 1077.8391395 1465.51383843 1077.8391395 1466.73773103 1077.83828968 C1484.29462231 1077.82607062 1501.8515129 1077.81304174 1519.40840301 1077.79924609 C1526.47269757 1077.79370945 1533.53699221 1077.7882894 1540.60128689 1077.78290939 C1541.3744433 1077.78231776 1542.14759971 1077.78172613 1542.9441851 1077.78111657 C1567.85566696 1077.76211194 1592.76714135 1077.75259708 1617.67862972 1077.74805971 C1642.77286816 1077.74344561 1667.8670828 1077.72952454 1692.96130784 1077.70266932 C1696.42926896 1077.69896033 1699.89723017 1077.69535804 1703.36519146 1077.69182014 C1704.04500919 1077.69112276 1704.72482692 1077.69042537 1705.42524519 1077.68970685 C1716.84308979 1077.67828718 1728.26090527 1077.67873222 1739.67875422 1077.68232637 C1749.60904803 1077.6846343 1759.53929423 1077.67613245 1769.46957304 1077.65877155 C1775.13148396 1077.64918446 1780.79328968 1077.64436325 1786.45520499 1077.65270003 C1791.60680376 1077.66019295 1796.75819534 1077.65390289 1801.909769 1077.63665498 C1803.76114374 1077.63286531 1805.6125373 1077.6340801 1807.46390322 1077.64093965 C1826.6567779 1077.706449 1843.31586433 1074.13458268 1857.61704159 1060.50366402 C1870.7253711 1047.3953345 1875.91937613 1031.8967013 1875.95094994 1013.63253972 C1875.94726385 1012.08424491 1875.94339369 1010.53595053 1875.93935966 1008.98765659 C1875.94235841 1007.32262592 1875.9462298 1005.65759662 1875.950892 1003.99256977 C1875.96117444 999.41138066 1875.95901774 994.8302688 1875.95483664 990.24907316 C1875.95247155 985.26712095 1875.96163803 980.28518775 1875.96932083 975.30324274 C1875.9811715 966.5695916 1875.98553346 957.83596135 1875.98499966 949.10230255 C1875.98420675 936.11479801 1875.9947529 923.12731986 1876.00741523 910.13982237 C1876.03086989 885.59476126 1876.040422 861.04970414 1876.04516649 836.50463354 C1876.0456902 833.79757181 1876.04621604 831.09051009 1876.04674315 828.38344836 C1876.04687222 827.71167377 1876.04700128 827.03989918 1876.04713425 826.34776778 C1876.05004055 811.45776514 1876.05619948 796.5677644 1876.06284047 781.67776303 C1876.06556396 775.54549511 1876.06819503 769.41322715 1876.07082611 763.28095919 C1876.07111703 762.60338207 1876.07140794 761.92580495 1876.07170767 761.22769518 C1876.08832969 722.40032044 1876.10018755 683.57294661 1876.10262108 644.74556828 C1876.1027157 643.29261333 1876.10281072 641.83965839 1876.10290611 640.38670345 C1876.10333385 633.82681825 1876.10373923 627.26693306 1876.10414447 620.70704786 C1876.10432607 617.78186552 1876.10451096 614.85668318 1876.10469654 611.93150084 C1876.10478856 610.46739439 1876.10487896 609.00328794 1876.10496773 607.53918149 C1876.10778176 561.24916528 1876.12950673 514.95919261 1876.16635799 468.66919136 C1876.19383684 434.14564838 1876.21971948 399.62211374 1876.2263031 365.09855938 C1876.22650326 364.05584517 1876.22650326 364.05584517 1876.22670745 362.99206602 C1876.22957996 347.73093557 1876.23099702 332.46980528 1876.23106566 317.20867457 C1876.23110535 311.74773496 1876.2312623 306.28679535 1876.23148019 300.82585574 C1876.23153383 299.46733662 1876.23158195 298.1088175 1876.23162451 296.75029837 C1876.23236755 275.11601098 1876.24802288 253.48176658 1876.27123581 231.84749262 C1876.295166 209.44607523 1876.30090257 187.04471834 1876.28583073 164.64329206 C1876.27767556 151.7313067 1876.28338352 138.81950216 1876.30901157 125.9075387 C1876.32475329 117.28067015 1876.3222962 108.65393008 1876.30510485 100.02706463 C1876.29582495 95.11297197 1876.29436404 90.1992278 1876.31507092 85.2851622 C1876.33377815 80.80748909 1876.32912856 76.3304485 1876.30647998 71.85279913 C1876.30235048 70.24993678 1876.30644823 68.64702451 1876.32017766 67.04421565 C1876.43918579 52.15520289 1873.06097952 39.3132435 1865.67929745 26.24609566 C1877.41753412 29.47836373 1886.05311377 35.79506291 1894.67929745 44.24609566 C1895.30707088 44.83777534 1895.93484432 45.42945503 1896.5816412 46.03906441 C1900.55583428 50.1213988 1903.25107208 54.73029344 1905.86679745 59.74609566 C1906.34850399 60.64243721 1906.34850399 60.64243721 1906.83994198 61.55688667 C1913.07949968 74.15692373 1914.27151041 87.49857779 1914.18266201 101.30340004 C1914.18684509 102.96977086 1914.19277787 104.63613802 1914.20027947 106.30249721 C1914.21575653 110.85485586 1914.2065888 115.40687204 1914.19316766 119.95922468 C1914.18297576 124.9220028 1914.1960783 129.88473041 1914.206141 134.84750128 C1914.22056029 143.53664098 1914.22016642 152.2256812 1914.20995235 160.91482544 C1914.19480491 173.83600654 1914.20256648 186.75710392 1914.21478558 199.67828448 C1914.23583846 222.7572172 1914.23402705 245.83610601 1914.22246993 268.91504289 C1914.2123695 289.11185991 1914.20977521 309.3086608 1914.21456051 329.50547981 C1914.21487043 330.85896284 1914.21517905 332.21244587 1914.21548639 333.5659289 C1914.2167283 339.00527997 1914.21800297 344.44463103 1914.21932544 349.88398208 C1914.22299313 365.08837328 1914.22527578 380.29276454 1914.22646999 395.49715614 C1914.22652458 396.18947644 1914.22657916 396.88179674 1914.2266354 397.59509645 C1914.22827204 419.64904577 1914.22376738 441.70298947 1914.21507168 463.75693703 C1914.21465018 464.82958195 1914.21465018 464.82958195 1914.21422018 465.92389647 C1914.20964061 477.53594518 1914.20476265 489.14799378 1914.19985948 500.76004236 C1914.18043475 546.81221242 1914.18133635 592.86433596 1914.20078182 638.91650581 C1914.20566675 650.52275526 1914.21051102 662.12900471 1914.21507168 673.73525429 C1914.21535347 674.4499337 1914.21563526 675.16461312 1914.2159256 675.90094949 C1914.22455281 697.93231212 1914.22820696 719.96367089 1914.22646999 741.99503517 C1914.22638849 743.03274903 1914.22638849 743.03274903 1914.22630534 744.0914268 C1914.22505532 759.27904421 1914.22252055 774.46666121 1914.21882798 789.65427822 C1914.21751147 795.08871012 1914.21625914 800.52314204 1914.21502514 805.95757396 C1914.21471558 807.30946747 1914.21440066 808.66136098 1914.21408035 810.01325448 C1914.20930972 830.20367436 1914.2133645 850.39407605 1914.22347514 870.58449366 C1914.23530249 894.20328698 1914.2336912 917.82202524 1914.21135575 941.44081247 C1914.19961095 954.28392871 1914.19884339 967.12693401 1914.21394044 979.97004738 C1914.22291428 988.55077148 1914.21731993 997.13140671 1914.19992137 1005.71211765 C1914.19041428 1010.59968749 1914.1871359 1015.48703703 1914.2015453 1020.37459987 C1914.21454087 1024.82809422 1914.20887124 1029.28117445 1914.18882266 1033.73463907 C1914.18482096 1035.32875463 1914.1873868 1036.9229051 1914.19764641 1038.51699267 C1914.27823853 1052.00486406 1912.48193023 1065.37650704 1906.11679745 1077.49609566 C1905.780191 1078.15029488 1905.44358456 1078.80449409 1905.09677792 1079.47851753 C1896.36262077 1095.58739935 1881.52111936 1106.21559313 1864.58141017 1112.37195393 C1851.1063899 1116.36545198 1837.32544782 1115.81056967 1823.39885429 1115.75573029 C1819.5091316 1115.74491317 1815.61946849 1115.75755812 1811.72975206 1115.76707768 C1804.89672227 1115.78060873 1798.06382024 1115.77935454 1791.23078775 1115.76834351 C1781.00150528 1115.75193422 1770.77232594 1115.75869137 1760.54304106 1115.76987408 C1743.10720891 1115.78825788 1725.67142346 1115.78768195 1708.23558712 1115.77675056 C1690.56865651 1115.76574179 1672.90175664 1115.7634272 1655.23482418 1115.77169991 C1653.56042967 1115.77247494 1653.56042967 1115.77247494 1651.85220901 1115.77326563 C1647.30577193 1115.77539874 1642.75933488 1115.77759357 1638.21289787 1115.77986674 C1595.87450273 1115.8010205 1553.53612819 1115.80246046 1511.19773006 1115.79127693 C1509.94335 1115.79094575 1508.68896994 1115.79061457 1507.39657836 1115.79027335 C1506.14019162 1115.78994163 1504.88380488 1115.78960991 1503.58934581 1115.78926814 C1465.32184185 1115.7791778 1427.0543464 1115.77656873 1388.78684139 1115.78135872 C1386.22485607 1115.78166864 1383.66287075 1115.78197726 1381.10088542 1115.7822846 C1370.80547883 1115.78352645 1360.51007225 1115.78480112 1350.21466567 1115.78612365 C1321.43426062 1115.78979179 1292.65385554 1115.79207412 1263.87345028 1115.7932682 C1262.5628294 1115.79332279 1261.25220853 1115.79337737 1259.90187187 1115.79343361 C1218.13617096 1115.79507086 1176.37047344 1115.79056616 1134.60477352 1115.78186989 C1133.92750187 1115.78172942 1133.25023022 1115.78158894 1132.55243519 1115.78144421 C1109.86750083 1115.77673888 1087.18256655 1115.77171458 1064.49763227 1115.76665769 C995.8989413 1115.75137616 927.30026128 1115.74300145 804.79148044 1115.76711902 C782.11226078 1115.7721719 759.43304111 1115.77716599 736.75382137 1115.78186989 C736.07674002 1115.78201087 735.39965867 1115.78215185 734.7020597 1115.7822971 C692.2964208 1115.79111905 649.8907845 1115.79503426 607.48514462 1115.7932682 C605.52065465 1115.7931867 605.52065465 1115.7931867 603.51647801 1115.79310355 C574.76811524 1115.79185366 546.01975268 1115.78931917 517.27139012 1115.78562619 C506.98515543 1115.78430961 496.69892073 1115.78305729 486.41268603 1115.78182335 C483.85370935 1115.78151379 481.29473268 1115.78119887 478.735756 1115.78087856 C440.47783925 1115.776103 402.21993209 1115.78017228 363.96201654 1115.79027335 C362.08044644 1115.79077012 362.08044644 1115.79077012 360.16086483 1115.79127693 C358.28276161 1115.79177303 358.28276161 1115.79177303 356.36671691 1115.79227914 C314.15115212 1115.80330828 271.93561206 1115.79926121 229.72005081 1115.77815396 C225.18795747 1115.77594451 220.65586411 1115.7737977 216.12377071 1115.77169991 C215.01150859 1115.77117908 213.89924646 1115.77065825 212.75327943 1115.77012164 C195.13300834 1115.76222843 177.51276795 1115.76772892 159.89249963 1115.77877593 C142.57164809 1115.78935049 125.25084841 1115.78565481 107.93000345 1115.76671958 C97.77257359 1115.75603927 87.61528587 1115.75627788 77.45786278 1115.77264597 C70.71134816 1115.78242351 63.96494416 1115.77768972 57.21844291 1115.76117855 C53.39443545 1115.752224 49.57071094 1115.7493867 45.7467162 1115.76444462 C11.05792257 1115.89165265 11.05792257 1115.89165265 -4.57070255 1107.68359566 C-5.55200138 1107.17868599 -5.55200138 1107.17868599 -6.55312443 1106.66357613 C-21.30965151 1098.66265912 -32.53404219 1084.87446248 -38.32070255 1069.24609566 C-38.32070255 1068.25609566 -38.32070255 1067.26609566 -38.32070255 1066.24609566 C-38.87757755 1065.99859566 -39.43445255 1065.75109566 -40.00820255 1065.49609566 C-51.13207613 1059.48319102 -58.15843808 1046.77761527 -62.32070255 1035.24609566 C-64.72520324 1026.86817757 -64.60086118 1018.59856812 -64.57517815 1009.95807266 C-64.57756957 1008.28982375 -64.58083577 1006.62157591 -64.58489475 1004.95333022 C-64.59351708 1000.3632357 -64.58968731 995.77322293 -64.58383902 991.18312714 C-64.57967093 986.19160138 -64.58706942 981.20009059 -64.59299153 976.20856845 C-64.60176094 967.4582509 -64.60306301 958.70795674 -64.59948826 949.95763588 C-64.59418648 936.94562231 -64.60027126 923.93363144 -64.60857119 910.92162034 C-64.62340513 887.00803588 -64.62565975 863.09445941 -64.62325081 839.18087151 C-64.62291236 835.79286815 -64.62259027 832.4048648 -64.62228513 829.01686144 C-64.62222408 828.343918 -64.62216304 827.67097457 -64.62210015 826.97763891 C-64.62082816 812.06312258 -64.6234298 797.14860768 -64.62681119 782.23409178 C-64.62758194 778.82841055 -64.62832666 775.42272932 -64.62907621 772.01704808 C-64.6293779 770.65020767 -64.62967978 769.28336726 -64.62998185 767.91652685 C-64.63013153 767.23900798 -64.63028121 766.56148911 -64.63043543 765.86343937 C-64.63073896 764.49300606 -64.63104364 763.12257276 -64.63134947 761.75213945 C-64.6400226 722.86654482 -64.64466631 683.98095146 -64.64040184 645.09535599 C-64.64032378 644.37531236 -64.64024573 643.65526872 -64.6401653 642.91340559 C-64.63929251 634.88416322 -64.63836324 626.85492085 -64.63741467 618.82567848 C-64.63732916 618.10075672 -64.63724365 617.37583496 -64.63715555 616.62894588 C-64.63644476 610.60545328 -64.63644476 610.60545328 -64.63611333 607.83402203 C-64.63057716 561.46242025 -64.63812075 515.09083837 -64.65688419 468.71924019 C-64.6616064 457.03440098 -64.6662869 445.34956176 -64.67072105 433.66472244 C-64.67099438 432.94524329 -64.6712677 432.22576413 -64.6715493 431.48448258 C-64.6799202 409.31076098 -64.68460022 387.13704104 -64.68542862 364.96331787 C-64.68545499 364.26719145 -64.68548135 363.57106504 -64.68550852 362.85384388 C-64.68604929 347.57250157 -64.68567686 332.2911594 -64.6844688 317.00981713 C-64.68404318 311.54196887 -64.68367805 306.07412061 -64.68333936 300.60627234 C-64.68325406 299.24601189 -64.68316512 297.88575144 -64.68307254 296.52549099 C-64.68162372 274.85005474 -64.68875034 253.17463201 -64.7000765 231.499199 C-64.71172447 209.06266343 -64.71229167 186.62615116 -64.70023308 164.18961538 C-64.6935914 151.25218373 -64.69526567 138.31481567 -64.70882159 125.37738906 C-64.71704375 116.73993747 -64.71439769 108.10253369 -64.70284633 99.46508601 C-64.69656774 94.54091389 -64.69504609 89.61686621 -64.70670966 84.69270112 C-64.71722584 80.21179943 -64.71390108 75.73112793 -64.69960513 71.25023865 C-64.69687982 69.64055202 -64.69916162 68.03084698 -64.70711228 66.42117768 C-64.79277839 47.8046993 -59.71900971 30.80499896 -46.32070255 17.24609566 C-32.46477587 5.00271217 -18.18207897 -0.08466482 0 0 Z " fill="#53D3F5" transform="translate(64.32070255279541,-0.2460956573486328)"/>
<path d="M0 0 C11.73823667 3.23226807 20.37381632 9.54896726 29 18 C29.62777344 18.59167969 30.25554687 19.18335937 30.90234375 19.79296875 C34.87653683 23.87530314 37.57177464 28.48419779 40.1875 33.5 C40.66920654 34.39634155 40.66920654 34.39634155 41.16064453 35.31079102 C47.40020223 47.91082807 48.59221296 61.25248213 48.50336456 75.05730438 C48.50754765 76.7236752 48.51348042 78.39004237 48.52098203 80.05640155 C48.53645908 84.6087602 48.52729135 89.16077638 48.51387022 93.71312902 C48.50367831 98.67590714 48.51678085 103.63863475 48.52684355 108.60140562 C48.54126284 117.29054533 48.54086898 125.97958555 48.53065491 134.66872978 C48.51550746 147.58991088 48.52326903 160.51100826 48.53548814 173.43218882 C48.55654101 196.51112154 48.5547296 219.59001035 48.54317249 242.66894723 C48.53307206 262.86576425 48.53047776 283.06256514 48.53526306 303.25938416 C48.53557298 304.61286718 48.53588161 305.96635021 48.53618894 307.31983325 C48.53743085 312.75918431 48.53870553 318.19853537 48.540028 323.63788642 C48.54369568 338.84227762 48.54597834 354.04666889 48.54717255 369.25106049 C48.54722713 369.94338079 48.54728171 370.63570109 48.54733795 371.34900079 C48.54897459 393.40295011 48.54446993 415.45689381 48.53577423 437.51084137 C48.53535274 438.58348629 48.53535274 438.58348629 48.53492273 439.67780081 C48.53034316 451.28984953 48.52546521 462.90189812 48.52056203 474.5139467 C48.50113731 520.56611676 48.50203891 566.6182403 48.52148438 612.67041016 C48.5263693 624.2766596 48.53121357 635.88290905 48.53577423 647.48915863 C48.53605602 648.20383805 48.53633782 648.91851746 48.53662815 649.65485383 C48.54525537 671.68621647 48.54890952 693.71757524 48.54717255 715.74893951 C48.54709104 716.78665337 48.54709104 716.78665337 48.54700789 717.84533114 C48.54575787 733.03294855 48.54322311 748.22056556 48.53953053 763.40818257 C48.53821402 768.84261447 48.53696169 774.27704638 48.53572769 779.71147831 C48.53541814 781.06337181 48.53510321 782.41526532 48.53478291 783.76715882 C48.53001227 803.9575787 48.53406705 824.14798039 48.54417769 844.338398 C48.55600504 867.95719132 48.55439376 891.57592958 48.5320583 915.19471681 C48.5203135 928.03783305 48.51954595 940.88083835 48.534643 953.72395172 C48.54361684 962.30467583 48.53802248 970.88531105 48.52062392 979.46602199 C48.51111684 984.35359183 48.50783846 989.24094138 48.52224785 994.12850422 C48.53524342 998.58199856 48.52957379 1003.03507879 48.50952521 1007.48854341 C48.50552351 1009.08265897 48.50808935 1010.67680945 48.51834896 1012.27089701 C48.59894108 1025.7587684 46.80263278 1039.13041138 40.4375 1051.25 C40.10089355 1051.90419922 39.76428711 1052.55839844 39.41748047 1053.23242188 C30.68332333 1069.3413037 15.84182191 1079.96949747 -1.09788728 1086.12585828 C-14.57290755 1090.11935632 -28.35384963 1089.56447401 -42.28044315 1089.50963464 C-46.17016585 1089.49881751 -50.05982896 1089.51146246 -53.94954538 1089.52098203 C-60.78257518 1089.53451307 -67.61547721 1089.53325888 -74.44850969 1089.52224785 C-84.67779216 1089.50583857 -94.90697151 1089.51259572 -105.13625639 1089.52377842 C-122.57208854 1089.54216222 -140.00787399 1089.54158629 -157.44371033 1089.53065491 C-175.11064093 1089.51964614 -192.77754081 1089.51733154 -210.44447327 1089.52560425 C-212.11886778 1089.52637928 -212.11886778 1089.52637928 -213.82708844 1089.52716998 C-218.37352552 1089.52930308 -222.91996256 1089.53149792 -227.46639958 1089.53377108 C-269.80479471 1089.55492484 -312.14316925 1089.55636481 -354.48156738 1089.54518127 C-355.73594745 1089.54485009 -356.99032751 1089.54451891 -358.28271909 1089.54417769 C-359.53910583 1089.54384597 -360.79549257 1089.54351426 -362.08995163 1089.54317249 C-400.35745559 1089.53308214 -438.62495104 1089.53047308 -476.89245605 1089.53526306 C-479.45444138 1089.53557298 -482.0164267 1089.5358816 -484.57841203 1089.53618894 C-494.87381862 1089.5374308 -505.1692252 1089.53870546 -515.46463178 1089.540028 C-544.24503683 1089.54369613 -573.02544191 1089.54597846 -601.80584717 1089.54717255 C-603.11646804 1089.54722713 -604.42708892 1089.54728171 -605.77742558 1089.54733795 C-647.54312648 1089.5489752 -689.30882401 1089.5444705 -731.07452393 1089.53577423 C-731.75179558 1089.53563376 -732.42906723 1089.53549328 -733.12686226 1089.53534856 C-755.81179661 1089.53064322 -778.4967309 1089.52561892 -801.18166517 1089.52056203 C-869.78035614 1089.5052805 -938.37903617 1089.4969058 -1060.88781701 1089.52102336 C-1083.56703667 1089.52607624 -1106.24625634 1089.53107033 -1128.92547607 1089.53577423 C-1129.60255743 1089.53591521 -1130.27963878 1089.53605619 -1130.97723775 1089.53620144 C-1173.38287665 1089.54502339 -1215.78851295 1089.5489386 -1258.19415283 1089.54717255 C-1260.1586428 1089.54709104 -1260.1586428 1089.54709104 -1262.16281943 1089.54700789 C-1290.91118221 1089.54575801 -1319.65954476 1089.54322351 -1348.40790732 1089.53953053 C-1358.69414202 1089.53821395 -1368.98037671 1089.53696163 -1379.26661142 1089.53572769 C-1381.82558809 1089.53541814 -1384.38456477 1089.53510322 -1386.94354145 1089.53478291 C-1425.2014582 1089.53000734 -1463.45936536 1089.53407662 -1501.71728091 1089.54417769 C-1503.598851 1089.54467447 -1503.598851 1089.54467447 -1505.51843262 1089.54518127 C-1507.39653584 1089.54567737 -1507.39653584 1089.54567737 -1509.31258054 1089.54618348 C-1551.52814532 1089.55721262 -1593.74368539 1089.55316556 -1635.95924664 1089.5320583 C-1640.49133998 1089.52984886 -1645.02343334 1089.52770204 -1649.55552673 1089.52560425 C-1650.66778886 1089.52508342 -1651.78005098 1089.52456259 -1652.92601802 1089.52402598 C-1670.54628911 1089.51613277 -1688.16652949 1089.52163326 -1705.78679781 1089.53268027 C-1723.10764936 1089.54325483 -1740.42844904 1089.53955915 -1757.749294 1089.52062392 C-1767.90672385 1089.50994361 -1778.06401157 1089.51018222 -1788.22143466 1089.52655031 C-1794.96794929 1089.53632786 -1801.71435328 1089.53159406 -1808.46085453 1089.51508289 C-1812.28486199 1089.50612834 -1816.10858651 1089.50329105 -1819.93258125 1089.51834896 C-1854.62137488 1089.64555699 -1854.62137488 1089.64555699 -1870.25 1081.4375 C-1871.23129883 1080.93259033 -1871.23129883 1080.93259033 -1872.23242188 1080.41748047 C-1886.80775183 1072.51480767 -1898.57570779 1058.61469891 -1904 1043 C-1903.67 1042.34 -1903.34 1041.68 -1903 1041 C-1901.67548828 1041.70576172 -1901.67548828 1041.70576172 -1900.32421875 1042.42578125 C-1899.11226805 1043.05524402 -1897.90001149 1043.68411813 -1896.6875 1044.3125 C-1896.11193359 1044.62123047 -1895.53636719 1044.92996094 -1894.94335938 1045.24804688 C-1885.21878869 1050.24174533 -1875.69756354 1051.44175141 -1864.87513882 1051.37604749 C-1862.94383371 1051.38235792 -1862.94383371 1051.38235792 -1860.97351233 1051.38879583 C-1857.40758463 1051.40001985 -1853.84190392 1051.39267326 -1850.27598288 1051.38222598 C-1846.3791215 1051.37415136 -1842.48229468 1051.38358355 -1838.58543691 1051.39073652 C-1831.73205853 1051.4009093 -1824.87875173 1051.39992681 -1818.0253718 1051.39168589 C-1807.76559547 1051.37940461 -1797.50587718 1051.38443571 -1787.24609953 1051.39283381 C-1769.76038588 1051.40663756 -1752.2746984 1051.40618197 -1734.78898239 1051.39799118 C-1717.06674481 1051.38974014 -1699.34452446 1051.38799421 -1681.62228584 1051.39420319 C-1679.943844 1051.39478446 -1679.943844 1051.39478446 -1678.23149423 1051.39537748 C-1673.67420895 1051.39697728 -1669.11692368 1051.3986234 -1664.55963843 1051.40032831 C-1622.10110172 1051.41620117 -1579.64257656 1051.41727027 -1537.18403816 1051.40888596 C-1535.92560164 1051.40863757 -1534.66716513 1051.40838918 -1533.37059417 1051.40813327 C-1531.47992654 1051.40776009 -1531.47992654 1051.40776009 -1529.5510636 1051.40737936 C-1491.17319035 1051.39981418 -1452.79532188 1051.39785361 -1414.41744804 1051.4014473 C-1411.84892779 1051.40167973 -1409.28040753 1051.4019112 -1406.71188727 1051.40214171 C-1396.39043136 1051.40307308 -1386.06897544 1051.40402908 -1375.74751953 1051.405021 C-1346.8934826 1051.40777222 -1318.03944565 1051.40948388 -1289.18540859 1051.41037941 C-1287.87138746 1051.41042035 -1286.55736632 1051.41046128 -1285.20352637 1051.41050346 C-1243.32377636 1051.41173157 -1201.44402808 1051.40835203 -1159.5642786 1051.40183067 C-1158.88506866 1051.40172532 -1158.20585872 1051.40161996 -1157.50606666 1051.40151142 C-1134.75565336 1051.39798233 -1112.0052401 1051.39421415 -1089.25482684 1051.39042152 C-1020.45774732 1051.37896044 -951.66067395 1051.37267902 -828.79994978 1051.39076752 C-806.05652152 1051.39455714 -783.31309326 1051.39830267 -760.56966496 1051.40183067 C-759.55118985 1051.40198927 -759.55118985 1051.40198927 -758.51213949 1051.40215108 C-715.99188758 1051.40876685 -673.47163697 1051.41170408 -630.95138454 1051.41037941 C-629.63831109 1051.41033866 -628.32523764 1051.4102979 -626.97237409 1051.41025592 C-598.14994495 1051.40931853 -569.32751594 1051.40741772 -540.50508692 1051.4046479 C-530.19246368 1051.40366045 -519.87984044 1051.40272121 -509.5672172 1051.40179577 C-507.00163532 1051.4015636 -504.43605344 1051.40132741 -501.87047156 1051.40108718 C-463.50212911 1051.39750443 -425.13379204 1051.40055956 -386.76545025 1051.40813327 C-385.50709653 1051.40838166 -384.24874281 1051.40863004 -382.95225716 1051.40888596 C-381.69621825 1051.409134 -380.44017933 1051.40938205 -379.14607864 1051.40963761 C-336.81059203 1051.41790674 -294.4751193 1051.41487974 -252.13963468 1051.39904372 C-247.59612821 1051.39738662 -243.05262172 1051.39577651 -238.50911522 1051.39420319 C-237.39404 1051.39381257 -236.27896479 1051.39342195 -235.13009941 1051.39301949 C-217.45385115 1051.38709588 -199.7776201 1051.39122887 -182.10137339 1051.3995102 C-164.73214512 1051.40743445 -147.36294595 1051.40468158 -129.99372138 1051.39046794 C-119.80336454 1051.38244758 -109.61308739 1051.38265431 -99.42273432 1051.39491273 C-92.65946513 1051.402231 -85.89625815 1051.39871904 -79.13299651 1051.38631217 C-75.29620595 1051.37957848 -71.45957435 1051.37750989 -67.62279078 1051.38876172 C-63.49846765 1051.40075251 -59.37452883 1051.3895088 -55.25021034 1051.37604749 C-53.48173583 1051.38680583 -53.48173583 1051.38680583 -51.67753456 1051.39778151 C-34.19088798 1051.28135141 -18.98016178 1045.17547428 -6.625 1032.8203125 C6.97736168 1018.20587034 10.31052923 1002.1112545 10.26006222 982.74156094 C10.26306096 981.07653026 10.26693235 979.41150097 10.27159455 977.74647412 C10.281877 973.165285 10.27972029 968.58417314 10.27553919 964.0029775 C10.2731741 959.02102529 10.28234058 954.03909209 10.29002339 949.05714709 C10.30187406 940.32349594 10.30623601 931.5898657 10.30570221 922.85620689 C10.3049093 909.86870235 10.31545545 896.88122421 10.32811778 883.89372671 C10.35157245 859.3486656 10.36112455 834.80360848 10.36586904 810.25853788 C10.36639275 807.55147616 10.36691859 804.84441443 10.36744571 802.13735271 C10.36757477 801.46557811 10.36770383 800.79380352 10.3678368 800.10167212 C10.3707431 785.21166948 10.37690203 770.32166874 10.38354302 755.43166737 C10.38626651 749.29939945 10.38889758 743.16713149 10.39152867 737.03486353 C10.39181958 736.35728641 10.39211049 735.67970929 10.39241022 734.98159953 C10.40903225 696.15422478 10.4208901 657.32685095 10.42332363 618.49947262 C10.42341826 617.04651768 10.42351327 615.59356273 10.42360866 614.14060779 C10.4240364 607.5807226 10.42444178 601.0208374 10.42484702 594.46095221 C10.42502862 591.53576987 10.42521351 588.61058752 10.42539909 585.68540518 C10.42549111 584.22129873 10.42558151 582.75719229 10.42567028 581.29308584 C10.42848431 535.00306962 10.45020928 488.71309695 10.48706055 442.4230957 C10.5145394 407.89955272 10.54042204 373.37601809 10.54700565 338.85246372 C10.54720581 337.80974951 10.54720581 337.80974951 10.54741001 336.74597037 C10.55028252 321.48483991 10.55169957 306.22370963 10.55176822 290.96257891 C10.5518079 285.5016393 10.55196485 280.04069969 10.55218274 274.57976009 C10.55223639 273.22124096 10.5522845 271.86272184 10.55232707 270.50420272 C10.55307011 248.86991532 10.56872544 227.23567092 10.59193837 205.60139696 C10.61586855 183.19997957 10.62160512 160.79862268 10.60653328 138.3971964 C10.59837812 125.48521104 10.60408607 112.5734065 10.62971413 99.66144304 C10.64545584 91.03457449 10.64299875 82.40783442 10.6258074 73.78096897 C10.6165275 68.86687631 10.61506659 63.95313214 10.63577347 59.03906655 C10.65448071 54.56139343 10.64983111 50.08435285 10.62718253 45.60670347 C10.62305304 44.00384113 10.62715078 42.40092885 10.64088022 40.79811999 C10.75988834 25.90910723 7.38168208 13.06714785 0 0 Z " fill="#000000" transform="translate(1930,26)"/>
<path d="M0 0 C0.66 0.33 1.32 0.66 2 1 C-1.3 4.3 -4.6 7.6 -8 11 C-8.66 10.67 -9.32 10.34 -10 10 C-7.02911382 6.00073014 -3.87051275 3.07881696 0 0 Z " fill="#78DBF8" transform="translate(24,12)"/>
</svg>
