<svg version="1.1" id="Layer_1" xmlns="http://www.w3.org/2000/svg" xmlns:xlink="http://www.w3.org/1999/xlink" x="0px" y="0px"
	 width="100%" viewBox="0 0 51 72" enable-background="new 0 0 51 72" xml:space="preserve">
<path fill="#F9F9F9" opacity="1.000000" stroke="none" 
	d="
M52.000000,23.999840 
	C52.000000,40.666561 52.000000,56.833229 52.000000,72.999924 
	C35.000038,72.999947 18.000076,72.999947 1.000086,72.999969 
	C1.000057,49.000042 1.000057,25.000082 1.000029,1.000093 
	C17.999956,1.000062 34.999912,1.000062 51.999935,1.000031 
	C52.000000,8.499928 52.000000,15.999856 52.000000,23.999840 
M22.611612,3.922336 
	C18.170176,4.531225 13.741933,5.277772 9.283096,5.705127 
	C5.762843,6.042524 5.210079,7.914004 5.193294,11.082575 
	C5.098042,29.063745 4.757109,47.043533 4.539948,65.024277 
	C4.520536,66.631538 4.787941,68.242256 4.964934,70.364494 
	C17.362658,69.575935 29.370274,68.812187 41.134827,68.063896 
	C40.715042,60.774040 40.735031,54.454433 39.897278,48.250656 
	C38.836090,40.392300 39.979858,34.280022 48.983330,32.409874 
	C49.062931,32.393341 49.088242,32.115429 49.483021,30.900610 
	C47.065113,29.364540 44.551277,27.266256 41.664848,26.058167 
	C37.886909,24.476942 37.481266,21.911068 38.215534,18.510675 
	C39.227821,13.822790 40.175674,9.120991 41.266651,3.869023 
	C35.149361,3.869023 29.365786,3.869023 22.611612,3.922336 
z"/>
<path fill="#1A1A1A" opacity="1.000000" stroke="none" 
	d="
M23.096912,3.895679 
	C29.365786,3.869023 35.149361,3.869023 41.266651,3.869023 
	C40.175674,9.120991 39.227821,13.822790 38.215534,18.510675 
	C37.481266,21.911068 37.886909,24.476942 41.664848,26.058167 
	C44.551277,27.266256 47.065113,29.364540 49.483021,30.900610 
	C49.088242,32.115429 49.062931,32.393341 48.983330,32.409874 
	C39.979858,34.280022 38.836090,40.392300 39.897278,48.250656 
	C40.735031,54.454433 40.715042,60.774040 41.134827,68.063896 
	C29.370274,68.812187 17.362658,69.575935 4.964934,70.364494 
	C4.787941,68.242256 4.520536,66.631538 4.539948,65.024277 
	C4.757109,47.043533 5.098042,29.063745 5.193294,11.082575 
	C5.210079,7.914004 5.762843,6.042524 9.283096,5.705127 
	C13.741933,5.277772 18.170176,4.531225 23.096912,3.895679 
M43.606884,31.498323 
	C40.348228,29.167301 37.089573,26.836279 34.549637,25.019381 
	C35.761070,18.645721 36.867893,12.822461 38.199009,5.819140 
	C27.671272,6.545212 17.881647,7.220378 7.543732,7.933359 
	C7.543732,28.597773 7.543732,48.029278 7.543732,67.815140 
	C17.522150,67.113861 27.707449,66.398048 38.024639,65.672958 
	C37.645061,57.358040 38.079189,49.577934 36.704208,42.131897 
	C35.571915,36.000088 38.355530,33.809906 43.606884,31.498323 
z"/>
<path fill="#FCFCFC" opacity="1.000000" stroke="none" 
	d="
M43.252274,31.707644 
	C38.355530,33.809906 35.571915,36.000088 36.704208,42.131897 
	C38.079189,49.577934 37.645061,57.358040 38.024639,65.672958 
	C27.707449,66.398048 17.522150,67.113861 7.543732,67.815140 
	C7.543732,48.029278 7.543732,28.597773 7.543732,7.933359 
	C17.881647,7.220378 27.671272,6.545212 38.199009,5.819140 
	C36.867893,12.822461 35.761070,18.645721 34.549637,25.019381 
	C37.089573,26.836279 40.348228,29.167301 43.252274,31.707644 
z"/>
</svg>