<svg id="svg" xmlns="http://www.w3.org/2000/svg" xmlns:xlink="http://www.w3.org/1999/xlink" width="400" height="287.8048780487805" viewBox="0, 0, 400,287.8048780487805"><g id="svgg"><path id="path0" d="M131.363 20.974 C 63.330 40.325,14.634 97.778,14.634 158.694 C 14.634 300.888,302.018 325.274,329.983 185.452 C 331.717 176.780,341.334 167.479,361.660 154.815 C 393.431 135.022,394.870 126.829,366.578 126.829 C 349.087 126.829,348.130 125.950,342.435 104.657 C 325.407 40.991,214.950 -2.801,131.363 20.974 M251.175 39.365 C 293.988 52.589,322.644 79.871,331.979 116.294 C 336.988 135.840,340.565 141.463,347.985 141.463 C 355.461 141.463,353.974 143.867,341.151 152.508 C 330.151 159.921,323.659 168.946,321.407 179.956 C 294.749 310.302,29.268 289.305,29.268 156.850 C 29.268 62.068,138.110 4.443,251.175 39.365 " stroke="none" fill="#000000" fill-rule="evenodd"></path></g></svg>