<svg id="svg" xmlns="http://www.w3.org/2000/svg" xmlns:xlink="http://www.w3.org/1999/xlink" width="400" height="356.25" viewBox="0, 0, 400,356.25"><g id="svgg"><path id="path0" d="M170.224 25.374 C 21.510 54.694,-36.054 192.253,68.151 269.295 C 80.764 278.621,88.061 291.913,93.878 316.157 C 103.550 356.476,106.183 357.083,136.188 325.911 C 158.328 302.909,161.633 301.645,209.375 297.914 C 343.818 287.408,402.031 224.684,372.289 122.375 C 347.966 38.708,276.531 4.415,170.224 25.374 M299.567 50.508 C 359.110 83.973,380.605 176.264,340.961 228.240 C 318.666 257.470,286.506 269.878,210.353 278.630 C 156.369 284.835,139.658 289.166,128.213 299.917 L 113.846 313.414 108.486 297.708 C 105.537 289.069,93.418 275.484,81.554 267.519 C 30.205 233.045,12.438 156.352,44.845 109.058 C 88.393 45.503,231.951 12.505,299.567 50.508 " stroke="none" fill="#000000" fill-rule="evenodd"></path></g></svg>