<svg id="svg" xmlns="http://www.w3.org/2000/svg" xmlns:xlink="http://www.w3.org/1999/xlink" width="400" height="217.0542635658915" viewBox="0, 0, 400,217.0542635658915"><g id="svgg"><path id="path0" d="M144.226 12.539 C 79.106 17.050,20.891 24.207,18.554 27.989 C 10.875 40.414,14.386 164.458,22.649 172.683 C 25.407 175.429,34.297 175.656,57.364 173.569 C 131.019 166.905,148.008 169.837,157.918 190.918 C 165.648 207.364,168.080 207.818,176.391 194.370 C 188.638 174.553,189.535 174.250,255.981 167.496 C 289.998 164.038,328.295 159.819,341.085 158.121 C 353.876 156.423,369.816 154.685,376.507 154.261 L 388.673 153.488 387.903 130.264 C 387.129 106.944,374.016 19.494,370.812 16.290 C 366.303 11.781,195.887 8.961,144.226 12.539 M344.702 20.601 L 365.373 22.554 370.200 48.574 C 375.741 78.445,383.033 142.055,381.127 143.890 C 379.160 145.784,304.831 154.857,237.209 161.458 C 195.267 165.552,182.669 169.551,175.040 181.196 L 169.752 189.266 159.653 177.579 L 149.553 165.891 103.459 165.891 C 78.107 165.891,50.225 166.850,41.499 168.022 L 25.634 170.152 23.649 152.518 C 18.250 104.554,17.619 41.739,22.487 36.870 C 27.239 32.119,62.196 27.573,137.984 21.849 C 177.382 18.873,317.458 18.028,344.702 20.601 " stroke="none" fill="#000000" fill-rule="evenodd"></path></g></svg>