<?xml version="1.0"?>
<svg width="94" height="94" xmlns="http://www.w3.org/2000/svg" xmlns:svg="http://www.w3.org/2000/svg" version="1.1">
 <g class="layer">
  <title>Layer 1</title>
  <path d="m0,0c4.91,-0.11 9.82,-0.19 14.73,-0.23c1.45,-0.01 2.89,-0.03 4.34,-0.05c1.98,-0.02 3.96,-0.02 5.95,-0.02c1.1,0 2.2,-0.01 3.33,-0.01c3.19,0.42 4.54,1.12 6.81,3.37c1.08,3.24 1.14,5.61 1.16,9.02c0.01,1.23 0.02,2.47 0.03,3.75c0,1.35 0.01,2.71 0.01,4.06c0.01,1.39 0.01,2.78 0.02,4.17c0.01,2.92 0.02,5.84 0.02,8.76c0.01,3.73 0.03,7.45 0.06,11.18c0.02,2.88 0.02,5.75 0.02,8.63c0.01,1.37 0.01,2.74 0.03,4.12c0.14,15.53 0.14,15.53 -5.11,21.22c-3.05,1.49 -5.73,1.45 -9.12,1.59c-5.41,0.6 -5.41,0.6 -9.37,4.07c-1.47,2.77 -2.71,5.47 -3.75,8.43c-3.5,-1.39 -4.71,-2.71 -6.25,-6.12c-0.34,-0.73 -0.67,-1.45 -1.02,-2.2c-0.24,-0.55 -0.48,-1.11 -0.73,-1.68c-0.55,0.01 -1.11,0.02 -1.67,0.02c-5.76,0.07 -11.52,0.11 -17.28,0.15c-2.15,0.01 -4.3,0.03 -6.45,0.06c-3.09,0.04 -6.18,0.05 -9.27,0.07c-0.96,0.01 -1.92,0.03 -2.9,0.04c-8.65,0 -8.65,0 -12.43,-3.34c-3.14,-5.48 -3.69,-12.36 -4.19,-18.56c-0.08,-0.94 -0.15,-1.88 -0.23,-2.85c-0.76,-10.56 -0.83,-21.13 -0.89,-31.71c-0.01,-0.9 -0.02,-1.79 -0.03,-2.72c-0.03,-2.57 -0.03,-5.15 -0.02,-7.73c-0.01,-0.77 -0.02,-1.55 -0.03,-2.35c0.03,-3.2 0.36,-5.99 1.31,-9.05c3.38,-3.3 7.11,-2.86 11.68,-2.95c0.97,-0.04 1.94,-0.08 2.94,-0.12c3.17,-0.11 6.35,-0.19 9.52,-0.27c2.18,-0.07 4.36,-0.14 6.54,-0.21c7.41,-0.23 14.82,-0.38 22.24,-0.54zm-51.84,6.06c-1.09,3.96 -1.15,7.73 -1.13,11.82c0.01,0.78 0.01,1.56 0.02,2.37c0.13,14.53 0.71,29 2.36,43.44c0.1,0.96 0.19,1.93 0.29,2.92c0.12,0.91 0.23,1.81 0.35,2.74c0.09,0.79 0.19,1.58 0.28,2.4c1.29,3.59 2.73,5.07 5.83,7.31c3.53,0.68 6.97,0.59 10.55,0.49c1.52,-0.01 1.52,-0.01 3.07,-0.02c3.23,-0.03 6.46,-0.09 9.69,-0.15c2.2,-0.03 4.39,-0.05 6.58,-0.07c5.37,-0.06 10.74,-0.14 16.11,-0.25c1.65,2.97 3.3,5.94 5,9c2.76,-3.22 4.52,-6.03 6,-10c1.04,-0.1 2.07,-0.19 3.14,-0.29c1.37,-0.15 2.74,-0.31 4.11,-0.46c0.68,-0.06 1.36,-0.12 2.07,-0.18c3.34,-0.4 5.42,-0.87 8.1,-2.96c2.72,-3.64 2.71,-6.69 2.71,-11.09c0,-1.85 0,-1.85 0.01,-3.73c0,-1.35 -0.01,-2.69 -0.01,-4.04c0,-1.38 0,-2.75 0.01,-4.13c0,-2.89 -0.01,-5.78 -0.01,-8.67c-0.01,-3.7 0,-7.4 0,-11.11c0.01,-2.84 0.01,-5.69 0,-8.53c0,-1.37 0,-2.73 0.01,-4.1c0,-1.91 -0.01,-3.82 -0.01,-5.72c0,-1.09 0,-2.17 0,-3.29c-0.01,-2.8 -0.01,-2.8 -1.13,-5.7c-3,-1.5 -6.08,-1.14 -9.38,-1.12c-0.79,0 -1.58,0 -2.39,0.01c-24.1,0.19 -48.18,1.7 -72.23,3.11z" fill="#000000" id="svg_1" transform="translate(55.84027099609375,0.9375)"/>
 </g>
</svg>