<?xml version="1.0" standalone="no"?>
<!DOCTYPE svg PUBLIC "-//W3C//DTD SVG 20010904//EN"
 "http://www.w3.org/TR/2001/REC-SVG-20010904/DTD/svg10.dtd">
<svg version="1.0" xmlns="http://www.w3.org/2000/svg"
 width="100.000000pt" height="65.000000pt" viewBox="0 0 100.000000 65.000000"
 preserveAspectRatio="xMidYMid meet">

<g transform="translate(0.000000,65.000000) scale(0.100000,-0.100000)"
fill="#000000" stroke="none">
<path d="M455 629 c-89 -11 -231 -52 -294 -84 -141 -71 -186 -242 -89 -342 37
-38 75 -53 178 -67 l74 -11 14 -47 c7 -27 17 -48 21 -48 8 0 23 32 36 77 7 26
15 28 211 41 191 13 267 48 333 150 40 63 49 119 27 177 -49 128 -245 187
-511 154z m331 -33 c183 -57 222 -215 83 -340 -68 -62 -116 -78 -269 -88 -220
-15 -216 -14 -227 -51 l-10 -32 -13 33 c-9 24 -17 31 -30 27 -28 -9 -148 13
-190 35 -63 32 -85 73 -85 157 0 63 3 76 30 114 51 72 186 131 362 159 84 13
288 5 349 -14z"/>
<path d="M395 10 c-3 -5 3 -10 14 -10 12 0 21 5 21 10 0 6 -6 10 -14 10 -8 0
-18 -4 -21 -10z"/>
</g>
</svg>
