<?xml version="1.0" standalone="no"?>
<!DOCTYPE svg PUBLIC "-//W3C//DTD SVG 20010904//EN"
 "http://www.w3.org/TR/2001/REC-SVG-20010904/DTD/svg10.dtd">
<svg version="1.0" xmlns="http://www.w3.org/2000/svg"
 width="89.000000pt" height="69.000000pt" viewBox="0 0 89.000000 69.000000"
 preserveAspectRatio="xMidYMid meet">

<g transform="translate(0.000000,69.000000) scale(0.100000,-0.100000)"
fill="#000000" stroke="none">
<path d="M396 648 c-3 -13 -6 -33 -6 -45 0 -20 -5 -23 -45 -23 -114 0 -217
-43 -261 -110 -34 -51 -51 -150 -35 -206 26 -94 139 -177 287 -210 117 -25
279 -17 361 20 33 15 72 40 86 54 39 41 69 119 75 193 8 111 -26 181 -106 221
-39 19 -64 23 -152 24 l-105 1 -38 52 c-42 57 -52 61 -61 29z m58 -58 l26 -40
98 0 c119 0 166 -12 208 -54 62 -62 69 -189 18 -294 -48 -99 -146 -145 -309
-146 -201 -1 -363 73 -416 189 -48 105 7 247 113 290 24 9 81 20 128 23 l85 7
3 33 c2 17 7 32 11 32 5 0 20 -18 35 -40z"/>
</g>
</svg>
