<svg version="1.1" id="Layer_1" xmlns="http://www.w3.org/2000/svg" xmlns:xlink="http://www.w3.org/1999/xlink" x="0px" y="0px"
	 width="100%" viewBox="0 0 142 56" enable-background="new 0 0 142 56" xml:space="preserve">
<path fill="#FAFAFA" opacity="1.000000" stroke="none" 
	d="
M103.000000,57.000000 
	C70.041084,57.000000 37.581970,56.950729 5.123558,57.078396 
	C1.976490,57.090771 0.819145,56.825935 0.881337,53.131363 
	C1.155857,36.823299 1.017030,20.507950 0.978313,4.195354 
	C0.973507,2.170413 0.800519,0.895637 3.797400,0.904688 
	C49.239468,1.041933 94.682167,1.034783 140.124344,0.915672 
	C142.922485,0.908338 143.050507,1.910535 143.040634,4.117161 
	C142.966141,20.762426 142.926178,37.408840 143.076233,54.053089 
	C143.099884,56.677364 142.331436,57.081654 139.953232,57.057354 
	C127.803223,56.933228 115.651268,57.000000 103.000000,57.000000 
z"/>
<path fill="#181818" opacity="1.000000" stroke="none" 
	d="
M7.138128,53.963623 
	C5.767538,38.780300 5.061204,23.838173 4.986002,8.866964 
	C4.969707,5.622972 6.987206,6.179422 8.979228,6.162992 
	C42.278522,5.888333 75.524536,3.350080 108.845406,3.831981 
	C113.318794,3.896678 117.826698,3.361123 122.274292,2.769964 
	C125.052422,2.400704 126.019279,2.867589 126.082672,5.976713 
	C126.180626,10.781653 127.137238,15.562655 127.512825,20.370752 
	C127.742767,23.314358 128.880722,24.627861 131.893066,23.814257 
	C132.210938,23.728407 132.553192,23.731588 132.884521,23.697245 
	C135.438644,23.432482 138.910645,21.560379 140.298996,23.952124 
	C141.940704,26.780355 138.509293,29.178684 136.554321,30.677765 
	C131.270950,34.729050 129.105377,39.502499 130.545609,46.068272 
	C131.246765,49.264713 130.070404,50.647339 126.273018,50.657509 
	C90.965332,50.752113 55.760071,53.769413 20.473717,54.565334 
	C16.156998,54.662704 11.830840,54.341705 7.138128,53.963623 
z"/>
<path fill="#FDFDFD" opacity="1.000000" stroke="none" 
	d="
M8.026122,15.079340 
	C7.856296,8.184711 7.862715,8.541172 14.469180,8.422213 
	C33.286190,8.083380 52.098885,7.471647 70.910583,6.881366 
	C87.722328,6.353840 104.571426,8.078002 121.350441,6.065533 
	C123.792763,5.772602 124.052071,6.883924 124.149338,8.821705 
	C124.341286,12.646152 124.918991,16.456009 125.008804,20.279613 
	C125.123253,25.152105 126.872887,27.866699 132.228409,26.858234 
	C133.008591,26.711325 133.840256,26.837849 134.591034,26.837849 
	C134.994812,28.046818 134.186539,28.632584 133.590714,29.014174 
	C127.942093,32.631630 125.936707,37.621540 127.263748,44.211826 
	C128.256561,49.142269 124.065414,47.579639 122.038780,47.580894 
	C105.532890,47.591148 89.058899,48.448402 72.593117,49.347504 
	C52.800812,50.428246 33.014847,51.569099 13.195104,52.021751 
	C10.970901,52.072548 9.120456,52.546658 9.079383,49.011543 
	C8.949768,37.855679 8.410151,26.704573 8.026122,15.079340 
z"/>
</svg>