<?xml version="1.0"?>
<svg width="93" height="72" xmlns="http://www.w3.org/2000/svg" xmlns:svg="http://www.w3.org/2000/svg" enable-background="new 0 0 93 72" version="1.1" xml:space="preserve">
 <g class="layer">
  <title>Layer 1</title>
  <path d="m38,67.5c2.15,-0.85 3.35,-2.54 4.57,-4.46c2.01,-3.15 4.97,-4.36 8.94,-4.14c7.57,0.42 15.09,0.41 22.04,-3.82c6.3,-3.84 12.1,-8.02 14.91,-15.1c3.58,-9.01 0.37,-17.68 -8.44,-24.51c-6.96,-5.39 -14.99,-6.85 -23.48,-8.2c-11.48,-1.83 -22.14,0.39 -32.48,4.37c-9.41,3.63 -16.48,9.97 -18.14,20.85c-0.59,3.9 0.51,7.35 2.18,10.46c4.19,7.85 10.83,12.97 19.4,15.56c4.72,1.42 8.68,3.76 10,8.99" fill="none" id="svg_1" opacity="1" stroke="#000000" stroke-linecap="round" stroke-linejoin="round" stroke-width="3"/>
 </g>
</svg>