<?xml version="1.0" standalone="no"?>
<!DOCTYPE svg PUBLIC "-//W3C//DTD SVG 20010904//EN"
 "http://www.w3.org/TR/2001/REC-SVG-20010904/DTD/svg10.dtd">
<svg version="1.0" xmlns="http://www.w3.org/2000/svg"
 width="98.000000pt" height="126.000000pt" viewBox="0 0 98.000000 126.000000"
 preserveAspectRatio="xMidYMid meet">
<metadata>
Created by potrace 1.16, written by Peter Selinger 2001-2019
</metadata>
<g transform="translate(0.000000,126.000000) scale(0.100000,-0.100000)"
fill="#000000" stroke="none">
<path d="M400 1201 c-201 -64 -344 -258 -374 -506 -16 -133 51 -294 173 -416
58 -58 89 -81 129 -95 50 -18 53 -21 70 -73 9 -30 22 -56 28 -58 6 -2 27 21
47 50 l37 54 53 -5 c46 -3 57 0 95 27 97 71 238 316 269 467 48 238 -87 499
-291 559 -66 20 -168 18 -236 -4z m288 -46 c127 -69 222 -244 222 -410 0 -141
-102 -371 -222 -501 -56 -61 -91 -78 -143 -71 -40 6 -43 5 -74 -39 -17 -25
-35 -43 -40 -40 -4 3 -14 33 -21 66 -14 64 -24 80 -37 56 -23 -41 -173 81
-241 195 -59 101 -75 162 -69 269 13 231 145 422 341 492 39 14 73 18 141 15
77 -2 98 -7 143 -32z"/>
</g>
</svg>
