<?xml version="1.0"?>
<svg width="1380" height="569" xmlns="http://www.w3.org/2000/svg" xmlns:svg="http://www.w3.org/2000/svg" version="1.1">
 <g class="layer">
  <title>Layer 1</title>
  <g id="svgg">
   <path d="m192.66,21.59c-63.68,12.8 -88.25,74.72 -84.98,214.16l1.77,75.49l-31.5,3.56c-17.33,1.95 -31.51,5.68 -31.51,8.27c0,7.1 29.18,30.24 47.92,38c16.11,6.67 16.56,7.89 18.96,51.65c8.68,158.09 223.6,194.87 275.72,47.18c21.98,-62.28 21.53,-273.04 -0.71,-336.57c-24.72,-70.59 -115.59,-117.84 -195.67,-101.74m115.23,27.81c61.99,30.98 76.98,67.44 84.46,205.39c10.13,186.81 -13.85,255.64 -97.54,279.96c-96.22,27.98 -168.09,-25.33 -169.73,-125.91c-0.59,-36.35 -2.78,-50.16 -8.22,-51.8c-4.07,-1.24 -16.04,-7.48 -26.59,-13.89l-19.17,-11.64l24.65,-2.74l24.66,-2.74l3.2,-104.11c4.97,-161.86 20.13,-187.95 109.62,-188.7c35.71,-0.29 46.28,2 74.66,16.18m-295.89,-77.4l13,8l2,-3l-18,2l3,-7zm423,12l19,-15l-1,20l-18,-22l0,17z" fill="#000000" fill-rule="evenodd" id="path0"/>
  </g>
 </g>
</svg>