<?xml version="1.0"?>
<svg width="81" height="66" xmlns="http://www.w3.org/2000/svg" xmlns:svg="http://www.w3.org/2000/svg" version="1.1">
 <g class="layer">
  <title>Layer 1</title>
  <path d="m0,0c0.66,0.33 1.32,0.66 2,1c-0.33,2.64 -0.66,5.28 -1,8c1.73,0.34 1.73,0.34 3.5,0.69c6.45,1.65 11.59,4.52 15.44,10.06c3.4,6.16 3.7,11.7 1.87,18.44c-2.85,8.28 -7.79,13.72 -15.37,17.94c-13.61,6.35 -29.36,6.82 -43.44,1.87c-8.09,-3.29 -12.69,-8.17 -16.44,-16c-1.41,-7.54 0.96,-13.18 5.06,-19.5c5.41,-5.69 12.54,-10.26 20.38,-11.5c2.46,0.12 4.92,0.27 7.37,0.44c5.4,0.16 8.37,-0.34 12.5,-3.96c2.12,-2.09 4.13,-4.28 6.13,-6.48c0.66,-0.33 1.32,-0.66 2,-1zm-7.56,10c-0.83,0.74 -1.66,1.48 -2.51,2.25c-0.63,0.58 -1.27,1.15 -1.93,1.75c-0.99,-0.33 -1.98,-0.66 -3,-1c-9.47,-0.98 -17.05,1.29 -25.31,5.81c-4.82,3.92 -10.09,8.92 -10.99,15.34c-0.03,6.02 0.74,9.99 4.89,14.63c8.93,8.63 18.61,9.8 30.55,9.7c10.51,-0.34 20.74,-2.42 28.47,-10.08c5.82,-6.32 6.86,-12.07 6.71,-20.56c-0.56,-4.98 -3.02,-7.45 -6.32,-10.96c-4.65,-2.91 -9.77,-4.31 -15,-5.88c0,-1.65 0,-3.3 0,-5c-2.1,0 -4.12,2.7 -5.56,4z" fill="#000000" id="svg_2" transform="translate(56,2)"/>
 </g>
</svg>