<svg id="svg" xmlns="http://www.w3.org/2000/svg" xmlns:xlink="http://www.w3.org/1999/xlink" width="400" height="314.8936170212766" viewBox="0, 0, 400,314.8936170212766"><g id="svgg"><path id="path0" d="M196.668 45.745 L 166.841 78.723 140.899 53.984 C 111.126 25.591,108.937 25.843,99.634 58.727 C 91.070 88.998,87.215 91.972,48.435 98.228 C 12.958 103.951,8.898 109.899,32.979 120.874 C 69.341 137.448,69.368 137.934,36.612 186.588 C 18.604 213.335,18.976 214.600,46.809 221.277 C 73.695 227.727,74.290 228.881,67.727 261.900 C 60.825 296.623,60.338 296.355,102.390 281.008 C 147.040 264.713,148.873 264.807,161.525 284.072 C 167.278 292.832,172.486 300.739,173.097 301.643 C 173.708 302.546,185.865 292.493,200.112 279.302 C 230.944 250.757,239.753 249.487,276.886 268.232 C 307.783 283.828,310.638 282.549,310.638 253.100 L 310.638 230.107 338.298 232.690 C 371.170 235.760,371.928 234.007,350.932 203.484 C 332.932 177.316,332.564 178.892,361.382 158.716 C 392.220 137.124,392.473 133.676,363.836 125.351 C 335.608 117.144,333.969 114.217,339.549 81.973 C 346.043 44.452,340.911 38.991,316.600 57.548 C 289.234 78.437,280.533 76.430,262.099 44.974 C 252.022 27.779,236.744 12.766,229.322 12.766 C 227.768 12.766,213.073 27.606,196.668 45.745 M251.601 50.217 C 274.023 83.642,293.467 90.108,316.672 71.855 C 331.304 60.345,332.243 61.710,326.907 86.730 C 320.749 115.603,326.204 125.737,351.944 133.242 L 372.320 139.184 347.862 154.829 C 319.525 172.956,319.128 174.570,336.333 201.698 L 349.261 222.084 324.630 220.617 L 300.000 219.149 298.714 241.489 C 297.214 267.543,299.052 266.727,272.340 253.191 C 240.958 237.289,213.341 244.522,185.535 275.925 L 177.452 285.054 163.635 269.123 L 149.817 253.191 116.398 264.935 C 73.313 280.076,71.958 280.002,76.893 262.794 C 86.920 227.831,77.089 212.945,43.868 212.790 C 32.321 212.736,34.732 202.960,53.018 175.703 C 76.251 141.071,76.684 136.189,57.447 125.830 C 37.168 114.909,38.559 112.061,67.021 106.223 C 97.560 99.960,99.826 98.071,106.480 73.323 C 114.386 43.919,116.275 43.609,141.587 67.548 C 170.570 94.959,168.036 95.383,201.997 57.437 C 233.668 22.051,232.792 22.178,251.601 50.217 " stroke="none" fill="#000000" fill-rule="evenodd"></path></g></svg>