<?xml version="1.0"?>
<svg width="1380" height="467" xmlns="http://www.w3.org/2000/svg" xmlns:svg="http://www.w3.org/2000/svg" version="1.1">
 <g class="layer">
  <title>Layer 1</title>
  <g id="svgg">
   <path d="m99.31,20.07c-66.98,5.69 -60.45,-12.3 -53.1,146.27c2.37,51.19 5.49,136.73 6.92,190.1c2.25,83.62 3.43,96.77 8.55,95.21c3.27,-0.99 72.77,-3 154.46,-4.46c81.68,-1.45 148.68,-2.86 148.89,-3.13c0.21,-0.27 0.76,-41.89 1.23,-92.49c0.98,-104.45 2.73,-111.11 38.98,-148.41c21.7,-22.33 19.39,-24.79 -29.1,-30.9l-20.19,-2.54l-2.58,-53.8c-1.42,-29.59 -2.58,-63.77 -2.58,-75.95l0,-22.15l-105.94,-0.56c-58.27,-0.31 -123.76,0.95 -145.54,2.81m242.4,9.13c0.56,0.56 2.22,34.32 3.69,75.02c2.62,72.53 2.85,74 11.29,74c4.75,0 18.72,2.03 31.07,4.5l22.44,4.51l-14.95,16.29c-34.25,37.3 -34.32,37.57 -36.54,135.9c-1.2,53.27 -3.61,89.56 -6.12,92.06c-2.68,2.67 -52.57,4.54 -140.6,5.27c-75.04,0.63 -138.42,2.37 -140.83,3.86c-5.42,3.36 -9.37,-34.04 -9.53,-90.11c-0.07,-21.79 -2.72,-85.05 -5.89,-140.6c-3.17,-55.54 -5.81,-118.14 -5.85,-139.11l-0.09,-38.12l50.5,-4.12c41.58,-3.39 237.89,-2.86 241.41,0.65m-329.71,-65.2l9,1l8,-5l-13,9l-4,-5zm420,-7l20,22l-4,-1l-13,-8l-3,-13z" fill="#000000" fill-rule="evenodd" id="path0"/>
  </g>
 </g>
</svg>