<svg id="svg" xmlns="http://www.w3.org/2000/svg" xmlns:xlink="http://www.w3.org/1999/xlink" width="400" height="307.24637681159425" viewBox="0, 0, 400,307.24637681159425"><g id="svgg"><path id="path0" d="M75.362 42.228 C 75.362 63.513,72.947 68.492,58.474 77.041 C 19.546 100.037,1.396 171.188,22.567 217.801 C 90.009 366.289,442.973 280.950,380.435 131.276 C 353.717 67.330,312.744 48.936,208.743 54.200 C 127.791 58.297,111.271 54.908,95.600 30.991 C 82.268 10.644,75.362 14.479,75.362 42.228 M123.431 69.128 C 134.847 73.453,156.664 73.405,197.471 68.966 C 292.879 58.587,345.090 80.931,368.469 142.146 C 412.995 258.735,116.501 338.506,39.671 230.608 C 11.239 190.679,19.971 124.876,58.294 90.253 C 74.077 75.994,81.159 64.789,81.159 54.077 L 81.159 38.559 94.203 50.777 C 101.377 57.497,114.530 65.755,123.431 69.128 " stroke="none" fill="#000000" fill-rule="evenodd"></path></g></svg>