<svg id="svg" xmlns="http://www.w3.org/2000/svg" xmlns:xlink="http://www.w3.org/1999/xlink" width="400" height="421.8181818181818" viewBox="0, 0, 400,421.8181818181818"><g id="svgg"><path id="path0" d="M120.998 25.199 C -22.769 76.450,-6.247 329.027,142.882 359.747 C 155.467 362.340,171.520 370.821,178.555 378.594 C 195.425 397.235,202.592 396.421,210.761 374.936 C 215.550 362.338,226.644 354.669,248.762 348.665 C 305.431 333.282,320.698 325.390,337.924 302.571 C 374.770 253.763,390.969 136.619,366.582 95.335 C 331.216 35.464,198.513 -2.435,120.998 25.199 M271.383 48.658 C 356.197 75.317,382.663 138.362,351.089 238.528 C 333.592 294.032,310.484 316.415,259.817 326.933 C 231.463 332.820,214.119 341.053,204.612 353.139 C 192.583 368.431,189.560 369.329,181.757 359.926 C 176.811 353.967,163.838 349.091,152.928 349.091 C 95.991 349.091,36.566 265.861,36.435 185.933 C 36.230 61.499,132.774 5.090,271.383 48.658 " stroke="none" fill="#000000" fill-rule="evenodd"></path></g></svg>