<svg version="1.1" id="Layer_1" xmlns="http://www.w3.org/2000/svg" xmlns:xlink="http://www.w3.org/1999/xlink" x="0px" y="0px"
	 width="100%" viewBox="0 0 68 65" enable-background="new 0 0 68 65" xml:space="preserve">
<path fill="#FBFBFB" opacity="1.000000" stroke="none" 
	d="
M45.000072,66.000000 
	C30.833387,66.000000 17.166145,65.937874 3.500648,66.064262 
	C1.350768,66.084137 0.925541,65.648056 0.936980,63.499718 
	C1.043469,43.500286 1.043455,23.499823 0.936995,3.500389 
	C0.925560,1.352266 1.352078,0.926454 3.500259,0.937130 
	C24.499741,1.041490 45.500153,1.041477 66.499634,0.937145 
	C68.647591,0.926473 69.074455,1.351938 69.063011,3.500282 
	C68.956520,23.499716 68.956543,43.500179 69.063004,63.499611 
	C69.074440,65.647728 68.654961,66.120415 66.498390,66.065979 
	C59.502857,65.889404 52.500080,66.000000 45.000072,66.000000 
z"/>
<path fill="#1B1B1B" opacity="1.000000" stroke="none" 
	d="
M53.006401,58.073284 
	C43.905613,62.925694 34.681545,64.929970 24.750967,63.149021 
	C11.832883,60.832291 3.081070,51.462482 2.918408,39.640259 
	C2.736644,26.429714 12.014327,14.232478 24.790960,12.622875 
	C30.040211,11.961574 33.128551,9.464338 36.400925,6.200806 
	C37.526180,5.078590 38.228630,2.841583 40.072823,3.210781 
	C42.229404,3.642518 42.076462,6.028898 42.316410,7.735729 
	C42.659832,10.178643 43.615219,11.349250 46.291016,11.662067 
	C56.960995,12.909461 62.623669,19.912817 65.414169,29.531477 
	C68.155617,38.981098 65.933548,47.322773 58.515484,54.016296 
	C56.917591,55.458126 55.069912,56.623131 53.006401,58.073284 
z"/>
<path fill="#FCFCFC" opacity="1.000000" stroke="none" 
	d="
M48.378540,57.623447 
	C39.803143,61.062813 31.363623,62.237366 22.674520,60.004631 
	C11.433537,57.116165 4.557760,48.177547 5.296176,37.598728 
	C6.115701,25.857924 15.895708,15.323942 26.769913,13.920331 
	C29.021275,13.629732 31.366613,16.552967 33.528763,13.465474 
	C34.822102,11.618624 36.442844,9.877964 39.102154,8.627687 
	C38.922558,13.965346 41.921326,14.674533 46.402004,15.073949 
	C60.566875,16.336634 69.020561,36.178864 60.687908,47.947395 
	C57.633350,52.261467 53.472336,55.243847 48.378540,57.623447 
z"/>
</svg>