<?xml version="1.0"?>
<svg width="113" height="75" xmlns="http://www.w3.org/2000/svg" xmlns:svg="http://www.w3.org/2000/svg" preserveAspectRatio="xMidYMid meet" version="1.0">
 <g class="layer">
  <title>Layer 1</title>
  <g fill="#000000" id="svg_1" transform="matrix(0.1 0 0 -0.1 0 0)">
   <path d="m440.75,40.25c4,-8 10,-15 14,-15c4,0 10,7 14,15c4,10 -1,15 -14,15c-13,0 -18,-5 -14,-15z" id="svg_2"/>
   <path d="m446,-91c-73,-59 -139,-84 -208,-76c-28,4 -56,12 -64,18c-8,7 -17,9 -21,6c-3,-4 -6,-50 -7,-103l-1,-97l-58,-20c-33,-11 -56,-24 -54,-31c3,-9 57,-35 121,-59c6,-2 -7,-49 -28,-105c-21,-55 -36,-106 -34,-112c2,-6 33,9 73,34c90,59 120,60 168,7c19,-21 38,-48 42,-60c3,-12 10,-21 15,-21c5,0 35,27 66,60c75,79 94,78 148,-4l40,-59l45,51c73,81 104,87 229,51c40,-12 75,-19 79,-15c4,3 -6,35 -20,71c-15,36 -27,80 -27,99c0,39 37,94 103,153c26,22 47,45 47,51c0,6 -13,13 -29,17c-51,11 -107,60 -136,118c-14,30 -28,57 -31,60c-2,2 -52,-13 -109,-34c-137,-51 -182,-52 -230,-4c-19,20 -35,40 -35,45c0,20 -27,7 -84,-41zm93,-10c31,-41 83,-62 135,-54c23,3 81,21 129,39l88,34l20,-42c25,-49 73,-102 112,-123l29,-14l-51,-54c-28,-29 -58,-70 -68,-90c-16,-33 -16,-40 -2,-93c9,-31 20,-66 24,-76c7,-17 5,-18 -16,-12c-135,39 -182,33 -247,-31l-46,-46l-15,24c-31,47 -69,79 -96,79c-18,0 -44,-17 -85,-56c-52,-49 -59,-53 -65,-35c-3,10 -24,36 -45,55c-51,46 -89,47 -153,6c-26,-17 -49,-30 -51,-30c-2,0 10,36 25,81c16,44 29,87 29,94c0,8 -19,20 -42,26c-60,17 -67,27 -29,40c42,15 49,37 43,135l-4,82l53,-15c88,-23 154,-4 249,70c25,20 48,36 51,36c3,1 16,-13 28,-30z" id="svg_3"/>
   <path d="m581.5,-784c-19,-5 10,-8 80,-8c69,0 101,3 85,8c-31,10 -125,10 -165,0z" id="svg_4" transform="matrix(1 0 0 1 0 0)"/>
  </g>
 </g>
</svg>