<svg version="1.1" id="Layer_1" xmlns="http://www.w3.org/2000/svg" xmlns:xlink="http://www.w3.org/1999/xlink" x="0px" y="0px"
	 width="100%" viewBox="0 0 86 61" enable-background="new 0 0 86 61" xml:space="preserve">
<path fill="#FBFBFB" opacity="1.000000" stroke="none" 
	d="
M61.000015,62.000000 
	C40.666676,62.000000 20.833345,62.000000 1.000007,62.000000 
	C1.000000,42.666676 1.053962,23.333012 0.933772,4.000433 
	C0.918219,1.498680 1.499453,0.924972 4.000234,0.934813 
	C30.666485,1.039745 57.333462,1.039737 83.999710,0.934823 
	C86.500366,0.924985 87.083237,1.498295 87.066429,4.000413 
	C86.943283,22.332918 86.943291,40.667011 87.066414,58.999516 
	C87.083214,61.501465 86.508278,62.132782 83.998283,62.068714 
	C76.503159,61.877403 69.000023,62.000000 61.000015,62.000000 
z"/>
<path fill="#151515" opacity="1.000000" stroke="none" 
	d="
M9.179632,10.762646 
	C6.709610,9.850702 7.049865,7.547205 6.847060,5.682240 
	C6.620895,3.602450 7.649995,2.425582 9.835682,3.920682 
	C12.852010,5.983975 15.938452,7.965158 18.801628,10.226203 
	C21.650398,12.475869 24.145473,12.958490 27.779516,11.396232 
	C36.956619,7.451033 46.463390,4.519469 56.706989,4.889444 
	C66.281967,5.235270 74.050034,9.082602 80.090813,16.395744 
	C86.791687,24.508034 86.669785,35.272247 79.929756,44.496513 
	C76.393135,49.336647 71.737793,52.858772 66.184258,54.882500 
	C53.323303,59.569057 40.059837,61.401054 26.470762,58.959339 
	C12.227165,56.400021 2.343765,43.920395 3.713519,30.655333 
	C3.992259,27.955938 4.386283,25.032993 6.278852,23.245031 
	C10.068112,19.665215 9.504721,15.793809 8.502466,11.271048 
	C12.764728,13.620092 13.850867,18.219776 11.562698,22.337536 
	C3.635109,36.603920 10.628864,51.298313 27.007229,54.410957 
	C39.220886,56.732121 51.141079,54.778645 62.864460,51.191246 
	C66.764236,49.997898 70.006660,47.693134 72.984779,44.966309 
	C83.806206,35.057972 82.461548,21.208097 69.888573,13.633589 
	C61.445335,8.547011 52.461784,8.941550 43.321854,11.188441 
	C37.487839,12.622631 31.892342,14.776876 26.321510,16.964878 
	C23.017757,18.262465 20.293921,18.300402 17.887104,15.250978 
	C15.904832,12.739451 12.876323,11.450494 10.374726,9.536436 
	C9.435596,8.817875 9.848623,10.268783 9.179632,10.762646 
z"/>
<path fill="#FDFDFD" opacity="1.000000" stroke="none" 
	d="
M8.918821,10.992264 
	C10.618741,9.915217 8.020440,8.542355 9.918880,7.177956 
	C12.861703,10.125284 17.741926,11.313330 19.953543,15.921252 
	C21.139778,18.392782 22.764702,16.690466 24.117401,16.179361 
	C32.346565,13.070052 40.483059,9.660678 49.282986,8.429920 
	C58.807121,7.097876 67.545753,8.943063 74.843857,15.485373 
	C83.253204,23.023855 84.150948,33.172195 77.492638,42.287193 
	C74.475555,46.417473 70.657227,49.696732 65.965485,51.552929 
	C53.029182,56.670929 39.552738,58.462090 25.864218,55.807411 
	C15.964479,53.887505 9.311962,47.648613 6.534542,37.764000 
	C5.273442,33.275845 5.088531,28.298302 8.230865,24.888649 
	C12.535647,20.217659 11.641844,15.783524 9.288799,10.901052 
	C8.870674,10.937101 8.901037,10.975621 8.918821,10.992264 
z"/>
</svg>