<?xml version="1.0" standalone="no"?>
<!DOCTYPE svg PUBLIC "-//W3C//DTD SVG 20010904//EN"
 "http://www.w3.org/TR/2001/REC-SVG-20010904/DTD/svg10.dtd">
<svg version="1.0" xmlns="http://www.w3.org/2000/svg"
 width="79.000000pt" height="71.000000pt" viewBox="0 0 79.000000 71.000000"
 preserveAspectRatio="xMidYMid meet">
<metadata>
Created by potrace 1.16, written by Peter Selinger 2001-2019
</metadata>
<g transform="translate(0.000000,71.000000) scale(0.100000,-0.100000)"
fill="#000000" stroke="none">
<path d="M275 653 c-16 -8 -40 -24 -51 -35 -15 -13 -39 -20 -73 -22 -38 -1
-57 -8 -77 -26 -60 -57 -72 -137 -29 -188 25 -30 25 -31 9 -65 -15 -32 -15
-37 0 -68 18 -39 62 -69 100 -69 14 0 37 -11 52 -25 32 -30 91 -34 135 -8 27
16 29 16 50 -3 34 -31 98 -26 153 13 34 24 55 32 84 30 76 -3 122 55 122 153
0 56 -18 101 -51 123 -17 12 -19 19 -10 35 20 38 13 72 -23 108 -39 39 -84 45
-154 20 -36 -13 -42 -13 -53 0 -36 44 -128 57 -184 27z m160 -43 c31 -30 32
-30 68 -15 53 22 122 20 147 -5 24 -24 26 -67 3 -92 -16 -18 -15 -20 19 -48
20 -17 42 -46 48 -65 32 -98 -49 -210 -119 -166 -11 7 -25 1 -49 -20 -63 -55
-109 -63 -149 -23 l-26 26 -37 -21 c-51 -28 -95 -27 -121 3 -17 19 -28 23 -53
19 -25 -4 -39 1 -64 22 -38 32 -42 68 -11 101 l22 23 -38 35 c-34 32 -37 40
-32 75 10 76 76 132 131 112 19 -8 28 -6 41 9 10 11 41 31 69 45 63 33 106 28
151 -15z"/>
</g>
</svg>
