<?xml version="1.0"?>
<svg width="96" height="67" xmlns="http://www.w3.org/2000/svg" xmlns:svg="http://www.w3.org/2000/svg" enable-background="new 0 0 96 67" version="1.1" xml:space="preserve">
 <g class="layer">
  <title>Layer 1</title>
  <path d="m94.55,27.09c-1.7,15.17 -10.58,23.74 -25.35,24.96c-9.8,0.8 -10.48,1.42 -12.7,11.12c-0.28,1.21 0.04,3.01 -1.57,3.39c-1.79,0.42 -2.86,-1.26 -3.33,-2.47c-2.99,-7.77 -9.27,-7.81 -15.98,-7.22c-2.98,0.27 -5.99,0.32 -8.98,0.29c-10.43,-0.11 -17.77,-5.14 -21.12,-14.37c-3.6,-9.92 -1.06,-20.29 6.74,-26.72c7.84,-6.45 17.4,-8.94 27.05,-10.69c12.19,-2.21 24.5,-2.66 36.62,0.67c11.66,3.2 17.24,9.53 18.62,21.04z" fill="#181818" id="svg_3" opacity="1"/>
  <path d="m7.88,28.25c1.74,-6.01 5.45,-10.03 10.51,-12.55c17.8,-8.87 36.48,-12.29 56.07,-7.6c11.89,2.84 18.3,10.93 17.47,20.96c-0.84,10.2 -9.86,18.7 -21.1,19.91c-1.82,0.19 -3.64,0.4 -5.44,0.7c-8.5,1.37 -9.72,2.55 -11.88,11.97c-3.57,-9.03 -10.98,-7.4 -17.71,-7.51c-1.99,-0.03 -3.99,0.22 -5.98,0.36c-15.51,1.1 -25.44,-10.56 -21.94,-26.24z" fill="#FDFDFD" id="svg_4" opacity="1"/>
 </g>
</svg>