<svg version="1.1" id="Layer_1" xmlns="http://www.w3.org/2000/svg" xmlns:xlink="http://www.w3.org/1999/xlink" x="0px" y="0px"
	 width="100%" viewBox="0 0 77 65" enable-background="new 0 0 77 65" xml:space="preserve">
<path fill="#FBFBFB" opacity="1.000000" stroke="none" 
	d="
M54.000072,66.000000 
	C36.000057,66.000000 18.500061,66.000000 1.000049,66.000000 
	C1.000033,44.333359 1.000033,22.666721 1.000016,1.000061 
	C26.666634,1.000041 52.333267,1.000041 77.999924,1.000020 
	C77.999954,22.666628 77.999954,44.333256 77.999977,65.999939 
	C70.166695,66.000000 62.333393,66.000000 54.000072,66.000000 
M51.699135,61.738712 
	C53.386471,64.407608 54.220936,62.780266 54.897232,61.048687 
	C55.667965,59.075310 56.306431,57.050282 57.002914,55.046162 
	C61.030956,55.046162 64.684738,55.076187 68.337784,55.037502 
	C71.817307,55.000656 73.309532,53.462986 73.121178,49.732182 
	C72.819382,43.754387 73.037994,37.750294 73.037613,31.757315 
	C73.037094,23.470484 73.037483,15.183654 73.037483,5.991852 
	C50.516266,7.216639 28.395155,8.419666 6.314998,9.620467 
	C6.314998,19.332819 5.990640,28.658817 6.430028,37.948696 
	C6.718740,44.052860 7.946586,50.137474 9.147437,56.152264 
	C9.382230,57.328293 11.462852,59.033367 12.630307,58.985538 
	C23.259815,58.550049 33.889877,57.943199 44.487514,57.017235 
	C48.080299,56.703308 50.694172,56.870045 51.699135,61.738712 
z"/>
<path fill="#1A1A1A" opacity="1.000000" stroke="none" 
	d="
M51.503990,61.393295 
	C50.694172,56.870045 48.080299,56.703308 44.487514,57.017235 
	C33.889877,57.943199 23.259815,58.550049 12.630307,58.985538 
	C11.462852,59.033367 9.382230,57.328293 9.147437,56.152264 
	C7.946586,50.137474 6.718740,44.052860 6.430028,37.948696 
	C5.990640,28.658817 6.314998,19.332819 6.314998,9.620467 
	C28.395155,8.419666 50.516266,7.216639 73.037483,5.991852 
	C73.037483,15.183654 73.037094,23.470484 73.037613,31.757315 
	C73.037994,37.750294 72.819382,43.754387 73.121178,49.732182 
	C73.309532,53.462986 71.817307,55.000656 68.337784,55.037502 
	C64.684738,55.076187 61.030956,55.046162 57.002914,55.046162 
	C56.306431,57.050282 55.667965,59.075310 54.897232,61.048687 
	C54.220936,62.780266 53.386471,64.407608 51.503990,61.393295 
M70.538994,24.698151 
	C70.538994,19.590322 70.538994,14.482494 70.538994,8.710812 
	C49.832996,9.909009 29.504541,11.085359 8.574802,12.296503 
	C9.304801,27.121372 8.327116,42.069313 12.785882,57.087673 
	C24.163937,56.136070 35.380802,55.095951 46.617226,54.350658 
	C48.680355,54.213814 50.822872,55.273857 53.431755,55.902676 
	C53.442368,51.302982 57.157627,51.824974 61.011139,52.170132 
	C63.927876,52.431385 66.886772,52.221893 70.520523,52.221893 
	C70.520523,42.868172 70.520523,34.263165 70.538994,24.698151 
z"/>
<path fill="#FDFDFD" opacity="1.000000" stroke="none" 
	d="
M70.529755,25.178154 
	C70.520523,34.263165 70.520523,42.868172 70.520523,52.221893 
	C66.886772,52.221893 63.927876,52.431385 61.011139,52.170132 
	C57.157627,51.824974 53.442368,51.302982 53.431755,55.902676 
	C50.822872,55.273857 48.680355,54.213814 46.617226,54.350658 
	C35.380802,55.095951 24.163937,56.136070 12.785882,57.087673 
	C8.327116,42.069313 9.304801,27.121372 8.574802,12.296503 
	C29.504541,11.085359 49.832996,9.909009 70.538994,8.710812 
	C70.538994,14.482494 70.538994,19.590322 70.529755,25.178154 
z"/>
</svg>