<?xml version="1.0"?>
<svg xmlns="http://www.w3.org/2000/svg" width="988" height="840" viewBox="0 0 988 840">
  <defs>
    <linearGradient id="a" gradientUnits="userSpaceOnUse" x1="-361.46" y1="195.202" x2="-289.16" y2="178.595" gradientTransform="translate(1706.3 -395.642) scale(3.866)">
      <stop offset="0"/>
      <stop offset=".488" stop-color="#151515"/>
      <stop offset="1"/>
    </linearGradient>
    <linearGradient id="b" gradientUnits="userSpaceOnUse" x1="165.393" y1="608.878" x2="779.061" y2="608.878">
      <stop offset="0" stop-color="#151414"/>
      <stop offset=".51" stop-color="#252525"/>
      <stop offset="1" stop-color="#151414"/>
    </linearGradient>
  </defs>
  <path d="M174.392 575.803c-264.968-4.98-194.537 308.235 96.64 247.124C380.564 801.13 485.998 733.72 575.78 667.804c87.405-64.173 172.131-143.978 243.092-187.462 53.825-32.984 148.803-38.244 159.012 40.241-85.126-82.032-219.792 85.968-376.274 179.19 279.518 7.097 391.482-55.441 376.588-177.153-26.706-72.496-97.065-49.591-158.887-41.763-41.895-138.423-45.817-307.135-48.511-466.946C544.72-3.653 297.148 31.87 74.992 109.171c58.591 161.4 103.656 319.689 99.4 466.616z"/>
  <path d="M174.392 575.803c-264.968-4.98-194.537 308.235 96.64 247.124C380.564 801.13 485.998 733.72 575.78 667.804c87.405-64.173 172.131-143.978 243.092-187.462 53.825-32.984 148.803-38.244 159.012 40.241-85.126-82.032-219.792 85.968-376.274 179.19 279.518 7.097 391.482-55.441 376.588-177.153-26.706-72.496-97.065-49.591-158.887-41.763-41.895-138.423-45.817-307.135-48.511-466.946C544.72-3.653 297.148 31.87 74.992 109.171c58.591 161.4 103.656 319.689 99.4 466.616z" stroke="#000" stroke-width="8" stroke-linejoin="round" fill="none"/>
  <path d="M314.368 611.021c40.395 11.696 178.509-15.694 374.866-66.384-34.492-178.974 73.588-56.163-107.89-529.112-159 7.5-262.413 30.671-365.443 55.347z" fill="url(#a)"/>
  <path d="M165.393 708.456c166.232 17.005 315.107 0 410.387-40.652l203.281-165.052C560.5 575.787 465.279 593.556 173.669 597.32c-1.463 20.285-8.276 111.136-8.276 111.136z" fill="url(#b)"/>
  <path d="M165.393 708.456c166.232 17.005 315.107 0 410.387-40.652l203.281-165.052C560.5 575.787 465.279 593.556 173.669 597.32c-1.463 20.285-8.276 111.136-8.276 111.136z" stroke="#151515" stroke-width="8" fill="none"/>
  <g>
    <path d="M317.303 810.831c82.743-26.346 182.793-88.476 286.487-162.154 73.35-52.116 146.601-156.522 268.521-188.32 43.68-10.498 110.976-1.195 107.068 87.169-18.884-65.697-83.782-50.391-141.017-17.962-163.208 101.435-195.201 197.619-521.044 281.267z" fill="#151515"/>
    <path d="M317.303 810.831c82.743-26.346 182.793-88.476 286.487-162.154 73.35-52.116 146.601-156.522 268.521-188.32 43.68-10.498 110.976-1.195 107.068 87.169-18.884-65.697-83.782-50.391-141.017-17.962-163.208 101.435-195.201 197.619-521.044 281.267z" stroke="#000" stroke-width="8" stroke-linecap="round" fill="none"/>
  </g>
  <path d="M174.392 575.787c.311 15.717-8.019 123.176-8.999 132.669" stroke="#000" stroke-width="8" stroke-linecap="round" stroke-linejoin="round" fill="none"/>
</svg>
