<?xml version="1.0" standalone="no"?>
<!DOCTYPE svg PUBLIC "-//W3C//DTD SVG 20010904//EN"
 "http://www.w3.org/TR/2001/REC-SVG-20010904/DTD/svg10.dtd">
<svg version="1.0" xmlns="http://www.w3.org/2000/svg"
 width="1280.000000pt" height="961.000000pt" viewBox="0 0 1280.000000 961.000000"
 preserveAspectRatio="xMidYMid meet">
<metadata>
Created by potrace 1.15, written by Peter Selinger 2001-2017
</metadata>
<g transform="translate(0.000000,961.000000) scale(0.100000,-0.100000)"
fill="#000000" stroke="none">
<path d="M4910 9261 c0 -12 4 -20 9 -16 5 3 13 0 17 -6 4 -8 3 -9 -4 -5 -8 4
-16 -3 -22 -19 -5 -14 -25 -41 -45 -60 -19 -20 -35 -41 -35 -48 0 -7 -14 -28
-30 -47 -16 -19 -30 -42 -30 -50 0 -15 -36 -81 -50 -90 -12 -8 -100 -197 -146
-316 -24 -61 -49 -143 -56 -182 -8 -50 -15 -69 -25 -65 -7 3 -13 0 -13 -6 0
-13 -27 -15 -35 -2 -3 5 0 13 6 17 8 4 9 3 5 -4 -4 -7 -2 -12 3 -12 15 0 14
27 -1 36 -6 4 -14 2 -16 -4 -7 -21 -25 -13 -19 8 3 11 1 18 -4 14 -5 -3 -9 3
-9 13 -1 10 -3 43 -7 73 -8 84 -7 185 2 200 5 9 4 11 -3 6 -7 -4 -12 -1 -12 8
0 17 -20 17 -32 1 -5 -6 -8 -6 -8 2 0 25 -37 -1 -50 -35 -7 -20 -15 -31 -17
-24 -3 6 -11 12 -19 12 -8 0 -14 8 -15 18 0 9 -8 -4 -17 -30 -20 -55 -32 -70
-32 -40 0 38 -17 24 -23 -19 -6 -43 -17 -62 -24 -42 -2 7 -11 9 -19 6 -9 -3
-14 2 -15 13 0 15 -3 14 -11 -6 -9 -21 -12 -22 -15 -7 -3 9 -12 17 -22 17 -26
0 -60 -69 -62 -126 -1 -28 -8 -57 -17 -66 -14 -16 -13 -18 4 -19 11 -1 6 -4
-11 -8 -34 -8 -50 6 -32 29 11 13 10 13 -5 1 -10 -7 -16 -17 -13 -20 2 -4 -2
-8 -10 -8 -18 0 -18 2 -4 29 19 35 0 33 -35 -5 -42 -46 -60 -48 -54 -7 5 34
-17 43 -27 10 -3 -11 -13 -26 -21 -35 -12 -12 -12 -18 -2 -34 10 -16 15 -18
27 -8 12 10 13 9 2 -11 -7 -12 -16 -20 -21 -17 -5 3 -11 1 -15 -5 -4 -6 -10
-8 -15 -5 -4 3 -6 -3 -3 -14 3 -11 -2 -21 -13 -25 -14 -5 -15 -4 -5 8 10 11 9
15 -5 18 -17 3 -17 4 0 21 10 9 13 17 9 17 -11 0 -53 -47 -53 -59 0 -14 -29
-21 -36 -9 -4 7 -3 8 4 4 8 -5 12 0 12 13 0 23 -25 19 -34 -6 -4 -9 -13 -13
-22 -9 -8 3 -13 2 -11 -2 3 -4 -4 -16 -14 -26 -19 -19 -19 -19 -19 2 0 15 -6
20 -20 19 -11 -1 -20 -4 -20 -8 0 -10 -34 -5 -42 6 -5 6 -12 5 -20 -3 -6 -6
-17 -12 -22 -12 -6 0 -5 4 2 8 17 11 5 42 -17 42 -14 0 -14 2 -1 10 13 9 13
10 0 10 -9 0 -21 -5 -28 -12 -9 -9 -12 -9 -12 0 0 16 -25 15 -60 -3 -17 -9
-30 -11 -30 -5 0 5 6 10 13 10 7 0 22 7 33 16 10 8 13 12 5 8 -7 -3 -17 0 -22
7 -7 11 -9 10 -9 -4 0 -13 -6 -17 -22 -15 -14 2 -22 -2 -20 -9 1 -7 -7 -13
-19 -13 -11 0 -17 5 -14 10 3 6 2 10 -4 10 -5 0 -13 -4 -16 -10 -3 -5 -23 -10
-43 -10 -23 0 -32 3 -24 8 9 6 6 12 -11 21 -20 11 -31 9 -80 -13 -61 -28 -71
-31 -62 -16 3 6 14 10 24 10 10 0 24 7 31 15 16 19 3 19 -34 0 -16 -9 -36 -13
-43 -10 -8 2 -11 1 -8 -4 11 -18 -13 -21 -49 -6 -35 15 -36 15 -36 -8 0 -23
-14 -28 -95 -31 -28 -1 -55 -16 -55 -31 0 -3 9 -3 20 0 11 4 20 2 20 -4 0 -6
-5 -11 -11 -11 -6 0 -9 -6 -6 -12 3 -8 -5 -14 -19 -15 -55 -6 -64 -8 -64 -15
0 -4 -7 -5 -15 -2 -22 9 -72 -32 -78 -63 -4 -18 -16 -32 -34 -40 -34 -15 -113
-87 -113 -103 0 -6 -4 -9 -9 -6 -4 3 -14 -7 -21 -22 -8 -16 -14 -22 -17 -14
-3 7 1 19 7 28 11 12 10 13 -4 8 -9 -3 -16 -10 -16 -14 0 -4 -9 -10 -20 -13
-18 -5 -19 -3 -5 24 23 43 18 46 -10 6 -13 -20 -30 -56 -36 -79 -7 -24 -25
-57 -41 -74 -16 -17 -26 -33 -22 -36 3 -4 -13 -19 -35 -34 -23 -15 -39 -29
-37 -31 2 -3 18 5 35 18 17 12 33 20 37 17 7 -8 -38 -54 -49 -50 -5 1 -5 -3
-1 -9 5 -9 2 -10 -9 -6 -9 3 -23 0 -31 -8 -7 -8 -16 -11 -20 -8 -3 4 -6 1 -6
-5 0 -16 -85 -72 -126 -83 -19 -6 -34 -16 -34 -23 0 -6 -29 -34 -65 -60 -72
-53 -80 -62 -65 -71 6 -4 9 -1 8 7 -2 7 6 13 17 13 11 0 20 6 20 14 0 8 6 16
14 19 9 3 11 0 6 -8 -5 -9 -4 -11 4 -6 6 4 9 11 7 15 -3 4 7 14 22 22 15 8 43
29 62 46 19 18 39 33 45 33 14 0 -58 -67 -130 -122 -61 -46 -93 -77 -94 -90
-1 -5 -1 -15 -1 -23 0 -8 -13 -21 -30 -30 -30 -16 -43 -39 -15 -29 18 7 19 0
5 -27 -10 -18 -1 -26 14 -12 4 4 25 8 47 9 37 1 38 0 19 -13 -16 -12 -24 -12
-35 -3 -12 10 -21 7 -46 -14 -17 -14 -35 -26 -40 -26 -5 0 -9 -5 -9 -12 0 -9
3 -9 12 0 15 15 32 16 22 1 -4 -8 1 -9 17 -4 13 3 20 3 14 -2 -5 -4 -15 -17
-21 -27 -6 -11 -19 -24 -29 -30 -27 -15 -40 -28 -53 -52 -6 -12 -36 -34 -67
-50 -30 -16 -55 -33 -55 -38 0 -6 5 -5 12 2 7 7 19 12 28 12 13 -1 13 -2 0
-13 -17 -14 -25 -57 -10 -57 6 0 10 5 10 11 0 5 5 7 10 4 6 -3 13 1 16 10 4
10 11 12 18 7 16 -13 48 -23 42 -14 -8 13 29 40 56 40 15 0 33 -10 43 -24 11
-14 28 -24 44 -24 24 -1 24 -2 9 -14 -27 -20 -22 -26 25 -27 30 -2 34 -3 12
-5 -96 -11 -215 -47 -215 -65 0 -4 -10 -11 -21 -14 -17 -6 -19 -9 -8 -16 10
-6 6 -9 -13 -9 -16 0 -28 -4 -28 -8 0 -5 -12 -15 -26 -22 -25 -14 -89 -67
-146 -122 -15 -14 -44 -32 -63 -38 -19 -6 -37 -16 -40 -21 -8 -12 8 -12 20 0
6 5 20 12 33 16 33 10 29 -23 -6 -36 -24 -10 -25 -12 -8 -18 18 -7 18 -8 -4
-29 -13 -12 -32 -24 -42 -28 -10 -3 -18 -11 -18 -19 0 -8 -9 -17 -21 -20 -34
-11 -15 -15 21 -5 22 6 38 6 44 0 7 -7 3 -10 -11 -10 -12 0 -25 -4 -28 -10 -3
-5 -14 -10 -24 -10 -39 0 -221 -119 -221 -144 0 -5 9 -1 19 8 10 10 34 18 52
18 19 1 58 12 87 25 29 12 59 23 67 23 8 0 15 4 15 8 0 5 14 8 30 7 17 -1 30
2 30 6 0 5 7 6 15 2 9 -3 25 3 35 12 11 10 20 13 20 8 0 -6 -17 -19 -37 -30
-62 -31 -93 -55 -108 -82 -20 -39 -85 -101 -114 -108 -24 -6 -23 -8 14 -14 22
-5 62 -8 88 -8 l48 -1 -4 -43 c-5 -38 -2 -44 22 -59 19 -10 30 -26 33 -50 6
-37 0 -88 -11 -88 -4 0 -7 -9 -7 -21 0 -16 5 -20 23 -16 29 5 29 0 1 -30 l-22
-23 32 11 c18 6 40 8 50 3 9 -4 23 -6 29 -5 7 1 13 -3 13 -8 0 -6 7 -8 15 -5
11 5 13 2 9 -10 -4 -11 -1 -16 10 -16 14 0 15 -4 6 -20 -7 -14 -7 -20 0 -20 5
0 10 -9 10 -19 0 -17 5 -16 57 12 32 17 64 37 72 45 12 12 17 11 32 -10 23
-29 19 -33 -89 -93 -72 -39 -86 -44 -105 -33 -12 6 -24 10 -27 8 -16 -8 -58
-22 -80 -25 -69 -10 -118 -23 -148 -39 -18 -9 -38 -14 -44 -10 -7 5 -8 3 -3
-6 5 -9 2 -10 -14 -5 -16 5 -37 -3 -74 -27 -37 -23 -46 -34 -34 -36 10 -2 24
2 32 8 12 10 15 9 15 -8 0 -11 -7 -25 -15 -32 -8 -7 -15 -19 -15 -27 0 -17
-25 -45 -33 -37 -3 3 -4 -2 -3 -13 3 -17 -10 -33 -28 -33 -5 0 -3 8 4 18 8 9
-1 2 -19 -15 -18 -18 -37 -34 -44 -35 -7 0 -16 -2 -22 -2 -5 -1 -16 -5 -22 -9
-9 -6 -11 -3 -7 8 4 10 13 14 23 10 12 -5 13 -3 5 5 -14 14 -54 4 -54 -14 0
-16 -67 -48 -89 -42 -9 3 -34 -3 -56 -14 -22 -11 -29 -17 -16 -14 45 11 12
-14 -47 -36 -31 -12 -61 -25 -67 -29 -5 -5 -17 -8 -25 -8 -30 -1 -134 -54
-121 -62 9 -6 4 -15 -19 -35 -17 -14 -27 -26 -22 -26 5 0 15 7 22 15 15 18 34
20 24 3 -4 -8 -3 -10 2 -5 5 5 9 13 9 18 0 11 5 12 27 4 9 -4 27 0 39 8 12 9
28 13 35 10 8 -3 14 0 14 6 0 6 7 11 16 11 9 0 12 -5 8 -12 -4 -7 4 -3 17 8
26 24 70 47 109 59 23 7 22 5 -14 -41 l-39 -49 43 44 c30 31 44 40 50 31 5 -8
-13 -41 -47 -89 -50 -69 -113 -180 -113 -198 0 -4 16 20 36 53 35 59 74 107
81 100 2 -2 -15 -35 -37 -74 -22 -39 -40 -76 -40 -82 0 -19 22 -10 50 20 15
16 28 24 27 17 0 -6 1 -25 2 -42 l2 -30 20 24 c12 15 23 21 27 15 20 -30 39
-20 82 44 50 72 112 143 91 105 -15 -29 2 -30 21 -1 l15 22 19 -24 c10 -13 31
-37 47 -53 15 -16 27 -39 27 -52 0 -12 7 -28 15 -35 8 -7 15 -19 15 -26 0 -21
8 -18 79 34 36 26 112 76 169 111 114 71 122 70 144 -1 6 -22 20 -45 30 -52
10 -6 18 -18 18 -26 0 -9 8 -23 18 -32 9 -10 30 -31 47 -47 l29 -30 -34 -34
c-19 -19 -69 -63 -110 -98 -117 -99 -162 -141 -364 -339 -198 -195 -267 -277
-333 -400 -49 -90 -56 -110 -43 -130 9 -13 11 -13 20 0 13 20 12 15 -5 -50 -8
-30 -15 -57 -15 -59 0 -3 16 18 35 45 l35 49 0 -58 c0 -32 3 -56 8 -54 4 3 5
-17 4 -44 -2 -28 -1 -62 3 -77 l8 -27 13 33 c8 17 18 32 23 32 13 0 21 -27 15
-45 -10 -24 12 -17 24 7 11 23 11 23 6 -2 -4 -19 2 -31 20 -48 21 -18 26 -31
26 -69 l0 -46 26 23 c21 20 27 22 34 10 7 -11 11 -8 19 13 6 16 11 35 11 43 0
8 5 12 10 9 6 -3 10 -25 10 -48 0 -28 3 -37 9 -28 12 19 25 -59 16 -101 -6
-31 -6 -32 8 -13 8 11 22 43 31 70 l16 50 -6 -53 c-2 -29 -7 -59 -10 -67 -4
-10 0 -15 11 -15 12 0 16 -6 12 -20 -3 -11 -1 -20 4 -20 5 0 9 7 9 15 0 24 58
140 80 160 18 16 20 16 20 2 0 -10 7 -17 15 -17 8 0 15 -7 15 -15 0 -8 7 -15
15 -15 18 0 35 -39 35 -81 0 -16 5 -29 10 -29 6 0 10 5 10 10 0 6 7 10 15 10
23 0 29 -46 17 -124 -6 -39 -9 -72 -7 -74 2 -2 11 12 19 32 20 48 28 46 19 -6
-6 -41 -5 -42 12 -28 16 14 17 13 11 -8 -9 -26 1 -29 21 -5 13 16 14 16 10 -9
-2 -16 0 -28 4 -28 5 0 9 11 9 24 0 14 5 28 10 31 13 8 13 -24 -1 -63 -7 -22
-8 -40 -1 -59 l10 -28 17 42 c21 50 38 47 30 -5 l-6 -37 15 33 c18 38 31 42
22 6 -5 -18 -3 -24 5 -18 9 5 10 -3 5 -31 -5 -25 -4 -35 3 -30 6 3 11 12 11
19 0 7 7 21 16 32 14 18 15 17 11 -14 -2 -17 0 -32 5 -32 4 0 8 -11 8 -24 0
-41 15 -37 38 9 12 25 25 45 29 45 5 0 8 -31 8 -69 -1 -67 1 -70 32 -96 l33
-26 9 23 c9 20 10 19 10 -14 1 -20 4 -43 7 -52 7 -18 30 -22 36 -5 8 24 37 -4
40 -38 3 -40 26 -60 54 -48 31 13 113 3 125 -16 3 -6 15 -8 26 -5 11 4 27 4
36 0 20 -7 80 -99 88 -134 3 -14 10 -24 17 -22 7 1 12 -10 12 -25 l0 -28 20
25 c21 27 23 24 20 -26 -1 -18 3 -35 9 -39 6 -3 11 0 11 7 0 7 7 2 16 -10 9
-13 26 -34 39 -48 22 -23 23 -24 28 -4 3 11 12 20 21 20 9 0 16 7 16 15 0 8 5
15 11 15 6 0 9 -6 6 -14 -3 -8 1 -17 9 -20 8 -3 14 -13 14 -23 0 -15 1 -15 13
2 24 31 39 9 33 -49 -5 -45 -4 -48 6 -24 14 33 48 38 48 8 0 -11 5 -20 11 -20
7 0 9 -11 6 -30 -5 -23 -2 -32 13 -40 10 -5 26 -7 34 -4 10 4 16 1 16 -8 0 -8
18 -27 40 -44 36 -27 40 -33 40 -76 0 -48 5 -54 46 -49 7 1 10 -24 10 -67 -1
-75 18 -118 38 -90 6 8 18 17 26 21 12 4 12 6 -2 6 -11 1 -15 9 -13 26 3 35
15 44 15 12 0 -18 4 -25 14 -21 10 4 12 -2 9 -20 -4 -19 -1 -26 11 -26 9 0 16
-7 16 -16 0 -11 6 -14 20 -9 15 5 20 2 20 -12 0 -20 50 -50 50 -30 0 7 10 -8
22 -33 15 -32 22 -40 25 -28 4 16 6 16 20 3 14 -14 17 -52 10 -125 -2 -22 3
-25 48 -33 28 -5 58 -8 67 -8 10 0 20 -4 23 -10 4 -5 19 -9 34 -9 19 0 34 -8
44 -23 13 -21 13 -27 -9 -67 -22 -41 -23 -46 -8 -57 8 -6 39 -12 67 -12 111
-2 137 -19 137 -88 0 -32 4 -43 15 -43 8 0 15 -7 15 -15 0 -8 5 -15 10 -15 6
0 10 -6 10 -14 0 -15 30 -26 71 -26 17 0 30 -8 39 -25 13 -24 50 -35 50 -15 0
6 6 10 14 10 16 0 46 -42 46 -66 0 -12 6 -15 25 -10 18 5 25 2 25 -9 0 -22 29
-18 49 6 16 20 20 21 77 9 55 -11 87 -21 124 -40 8 -4 23 -2 33 4 12 8 22 8
37 -2 40 -25 117 -6 143 35 12 19 23 16 51 -13 16 -18 30 -25 41 -20 9 3 23
-1 31 -9 9 -8 28 -15 43 -15 15 0 32 -5 39 -12 9 -9 20 -7 47 8 34 18 37 18
66 1 17 -9 39 -17 49 -17 10 0 21 -7 24 -15 3 -9 11 -15 18 -14 15 3 51 -11
58 -22 3 -5 28 10 55 31 47 37 50 38 69 22 18 -16 18 -16 11 7 -5 16 -4 21 4
17 5 -4 13 -22 17 -41 8 -45 26 -59 68 -52 23 4 39 1 46 -8 6 -8 29 -13 51
-13 23 0 47 -6 58 -16 10 -9 23 -16 29 -16 7 0 12 -8 12 -18 0 -18 32 -35 85
-48 44 -10 106 -43 127 -68 13 -15 18 -34 16 -71 -3 -50 3 -59 34 -49 22 7 53
55 49 77 -3 21 155 187 178 187 11 0 10 -5 -4 -20 -10 -11 -15 -23 -11 -28 5
-4 15 3 23 15 9 13 20 23 25 23 6 0 22 8 36 19 32 22 117 26 145 6 12 -9 37
-11 76 -8 57 5 58 5 71 -26 9 -23 17 -30 30 -26 10 3 30 1 45 -5 37 -14 78 -4
115 27 17 13 36 23 42 20 7 -2 21 0 32 5 20 11 20 6 0 -94 -5 -23 -1 -27 30
-38 20 -6 40 -9 45 -6 11 7 67 -16 70 -29 4 -16 11 -19 11 -5 0 7 17 -5 38
-28 31 -35 45 -42 89 -47 36 -4 54 -2 62 7 27 32 61 91 67 116 3 15 24 64 46
109 39 81 41 83 77 83 20 1 49 6 64 13 43 18 140 10 167 -15 12 -11 39 -22 60
-25 32 -5 48 0 89 26 27 18 55 39 61 47 7 7 27 14 44 13 26 0 28 -2 11 -9 -18
-8 -17 -9 8 -9 26 -1 40 -21 15 -21 -7 0 -4 -6 6 -12 11 -6 46 -11 78 -12 33
0 62 -6 66 -13 4 -6 19 -15 35 -18 15 -4 25 -11 22 -15 -7 -11 38 -18 61 -9
21 7 112 93 154 144 29 36 89 135 114 187 9 21 25 42 36 48 24 13 33 13 25 0
-3 -5 3 -10 14 -10 11 0 32 -11 47 -25 15 -14 37 -28 50 -31 42 -11 107 37
154 115 14 22 30 41 37 41 6 0 13 6 16 13 2 6 7 9 11 6 3 -3 -4 -19 -16 -35
-15 -19 -16 -24 -5 -15 27 22 30 7 6 -33 -31 -54 0 -48 47 9 21 24 39 43 41
41 2 -1 -4 -19 -12 -39 -15 -36 -10 -48 12 -26 7 7 15 6 26 -5 13 -14 16 -14
28 0 12 14 14 14 26 -2 7 -9 10 -21 6 -27 -4 -6 4 -8 19 -4 17 5 30 2 38 -8
20 -24 34 -18 79 38 52 63 74 105 92 174 7 29 17 53 22 53 5 0 7 -7 3 -15 -8
-21 21 -19 33 3 10 16 10 16 11 -1 0 -14 5 -17 20 -12 12 4 27 1 35 -5 20 -17
44 34 52 110 5 50 9 60 21 55 9 -3 38 -13 64 -22 26 -8 48 -19 48 -23 0 -4 22
-10 50 -14 27 -4 52 -11 55 -16 3 -5 20 -14 38 -19 18 -6 59 -20 92 -31 33
-12 74 -24 90 -26 17 -3 35 -7 42 -9 19 -6 29 17 31 78 2 43 8 63 23 78 15 15
19 28 15 47 l-6 27 15 -25 16 -25 -6 30 c-4 16 -7 34 -8 40 -1 5 6 9 17 7 11
-2 15 1 11 7 -3 6 -14 11 -23 12 -12 0 -9 3 7 10 13 5 25 8 27 7 54 -48 179
-179 195 -204 29 -47 58 -62 73 -38 6 11 11 23 11 28 0 18 23 17 27 -1 3 -10
15 -19 26 -20 17 -1 22 4 22 23 0 13 4 24 9 24 5 0 13 10 16 21 5 15 9 18 15
9 5 -9 13 -6 28 10 14 15 22 18 27 10 6 -9 10 -9 16 1 6 11 24 -2 70 -50 33
-35 79 -89 101 -119 l40 -54 15 31 c9 17 21 31 29 31 7 0 16 10 20 22 l7 23 8
-23 c11 -29 27 -28 39 2 10 28 32 45 37 29 5 -13 43 -5 43 9 0 5 4 7 8 4 5 -3
21 1 35 9 15 8 31 15 35 16 4 0 6 5 4 11 -1 5 4 15 12 23 12 12 16 11 29 -8
12 -19 16 -20 31 -8 9 7 16 10 16 6 0 -5 9 0 20 10 40 36 19 133 -36 161 -38
20 -41 11 -15 -37 28 -48 22 -64 -6 -17 -26 45 -34 68 -23 68 14 0 -10 48 -26
54 -11 4 -10 -1 2 -19 22 -33 9 -32 -21 3 -15 17 -22 35 -19 48 6 24 -7 36
-39 38 -11 1 -22 7 -25 15 -3 8 0 11 7 7 6 -4 11 -3 11 2 0 14 -26 33 -41 30
-8 -2 -13 4 -11 13 3 22 -37 62 -55 55 -10 -4 -13 -2 -10 6 3 8 -5 14 -19 14
-28 2 -28 -24 -1 -54 9 -10 14 -22 10 -25 -7 -7 34 -47 49 -47 4 0 8 -5 8 -10
0 -6 9 -21 21 -33 22 -23 101 -124 112 -144 4 -6 3 -14 -2 -18 -6 -3 -17 7
-25 23 -20 38 -50 52 -41 19 6 -22 6 -22 -13 2 -29 37 -39 7 -10 -32 14 -18
28 -39 32 -47 8 -16 5 -13 -54 61 -19 24 -43 51 -52 61 -10 10 -18 25 -18 33
0 8 -9 15 -20 15 -17 0 -19 -3 -10 -19 5 -11 18 -27 27 -37 10 -10 18 -22 19
-28 2 -18 17 -50 31 -64 14 -14 17 -32 6 -32 -3 0 -21 18 -40 40 -19 22 -37
39 -41 38 -15 -5 -72 37 -78 57 -3 11 -18 33 -33 49 -19 21 -21 27 -8 23 12
-5 17 -1 17 13 0 11 7 20 15 20 22 0 19 12 -17 60 -66 87 -63 81 -47 90 14 9
15 13 18 50 1 23 41 29 41 6 0 -8 4 -18 10 -21 5 -3 7 0 4 9 -4 11 0 13 15 9
12 -3 24 -10 28 -16 4 -6 0 -8 -10 -4 -14 5 -15 3 -4 -13 14 -24 27 -26 27 -5
0 20 34 19 50 0 7 -9 20 -15 29 -13 9 1 31 -6 49 -15 17 -10 32 -13 32 -8 0 5
3 17 6 25 5 12 -2 19 -25 27 -31 11 -42 29 -18 29 9 0 8 3 -2 9 -7 5 -11 13
-7 19 3 6 2 13 -4 17 -6 3 -8 17 -6 29 3 17 -3 27 -25 40 -29 17 -29 17 -39
-8 -13 -36 -28 -32 -36 9 -8 45 -30 40 -26 -6 5 -48 -17 -25 -29 32 -5 24 -12
52 -15 63 -4 11 -2 16 4 12 20 -12 30 26 16 60 -8 18 -14 38 -14 44 0 14 35 4
70 -18 14 -9 29 -15 34 -14 5 2 21 -8 35 -21 14 -13 42 -34 61 -48 19 -13 41
-29 48 -36 15 -15 32 -9 32 12 0 8 7 11 18 8 12 -3 32 8 55 29 20 19 47 39 61
46 22 10 24 14 16 44 -6 18 -19 41 -31 53 -12 11 -19 14 -15 8 10 -18 -4 -16
-26 4 -17 15 -20 15 -28 3 -7 -10 -10 -11 -10 -2 0 6 -6 12 -13 12 -7 0 -18 9
-25 20 -7 12 -17 18 -22 15 -6 -4 -24 8 -41 24 -33 34 -77 62 -65 42 9 -13 -4
-14 -23 -2 -8 5 -15 19 -16 30 -1 16 1 18 11 10 10 -8 15 -1 23 28 15 52 14
78 -4 93 -9 7 -14 27 -13 51 1 22 -2 42 -5 45 -3 4 5 21 18 39 14 17 25 39 25
47 0 8 9 23 20 33 11 10 20 24 20 31 0 7 9 18 20 24 12 6 20 7 20 1 0 -5 -6
-11 -12 -14 -9 -3 -8 -10 6 -26 12 -13 23 -18 29 -12 5 5 16 7 23 4 9 -3 14 2
14 12 0 13 4 15 13 8 6 -6 27 -13 45 -16 27 -6 32 -4 32 13 0 11 5 20 10 20 6
0 10 7 10 15 0 8 5 15 11 15 6 0 8 7 5 16 -4 10 1 25 11 36 10 11 18 23 18 26
0 7 19 30 67 82 50 54 68 82 68 112 0 15 5 30 10 33 6 3 10 13 10 22 0 8 19
45 43 82 24 36 52 88 61 114 17 45 17 49 1 73 -9 14 -14 29 -10 32 3 4 9 2 13
-5 4 -6 29 -21 56 -33 28 -12 67 -33 87 -47 21 -14 44 -23 51 -21 7 3 -15 19
-49 36 -59 30 -62 33 -56 62 3 20 1 30 -6 30 -7 0 -29 11 -49 25 -20 14 -33
25 -28 25 18 0 192 -92 211 -112 l20 -20 -22 7 c-34 10 -28 -6 17 -42 42 -36
55 -41 46 -18 -3 8 -2 15 3 15 5 0 11 -9 14 -21 3 -12 10 -18 15 -15 6 3 12 0
15 -6 2 -7 8 -10 12 -6 4 4 1 35 -7 68 -8 33 -13 62 -10 64 2 3 15 0 28 -6 19
-9 27 -8 37 2 7 8 8 11 1 7 -7 -4 -14 3 -16 18 -4 20 -3 23 8 14 10 -8 14 -8
14 -1 0 6 -4 14 -10 17 -5 3 -10 13 -10 21 0 12 6 11 31 -6 53 -38 42 -15 -17
39 -66 58 -67 80 -2 30 77 -59 73 -57 59 -31 -7 13 -34 39 -61 58 -50 36 -64
63 -54 111 3 15 1 47 -4 70 -7 29 -6 41 0 37 6 -4 8 1 5 12 -21 73 -20 71 -3
49 15 -19 15 -18 17 25 2 25 3 54 4 65 0 12 7 19 18 19 10 -1 17 5 17 17 0 26
15 24 28 -3 10 -21 11 -21 11 -4 1 19 1 19 14 1 13 -17 14 -16 20 14 7 31 27
44 27 16 0 -26 18 -16 24 12 4 16 7 67 8 115 2 95 5 89 -74 172 -29 30 -39 58
-13 36 12 -10 15 -10 15 3 0 8 -5 17 -10 19 -6 2 2 20 16 40 15 20 30 58 35
85 5 26 16 53 25 60 28 20 -27 120 -99 180 -8 6 -42 25 -76 42 -33 17 -61 34
-61 37 0 3 12 15 27 28 22 19 25 27 15 38 -16 20 -9 76 16 129 11 24 23 52 26
61 3 9 16 24 31 34 24 16 29 15 98 -9 123 -44 180 -78 202 -120 11 -20 23 -37
27 -37 3 0 9 24 13 53 9 70 23 125 35 132 5 3 16 -7 25 -22 12 -22 15 -23 13
-8 -1 11 3 29 8 40 6 11 17 49 23 85 7 36 20 99 28 140 9 40 16 100 17 132 1
58 10 70 34 46 14 -14 15 -6 3 45 -5 21 -6 51 -1 66 6 22 2 38 -21 75 -16 25
-34 46 -40 46 -6 0 -29 13 -52 29 -43 29 -121 71 -133 71 -3 0 -1 -7 6 -15 17
-20 -7 -20 -34 0 -11 8 -33 15 -48 15 -16 0 -31 7 -34 15 -4 8 -14 15 -23 15
-9 0 -30 8 -46 18 -17 10 -68 31 -113 46 -107 36 -274 111 -265 119 3 4 -6 7
-21 7 -37 0 -43 24 -17 76 11 25 21 56 21 69 0 14 5 25 10 25 6 0 10 11 10 24
0 13 6 29 14 35 31 26 -11 76 -96 115 -54 24 -69 43 -61 74 8 34 20 42 55 35
17 -3 28 -1 28 6 0 6 -4 11 -10 11 -5 0 -10 4 -10 8 0 16 39 6 80 -22 23 -15
39 -23 36 -17 -11 17 10 13 24 -4 7 -8 18 -15 24 -15 6 1 0 11 -14 23 -14 12
-32 30 -39 40 -12 16 -9 15 35 -3 27 -12 56 -28 64 -35 11 -10 20 -11 34 -3
14 8 17 8 11 -1 -4 -8 -2 -12 6 -10 28 3 40 -1 33 -13 -4 -6 -3 -8 3 -5 6 4
23 -3 37 -14 15 -12 29 -19 32 -16 3 2 -10 14 -28 25 -39 25 -94 72 -84 72 4
0 28 -15 54 -32 26 -18 69 -44 97 -58 47 -24 50 -29 70 -92 12 -37 24 -71 28
-74 15 -16 6 39 -18 103 -14 37 -28 86 -30 108 -5 52 9 28 30 -50 8 -32 17
-60 20 -63 9 -9 6 41 -5 77 -5 19 -6 50 -1 70 10 47 -21 210 -48 255 -23 36
-27 51 -11 41 5 -3 3 7 -5 21 -8 15 -11 32 -8 37 6 10 38 -28 58 -68 6 -11 16
-20 23 -20 7 0 17 -7 23 -15 20 -28 4 5 -29 62 -19 32 -38 61 -43 64 -5 3 -9
13 -9 22 0 12 3 13 12 4 7 -7 20 -12 30 -12 10 0 21 -7 24 -15 4 -8 13 -15 21
-15 8 0 12 -4 8 -9 -3 -5 -1 -12 4 -16 10 -6 7 27 -4 45 -3 6 -2 10 4 10 5 0
18 -13 28 -30 9 -16 21 -30 26 -30 5 0 5 5 0 13 -6 6 -12 19 -16 28 -7 20 5
17 213 -55 74 -25 136 -44 138 -41 2 2 -14 12 -37 21 -55 22 -47 27 14 9 26
-8 50 -13 53 -10 3 2 -17 10 -43 17 -33 9 -50 20 -56 35 -5 13 -13 23 -19 23
-5 0 -10 5 -10 11 0 5 5 7 10 4 6 -3 10 -1 10 4 0 6 -6 11 -14 11 -8 0 -18 5
-22 12 -5 8 -2 9 9 5 15 -6 21 2 19 23 0 3 18 5 40 5 35 0 59 15 46 28 -2 2
12 18 30 37 23 23 30 35 21 40 -6 4 -9 12 -5 18 3 5 -9 13 -27 17 l-32 8 35 6
35 6 -40 17 c-22 9 -55 20 -72 23 -18 4 -33 11 -33 15 0 5 -7 7 -15 4 -8 -4
-15 -1 -15 5 0 6 -10 11 -22 11 -13 0 -41 9 -63 19 l-40 19 30 2 30 2 -30 7
c-16 4 -36 3 -42 -2 -8 -6 -27 -2 -55 12 -37 18 -40 21 -18 22 17 1 11 5 -21
13 -25 7 -54 18 -65 24 -15 8 -10 10 26 7 25 -2 60 -9 79 -14 25 -8 32 -8 24
0 -6 6 -42 20 -80 31 -145 42 -157 46 -138 47 17 1 17 3 5 11 -18 12 -6 12 42
1 21 -5 36 -5 33 -1 -3 4 -36 16 -75 25 -39 9 -72 20 -75 24 -2 5 -24 6 -48 4
-26 -2 -59 2 -78 11 -22 9 -27 15 -16 15 16 1 17 3 3 16 -8 9 -19 15 -23 14
-18 -3 -33 2 -33 10 0 5 10 7 23 3 22 -5 22 -5 3 17 -13 14 -26 19 -39 15 -15
-5 -19 -3 -14 10 4 9 -1 21 -11 28 -9 7 -17 20 -17 28 0 9 -11 15 -28 17 -15
1 -25 -2 -22 -8 4 -5 2 -9 -3 -9 -5 0 -8 17 -7 38 3 48 3 48 18 64 6 7 18 30
25 51 18 51 41 217 30 223 -4 3 -10 27 -14 55 -8 57 -15 56 -25 -4 -6 -32 -7
-26 -4 28 2 39 1 61 -1 50 -3 -11 -10 -37 -15 -57 -11 -44 -28 -50 -30 -10 -1
16 -3 20 -6 10 -2 -10 -14 -18 -26 -18 -30 0 -177 50 -177 60 0 4 -11 8 -24 8
-37 0 -126 23 -126 33 0 5 -11 9 -24 9 -33 0 -89 21 -104 39 -11 14 -11 14 -6
-1 3 -10 2 -18 -4 -18 -12 0 -24 29 -16 41 3 5 -2 9 -11 9 -8 0 -18 8 -22 18
-3 9 -13 25 -20 34 -9 9 -12 23 -7 30 4 7 3 10 -1 5 -5 -4 -17 0 -27 10 -19
17 -25 39 -8 28 16 -10 11 1 -7 16 -14 12 -16 12 -9 -1 4 -8 -1 -5 -11 6 -20
24 -74 54 -96 54 -7 0 -23 9 -35 20 -12 11 -28 20 -36 20 -27 0 -45 -12 -40
-25 4 -11 -1 -12 -23 -6 -18 5 -27 14 -25 24 2 12 -11 17 -63 22 -76 8 -78 14
-35 83 17 27 30 57 30 66 0 19 -23 46 -39 46 -6 0 -11 5 -11 10 0 6 -11 10
-25 10 -17 0 -23 4 -19 14 3 9 -5 18 -23 24 -15 6 -23 11 -16 11 15 1 73 105
73 131 0 11 -7 21 -15 21 -35 3 -65 19 -65 33 0 7 9 12 20 12 13 -1 29 12 42
33 l22 33 -25 -7 c-20 -7 -22 -6 -12 7 14 16 0 38 -25 38 -8 0 -12 6 -8 15 5
13 -33 15 -299 15 -189 0 -306 -4 -310 -10 -3 -5 -16 -8 -28 -6 -12 2 -31 -4
-42 -12 -12 -10 -15 -11 -7 -2 18 21 15 30 -13 30 -23 0 -53 -33 -47 -52 1 -5
-2 -8 -7 -8 -5 0 -12 14 -16 30 l-7 30 -197 0 -197 0 -29 -30 c-16 -16 -33
-30 -39 -30 -5 0 3 14 19 30 l29 30 -1123 0 -1123 0 -30 -25 c-30 -26 -65 -35
-52 -13 5 8 0 9 -17 4 -13 -4 -35 -7 -48 -7 -23 1 -120 -45 -133 -63 -3 -5
-14 -11 -23 -12 -9 -1 -25 -10 -34 -18 -10 -9 -24 -16 -31 -16 -7 0 -22 -8
-33 -17 -19 -18 -20 -17 -13 10 4 19 3 26 -4 22 -5 -3 -10 -1 -10 6 0 7 -9 3
-20 -9 -11 -12 -20 -25 -20 -29 0 -4 -11 -21 -25 -38 l-25 -30 6 28 c3 15 4
27 0 27 -18 0 -115 -183 -157 -297 -12 -29 -25 -51 -30 -48 -5 4 -9 2 -9 -2 0
-5 -9 -14 -21 -21 -20 -13 -20 -11 -15 45 3 32 7 94 10 138 4 88 41 226 80
305 14 29 26 54 26 56 0 2 -37 4 -83 4 l-83 0 -17 -36 c-10 -19 -22 -32 -27
-29 -7 4 -9 -2 -5 -17 6 -27 0 -37 -37 -61 -27 -17 -28 -17 -28 2 0 11 4 22 9
25 9 6 22 56 14 56 -2 0 -18 -30 -35 -67 -21 -47 -33 -62 -36 -49 -2 10 1 23
7 29 16 16 14 24 -6 24 -9 0 -36 -20 -60 -43 l-43 -43 5 42 c4 30 2 38 -5 27
-5 -8 -10 -25 -10 -37 0 -12 -4 -25 -10 -28 -5 -3 -8 0 -6 7 15 45 46 191 42
195 -3 3 -10 -16 -17 -42 -6 -26 -18 -49 -25 -52 -8 -3 -11 -9 -8 -14 3 -5 2
-24 -2 -42 -6 -28 -8 -30 -15 -12 -7 19 -8 19 -8 1 -1 -11 -3 -17 -6 -14 -8 8
6 59 14 54 4 -3 8 11 8 30 l1 34 -25 -38 c-14 -20 -36 -50 -48 -67 -29 -39
-48 -81 -80 -180 -33 -101 -41 -116 -55 -95 -8 13 -15 12 -50 -8 -45 -26 -61
-22 -54 11 2 12 6 76 9 141 4 97 9 126 26 154 14 25 17 38 10 45 -8 8 -11 6
-11 -6 0 -9 -4 -17 -10 -17 -5 0 -10 -7 -10 -15 0 -8 -4 -15 -10 -15 -12 0
-13 32 -1 46 13 14 22 74 11 74 -5 0 -7 8 -4 18 4 12 0 10 -12 -6 l-17 -23
-23 22 -24 22 0 -22z m4249 -28 c-12 -15 -12 -16 4 -10 9 3 17 3 17 -2 0 -16
-13 -21 -27 -10 -9 9 -13 8 -13 0 0 -6 -4 -11 -10 -11 -5 0 -10 7 -10 16 0 8
4 12 10 9 5 -3 15 3 22 14 7 11 14 18 17 16 2 -3 -2 -12 -10 -22z m131 -14 c0
-11 -4 -17 -10 -14 -5 3 -10 0 -10 -7 0 -19 -27 -55 -35 -47 -8 9 37 99 47 93
4 -3 8 -14 8 -25z m-96 -34 c-4 -8 -10 -15 -15 -15 -5 0 -9 -6 -9 -14 0 -17
-68 -62 -78 -52 -3 4 4 9 16 13 12 3 19 9 16 14 -3 5 2 9 10 9 9 0 16 5 16 12
0 13 29 48 41 48 5 0 6 -7 3 -15z m-75 -26 c-22 -14 -33 -10 -19 6 7 8 17 12
22 9 6 -4 5 -10 -3 -15z m-1759 -8 c-5 -11 -14 -23 -20 -26 -5 -3 -7 -12 -4
-19 3 -8 1 -17 -5 -21 -20 -12 -12 40 9 63 26 27 34 28 20 3z m-1970 -77 c0
-7 -9 -18 -20 -24 -20 -11 -30 3 -10 15 6 4 8 10 6 14 -3 4 1 8 9 8 8 0 15 -6
15 -13z m3793 -19 c-10 -13 -21 -25 -25 -25 -5 0 -8 -6 -8 -14 0 -15 -89 -106
-104 -106 -16 0 27 55 88 112 33 32 62 58 64 58 2 0 -5 -11 -15 -25z m-3916
-17 c-3 -8 -6 -5 -6 6 -1 11 2 17 5 13 3 -3 4 -12 1 -19z m-294 -18 c-3 -11
-9 -20 -13 -20 -5 0 -6 9 -3 20 3 11 9 20 13 20 5 0 6 -9 3 -20z m2318 -7 c-8
-15 -10 -15 -11 -2 0 17 10 32 18 25 2 -3 -1 -13 -7 -23z m2482 -33 c-9 -22
-20 -40 -24 -40 -10 0 7 48 23 67 17 21 17 15 1 -27z m-4804 -42 c-3 -67 -9
-89 -20 -82 -13 8 -11 54 2 54 11 0 9 28 -6 63 -5 12 -2 17 10 17 14 0 16 -9
14 -52z m-27 -7 c-5 -3 -13 -25 -17 -49 -4 -23 -10 -40 -15 -37 -7 4 3 82 16
115 4 12 7 12 16 -4 7 -12 7 -21 0 -25z m4075 -43 c-3 -8 -6 -5 -6 6 -1 11 2
17 5 13 3 -3 4 -12 1 -19z m-3357 -214 l-30 -59 0 40 c0 31 6 44 28 61 15 12
28 21 30 20 1 -2 -11 -29 -28 -62z m4315 -25 c16 -16 -20 -10 -41 7 -18 14
-18 15 6 8 14 -3 29 -10 35 -15z m162 -25 c-3 -3 -12 -4 -19 -1 -8 3 -5 6 6 6
11 1 17 -2 13 -5z m0 -21 c16 -4 22 -11 19 -27 -2 -11 -8 -21 -14 -20 -31 3
-35 6 -17 14 22 9 16 13 -38 24 -16 4 -25 11 -21 17 3 6 16 8 28 4 11 -4 31
-9 43 -12z m72 -49 c15 -11 19 -20 13 -26 -13 -13 -45 4 -48 26 -3 20 6 20 35
0z m111 -94 c6 -11 7 -20 3 -20 -5 0 -14 9 -21 20 -7 11 -8 20 -2 20 5 0 14
-9 20 -20z m-6346 -135 c-4 -8 -13 -15 -22 -15 -13 0 -12 3 4 15 24 18 25 18
18 0z m476 -35 c0 -5 -5 -10 -11 -10 -5 0 -7 5 -4 10 3 6 8 10 11 10 2 0 4 -4
4 -10z m6345 -30 c13 -6 15 -9 5 -9 -8 0 -22 4 -30 9 -18 12 -2 12 25 0z
m-7870 -20 c-3 -5 -11 -10 -16 -10 -6 0 -7 5 -4 10 3 6 11 10 16 10 6 0 7 -4
4 -10z m7870 -4 c11 -7 25 -14 30 -15 28 -4 45 -14 45 -27 0 -8 -4 -14 -10
-14 -5 0 -7 -7 -4 -15 4 -8 2 -15 -4 -15 -5 0 -9 -8 -8 -17 2 -26 -30 -27 -54
-1 l-21 23 23 5 c21 5 21 7 4 13 -10 4 -16 10 -13 14 4 3 0 15 -8 27 -26 36
-16 47 20 22z m-7965 -95 c0 -5 -7 -11 -15 -15 -15 -5 -20 5 -8 17 9 10 23 9
23 -2z m-64 -23 c4 -7 3 -8 -4 -4 -7 4 -12 2 -12 -3 0 -6 -4 -11 -10 -11 -5 0
-10 7 -10 15 0 18 26 20 36 3z m64 -9 c28 9 31 9 20 -4 -7 -8 -31 -19 -54 -25
-22 -6 -50 -15 -61 -21 -11 -6 -4 4 15 22 19 19 38 30 41 25 4 -5 21 -4 39 3z
m7990 -15 c0 -2 -7 -4 -15 -4 -8 0 -15 4 -15 10 0 5 7 7 15 4 8 -4 15 -8 15
-10z m-8143 -6 c-2 -7 -14 -12 -26 -11 -15 2 -20 -1 -15 -9 4 -7 3 -8 -4 -4
-26 16 -14 26 41 35 5 0 7 -5 4 -11z m-346 -241 c-10 -9 -11 -8 -5 6 3 10 9
15 12 12 3 -3 0 -11 -7 -18z m8646 -29 c-2 -7 3 -22 12 -32 15 -18 15 -18 -6
-7 -13 7 -23 8 -23 2 0 -6 -11 -6 -29 -1 -16 4 -32 6 -34 4 -2 -3 -7 2 -10 11
-7 17 18 21 28 4 5 -6 11 -4 19 7 7 9 18 14 24 10 7 -4 12 -2 12 3 0 6 3 11 6
11 3 0 4 -6 1 -12z m-142 -48 c3 -5 -1 -10 -10 -10 -9 0 -13 5 -10 10 3 6 8
10 10 10 2 0 7 -4 10 -10z m85 -10 c0 -5 -2 -10 -4 -10 -3 0 -8 5 -11 10 -3 6
-1 10 4 10 6 0 11 -4 11 -10z m-8650 -20 c0 -5 -5 -10 -11 -10 -5 0 -7 5 -4
10 3 6 8 10 11 10 2 0 4 -4 4 -10z m-30 -105 c-7 -8 -17 -15 -22 -15 -6 0 -5
7 2 15 7 8 17 15 22 15 6 0 5 -7 -2 -15z m-27 -45 c-2 -3 -15 -5 -28 -5 -23
-1 -23 0 -7 15 12 12 20 13 28 6 7 -6 10 -13 7 -16z m9077 20 c0 -12 -8 -12
-35 0 -18 8 -17 9 8 9 15 1 27 -3 27 -9z m305 -213 c7 -6 2 -8 -15 -3 -14 3
-33 6 -42 6 -10 0 -18 4 -18 10 0 12 61 2 75 -13z m-9766 -168 c-25 -16 -32
-9 -13 12 12 13 20 16 22 9 3 -7 -2 -16 -9 -21z m121 26 c0 -7 -61 -37 -66
-32 -3 2 10 12 28 20 37 19 38 19 38 12z m69 -29 c-2 -2 -15 -9 -29 -15 -24
-11 -24 -11 -6 3 16 13 49 24 35 12z m-59 -55 c0 -8 -102 -61 -117 -61 -19 0
75 57 115 69 1 1 2 -3 2 -8z m8899 -23 c36 -11 89 -36 116 -54 54 -35 125 -96
125 -108 0 -4 -54 -6 -121 -5 -66 1 -123 -1 -126 -5 -4 -3 -13 -6 -22 -6 -13
0 -13 2 -2 9 10 6 11 13 2 29 -6 11 -11 30 -11 41 0 15 -12 23 -55 35 -30 9
-69 19 -87 22 -36 7 -58 28 -58 56 0 16 9 17 86 12 48 -2 116 -14 153 -26z
m-9064 12 c-3 -5 -11 -10 -16 -10 -6 0 -7 5 -4 10 3 6 11 10 16 10 6 0 7 -4 4
-10z m45 0 c0 -5 -2 -10 -4 -10 -3 0 -8 5 -11 10 -3 6 -1 10 4 10 6 0 11 -4
11 -10z m0 -189 c-12 -23 -30 -36 -30 -22 0 5 6 12 13 14 6 3 0 6 -15 6 -15 1
-34 -7 -44 -16 -13 -13 -16 -14 -12 -3 4 14 57 38 86 39 9 1 10 -4 2 -18z m-6
-56 c-4 -8 -10 -15 -15 -15 -5 0 -9 7 -9 15 0 8 7 15 15 15 9 0 12 -6 9 -15z
m9353 -104 c7 -9 13 -12 13 -7 0 12 29 -13 41 -35 7 -15 6 -17 -6 -13 -8 4
-15 13 -15 21 0 8 -4 12 -8 9 -9 -5 -82 40 -82 50 0 11 45 -9 57 -25z m-167
-6 c20 -24 6 -28 -15 -5 -10 11 -13 20 -8 20 6 0 16 -7 23 -15z m250 -90 c11
-13 10 -14 -4 -9 -9 3 -16 10 -16 15 0 13 6 11 20 -6z m-295 -5 c3 -6 -1 -7
-9 -4 -18 7 -21 14 -7 14 6 0 13 -4 16 -10z m328 -49 c10 -12 9 -12 -8 -3 -11
6 -31 21 -45 33 l-25 21 33 -19 c19 -10 39 -24 45 -32z m-9883 -255 c-8 -8
-26 -17 -40 -20 -23 -5 -23 -5 3 7 15 7 24 16 21 20 -4 4 1 7 11 7 17 0 17 -2
5 -14z m9481 -1276 c5 0 9 -4 9 -10 0 -16 -37 -11 -44 6 -5 12 -2 15 10 10 8
-3 20 -6 25 -6z m-15 -53 c24 -13 84 -64 84 -70 0 -2 -22 -1 -50 3 -39 5 -50
3 -50 -8 0 -8 9 -16 20 -19 18 -5 29 -23 14 -23 -22 0 -94 24 -94 32 0 5 5 6
10 3 20 -13 32 7 15 25 -11 12 -13 20 -6 25 6 3 11 15 11 26 0 22 15 24 46 6z
m-74 -535 c-27 -4 -37 2 -27 17 4 8 13 7 28 -1 l22 -13 -23 -3z m-337 -322 c3
-5 -3 -10 -15 -10 -12 0 -18 5 -15 10 3 6 10 10 15 10 5 0 12 -4 15 -10z m55
-24 c0 -8 9 -18 20 -21 11 -4 18 -10 15 -15 -3 -4 2 -10 10 -14 8 -3 15 -1 15
4 0 13 47 13 55 0 3 -5 -1 -10 -10 -10 -9 0 -14 -4 -10 -9 3 -5 18 -9 34 -9
15 1 33 -2 39 -6 6 -3 13 -2 17 4 3 5 12 10 19 10 18 0 216 -120 216 -131 0
-5 5 -9 11 -9 5 0 24 -13 42 -30 18 -16 36 -30 40 -30 5 0 5 -5 1 -12 -5 -8
-2 -9 10 -5 11 5 20 0 27 -16 5 -12 16 -33 24 -47 15 -26 10 -44 -5 -20 -8 12
-13 13 -29 3 -16 -10 -28 -8 -67 12 -32 16 -52 21 -58 15 -16 -16 -37 -11 -34
8 2 11 -3 17 -14 16 -10 -1 -18 4 -18 11 0 7 -7 16 -16 19 -9 4 -13 2 -8 -5 9
-15 -56 -1 -76 16 -8 7 -41 21 -72 31 -32 10 -58 22 -58 28 0 5 -7 17 -15 26
-8 9 -16 29 -17 44 -2 18 -17 41 -43 64 -22 20 -39 40 -37 44 1 5 -4 8 -11 8
-7 0 -13 9 -13 20 0 11 4 20 8 20 4 0 8 -6 8 -14z m575 -396 c3 -5 1 -10 -4
-10 -6 0 -11 5 -11 10 0 6 2 10 4 10 3 0 8 -4 11 -10z m30 -20 c3 -5 1 -10 -4
-10 -6 0 -11 5 -11 10 0 6 2 10 4 10 3 0 8 -4 11 -10z m-90 -10 c3 -5 -1 -10
-9 -10 -9 0 -16 5 -16 10 0 6 4 10 9 10 6 0 13 -4 16 -10z m-20 -84 c11 -8 16
-16 12 -16 -12 0 -96 50 -103 62 -7 11 62 -23 91 -46z m-130 -96 c3 -5 2 -10
-4 -10 -5 0 -13 5 -16 10 -3 6 -2 10 4 10 5 0 13 -4 16 -10z m-913 -1562 c7
-13 11 -31 9 -42 -1 -11 2 -16 8 -12 6 4 11 14 11 23 0 9 3 13 6 10 10 -10 12
-97 2 -103 -14 -9 -38 16 -38 38 0 10 -4 17 -9 14 -5 -4 -7 2 -4 13 3 10 0 22
-6 25 -14 9 -15 56 -1 56 5 0 15 -10 22 -22z m18 -154 c0 -4 -9 1 -20 11 -11
10 -20 25 -20 33 0 9 7 6 20 -11 11 -14 20 -29 20 -33z m210 36 c0 -5 -2 -10
-4 -10 -3 0 -8 5 -11 10 -3 6 -1 10 4 10 6 0 11 -4 11 -10z m164 -135 c3 -8 1
-15 -3 -15 -5 0 -11 7 -15 15 -3 8 -1 15 3 15 5 0 11 -7 15 -15z m-4038 -868
c-25 -32 -62 -47 -52 -21 3 7 1 14 -4 16 -17 6 28 66 52 70 33 4 35 -24 4 -65z"/>
<path d="M10195 8540 c3 -5 11 -10 16 -10 6 0 7 5 4 10 -3 6 -11 10 -16 10 -6
0 -7 -4 -4 -10z"/>
<path d="M5351 9203 c-1 -6 -4 -20 -7 -30 -5 -17 -5 -17 6 0 6 10 9 23 6 30
-3 9 -5 9 -5 0z"/>
<path d="M3750 8350 c-8 -5 -10 -10 -5 -10 6 0 17 5 25 10 8 5 11 10 5 10 -5
0 -17 -5 -25 -10z"/>
<path d="M3662 8328 c-14 -17 -77 -54 -68 -40 3 6 2 13 -4 17 -5 3 -10 0 -11
-7 0 -7 -2 -23 -3 -35 l-3 -22 29 20 c28 20 39 14 16 -9 -22 -22 8 -13 33 11
14 12 33 20 44 18 17 -3 18 -1 6 13 -9 10 -10 16 -2 16 6 0 11 5 11 12 0 6 -3
8 -7 5 -3 -4 -12 -2 -18 3 -9 7 -16 6 -23 -2z"/>
<path d="M3610 8315 c-8 -9 -8 -15 -2 -15 12 0 26 19 19 26 -2 2 -10 -2 -17
-11z"/>
<path d="M3185 8311 c-11 -5 -23 -7 -27 -4 -5 2 -8 -3 -8 -12 0 -14 3 -14 33
1 48 25 49 34 2 15z"/>
<path d="M3465 8304 c-35 -15 -34 -16 21 -18 28 -2 41 2 41 11 0 7 -3 11 -5 8
-3 -3 -10 -1 -16 4 -6 5 -24 3 -41 -5z"/>
<path d="M3546 8297 c3 -10 9 -15 12 -12 3 3 0 11 -7 18 -10 9 -11 8 -5 -6z"/>
<path d="M3388 8293 c6 -2 10 -9 6 -14 -3 -5 -1 -9 5 -9 17 0 21 18 5 24 -9 3
-19 6 -22 5 -4 0 -1 -3 6 -6z"/>
<path d="M3530 8260 c0 -5 -6 -10 -14 -10 -8 0 -16 -7 -19 -15 -5 -12 -2 -12
18 -3 21 9 36 38 20 38 -3 0 -5 -4 -5 -10z"/>
<path d="M3469 8252 c9 -7 10 -11 2 -15 -7 -4 -8 -5 -1 -3 16 2 14 20 -2 24
-10 3 -10 2 1 -6z"/>
<path d="M11001 8224 c0 -11 3 -14 6 -6 3 7 2 16 -1 19 -3 4 -6 -2 -5 -13z"/>
<path d="M2703 8183 c4 -3 1 -13 -6 -22 -11 -14 -10 -14 6 -2 20 15 22 31 5
31 -6 0 -8 -3 -5 -7z"/>
<path d="M2565 8120 c-3 -6 1 -7 9 -4 18 7 21 14 7 14 -6 0 -13 -4 -16 -10z"/>
<path d="M2535 8100 c-3 -5 -1 -10 4 -10 6 0 11 5 11 10 0 6 -2 10 -4 10 -3 0
-8 -4 -11 -10z"/>
<path d="M2443 8026 c-42 -42 -61 -68 -58 -79 9 -22 55 -10 55 15 0 7 -5 6
-14 -1 -22 -19 -31 7 -10 30 21 24 41 25 23 2 -11 -15 -10 -14 9 1 23 20 30
32 12 21 -25 -15 -6 13 27 42 21 18 34 32 29 33 -5 0 -38 -29 -73 -64z"/>
<path d="M2555 8060 c-4 -11 -10 -18 -14 -15 -5 2 -19 -7 -31 -20 -13 -14 -19
-25 -13 -25 6 0 13 7 17 15 3 8 12 15 19 15 19 0 51 36 38 44 -5 4 -12 -3 -16
-14z"/>
<path d="M2465 7990 c-3 -5 -1 -10 4 -10 6 0 11 5 11 10 0 6 -2 10 -4 10 -3 0
-8 -4 -11 -10z"/>
<path d="M2067 7608 c-26 -17 -45 -33 -43 -35 5 -6 82 43 91 57 8 13 7 13 -48
-22z"/>
<path d="M11458 7573 c7 -3 16 -2 19 1 4 3 -2 6 -13 5 -11 0 -14 -3 -6 -6z"/>
<path d="M11538 7473 c7 -3 16 -2 19 1 4 3 -2 6 -13 5 -11 0 -14 -3 -6 -6z"/>
<path d="M11488 7028 c5 -5 16 -8 23 -6 8 3 3 7 -10 11 -17 4 -21 3 -13 -5z"/>
<path d="M1730 6841 c0 -5 9 -7 20 -4 11 3 20 7 20 9 0 2 -9 4 -20 4 -11 0
-20 -4 -20 -9z"/>
<path d="M678 5023 c-19 -23 -31 -43 -24 -43 2 0 14 14 26 30 23 33 22 40 -2
13z"/>
<path d="M10950 3565 c7 -8 17 -15 22 -15 6 0 5 7 -2 15 -7 8 -17 15 -22 15
-6 0 -5 -7 2 -15z"/>
<path d="M10985 3570 c3 -5 11 -10 16 -10 6 0 7 5 4 10 -3 6 -11 10 -16 10 -6
0 -7 -4 -4 -10z"/>
<path d="M10995 3540 c3 -5 8 -10 11 -10 2 0 4 5 4 10 0 6 -5 10 -11 10 -5 0
-7 -4 -4 -10z"/>
<path d="M10180 2256 c0 -2 29 -27 65 -55 57 -45 68 -50 80 -38 12 13 10 19
-12 46 -29 35 -49 42 -33 11 7 -14 7 -20 0 -20 -5 0 -10 4 -10 8 0 5 -17 18
-39 30 -38 22 -51 26 -51 18z"/>
<path d="M9487 1593 c-7 -10 33 -50 82 -83 13 -8 38 -37 56 -65 48 -73 82
-108 90 -95 4 7 -9 35 -29 63 -45 66 -129 158 -122 135 3 -10 2 -18 -2 -18
-11 1 -59 45 -64 60 -3 10 -7 10 -11 3z"/>
</g>
</svg>
