<?xml version="1.0" standalone="no"?>
<!DOCTYPE svg PUBLIC "-//W3C//DTD SVG 20010904//EN"
 "http://www.w3.org/TR/2001/REC-SVG-20010904/DTD/svg10.dtd">
<svg version="1.0" xmlns="http://www.w3.org/2000/svg"
 width="1272.000000pt" height="1280.000000pt" viewBox="0 0 1272.000000 1280.000000"
 preserveAspectRatio="xMidYMid meet">
<metadata>
Created by potrace 1.15, written by Peter Selinger 2001-2017
</metadata>
<g transform="translate(0.000000,1280.000000) scale(0.100000,-0.100000)"
fill="#000000" stroke="none">
<path d="M10519 12780 c-48 -25 -71 -55 -270 -352 -162 -241 -168 -252 -174
-313 -11 -103 21 -145 114 -145 92 0 183 53 324 189 210 202 267 309 233 440
-28 111 -104 202 -167 201 -13 -1 -40 -10 -60 -20z"/>
<path d="M9245 12011 c-203 -125 -617 -873 -1080 -1955 -54 -126 -108 -240
-120 -254 l-22 -25 -15 39 c-17 41 -26 86 -53 257 -21 134 -55 197 -109 197
-52 0 -139 -139 -196 -315 -34 -104 -73 -185 -91 -185 -6 0 -20 21 -32 48 -18
39 -22 66 -22 152 0 62 6 124 14 151 27 88 0 121 -118 143 -90 17 -156 57
-147 89 19 67 38 438 33 652 -7 325 -38 463 -114 508 -28 16 -35 17 -66 4
-129 -54 -238 -482 -276 -1083 -8 -134 -18 -161 -73 -194 -30 -18 -32 -18 -57
-1 -43 30 -109 61 -131 61 -12 0 -32 -11 -45 -25 -21 -20 -25 -34 -25 -87 0
-35 7 -103 15 -153 8 -49 15 -116 15 -148 0 -53 -3 -62 -30 -87 l-30 -28 0
-134 c0 -141 -7 -208 -21 -208 -15 0 -75 90 -134 202 -31 60 -68 116 -81 124
-22 15 -27 15 -71 -7 -35 -17 -55 -36 -72 -67 l-23 -44 -35 34 c-59 57 -101
130 -129 223 -61 206 -85 218 -225 115 -78 -59 -122 -72 -138 -43 -5 11 -16
60 -24 109 -14 84 -23 104 -140 324 -152 286 -188 351 -234 415 -119 166 -338
399 -447 476 -192 136 -320 76 -303 -140 19 -237 185 -553 410 -781 107 -108
127 -135 127 -168 0 -27 -38 -46 -114 -57 -118 -18 -140 -99 -67 -248 21 -45
79 -138 127 -207 156 -223 188 -270 183 -273 -2 -1 -23 -15 -46 -30 -51 -32
-77 -77 -68 -117 4 -16 32 -53 65 -86 62 -60 79 -98 60 -133 -14 -27 -48 -35
-97 -22 -66 18 -121 62 -169 137 -75 113 -134 164 -194 166 -37 1 -61 -20 -85
-72 -12 -27 -25 -40 -37 -40 -12 0 -79 60 -166 148 -205 206 -320 289 -416
299 -38 5 -45 2 -64 -22 -47 -59 -16 -175 109 -413 63 -122 71 -142 66 -179
-5 -47 -30 -93 -51 -93 -7 0 -83 84 -169 188 -181 218 -221 258 -301 306 -77
46 -144 71 -289 107 -66 16 -137 39 -158 50 -22 11 -124 104 -227 207 -437
439 -774 685 -956 699 -59 5 -65 4 -95 -23 -44 -39 -50 -88 -21 -174 79 -237
418 -625 860 -985 47 -38 189 -171 315 -295 127 -125 278 -264 337 -309 73
-55 108 -89 108 -102 0 -11 -21 -42 -47 -70 -82 -87 -54 -144 91 -189 88 -28
126 -63 126 -118 0 -21 -7 -47 -15 -58 -47 -62 5 -114 235 -237 91 -49 188
-105 215 -125 45 -33 48 -37 27 -40 -41 -6 -218 27 -309 57 -48 16 -238 81
-421 145 -655 229 -1165 381 -1314 393 -87 7 -108 -2 -108 -46 0 -46 79 -108
301 -237 156 -89 770 -407 1007 -520 89 -42 161 -81 160 -86 -2 -5 -33 -33
-68 -61 -37 -30 -73 -69 -84 -91 l-19 -40 26 -75 c34 -96 35 -135 3 -156 -59
-39 -202 -27 -475 40 -638 157 -1253 149 -1597 -20 -188 -92 -271 -217 -224
-340 37 -98 177 -175 382 -211 80 -14 131 -15 358 -8 146 5 355 8 465 8 199 0
201 0 378 -42 209 -50 292 -62 407 -60 132 3 184 -38 184 -147 0 -71 -25 -112
-82 -136 -159 -66 -275 -157 -320 -251 -28 -61 -28 -90 1 -124 18 -20 35 -28
73 -31 50 -5 77 2 316 86 97 34 286 55 391 44 55 -6 57 -7 41 -24 -30 -33
-177 -97 -362 -158 -292 -97 -408 -162 -400 -227 5 -43 38 -56 128 -50 79 5
157 28 230 67 43 23 53 24 214 21 187 -3 219 -10 166 -37 -60 -31 -156 -64
-367 -124 -525 -151 -795 -267 -905 -389 -46 -51 -56 -92 -31 -135 88 -154
617 -108 988 86 55 29 186 112 290 184 293 202 523 325 638 341 37 5 37 4 27
-22 -26 -70 -98 -170 -224 -311 -104 -116 -116 -134 -116 -171 0 -79 63 -99
295 -91 l170 6 -35 -18 c-19 -11 -85 -33 -145 -51 -302 -86 -418 -135 -480
-200 -16 -18 -83 -68 -147 -111 -132 -89 -158 -113 -158 -146 0 -41 65 -54
168 -34 40 8 42 7 36 -13 -10 -30 -48 -88 -70 -107 -11 -8 -51 -34 -91 -57
-243 -142 -524 -454 -549 -609 -6 -36 -3 -45 21 -68 22 -23 32 -26 63 -21 56
9 145 58 267 147 137 100 164 125 182 169 21 48 61 100 79 100 20 0 19 -4 -26
-85 -22 -40 -40 -86 -40 -102 0 -39 28 -63 72 -63 54 0 128 61 338 280 181
189 185 192 191 163 15 -73 51 -73 119 -1 81 86 65 33 -85 -276 -58 -120 -117
-256 -130 -303 -74 -254 -17 -472 109 -419 46 19 98 91 161 221 58 122 115
202 201 285 l56 55 -5 -46 c-4 -25 -27 -101 -52 -168 -25 -68 -50 -155 -55
-195 -6 -39 -22 -156 -37 -261 -36 -252 -39 -501 -7 -555 11 -19 32 -41 47
-48 132 -64 386 386 542 958 39 147 51 180 64 180 14 0 49 -91 62 -164 15 -87
45 -125 107 -133 58 -8 125 19 151 60 10 18 24 59 31 92 6 33 31 139 55 235
24 96 46 195 50 220 11 71 27 130 35 130 21 0 70 -175 97 -350 26 -168 25
-609 -1 -770 -18 -113 -18 -116 1 -210 l20 -95 -23 -108 c-95 -439 -58 -742
96 -788 170 -51 330 257 330 634 l0 98 30 -34 c65 -75 127 -69 168 15 23 46
40 128 61 302 18 150 68 220 117 162 27 -31 39 -97 30 -174 -18 -162 -18 -198
-2 -261 20 -79 20 -119 -1 -255 -14 -94 -15 -128 -5 -231 23 -241 93 -365 207
-365 81 0 185 106 234 240 60 164 52 329 -24 488 -45 96 -45 106 1 99 37 -6
70 -21 157 -71 33 -19 55 -26 72 -22 46 12 49 35 20 193 -34 186 -34 349 2
384 28 29 57 21 116 -31 77 -68 97 -122 107 -296 6 -82 19 -192 30 -244 19
-92 28 -190 50 -555 12 -198 22 -246 86 -415 136 -364 292 -576 447 -611 73
-16 126 0 187 57 101 94 152 243 153 444 0 210 -47 356 -172 529 -111 153
-212 379 -262 586 -10 44 -19 95 -19 113 l0 32 78 1 c42 0 93 5 112 12 50 17
50 51 2 173 -84 211 -150 459 -128 481 25 25 171 -114 342 -327 102 -126 152
-170 226 -196 116 -41 194 9 190 120 -3 66 -32 138 -128 317 -132 247 -221
444 -212 471 2 6 36 -25 76 -68 149 -164 331 -408 450 -603 85 -139 116 -177
167 -201 46 -22 47 -22 152 21 40 16 51 8 103 -80 43 -74 206 -260 296 -337
121 -104 216 -152 276 -140 149 30 94 283 -114 524 -30 34 -38 51 -38 83 0 44
2 45 80 24 74 -20 123 -19 151 3 51 42 13 127 -124 277 -43 47 -76 85 -73 85
3 0 50 -17 103 -39 138 -55 283 -100 345 -107 45 -5 57 -3 81 16 69 54 17 123
-338 445 -284 258 -545 529 -545 567 0 14 48 2 241 -63 96 -32 187 -59 202
-59 23 0 57 31 57 52 0 4 -25 36 -55 72 -50 58 -75 101 -75 127 0 20 60 7 136
-29 93 -46 178 -99 333 -211 63 -45 145 -100 183 -123 199 -118 595 -238 787
-238 98 0 144 13 175 51 61 72 17 187 -124 329 -209 211 -531 404 -917 551
-206 78 -313 152 -313 217 0 39 33 46 175 36 71 -4 180 -8 241 -9 96 0 115 3
133 19 81 73 -63 183 -388 296 -206 72 -271 114 -226 147 37 26 92 35 265 42
192 7 241 20 269 72 13 23 12 30 -5 64 -27 56 -111 109 -305 192 -193 82 -292
140 -266 154 30 17 171 22 317 9 177 -14 197 -18 430 -87 568 -167 1165 -285
1650 -328 426 -38 650 1 650 114 0 175 -687 475 -2045 891 -496 152 -696 222
-681 237 3 3 76 0 163 -7 182 -14 255 -6 309 35 26 20 34 33 34 58 0 93 -108
137 -335 137 -130 0 -205 10 -267 37 -43 18 -53 36 -31 55 12 10 64 13 197 15
100 1 203 7 231 13 156 35 187 129 76 233 -62 58 -109 82 -192 96 -126 21
-248 6 -435 -54 -132 -42 -171 -45 -180 -11 -11 45 0 88 27 109 39 29 95 36
279 37 263 1 428 26 675 101 203 63 267 124 200 191 -27 27 -64 43 -196 82
-95 28 -141 57 -123 76 20 20 113 39 253 50 754 62 1180 184 1287 366 39 66
30 115 -29 170 -83 75 -241 105 -445 85 -126 -12 -343 -61 -397 -89 -16 -8
-104 -64 -194 -125 -193 -129 -288 -177 -348 -177 -51 0 -55 6 -77 115 -28
138 -70 195 -140 195 -14 0 -101 -34 -193 -76 -170 -77 -333 -138 -343 -127
-3 3 61 69 142 147 81 77 154 156 163 174 9 19 15 51 13 74 -4 58 -40 83 -116
82 -49 0 -75 -9 -182 -62 -68 -34 -133 -62 -143 -62 -30 0 31 76 168 208 148
144 222 200 347 263 232 116 530 303 699 436 342 272 464 533 286 613 -161 74
-486 -75 -817 -374 -62 -56 -137 -106 -158 -106 -23 0 -82 71 -93 112 -5 21
-20 50 -33 65 -23 26 -24 27 -90 17 -42 -6 -66 -7 -66 -1 0 6 40 52 89 102 67
69 100 113 129 172 51 101 117 179 234 278 51 43 158 143 238 220 121 118 173
160 306 247 201 134 245 171 339 288 182 227 270 403 251 502 -3 19 -20 47
-36 63 -82 79 -287 16 -541 -165 -139 -99 -254 -212 -392 -385 -155 -193 -240
-289 -300 -337 -27 -21 -52 -38 -55 -38 -4 0 -7 38 -7 85 0 79 -2 86 -28 112
-23 23 -36 28 -75 27 -123 -1 -308 -171 -507 -464 -122 -179 -155 -207 -189
-158 -23 32 -19 57 15 108 27 39 30 51 24 90 -12 84 -54 115 -117 89 -73 -30
-212 -202 -421 -519 -63 -96 -128 -192 -145 -213 -56 -70 -167 -147 -212 -147
-17 0 -20 6 -20 41 0 52 46 189 103 311 25 51 90 190 147 308 488 1027 714
1728 580 1800 -27 15 -51 12 -85 -9z"/>
<path d="M2644 11361 c-48 -29 -76 -83 -82 -156 -4 -56 -1 -71 25 -127 17 -35
49 -84 73 -111 64 -72 346 -298 419 -334 115 -60 221 -37 221 47 0 18 -31 92
-76 183 -119 237 -191 340 -296 423 -113 89 -217 116 -284 75z"/>
<path d="M138 10111 c-79 -26 -128 -96 -136 -198 -9 -113 54 -201 193 -271
188 -93 672 -233 892 -257 53 -6 70 -4 107 15 69 33 69 54 4 115 -104 97 -310
269 -423 355 -211 159 -384 239 -530 246 -44 2 -92 0 -107 -5z"/>
<path d="M2352 3085 c-116 -62 -256 -160 -322 -225 -62 -60 -133 -188 -145
-259 -14 -83 39 -118 122 -81 146 64 293 230 437 489 73 132 49 152 -92 76z"/>
<path d="M4239 1953 c-102 -51 -298 -275 -381 -436 -55 -106 -44 -214 31 -313
92 -122 226 -126 274 -7 8 21 25 83 36 138 34 155 88 337 143 483 27 73 47
140 44 148 -9 24 -85 17 -147 -13z"/>
<path d="M3142 883 c-11 -10 -48 -63 -82 -118 -80 -130 -154 -231 -258 -358
-97 -116 -112 -146 -112 -217 0 -67 29 -123 82 -157 35 -24 52 -28 112 -28 59
0 79 5 118 27 95 57 142 145 227 428 78 261 82 350 19 418 -26 27 -77 29 -106
5z"/>
</g>
</svg>
