<svg id="svg" version="1.1" xmlns="http://www.w3.org/2000/svg" xmlns:xlink="http://www.w3.org/1999/xlink" width="400" height="316.01423487544486" viewBox="0, 0, 400,316.01423487544486"><g id="svgg"><path id="path0" d="M255.651 17.132 C 246.885 19.640,244.598 20.750,234.984 27.160 C 221.107 36.412,214.663 37.111,203.012 30.627 C 202.334 30.249,199.537 28.952,196.797 27.744 C 194.057 26.536,191.174 25.251,190.391 24.889 C 167.375 14.245,131.294 19.022,111.534 35.329 C 108.149 38.123,102.795 44.957,102.231 47.204 C 101.842 48.753,101.335 48.935,96.277 49.341 C 78.407 50.776,65.535 56.363,53.489 67.911 C 49.659 71.584,43.181 79.865,40.077 85.057 C 39.207 86.513,33.267 98.292,33.081 98.932 C 33.024 99.128,32.570 100.249,32.072 101.423 C 23.016 122.803,18.964 146.908,22.023 161.210 C 22.358 162.776,22.989 165.803,23.425 167.938 C 26.720 184.074,38.416 195.332,53.393 196.782 L 58.031 197.231 57.761 202.574 C 57.181 214.060,65.177 225.056,79.651 232.678 C 92.430 239.407,104.176 239.090,127.170 231.394 L 137.309 228.001 138.355 230.615 C 144.854 246.857,172.437 245.019,193.777 226.922 L 196.450 224.655 202.480 227.630 C 205.796 229.266,208.853 230.605,209.272 230.605 C 209.692 230.605,210.937 231.071,212.039 231.641 C 213.141 232.211,214.851 232.824,215.838 233.003 C 216.825 233.182,219.350 233.816,221.450 234.412 C 245.748 241.308,276.056 236.890,291.976 224.130 C 299.968 217.725,308.185 205.858,308.185 200.722 C 308.185 198.959,307.303 198.955,318.618 200.765 C 342.562 204.596,364.545 184.303,374.189 149.466 C 376.870 139.782,377.084 113.525,374.544 105.901 C 373.670 103.275,372.954 100.775,372.954 100.346 C 372.954 99.917,372.297 98.062,371.494 96.224 C 365.184 81.785,357.112 72.883,345.034 67.047 C 338.844 64.056,338.109 63.499,338.095 61.790 C 338.042 55.681,333.305 42.260,329.831 38.378 C 329.278 37.760,328.826 37.085,328.826 36.878 C 328.826 36.218,321.468 29.047,318.208 26.529 C 304.367 15.839,275.388 11.486,255.651 17.132 M288.968 26.659 C 312.795 30.642,326.160 44.202,327.060 65.308 C 327.353 72.175,327.697 72.668,333.529 74.594 C 353.394 81.156,364.634 99.840,364.654 126.335 C 364.684 167.643,339.174 197.183,312.100 187.192 C 304.048 184.221,298.932 185.047,298.932 189.318 C 298.932 216.825,260.938 233.424,223.354 222.337 C 221.519 221.795,219.597 221.341,219.083 221.328 C 218.570 221.315,216.868 220.685,215.302 219.929 C 213.737 219.172,212.100 218.543,211.664 218.529 C 210.799 218.503,201.045 213.262,199.546 212.018 C 197.133 210.016,193.667 211.117,188.754 215.446 C 166.661 234.912,149.573 235.292,145.857 216.400 C 144.847 211.269,143.284 209.641,139.369 209.641 C 134.230 209.641,133.013 212.794,134.969 221.037 C 135.332 222.566,133.584 223.189,113.879 228.565 C 97.709 232.976,83.928 229.604,72.619 218.470 C 64.687 210.660,63.338 202.803,68.797 196.209 C 73.041 191.082,70.474 188.168,61.990 188.483 C 33.347 189.546,22.409 160.276,35.708 118.149 C 47.948 79.379,70.694 59.167,102.177 59.087 C 108.087 59.072,108.932 58.540,110.665 53.737 C 114.582 42.878,126.788 35.247,146.619 31.259 C 163.308 27.903,174.410 29.386,192.527 37.388 C 193.701 37.907,196.166 38.995,198.004 39.806 C 199.842 40.617,201.555 41.281,201.811 41.281 C 202.067 41.281,203.285 41.729,204.519 42.277 C 217.193 47.904,226.452 46.332,241.637 35.973 C 255.180 26.734,270.905 23.639,288.968 26.659 M324.555 210.578 C 307.013 214.330,298.608 238.926,310.920 250.480 C 332.402 270.638,358.609 242.453,342.966 216.014 C 342.503 215.231,341.903 214.110,341.633 213.523 C 340.548 211.163,330.179 209.374,324.555 210.578 M336.455 225.399 C 345.038 240.144,326.266 254.780,316.904 240.642 C 313.238 235.105,319.633 221.352,325.874 221.352 C 326.323 221.352,326.690 221.056,326.690 220.693 C 326.690 217.794,334.110 221.370,336.455 225.399 M307.645 265.471 C 307.159 266.248,306.762 267.530,306.762 268.318 C 306.762 269.284,306.290 269.751,305.315 269.751 C 297.478 269.751,291.598 278.808,293.895 287.341 C 294.657 290.171,298.621 294.570,300.559 294.736 C 301.034 294.777,302.705 294.918,304.270 295.050 C 316.470 296.077,326.621 284.661,323.033 273.950 C 320.799 267.281,310.171 261.425,307.645 265.471 M311.452 278.920 C 312.760 279.295,314.121 279.281,314.829 278.885 C 317.707 277.274,315.259 282.888,312.295 284.695 C 308.363 287.092,303.203 286.014,303.203 282.793 C 303.203 279.819,307.520 277.792,311.452 278.920 " stroke="none" fill="#A9D0F5" fill-rule="evenodd"></path></g></svg>