<svg id="svg" version="1.1" xmlns="http://www.w3.org/2000/svg" xmlns:xlink="http://www.w3.org/1999/xlink" width="400" height="280.06700167504187" viewBox="0, 0, 400,280.06700167504187"><g id="svgg"><path id="path0" d="M37.670 21.814 C 36.640 22.535,36.181 23.542,36.181 25.082 C 36.181 26.305,35.729 27.682,35.176 28.141 C 33.861 29.232,33.908 30.695,35.455 36.805 C 36.161 39.594,37.357 44.439,38.113 47.571 C 42.629 66.289,46.843 83.047,47.380 84.422 C 47.596 84.975,47.885 86.012,48.022 86.726 C 48.159 87.441,48.418 88.172,48.597 88.352 C 48.777 88.531,46.433 91.265,43.390 94.428 C 36.898 101.173,35.902 102.373,32.964 106.976 C 19.843 127.537,17.260 155.158,25.895 182.580 C 32.164 202.489,46.018 223.309,60.638 234.791 C 62.480 236.238,64.439 237.900,64.992 238.485 C 66.424 240.001,76.435 246.500,82.765 250.023 C 87.336 252.568,90.797 254.143,99.497 257.637 C 101.090 258.277,100.562 258.107,105.528 259.580 C 107.739 260.236,111.317 261.340,113.481 262.034 C 115.644 262.729,117.658 263.145,117.957 262.961 C 118.256 262.776,118.693 262.936,118.928 263.317 C 119.163 263.697,119.584 263.867,119.863 263.695 C 120.142 263.522,122.156 263.795,124.339 264.302 C 126.522 264.808,130.419 265.405,132.998 265.629 C 135.578 265.852,140.402 266.393,143.719 266.831 C 151.720 267.887,183.916 267.859,193.300 266.788 C 197.353 266.325,202.872 265.813,205.563 265.651 C 208.254 265.488,213.079 264.909,216.283 264.363 C 219.488 263.817,223.618 263.205,225.461 263.002 C 227.303 262.800,231.072 262.198,233.836 261.664 C 236.600 261.131,240.067 260.522,241.541 260.310 C 243.015 260.098,245.276 259.652,246.566 259.319 C 247.856 258.986,249.816 258.559,250.921 258.371 C 254.319 257.791,256.835 257.254,259.631 256.512 C 261.106 256.121,263.060 255.664,263.974 255.497 C 266.879 254.967,282.908 249.824,286.307 248.331 C 287.481 247.815,291.156 246.265,294.472 244.885 C 304.242 240.821,324.891 229.208,325.741 227.299 C 325.863 227.025,327.694 225.512,329.809 223.937 C 335.671 219.571,342.124 213.308,346.876 207.370 C 349.236 204.422,351.597 201.484,352.123 200.841 C 353.037 199.725,356.311 194.507,360.639 187.270 C 374.457 164.167,377.778 132.704,369.116 106.972 C 360.970 82.775,335.503 56.019,307.402 42.133 C 299.832 38.392,287.088 33.730,282.623 33.068 C 281.402 32.887,278.961 32.321,277.200 31.810 C 275.439 31.299,272.273 30.699,270.165 30.475 C 268.057 30.251,263.928 29.785,260.989 29.439 C 248.325 27.949,223.102 28.998,208.710 31.614 C 204.657 32.350,200.586 33.058,199.665 33.187 C 197.463 33.493,186.828 36.008,182.580 37.226 C 169.235 41.052,157.394 44.828,149.858 47.661 C 145.007 49.484,138.626 51.833,135.678 52.880 C 128.965 55.265,115.193 60.650,111.297 62.415 C 106.115 64.761,103.586 63.596,84.087 49.882 C 76.153 44.302,62.574 34.478,62.312 34.128 C 61.564 33.133,47.243 23.841,44.174 22.361 C 40.289 20.487,39.642 20.432,37.670 21.814 M47.125 37.018 C 49.520 38.953,53.965 42.345,57.003 44.556 C 69.821 53.886,76.799 59.000,78.057 59.987 C 80.010 61.519,85.614 65.426,89.280 67.811 C 92.575 69.955,92.998 70.852,91.698 72.934 C 89.797 75.978,93.329 82.412,96.902 82.412 C 98.360 82.412,108.580 78.626,115.093 75.671 C 116.669 74.957,118.256 74.372,118.618 74.372 C 118.981 74.372,120.556 73.791,122.118 73.080 C 123.680 72.370,128.576 70.396,132.998 68.693 C 137.420 66.991,141.943 65.242,143.049 64.808 C 144.154 64.373,145.360 63.956,145.729 63.879 C 146.097 63.803,148.509 62.938,151.089 61.956 C 153.668 60.975,158.040 59.433,160.804 58.530 C 163.568 57.627,166.281 56.706,166.834 56.483 C 167.387 56.261,168.141 55.989,168.509 55.880 C 168.878 55.770,172.345 54.728,176.214 53.563 C 190.414 49.288,198.968 47.276,213.351 44.829 C 215.536 44.458,217.530 44.025,217.784 43.868 C 222.415 41.006,267.356 42.698,276.717 46.087 C 277.270 46.287,277.873 46.487,278.057 46.531 C 281.875 47.453,287.934 49.246,288.442 49.605 C 288.811 49.864,290.318 50.459,291.792 50.927 C 322.804 60.767,351.052 90.298,359.195 121.389 C 362.399 133.621,360.258 160.572,355.668 165.796 C 355.361 166.146,355.109 166.825,355.109 167.306 C 355.109 173.094,340.288 195.083,329.067 205.943 C 326.352 208.570,323.639 211.203,323.037 211.794 C 315.669 219.024,296.657 230.298,282.960 235.560 C 268.411 241.149,247.540 246.911,239.196 247.642 C 237.906 247.755,234.708 248.299,232.090 248.852 C 229.471 249.405,225.401 250.038,223.045 250.258 C 220.688 250.478,216.650 250.945,214.070 251.295 C 211.491 251.645,207.571 252.083,205.360 252.269 C 203.149 252.455,200.134 252.734,198.660 252.890 C 176.430 255.241,149.733 255.566,136.013 253.654 C 124.194 252.006,124.485 252.053,120.866 251.223 C 119.063 250.809,116.834 250.330,115.913 250.159 C 113.844 249.773,105.492 247.157,100.368 245.289 C 95.976 243.689,81.874 236.825,81.072 235.898 C 80.888 235.685,78.476 234.008,75.712 232.171 C 72.948 230.334,70.385 228.479,70.017 228.049 C 69.648 227.618,67.455 225.711,65.142 223.812 C 56.057 216.350,44.651 200.508,39.239 187.833 C 37.848 184.575,36.472 181.438,36.182 180.861 C 35.390 179.286,32.297 167.552,31.867 164.489 C 29.913 150.569,30.450 139.954,33.615 129.983 C 35.182 125.044,40.755 113.013,41.632 112.674 C 41.951 112.552,42.211 112.171,42.211 111.829 C 42.211 110.692,47.472 103.591,52.579 97.834 C 57.966 91.762,58.166 91.250,56.616 87.540 C 56.063 86.216,55.437 84.042,55.225 82.708 C 55.013 81.374,54.392 79.028,53.845 77.495 C 53.297 75.961,52.579 73.501,52.249 72.027 C 51.918 70.553,50.720 66.030,49.586 61.977 C 48.453 57.923,47.434 54.003,47.322 53.266 C 47.210 52.529,46.760 50.840,46.321 49.512 C 45.881 48.184,45.407 46.526,45.267 45.827 C 44.773 43.371,42.297 34.852,41.882 34.180 C 40.882 32.563,43.086 33.756,47.125 37.018 " stroke="none" fill="#FFDAB9" fill-rule="evenodd"></path></g></svg>