<svg id="svg" version="1.1" xmlns="http://www.w3.org/2000/svg" xmlns:xlink="http://www.w3.org/1999/xlink" width="400" height="412.1951219512195" viewBox="0, 0, 400,412.1951219512195"><g id="svgg"><path id="path0" d="M291.870 8.977 C 282.256 9.359,257.927 10.054,237.805 10.521 C 217.683 10.989,198.476 11.528,195.122 11.718 C 191.768 11.909,181.890 12.465,173.171 12.954 C 149.929 14.258,134.492 15.382,128.049 16.237 C 114.598 18.024,85.775 18.893,56.704 18.387 C 23.736 17.814,22.919 17.908,18.611 22.767 C 12.131 30.078,9.249 68.528,11.361 119.512 C 11.777 129.573,12.498 150.427,12.963 165.854 C 13.874 196.098,14.201 202.890,15.412 216.667 C 16.317 226.976,18.603 245.528,19.058 246.265 C 19.228 246.540,19.958 256.090,20.679 267.488 C 24.927 334.575,34.617 341.258,118.699 335.097 C 152.771 332.601,229.586 332.248,231.183 334.581 C 231.785 335.460,233.757 338.923,235.566 342.276 C 255.367 378.984,258.894 382.472,264.200 370.590 C 269.761 358.135,273.447 350.544,275.742 346.823 C 277.146 344.546,278.915 341.585,279.673 340.244 C 280.431 338.902,282.240 335.701,283.693 333.130 C 287.047 327.193,284.887 327.839,304.690 326.858 C 346.140 324.804,361.855 315.454,366.970 289.804 C 369.956 274.830,370.587 212.889,368.279 161.382 C 365.649 102.700,365.657 90.863,368.340 62.195 C 372.960 12.854,363.314 6.141,291.870 8.977 M337.531 21.514 C 348.031 22.840,354.522 27.223,355.760 33.824 C 356.565 38.114,355.556 70.831,354.409 77.642 C 353.291 84.278,353.765 112.636,355.678 153.659 C 359.501 235.603,358.704 280.058,353.165 293.895 C 346.954 309.411,335.915 313.541,295.677 315.405 C 278.000 316.224,278.168 316.170,275.937 321.742 C 274.210 326.055,267.832 339.101,264.706 344.715 C 263.585 346.728,261.533 350.894,260.145 353.973 C 257.211 360.480,257.708 360.744,251.162 349.187 C 248.376 344.268,245.224 338.780,244.157 336.992 C 241.395 332.361,237.400 324.144,237.399 323.093 C 237.397 320.083,234.711 319.507,224.334 320.291 C 218.776 320.711,209.654 321.097,204.065 321.147 C 166.002 321.491,111.966 322.821,104.472 323.597 C 50.063 329.234,33.523 320.597,30.477 284.959 C 28.528 262.164,28.344 260.396,26.830 250.000 C 21.821 215.589,20.645 200.849,19.921 163.415 C 19.675 150.671,19.046 136.768,18.524 132.520 C 17.076 120.736,17.162 53.183,18.639 42.170 L 19.797 33.526 22.959 33.950 C 25.411 34.279,26.678 33.963,28.603 32.539 C 30.997 30.770,31.393 30.733,39.730 31.509 C 50.919 32.552,101.853 32.143,117.073 30.889 C 123.557 30.355,130.142 29.816,131.707 29.691 C 144.072 28.709,148.484 28.314,154.878 27.616 C 172.866 25.652,216.926 23.701,247.154 23.530 C 264.761 23.430,304.583 21.912,315.041 20.942 C 319.026 20.573,332.861 20.924,337.531 21.514 " stroke="none" fill="#DDA0DD" fill-rule="evenodd"></path></g></svg>