<svg id="svg" version="1.1" xmlns="http://www.w3.org/2000/svg" xmlns:xlink="http://www.w3.org/1999/xlink" width="400" height="457.38758029978584" viewBox="0, 0, 400,457.38758029978584"><g id="svgg"><path id="path0" d="M214.989 19.925 C 214.754 20.164,210.899 20.607,206.424 20.911 C 193.251 21.805,175.479 24.604,172.917 26.187 C 172.557 26.410,170.037 27.004,167.317 27.506 C 117.745 36.670,62.199 78.595,43.750 120.771 C 42.204 124.304,40.633 127.801,40.258 128.542 C 39.053 130.920,34.465 152.728,34.144 157.602 C 33.217 171.656,34.081 214.166,35.485 223.555 C 36.296 228.972,37.123 234.754,37.324 236.403 C 37.525 238.051,37.882 240.364,38.117 241.542 C 38.353 242.719,38.749 245.418,38.997 247.537 C 39.245 249.657,39.617 251.970,39.822 252.677 C 40.027 253.383,40.411 255.310,40.674 256.959 C 40.937 258.608,42.086 263.812,43.228 268.522 C 44.369 273.233,45.938 279.786,46.714 283.084 C 53.079 310.125,62.537 332.050,74.426 347.323 C 75.893 349.208,77.615 351.435,78.253 352.272 C 88.229 365.365,106.515 380.132,122.664 388.136 C 137.980 395.728,150.414 397.117,170.299 393.459 C 174.564 392.674,184.161 403.149,194.387 419.754 C 197.842 425.363,201.527 430.426,205.101 434.475 C 206.845 436.451,210.870 436.382,213.395 434.334 C 215.411 432.699,215.418 432.635,215.418 413.563 L 215.418 394.433 219.965 392.089 C 222.467 390.800,227.863 388.737,231.957 387.505 C 244.718 383.665,270.349 374.891,275.375 372.643 C 332.201 347.227,359.119 312.864,372.078 249.194 C 380.340 208.605,377.697 152.321,365.587 110.921 C 365.036 109.036,364.483 107.109,364.357 106.638 C 360.944 93.803,349.478 72.633,341.149 63.789 C 328.463 50.317,310.869 37.855,297.216 32.671 C 295.567 32.045,292.314 30.804,289.987 29.913 C 279.541 25.916,262.897 22.067,251.312 20.971 C 244.166 20.294,215.442 19.467,214.989 19.925 M253.533 32.576 C 259.422 33.507,265.305 34.443,266.607 34.654 C 271.146 35.393,288.543 41.208,293.731 43.721 C 296.605 45.113,299.189 46.253,299.473 46.253 C 299.758 46.253,302.353 47.674,305.241 49.411 C 329.176 63.806,343.225 81.127,352.005 107.066 C 356.424 120.121,364.176 158.512,363.870 165.825 C 363.833 166.720,364.246 173.812,364.788 181.585 C 366.237 202.343,363.147 238.308,358.423 255.675 C 351.172 282.332,346.056 294.312,334.599 311.466 C 329.273 319.441,314.713 334.900,307.061 340.703 C 303.199 343.633,295.616 348.608,295.014 348.608 C 294.722 348.608,293.460 349.336,292.209 350.225 C 285.993 354.646,262.017 365.381,247.109 370.417 C 243.340 371.691,239.486 373.034,238.544 373.403 C 237.602 373.772,234.325 374.920,231.263 375.954 C 228.201 376.987,222.827 378.807,219.320 379.996 C 205.655 384.632,202.737 388.551,203.156 401.708 C 203.304 406.379,203.206 409.929,202.936 409.597 C 200.160 406.178,197.002 401.784,197.002 401.339 C 197.002 400.241,190.250 391.785,186.386 388.044 C 184.216 385.944,182.441 383.746,182.441 383.159 C 182.441 381.908,175.346 378.587,172.673 378.587 C 170.075 378.587,167.190 380.825,166.868 383.091 C 166.603 384.954,166.263 385.018,155.349 385.249 L 144.104 385.487 134.793 381.921 C 125.875 378.504,111.397 369.844,105.019 364.110 C 100.255 359.828,88.223 347.356,88.223 346.700 C 88.223 346.336,87.548 345.359,86.724 344.528 C 82.072 339.841,73.180 325.202,69.307 315.855 C 62.842 300.250,54.201 269.681,51.810 253.961 C 51.666 253.019,51.145 250.128,50.650 247.537 C 42.750 206.125,42.562 158.882,50.204 135.157 C 52.313 128.609,60.139 111.547,61.508 110.511 C 61.833 110.265,62.843 108.715,63.753 107.066 C 65.554 103.804,69.195 99.065,73.233 94.731 C 81.255 86.120,84.044 83.261,86.633 80.999 C 93.073 75.369,98.332 71.279,102.998 68.271 C 105.707 66.525,109.946 63.798,112.420 62.212 C 117.626 58.871,138.238 48.797,143.897 46.826 C 146.017 46.088,149.872 44.655,152.463 43.642 C 158.484 41.288,180.200 35.582,188.009 34.302 C 204.835 31.545,210.768 31.024,226.124 30.956 C 238.870 30.900,245.363 31.284,253.533 32.576 " stroke="none" fill="#FFDAB9" fill-rule="evenodd"></path></g></svg>