<svg id="svg" version="1.1" xmlns="http://www.w3.org/2000/svg" xmlns:xlink="http://www.w3.org/1999/xlink" width="400" height="286.77966101694915" viewBox="0, 0, 400,286.77966101694915"><g id="svgg"><path id="path0" d="M174.915 16.740 C 171.567 16.935,158.594 18.409,151.525 19.396 C 146.759 20.062,132.217 23.771,129.050 25.129 C 127.366 25.850,125.481 26.451,124.859 26.464 C 124.237 26.476,122.508 27.076,121.017 27.797 C 119.525 28.517,118.014 29.117,117.659 29.130 C 114.650 29.237,92.825 41.551,84.378 47.908 C 74.626 55.247,73.571 56.121,68.814 60.799 C 55.020 74.362,45.980 87.294,38.567 104.068 C 20.236 145.542,29.402 198.029,59.405 223.395 C 61.597 225.248,63.814 227.170,64.332 227.666 C 68.713 231.857,85.993 241.621,98.983 247.244 C 111.700 252.749,130.987 259.523,136.949 260.579 C 137.881 260.744,140.533 261.371,142.843 261.973 C 147.043 263.068,157.718 264.993,167.657 266.447 C 170.563 266.872,180.783 267.243,190.369 267.270 C 244.188 267.424,288.066 246.032,311.836 208.052 C 314.976 203.037,321.356 190.230,321.356 188.944 C 321.356 188.462,321.612 187.778,321.924 187.424 C 322.824 186.403,325.151 179.223,326.883 172.117 L 328.475 165.590 333.220 162.200 C 335.831 160.335,338.881 158.310,340.000 157.701 C 341.119 157.092,342.492 156.306,343.051 155.956 C 343.610 155.606,346.814 153.730,350.169 151.787 C 379.645 134.723,384.541 129.977,378.685 124.148 L 376.902 122.373 364.421 122.580 C 357.557 122.693,349.803 123.015,347.189 123.294 L 342.437 123.802 342.035 120.036 C 341.814 117.966,341.020 113.831,340.270 110.847 C 339.521 107.864,338.603 104.215,338.232 102.739 C 337.860 101.262,337.307 99.736,337.002 99.349 C 336.697 98.961,336.077 97.424,335.623 95.932 C 334.834 93.340,331.306 85.982,328.200 80.453 C 327.397 79.024,325.453 76.167,323.879 74.104 C 322.305 72.040,320.559 69.699,320.000 68.900 C 319.441 68.101,318.220 66.671,317.288 65.724 C 316.356 64.776,314.460 62.795,313.075 61.322 C 308.484 56.439,302.221 51.113,296.949 47.610 C 294.898 46.247,293.068 44.950,292.881 44.728 C 291.523 43.110,276.750 35.286,269.888 32.551 C 268.179 31.870,265.864 30.828,264.746 30.237 C 263.627 29.645,262.413 29.159,262.048 29.157 C 261.683 29.154,259.395 28.431,256.964 27.548 C 235.107 19.618,201.481 15.188,174.915 16.740 M218.305 31.143 C 222.593 31.951,227.017 32.733,228.136 32.880 C 233.640 33.602,252.494 38.885,257.391 41.077 C 258.566 41.603,259.845 42.034,260.233 42.034 C 262.692 42.034,285.839 54.553,290.301 58.296 C 291.161 59.017,294.514 61.757,297.753 64.384 C 300.992 67.012,305.779 71.829,308.392 75.089 C 311.005 78.349,313.580 81.513,314.114 82.119 C 314.648 82.725,315.199 83.487,315.339 83.814 C 315.479 84.140,316.914 86.601,318.529 89.284 C 320.144 91.966,321.531 94.559,321.612 95.046 C 321.694 95.533,322.113 96.573,322.544 97.356 C 323.767 99.576,328.188 113.143,328.511 115.670 C 328.671 116.916,329.262 120.576,329.824 123.803 C 330.387 127.029,330.847 130.487,330.847 131.486 C 330.847 135.951,334.703 137.492,343.085 136.376 C 352.214 135.161,353.096 135.516,347.920 138.322 C 344.702 140.066,344.248 140.352,334.581 146.710 C 325.398 152.751,316.818 160.044,315.825 162.654 C 315.030 164.745,316.661 168.814,318.294 168.814 C 320.216 168.814,319.045 172.977,313.506 185.847 C 312.603 187.945,311.864 189.979,311.864 190.367 C 311.864 190.756,311.611 191.175,311.302 191.299 C 310.992 191.424,309.710 193.508,308.453 195.932 C 301.161 209.992,286.298 225.989,273.047 234.043 C 271.091 235.231,269.339 236.396,269.153 236.632 C 266.173 240.400,234.100 252.232,222.373 253.890 C 220.695 254.127,216.424 254.811,212.881 255.409 C 203.496 256.993,181.093 256.965,170.847 255.355 C 166.559 254.682,161.831 253.997,160.339 253.833 C 153.103 253.037,138.903 249.258,124.746 244.360 C 114.878 240.946,113.763 240.540,110.847 239.298 C 109.356 238.663,107.373 237.919,106.441 237.644 C 99.791 235.689,76.071 222.290,70.694 217.453 C 64.906 212.246,58.951 205.865,56.610 202.363 C 55.119 200.131,53.746 198.153,53.559 197.966 C 50.839 195.245,44.850 179.258,43.020 169.831 C 42.731 168.339,42.399 166.661,42.282 166.102 C 41.396 161.854,40.944 149.128,41.475 143.390 C 41.820 139.661,42.168 135.792,42.247 134.792 C 42.327 133.793,42.617 132.750,42.891 132.476 C 43.165 132.202,43.390 131.064,43.390 129.947 C 43.390 116.950,59.971 87.148,76.271 70.847 C 88.713 58.405,115.568 41.088,124.724 39.602 C 124.922 39.570,125.542 39.352,126.102 39.117 C 132.821 36.298,143.010 33.607,154.576 31.596 C 159.983 30.656,165.169 29.749,166.102 29.581 C 171.750 28.560,210.807 29.729,218.305 31.143 " stroke="none" fill="#FFDAB9" fill-rule="evenodd"></path></g></svg>