<svg id="svg" version="1.1" xmlns="http://www.w3.org/2000/svg" xmlns:xlink="http://www.w3.org/1999/xlink" width="400" height="549.2957746478874" viewBox="0, 0, 400,549.2957746478874"><g id="svgg"><path id="path0" d="M133.333 14.341 C 133.075 14.602,129.782 15.085,126.016 15.413 C 115.278 16.349,102.085 19.923,92.019 24.622 C 88.954 26.052,78.539 32.121,77.934 32.829 C 77.676 33.131,74.639 35.602,71.186 38.319 C 61.445 45.984,41.315 72.371,41.315 77.474 C 41.315 77.886,40.307 80.376,39.076 83.008 C 36.517 88.478,29.936 107.491,29.623 110.320 C 29.508 111.357,28.948 113.685,28.379 115.493 C 19.437 143.901,17.635 228.960,24.928 278.404 C 25.689 283.568,26.507 289.817,26.745 292.291 C 26.983 294.765,27.597 298.356,28.109 300.272 C 28.621 302.188,29.253 305.446,29.513 307.512 C 30.022 311.550,35.829 337.055,38.172 345.540 C 42.997 363.018,53.225 388.996,59.428 399.531 C 62.677 405.048,69.873 416.495,70.348 416.901 C 70.650 417.160,72.729 419.782,74.968 422.729 C 89.162 441.412,113.309 456.549,135.420 460.624 L 144.550 462.307 151.496 475.989 C 155.317 483.514,159.204 491.784,160.134 494.366 C 161.065 496.948,162.118 499.484,162.474 500.000 C 162.831 500.516,164.514 504.871,166.215 509.676 C 169.850 519.944,172.242 522.067,178.025 520.158 C 184.221 518.113,186.351 511.793,188.298 489.671 C 190.603 463.470,192.911 459.958,209.859 456.859 C 211.408 456.576,215.000 455.714,217.840 454.944 C 220.681 454.174,224.236 453.538,225.741 453.532 C 230.331 453.514,245.206 450.606,251.174 448.561 C 264.636 443.948,294.668 428.817,298.122 424.906 C 298.638 424.322,300.963 422.545,303.287 420.958 C 319.188 410.101,344.502 376.553,350.275 358.685 C 350.692 357.394,351.909 354.023,352.979 351.194 C 364.762 320.042,369.949 258.318,364.303 216.432 C 362.982 206.631,357.837 180.020,356.587 176.526 C 356.310 175.751,355.351 172.371,354.455 169.014 C 353.559 165.657,352.371 161.432,351.816 159.624 C 351.261 157.817,350.708 155.915,350.588 155.399 C 350.132 153.445,346.324 143.070,345.021 140.234 C 344.274 138.606,343.662 136.848,343.662 136.326 C 343.662 132.678,328.591 102.179,321.500 91.477 C 300.620 59.964,265.618 37.316,217.371 24.099 C 204.101 20.464,178.111 15.419,171.362 15.167 C 146.074 14.227,133.711 13.958,133.333 14.341 M172.507 29.704 C 178.074 30.548,183.263 31.226,184.038 31.210 C 184.812 31.194,187.935 31.798,190.977 32.552 C 194.019 33.306,198.033 34.113,199.897 34.346 C 201.761 34.579,205.188 35.354,207.512 36.068 C 209.836 36.782,213.850 37.890,216.432 38.531 C 227.943 41.387,252.859 51.302,260.251 55.968 C 262.210 57.204,264.019 58.216,264.271 58.216 C 265.498 58.216,279.351 67.713,286.887 73.722 C 300.241 84.369,314.207 103.718,322.720 123.367 C 324.983 128.590,327.233 133.709,327.721 134.742 C 330.416 140.451,337.667 161.424,338.023 164.541 C 338.067 164.921,338.742 167.034,339.523 169.236 C 341.079 173.618,346.416 196.859,346.926 201.473 C 347.102 203.058,347.891 208.551,348.681 213.680 C 353.992 248.183,352.788 295.890,345.980 320.657 C 345.270 323.239,344.493 326.408,344.253 327.700 C 339.770 351.831,322.243 383.180,303.004 401.479 C 281.032 422.376,255.934 433.963,220.657 439.494 C 186.027 444.923,174.648 454.857,174.648 479.658 C 174.648 485.248,173.280 488.131,172.209 484.801 C 171.355 482.149,170.422 480.032,165.661 469.953 C 163.222 464.789,161.319 459.611,161.432 458.447 C 161.560 457.126,160.995 456.096,159.927 455.705 C 158.986 455.361,157.022 454.095,155.562 452.892 C 152.480 450.352,149.620 450.112,146.712 452.149 C 144.741 453.529,131.071 450.871,124.943 447.916 C 98.225 435.032,83.258 419.347,67.571 387.793 C 63.443 379.491,61.992 376.316,59.308 369.720 C 57.401 365.035,50.977 345.182,49.356 338.967 C 48.480 335.610,47.158 330.714,46.417 328.086 C 45.676 325.459,45.070 322.261,45.070 320.980 C 45.070 319.699,44.469 316.567,43.734 314.020 C 43.000 311.473,42.142 307.277,41.829 304.695 C 41.516 302.113,40.669 296.408,39.948 292.019 C 27.348 215.356,34.072 126.957,55.910 82.160 C 66.904 59.605,78.848 47.423,100.642 36.533 C 115.391 29.163,148.307 26.035,172.507 29.704 " stroke="none" fill="#90EE90" fill-rule="evenodd"></path></g></svg>