<svg id="svg" version="1.1" xmlns="http://www.w3.org/2000/svg" xmlns:xlink="http://www.w3.org/1999/xlink" width="400" height="226.50602409638554" viewBox="0, 0, 400,226.50602409638554"><g id="svgg"><path id="path0" d="M92.939 13.211 C 87.281 19.285,72.758 54.187,70.780 66.466 C 70.481 68.327,70.211 68.695,69.391 68.364 C 68.512 68.008,63.420 67.527,50.904 66.618 C 49.247 66.498,46.604 66.369,45.030 66.332 L 42.169 66.265 42.169 63.976 C 42.169 61.399,41.325 60.241,39.448 60.241 C 37.700 60.241,36.615 66.463,34.930 86.145 C 34.347 92.945,33.787 97.321,32.578 104.518 C 32.244 106.506,31.682 110.030,31.328 112.349 C 30.975 114.669,30.538 117.380,30.358 118.373 C 29.951 120.613,29.107 125.404,28.315 129.970 C 27.985 131.875,27.549 134.654,27.347 136.145 C 27.145 137.636,26.876 139.027,26.750 139.238 C 26.503 139.649,25.752 144.336,24.396 153.916 C 23.928 157.229,23.274 161.702,22.943 163.855 C 22.613 166.009,22.052 169.669,21.697 171.988 C 21.342 174.307,20.773 177.154,20.433 178.313 C 17.675 187.709,21.605 194.578,29.740 194.578 C 30.725 194.578,31.960 194.932,32.483 195.364 C 34.663 197.164,46.538 200.364,58.558 202.390 C 77.595 205.598,97.688 205.996,151.848 204.238 C 177.807 203.395,195.468 203.902,224.699 206.328 C 239.857 207.587,259.239 209.015,265.964 209.369 C 268.946 209.526,275.858 209.920,281.325 210.243 C 293.966 210.992,304.829 210.996,314.759 210.258 C 319.066 209.938,324.623 209.527,327.108 209.345 C 336.024 208.691,346.879 207.238,354.518 205.677 C 357.169 205.135,360.403 204.477,361.706 204.214 C 363.008 203.951,364.364 203.847,364.718 203.983 C 365.581 204.314,367.082 200.825,366.608 199.590 C 366.402 199.053,366.614 197.230,367.081 195.541 C 368.927 188.858,370.230 179.328,370.836 168.072 C 371.059 163.931,371.318 159.729,371.412 158.735 C 371.506 157.741,371.896 148.253,372.277 137.651 C 372.659 127.048,373.243 116.883,373.574 115.060 C 374.344 110.822,375.846 70.687,375.248 70.326 C 375.112 70.244,374.178 69.603,373.174 68.903 C 366.304 64.110,360.062 62.851,330.120 60.222 C 308.330 58.308,249.878 58.009,216.566 59.641 C 186.487 61.114,125.182 60.063,122.828 58.034 C 122.296 57.575,121.432 57.365,120.907 57.566 C 120.180 57.845,119.459 56.877,117.876 53.497 C 116.735 51.058,114.545 46.940,113.012 44.346 C 111.478 41.752,107.250 33.590,103.616 26.209 C 96.473 11.698,95.478 10.487,92.939 13.211 M100.813 34.476 C 107.523 47.554,109.557 51.302,112.744 56.461 C 114.021 58.529,115.060 60.987,115.060 61.940 C 115.060 65.508,116.961 65.968,134.940 66.741 C 156.579 67.672,213.475 67.141,250.602 65.661 C 267.522 64.986,295.935 65.010,308.133 65.709 C 334.709 67.232,339.961 67.616,345.718 68.454 C 356.473 70.019,360.367 70.428,364.788 70.455 L 369.034 70.482 368.602 75.452 C 367.619 86.751,366.860 103.363,366.872 113.253 C 366.899 134.238,364.316 175.091,362.359 184.639 C 361.626 188.214,361.159 192.218,361.152 194.975 L 361.145 198.082 355.422 198.777 C 352.274 199.159,348.614 199.844,347.289 200.300 C 341.226 202.386,286.638 204.296,277.606 202.738 C 276.504 202.548,268.825 201.977,260.542 201.468 C 252.259 200.959,242.771 200.300,239.458 200.003 C 236.145 199.706,227.199 199.032,219.578 198.506 C 211.958 197.980,203.419 197.318,200.602 197.034 C 193.519 196.319,146.170 196.676,121.259 197.632 C 101.681 198.383,90.109 198.159,72.934 196.696 C 60.800 195.663,38.598 190.606,36.357 188.365 C 35.726 187.734,33.252 187.873,32.826 188.562 C 32.603 188.923,31.360 188.391,29.789 187.263 L 27.130 185.353 27.451 179.609 C 27.628 176.450,28.030 171.952,28.343 169.613 C 29.352 162.096,30.223 155.755,30.416 154.518 C 30.818 151.949,31.997 144.724,32.530 141.566 C 33.614 135.153,34.387 130.362,35.300 124.398 C 35.808 121.084,36.472 116.883,36.776 115.060 C 37.080 113.238,37.730 108.582,38.220 104.714 C 38.710 100.846,39.253 97.051,39.427 96.280 C 39.602 95.510,39.884 93.660,40.055 92.169 C 40.227 90.678,40.645 87.018,40.986 84.036 C 41.326 81.054,41.766 77.226,41.963 75.529 L 42.321 72.444 50.829 72.643 C 64.159 72.954,69.943 73.472,70.912 74.440 C 73.350 76.879,76.175 74.500,76.769 69.507 C 77.515 63.249,80.918 52.553,85.563 41.866 C 89.048 33.850,94.550 22.647,94.839 22.979 C 94.941 23.097,97.630 28.270,100.813 34.476 " stroke="none" fill="#A9D0F5" fill-rule="evenodd"></path></g></svg>