<svg id="svg" version="1.1" xmlns="http://www.w3.org/2000/svg" xmlns:xlink="http://www.w3.org/1999/xlink" width="400" height="372.9206963249517" viewBox="0, 0, 400,372.9206963249517"><g id="svgg"><path id="path0" d="M217.021 38.779 C 205.674 39.646,192.829 41.445,181.044 43.817 C 175.725 44.888,168.936 46.231,165.957 46.801 C 162.979 47.372,156.015 49.303,150.484 51.092 C 144.952 52.882,140.077 54.401,139.652 54.468 C 139.226 54.534,138.448 54.857,137.923 55.186 C 137.398 55.514,135.135 56.323,132.894 56.983 C 130.654 57.644,126.905 59.053,124.565 60.116 C 122.224 61.178,119.091 62.581,117.602 63.233 C 61.052 87.997,33.204 124.338,32.953 173.694 C 32.764 211.144,54.334 250.276,89.273 275.869 C 94.123 279.421,96.626 281.762,96.669 282.785 C 96.757 284.859,99.584 293.779,103.987 305.873 C 107.527 315.597,109.264 323.210,110.319 333.621 C 111.546 345.725,121.020 349.730,127.754 340.991 C 129.141 339.190,131.031 337.021,131.953 336.170 C 132.876 335.319,137.762 329.244,142.811 322.670 C 156.176 305.268,158.662 303.381,171.760 300.691 C 178.152 299.378,194.878 297.786,200.841 297.922 C 202.932 297.970,208.646 297.636,213.540 297.181 C 218.433 296.725,227.183 296.014,232.984 295.599 C 267.600 293.126,306.212 281.247,323.863 267.641 C 326.030 265.970,328.157 264.603,328.589 264.603 C 329.022 264.603,330.557 263.381,332.000 261.888 C 333.442 260.394,336.625 257.554,339.072 255.577 C 341.518 253.600,343.520 251.686,343.520 251.323 C 343.520 250.961,345.522 248.264,347.969 245.329 C 355.732 236.020,363.839 218.642,366.410 205.803 C 366.623 204.739,367.392 201.083,368.118 197.679 C 370.656 185.786,369.826 154.216,366.693 143.520 C 366.319 142.244,365.864 140.329,365.683 139.265 C 361.317 113.722,339.069 78.840,316.828 62.671 C 314.275 60.815,312.012 59.097,311.799 58.855 C 311.586 58.612,309.845 57.579,307.930 56.558 C 306.015 55.538,303.926 54.269,303.288 53.738 C 301.424 52.190,289.311 46.422,287.922 46.421 C 287.225 46.421,284.913 45.761,282.785 44.953 C 267.651 39.212,242.394 36.841,217.021 38.779 M246.422 52.622 C 251.528 53.040,258.491 53.891,261.896 54.513 C 265.300 55.135,269.058 55.812,270.246 56.017 C 273.657 56.605,280.841 58.798,284.282 60.302 C 286.012 61.058,288.446 62.094,289.692 62.605 C 292.579 63.790,302.093 69.335,303.431 70.614 C 303.991 71.149,306.712 73.372,309.478 75.553 C 320.599 84.325,342.533 112.947,340.663 116.248 C 340.482 116.567,340.661 116.828,341.060 116.828 C 341.459 116.828,342.144 117.785,342.582 118.956 C 343.020 120.126,344.603 124.217,346.099 128.046 C 348.892 135.194,350.970 142.407,351.580 147.070 C 351.770 148.522,352.341 152.147,352.850 155.126 C 354.091 162.392,354.080 181.508,352.831 189.168 C 352.275 192.573,351.716 196.054,351.589 196.905 C 350.232 205.952,338.652 231.335,335.881 231.335 C 335.585 231.335,334.745 232.347,334.014 233.585 C 332.828 235.592,328.987 239.494,319.149 248.684 C 314.397 253.122,298.385 262.236,290.371 265.063 C 286.421 266.456,282.838 267.813,282.410 268.078 C 277.458 271.139,233.439 278.991,224.006 278.496 C 222.718 278.428,221.315 278.466,220.890 278.579 C 220.464 278.692,218.201 278.881,215.861 278.999 C 213.520 279.117,208.646 279.367,205.029 279.555 C 155.825 282.113,146.408 285.752,130.675 308.286 C 126.915 313.672,125.338 314.812,125.338 312.148 C 125.338 311.539,123.665 306.424,121.619 300.782 C 119.574 295.139,117.268 288.607,116.496 286.267 C 113.986 278.655,109.787 274.793,105.052 275.740 C 103.799 275.991,102.068 275.817,101.204 275.355 C 97.688 273.473,78.814 255.509,73.650 249.130 C 71.756 246.789,69.764 244.513,69.223 244.072 C 66.174 241.583,50.711 215.677,50.192 212.189 C 50.144 211.868,49.763 210.735,49.345 209.671 C 42.029 191.055,41.667 165.898,48.405 144.421 C 49.451 141.086,50.722 137.605,51.228 136.684 C 51.735 135.763,52.227 134.544,52.322 133.975 C 52.417 133.406,53.344 131.666,54.383 130.107 C 55.422 128.548,57.522 125.184,59.049 122.631 C 62.286 117.222,72.257 105.344,74.142 104.653 C 74.853 104.392,75.706 103.731,76.036 103.185 C 78.198 99.610,111.024 78.143,114.328 78.143 C 114.746 78.143,118.429 76.592,122.515 74.696 C 138.211 67.411,171.458 57.755,186.460 56.125 C 188.801 55.870,194.651 55.128,199.461 54.475 C 216.905 52.106,232.570 51.488,246.422 52.622 " stroke="none" fill="#F6ADC6" fill-rule="evenodd"></path></g></svg>