<svg id="svg" version="1.1" xmlns="http://www.w3.org/2000/svg" xmlns:xlink="http://www.w3.org/1999/xlink" width="400" height="383.5294117647059" viewBox="0, 0, 400,383.5294117647059"><g id="svgg"><path id="path0" d="M316.928 53.339 C 290.976 54.339,255.603 56.424,229.804 58.473 C 216.216 59.552,203.510 60.421,201.569 60.403 C 199.627 60.385,189.216 61.073,178.431 61.931 C 167.647 62.789,152.824 63.866,145.490 64.325 C 138.157 64.783,124.216 65.708,114.510 66.380 C 104.646 67.063,78.996 67.828,56.356 68.115 C 18.021 68.600,15.760 68.708,14.199 70.122 C 12.278 71.861,12.059 75.030,13.698 77.370 C 14.330 78.272,14.653 79.203,14.417 79.440 C 13.882 79.975,12.075 93.824,11.376 102.745 C 11.089 106.412,11.242 121.941,11.716 137.255 C 12.190 152.569,12.736 174.098,12.929 185.098 C 13.420 213.008,14.986 238.855,17.253 256.471 C 17.669 259.706,18.223 265.353,18.485 269.020 C 18.746 272.686,19.840 280.451,20.916 286.275 C 21.992 292.098,23.201 299.109,23.603 301.855 C 24.004 304.601,24.470 307.072,24.638 307.345 C 24.806 307.619,25.163 309.255,25.432 310.980 C 26.495 317.808,32.516 334.262,35.008 337.150 C 38.078 340.708,43.988 341.271,47.192 338.311 C 48.813 336.813,49.649 336.669,54.580 337.035 C 57.638 337.262,69.462 337.038,80.854 336.538 C 92.247 336.038,113.216 335.295,127.451 334.889 C 149.363 334.263,187.400 331.724,191.373 330.621 C 192.020 330.442,195.902 330.078,200.000 329.814 C 206.688 329.382,229.805 326.107,241.869 323.883 C 245.138 323.281,246.728 323.277,247.320 323.869 C 247.780 324.329,247.938 324.706,247.671 324.706 C 247.404 324.706,248.392 327.186,249.867 330.217 C 251.342 333.248,252.549 335.887,252.549 336.082 C 252.549 336.277,253.728 339.003,255.170 342.140 C 256.611 345.277,258.391 349.784,259.124 352.157 C 262.400 362.750,271.948 363.379,274.908 353.197 C 278.111 342.179,283.114 327.088,284.873 323.137 C 285.930 320.765,287.022 317.914,287.300 316.802 L 287.805 314.781 293.902 315.862 C 316.653 319.894,361.873 316.905,367.473 310.998 C 368.779 309.620,370.821 308.249,372.009 307.950 C 375.727 307.017,376.030 305.097,375.031 288.828 C 373.490 263.758,373.183 241.359,374.038 216.471 C 377.137 126.302,376.914 58.135,373.509 54.728 C 371.467 52.684,348.538 52.122,316.928 53.339 M362.343 103.725 C 362.336 128.917,361.827 151.710,360.753 174.902 C 357.953 235.349,357.887 265.999,360.496 293.407 L 360.988 298.579 355.984 299.567 C 353.232 300.110,349.392 300.674,347.451 300.820 C 326.169 302.417,320.902 302.571,310.588 301.902 C 296.491 300.987,293.384 300.668,287.428 299.518 C 278.302 297.756,277.452 298.957,267.714 327.383 C 265.761 333.084,265.521 333.435,264.760 331.697 C 253.956 306.995,254.991 308.040,243.824 310.572 C 239.424 311.570,233.675 312.641,231.049 312.953 C 228.423 313.266,219.745 314.428,211.765 315.536 C 189.688 318.602,140.398 322.333,121.569 322.363 C 108.133 322.385,56.807 325.288,52.941 326.245 C 48.660 327.305,47.843 327.249,47.843 325.899 C 47.843 325.261,46.919 321.996,45.790 318.644 C 37.383 293.684,32.119 254.260,29.373 195.686 C 28.706 181.451,27.620 160.627,26.961 149.412 C 25.672 127.478,25.094 95.580,25.824 86.667 L 26.275 81.176 58.824 81.078 C 90.655 80.982,119.615 80.317,124.314 79.575 C 125.608 79.370,134.431 78.864,143.922 78.450 C 153.412 78.036,171.235 76.827,183.529 75.765 C 195.824 74.702,210.294 73.625,215.686 73.371 C 221.078 73.118,226.902 72.736,228.627 72.524 C 248.102 70.121,310.742 67.159,350.000 66.785 L 362.353 66.667 362.343 103.725 " stroke="none" fill="#90EE90" fill-rule="evenodd"></path></g></svg>