<svg id="svg" version="1.1" xmlns="http://www.w3.org/2000/svg" xmlns:xlink="http://www.w3.org/1999/xlink" width="400" height="351.219512195122" viewBox="0, 0, 400,351.219512195122"><g id="svgg"><path id="path0" d="M178.236 19.487 C 174.109 20.231,168.368 21.509,165.478 22.328 C 162.589 23.146,159.887 23.862,159.475 23.919 C 154.841 24.558,128.250 36.701,124.741 39.780 C 124.032 40.402,122.468 41.349,121.265 41.884 C 120.062 42.419,118.373 43.497,117.512 44.280 C 116.652 45.062,113.124 47.799,109.672 50.362 C 99.539 57.888,80.713 77.182,73.138 87.805 C 71.519 90.075,69.936 92.045,69.619 92.183 C 69.302 92.320,69.043 92.795,69.043 93.237 C 69.043 93.680,68.151 95.212,67.061 96.641 C 65.381 98.843,63.165 102.594,58.755 110.694 C 54.202 119.059,47.933 134.266,46.121 141.344 C 45.576 143.473,44.253 148.593,43.180 152.720 C 39.769 165.848,38.747 196.817,41.309 209.421 C 42.822 216.866,46.650 229.186,49.235 234.930 C 50.636 238.044,51.782 240.891,51.782 241.257 C 51.782 241.949,55.567 248.115,61.397 256.921 C 67.512 266.156,92.453 288.931,96.453 288.931 C 96.778 288.931,98.089 289.722,99.366 290.690 C 103.111 293.527,118.248 300.559,127.580 303.796 C 139.328 307.872,140.123 308.117,143.715 308.760 C 144.540 308.908,149.268 309.825,154.221 310.798 C 168.196 313.543,194.651 313.368,210.507 310.425 C 216.698 309.276,222.681 308.172,223.802 307.973 C 224.923 307.773,229.295 306.447,233.518 305.025 C 237.740 303.603,241.805 302.439,242.549 302.439 C 243.293 302.439,243.902 302.144,243.902 301.782 C 243.902 301.421,244.922 300.922,246.169 300.672 C 247.416 300.423,251.046 299.003,254.237 297.517 C 257.427 296.030,260.655 294.687,261.410 294.531 C 262.164 294.375,265.441 292.713,268.692 290.839 C 271.942 288.964,274.931 287.430,275.334 287.430 C 275.736 287.430,276.512 286.985,277.057 286.442 C 277.603 285.900,279.737 284.484,281.801 283.297 C 287.309 280.128,296.191 274.114,297.727 272.514 C 298.461 271.749,299.815 270.731,300.735 270.253 C 302.507 269.331,307.016 265.330,317.324 255.535 C 322.569 250.550,327.317 245.114,338.061 231.793 C 338.605 231.118,340.691 228.072,342.696 225.025 C 382.954 163.837,373.064 92.418,319.240 55.656 C 312.381 50.971,307.563 48.030,306.748 48.030 C 306.300 48.030,305.401 47.574,304.750 47.016 C 303.632 46.060,293.157 40.663,276.819 32.627 C 268.902 28.732,262.180 28.087,260.038 31.016 C 259.544 31.693,258.962 32.070,258.745 31.853 C 258.369 31.477,256.357 30.669,245.403 26.493 C 225.452 18.886,197.654 15.987,178.236 19.487 M224.015 29.332 C 238.684 31.434,257.880 37.641,259.125 40.685 C 259.510 41.628,263.898 43.967,279.925 51.771 C 317.277 69.959,333.468 85.341,343.920 112.570 C 344.316 113.602,344.922 115.007,345.267 115.692 C 353.224 131.501,351.321 168.785,341.424 190.994 C 336.376 202.322,331.444 211.611,328.266 215.777 C 327.269 217.084,326.454 218.357,326.454 218.606 C 326.454 220.322,313.172 236.256,304.736 244.662 C 293.303 256.054,283.683 263.598,270.737 271.327 C 267.542 273.235,264.736 275.106,264.502 275.485 C 264.268 275.863,263.622 276.173,263.067 276.173 C 262.512 276.173,260.017 277.326,257.523 278.736 C 255.028 280.146,252.210 281.542,251.259 281.838 C 250.309 282.134,247.933 283.142,245.980 284.078 C 238.538 287.644,216.316 294.180,207.880 295.284 C 206.023 295.527,201.970 296.117,198.874 296.595 C 191.546 297.727,169.294 297.712,162.101 296.572 C 159.006 296.080,154.989 295.501,153.175 295.284 C 151.362 295.067,149.578 294.704,149.211 294.477 C 148.843 294.250,147.366 293.919,145.928 293.740 C 130.144 291.782,99.967 276.055,85.681 262.340 C 65.842 243.295,55.286 219.446,53.606 189.869 C 52.239 165.812,61.600 130.855,75.611 107.692 C 80.013 100.415,85.341 92.367,86.292 91.557 C 86.535 91.351,88.910 88.480,91.569 85.178 C 103.778 70.022,121.475 54.650,135.460 47.054 C 142.966 42.976,156.869 36.465,159.099 35.983 C 160.544 35.670,164.650 34.389,168.224 33.135 C 173.985 31.114,181.687 29.767,196.248 28.234 C 200.620 27.773,217.908 28.457,224.015 29.332 " stroke="none" fill="#F6ADC6" fill-rule="evenodd"></path></g></svg>