<svg id="svg" version="1.1" xmlns="http://www.w3.org/2000/svg" xmlns:xlink="http://www.w3.org/1999/xlink" width="400" height="483.7004405286344" viewBox="0, 0, 400,483.7004405286344"><g id="svgg"><path id="path0" d="M195.154 16.681 C 171.249 19.890,157.395 23.827,138.767 32.707 C 129.134 37.298,119.449 42.580,119.071 43.449 C 118.899 43.844,117.907 44.535,116.868 44.985 C 109.148 48.328,85.597 68.820,74.350 81.981 C 65.990 91.762,56.751 104.922,50.256 116.300 C 49.841 117.026,48.010 120.595,46.189 124.229 C 44.367 127.863,42.555 131.432,42.162 132.159 C 39.963 136.223,34.037 151.573,31.276 160.352 C 25.811 177.736,25.548 178.676,23.706 187.462 C 22.717 192.177,21.718 196.828,21.486 197.797 C 12.331 236.034,21.613 287.975,44.200 324.905 C 46.057 327.943,47.577 330.622,47.577 330.860 C 47.577 331.689,61.001 351.103,61.775 351.395 C 62.204 351.557,62.555 352.099,62.555 352.600 C 62.555 353.102,63.645 354.768,64.978 356.303 C 66.311 357.838,68.590 360.618,70.044 362.480 C 91.569 390.063,120.276 410.710,146.125 417.200 C 155.925 419.661,154.367 418.112,157.188 428.194 C 167.688 465.710,167.096 464.317,172.539 464.317 C 174.597 464.317,179.736 459.630,179.736 457.753 C 179.736 457.483,183.639 452.011,188.409 445.592 C 193.179 439.173,198.727 430.919,200.737 427.250 L 204.392 420.579 210.346 423.504 C 236.126 436.165,268.472 417.724,299.480 372.687 C 305.781 363.535,314.537 350.481,314.537 350.238 C 314.537 350.085,316.160 347.289,318.143 344.026 C 324.418 333.696,328.707 325.857,335.241 312.775 C 341.017 301.210,348.899 284.166,348.899 283.241 C 348.899 282.978,349.557 281.289,350.361 279.487 C 351.165 277.686,351.893 276.013,351.979 275.771 C 352.064 275.529,352.382 274.736,352.684 274.009 C 373.651 223.579,371.759 164.562,347.431 110.132 C 346.240 107.467,344.831 104.493,344.301 103.524 C 343.771 102.555,342.912 100.969,342.393 100.000 C 339.296 94.220,330.913 80.748,329.117 78.665 C 327.763 77.094,326.725 75.734,323.883 71.805 C 320.549 67.197,301.263 48.156,297.086 45.348 C 295.296 44.146,292.035 41.876,289.838 40.303 C 265.236 22.699,225.039 12.670,195.154 16.681 M230.860 28.237 C 234.966 28.745,240.507 29.754,243.172 30.479 C 245.837 31.204,250.000 32.345,252.423 33.014 C 320.995 51.956,371.185 153.384,352.929 236.123 C 347.494 260.752,331.587 299.888,315.684 327.753 C 276.042 397.217,242.187 426.751,213.656 416.759 C 210.749 415.740,207.886 414.802,207.294 414.674 C 206.703 414.546,205.943 414.166,205.606 413.829 C 203.952 412.175,201.676 413.500,199.469 417.401 C 194.466 426.247,193.250 427.919,182.327 440.969 C 172.732 452.432,173.049 452.238,171.808 447.414 C 171.270 445.323,170.201 441.432,169.433 438.767 C 167.022 430.398,163.137 412.912,161.513 403.116 C 160.103 394.612,150.688 393.754,151.850 402.236 C 152.474 406.786,152.352 406.833,145.314 404.754 C 136.196 402.060,121.423 394.139,112.693 387.262 C 111.436 386.273,108.887 384.273,107.028 382.819 C 98.607 376.233,82.196 358.326,70.692 343.172 C 56.378 324.317,40.597 292.248,35.354 271.366 C 22.762 221.205,39.954 148.107,75.589 100.298 C 114.220 48.469,173.192 21.100,230.860 28.237 " stroke="none" fill="#90EE90" fill-rule="evenodd"></path></g></svg>