<?xml version="1.0"?>
<svg xmlns="http://www.w3.org/2000/svg" width="612" height="792" viewBox="0 0 612 792">
  <defs>
    <linearGradient id="g" gradientUnits="userSpaceOnUse" x1="-337.413" y1="199.508" x2="-318.698" y2="195.21" gradientTransform="translate(1706.3 -395.642) scale(3.866)">
      <stop offset="0"/>
      <stop offset=".488" stop-color="#151515"/>
      <stop offset="1"/>
    </linearGradient>
    <linearGradient id="a" gradientUnits="userSpaceOnUse" x1="-415.077" y1="133.083" x2="-396.71" y2="128.864" gradientTransform="translate(1706.3 -395.642) scale(3.866)">
      <stop offset="0" stop-color="#0053B2"/>
      <stop offset=".488" stop-color="#236FC3"/>
      <stop offset="1" stop-color="#0053B2"/>
    </linearGradient>
    <linearGradient id="c" gradientUnits="userSpaceOnUse" x1="-337.234" y1="133.083" x2="-318.867" y2="128.864" gradientTransform="translate(1706.3 -395.642) scale(3.866)">
      <stop offset="0" stop-color="#FFF"/>
      <stop offset="0" stop-color="#FFF"/>
      <stop offset=".497" stop-color="#EBEBEB"/>
      <stop offset="1" stop-color="#FFF"/>
    </linearGradient>
    <linearGradient id="d" gradientUnits="userSpaceOnUse" x1="365.185" y1="182.646" x2="524.03" y2="182.646">
      <stop offset="0" stop-color="#151414"/>
      <stop offset=".51" stop-color="#252525"/>
      <stop offset="1" stop-color="#151414"/>
    </linearGradient>
    <linearGradient id="e" gradientUnits="userSpaceOnUse" x1="-415.038" y1="199.894" x2="-396.747" y2="195.693" gradientTransform="translate(1706.3 -395.642) scale(3.866)">
      <stop offset="0" stop-color="#C5332A"/>
      <stop offset="0" stop-color="#C5332A"/>
      <stop offset=".485" stop-color="#E14747"/>
      <stop offset="1" stop-color="#C5332A"/>
    </linearGradient>
    <linearGradient id="f" gradientUnits="userSpaceOnUse" x1="64.274" y1="440.646" x2="223.119" y2="440.646">
      <stop offset="0" stop-color="#151414"/>
      <stop offset=".51" stop-color="#252525"/>
      <stop offset="1" stop-color="#151414"/>
    </linearGradient>
    <linearGradient id="b" gradientUnits="userSpaceOnUse" x1="64.274" y1="182.646" x2="223.119" y2="182.646">
      <stop offset="0" stop-color="#151414"/>
      <stop offset=".51" stop-color="#252525"/>
      <stop offset="1" stop-color="#151414"/>
    </linearGradient>
    <linearGradient id="h" gradientUnits="userSpaceOnUse" x1="365.185" y1="440.646" x2="524.03" y2="440.646">
      <stop offset="0" stop-color="#151414"/>
      <stop offset=".51" stop-color="#252525"/>
      <stop offset="1" stop-color="#151414"/>
    </linearGradient>
    <linearGradient id="i" gradientUnits="userSpaceOnUse" x1="-415.051" y1="268.683" x2="-396.734" y2="264.476" gradientTransform="translate(1706.3 -395.642) scale(3.866)">
      <stop offset="0" stop-color="#FEE133"/>
      <stop offset=".488" stop-color="#FFED80"/>
      <stop offset="1" stop-color="#FEE133"/>
    </linearGradient>
    <linearGradient id="j" gradientUnits="userSpaceOnUse" x1="64.274" y1="706.646" x2="223.119" y2="706.646">
      <stop offset="0" stop-color="#151414"/>
      <stop offset=".51" stop-color="#252525"/>
      <stop offset="1" stop-color="#151414"/>
    </linearGradient>
    <linearGradient id="k" gradientUnits="userSpaceOnUse" x1="-336.039" y1="268.614" x2="-317.647" y2="264.39" gradientTransform="translate(1706.3 -395.642) scale(3.866)">
      <stop offset="0" stop-color="#376F03"/>
      <stop offset="0" stop-color="#376F03"/>
      <stop offset="0" stop-color="#376F03"/>
      <stop offset="0" stop-color="#376F03"/>
      <stop offset=".5" stop-color="#3A841C"/>
      <stop offset="1" stop-color="#376F03"/>
    </linearGradient>
    <linearGradient id="l" gradientUnits="userSpaceOnUse" x1="369.852" y1="706.646" x2="528.697" y2="706.646">
      <stop offset="0" stop-color="#151414"/>
      <stop offset=".51" stop-color="#252525"/>
      <stop offset="1" stop-color="#151414"/>
    </linearGradient>
  </defs>
  <path d="M66.603 174.084c-68.585-1.289-50.354 79.785 25.015 63.967 28.352-5.642 55.643-23.091 78.883-40.153 22.624-16.61 44.555-37.268 62.923-48.523 13.932-8.538 38.516-9.899 41.159 10.416-22.034-21.234-56.892 22.252-97.396 46.382 72.351 1.837 101.332-14.35 97.477-45.855-6.913-18.765-25.124-12.836-41.127-10.81-10.844-35.83-11.859-79.5-12.557-120.866-58.519-4.546-122.602 4.648-180.106 24.657 15.166 41.778 26.831 82.75 25.729 120.781z" fill="#0053B2"/>
  <path d="M66.603 174.084c-68.585-1.289-50.354 79.785 25.015 63.967 28.352-5.642 55.643-23.091 78.883-40.153 22.624-16.61 44.555-37.268 62.923-48.523 13.932-8.538 38.516-9.899 41.159 10.416-22.034-21.234-56.892 22.252-97.396 46.382 72.351 1.837 101.332-14.35 97.477-45.855-6.913-18.765-25.124-12.836-41.127-10.81-10.844-35.83-11.859-79.5-12.557-120.866-58.519-4.546-122.602 4.648-180.106 24.657 15.166 41.778 26.831 82.75 25.729 120.781z" stroke="#000" stroke-width="8" stroke-linejoin="round" fill="none"/>
  <path d="M103.132 182.843c10.262 2.971 45.348-3.987 95.23-16.864-8.762-45.466 18.694-14.268-27.408-134.415-40.392 1.905-66.663 7.792-92.836 14.06z" fill="url(#a)"/>
  <path d="M64.274 208.421c43.028 4.402 81.564 0 106.227-10.523l52.618-42.722c-56.574 18.904-81.221 23.504-156.703 24.478-.378 5.251-2.142 28.767-2.142 28.767z" fill="url(#b)"/>
  <path d="M64.274 208.421c43.028 4.402 81.564 0 106.227-10.523l52.618-42.722c-56.574 18.904-81.221 23.504-156.703 24.478-.378 5.251-2.142 28.767-2.142 28.767z" stroke="#151515" stroke-width="8" fill="none"/>
  <path d="M103.595 234.92c21.418-6.819 47.315-22.901 74.156-41.973 18.986-13.489 37.947-40.514 69.505-48.745 11.306-2.717 28.725-.31 27.714 22.563-4.888-17.005-21.687-13.043-36.501-4.649-42.246 26.256-50.527 51.152-134.87 72.804z" fill="#002744"/>
  <path d="M103.595 234.92c21.418-6.819 47.315-22.901 74.156-41.973 18.986-13.489 37.947-40.514 69.505-48.745 11.306-2.717 28.725-.31 27.714 22.563-4.888-17.005-21.687-13.043-36.501-4.649-42.246 26.256-50.527 51.152-134.87 72.804z" stroke="#000" stroke-width="8" stroke-linecap="round" fill="none"/>
  <path d="M66.603 174.08c.081 4.069-2.075 31.884-2.329 34.341" stroke="#000" stroke-width="8" stroke-linecap="round" stroke-linejoin="round" fill="none"/>
  <g>
    <path d="M367.515 174.084c-68.586-1.289-50.355 79.785 25.014 63.967 28.352-5.642 55.643-23.091 78.883-40.153 22.624-16.61 44.555-37.268 62.923-48.523 13.932-8.538 38.517-9.899 41.159 10.416-22.034-21.234-56.892 22.252-97.396 46.382 72.351 1.837 101.333-14.35 97.477-45.855-6.912-18.765-25.124-12.836-41.127-10.81-10.844-35.83-11.859-79.5-12.556-120.866-58.52-4.546-122.603 4.648-180.107 24.657 15.166 41.778 26.831 82.75 25.73 120.781z" fill="#FFF"/>
    <path d="M367.515 174.084c-68.586-1.289-50.355 79.785 25.014 63.967 28.352-5.642 55.643-23.091 78.883-40.153 22.624-16.61 44.555-37.268 62.923-48.523 13.932-8.538 38.517-9.899 41.159 10.416-22.034-21.234-56.892 22.252-97.396 46.382 72.351 1.837 101.333-14.35 97.477-45.855-6.912-18.765-25.124-12.836-41.127-10.81-10.844-35.83-11.859-79.5-12.556-120.866-58.52-4.546-122.603 4.648-180.107 24.657 15.166 41.778 26.831 82.75 25.73 120.781z" stroke="#000" stroke-width="8" stroke-linejoin="round" fill="none"/>
    <path d="M404.043 182.843c10.262 2.971 45.348-3.987 95.231-16.864-8.763-45.466 18.694-14.268-27.409-134.415-40.392 1.905-66.663 7.792-92.836 14.06z" fill="url(#c)"/>
    <path d="M365.185 208.421c43.029 4.402 81.564 0 106.227-10.523l52.618-42.722c-56.573 18.904-81.221 23.504-156.702 24.478-.379 5.251-2.143 28.767-2.143 28.767z" fill="url(#d)"/>
    <path d="M365.185 208.421c43.029 4.402 81.564 0 106.227-10.523l52.618-42.722c-56.573 18.904-81.221 23.504-156.702 24.478-.379 5.251-2.143 28.767-2.143 28.767z" stroke="#151515" stroke-width="8" fill="none"/>
    <g>
      <path d="M404.506 234.92c21.418-6.819 47.315-22.901 74.156-41.973 18.986-13.489 37.947-40.514 69.505-48.745 11.307-2.717 28.726-.31 27.714 22.563-4.888-17.005-21.686-13.043-36.501-4.649-42.246 26.256-50.527 51.152-134.87 72.804z" fill="#BFBFBF"/>
      <path d="M404.506 234.92c21.418-6.819 47.315-22.901 74.156-41.973 18.986-13.489 37.947-40.514 69.505-48.745 11.307-2.717 28.726-.31 27.714 22.563-4.888-17.005-21.686-13.043-36.501-4.649-42.246 26.256-50.527 51.152-134.87 72.804z" stroke="#000" stroke-width="8" stroke-linecap="round" fill="none"/>
    </g>
    <path d="M367.515 174.08c.08 4.069-2.076 31.884-2.33 34.341" stroke="#000" stroke-width="8" stroke-linecap="round" stroke-linejoin="round" fill="none"/>
  </g>
  <g>
    <path d="M66.603 432.084c-68.585-1.289-50.354 79.785 25.015 63.967 28.352-5.642 55.643-23.091 78.883-40.153 22.624-16.61 44.555-37.268 62.923-48.523 13.932-8.538 38.516-9.899 41.159 10.416-22.034-21.234-56.892 22.252-97.396 46.382 72.351 1.837 101.332-14.35 97.477-45.855-6.913-18.765-25.124-12.836-41.127-10.81-10.844-35.83-11.859-79.5-12.557-120.866-58.519-4.547-122.602 4.648-180.106 24.657 15.166 41.778 26.831 82.75 25.729 120.781z" fill="#C40000"/>
    <path d="M66.603 432.084c-68.585-1.289-50.354 79.785 25.015 63.967 28.352-5.642 55.643-23.091 78.883-40.153 22.624-16.61 44.555-37.268 62.923-48.523 13.932-8.538 38.516-9.899 41.159 10.416-22.034-21.234-56.892 22.252-97.396 46.382 72.351 1.837 101.332-14.35 97.477-45.855-6.913-18.765-25.124-12.836-41.127-10.81-10.844-35.83-11.859-79.5-12.557-120.866-58.519-4.547-122.602 4.648-180.106 24.657 15.166 41.778 26.831 82.75 25.729 120.781z" stroke="#000" stroke-width="8" stroke-linejoin="round" fill="none"/>
    <path d="M103.277 440.845c10.22 2.96 45.162-3.97 94.839-16.794-8.727-45.279 18.617-14.209-27.296-133.862-40.226 1.898-66.389 7.76-92.455 14.002z" fill="url(#e)"/>
    <path d="M64.274 466.421c43.028 4.402 81.564 0 106.227-10.523l52.618-42.722c-56.574 18.904-81.221 23.504-156.703 24.478-.378 5.251-2.142 28.767-2.142 28.767z" fill="url(#f)"/>
    <path d="M64.274 466.421c43.028 4.402 81.564 0 106.227-10.523l52.618-42.722c-56.574 18.904-81.221 23.504-156.703 24.478-.378 5.251-2.142 28.767-2.142 28.767z" stroke="#151515" stroke-width="8" fill="none"/>
    <g>
      <path d="M103.595 492.92c21.418-6.819 47.315-22.901 74.156-41.973 18.986-13.489 37.947-40.514 69.505-48.745 11.306-2.717 28.725-.31 27.714 22.563-4.888-17.005-21.687-13.043-36.501-4.649-42.246 26.256-50.527 51.152-134.87 72.804z" fill="#900"/>
      <path d="M103.595 492.92c21.418-6.819 47.315-22.901 74.156-41.973 18.986-13.489 37.947-40.514 69.505-48.745 11.306-2.717 28.725-.31 27.714 22.563-4.888-17.005-21.687-13.043-36.501-4.649-42.246 26.256-50.527 51.152-134.87 72.804z" stroke="#000" stroke-width="8" stroke-linecap="round" fill="none"/>
    </g>
    <path d="M66.603 432.08c.081 4.069-2.075 31.884-2.329 34.341" stroke="#000" stroke-width="8" stroke-linecap="round" stroke-linejoin="round" fill="none"/>
  </g>
  <g>
    <path d="M367.515 432.084c-68.586-1.289-50.355 79.785 25.014 63.967 28.352-5.642 55.643-23.091 78.883-40.153 22.624-16.61 44.555-37.268 62.923-48.523 13.932-8.538 38.517-9.899 41.159 10.416-22.034-21.234-56.892 22.252-97.396 46.382 72.351 1.837 101.333-14.35 97.477-45.855-6.912-18.765-25.124-12.836-41.127-10.81-10.844-35.83-11.859-79.5-12.556-120.866-58.52-4.547-122.603 4.648-180.107 24.657 15.166 41.778 26.831 82.75 25.73 120.781z"/>
    <path d="M367.515 432.084c-68.586-1.289-50.355 79.785 25.014 63.967 28.352-5.642 55.643-23.091 78.883-40.153 22.624-16.61 44.555-37.268 62.923-48.523 13.932-8.538 38.517-9.899 41.159 10.416-22.034-21.234-56.892 22.252-97.396 46.382 72.351 1.837 101.333-14.35 97.477-45.855-6.912-18.765-25.124-12.836-41.127-10.81-10.844-35.83-11.859-79.5-12.556-120.866-58.52-4.547-122.603 4.648-180.107 24.657 15.166 41.778 26.831 82.75 25.73 120.781z" stroke="#000" stroke-width="8" stroke-linejoin="round" fill="none"/>
    <path d="M403.376 440.83c10.456 3.027 46.206-4.062 97.032-17.183-8.928-46.327 19.048-14.538-27.927-136.958-41.156 1.941-67.924 7.939-94.592 14.326z" fill="url(#g)"/>
    <path d="M365.185 466.421c43.029 4.402 81.564 0 106.227-10.523l52.618-42.722c-56.573 18.904-81.221 23.504-156.702 24.478-.379 5.251-2.143 28.767-2.143 28.767z" fill="url(#h)"/>
    <path d="M365.185 466.421c43.029 4.402 81.564 0 106.227-10.523l52.618-42.722c-56.573 18.904-81.221 23.504-156.702 24.478-.379 5.251-2.143 28.767-2.143 28.767z" stroke="#151515" stroke-width="8" fill="none"/>
    <g>
      <path d="M404.506 492.92c21.418-6.819 47.315-22.901 74.156-41.973 18.986-13.489 37.947-40.514 69.505-48.745 11.307-2.717 28.726-.31 27.714 22.563-4.888-17.005-21.686-13.043-36.501-4.649-42.246 26.256-50.527 51.152-134.87 72.804z" fill="#151515"/>
      <path d="M404.506 492.92c21.418-6.819 47.315-22.901 74.156-41.973 18.986-13.489 37.947-40.514 69.505-48.745 11.307-2.717 28.726-.31 27.714 22.563-4.888-17.005-21.686-13.043-36.501-4.649-42.246 26.256-50.527 51.152-134.87 72.804z" stroke="#000" stroke-width="8" stroke-linecap="round" fill="none"/>
    </g>
    <path d="M367.515 432.08c.08 4.069-2.076 31.884-2.33 34.341" stroke="#000" stroke-width="8" stroke-linecap="round" stroke-linejoin="round" fill="none"/>
  </g>
  <g>
    <path d="M66.603 698.084c-68.585-1.289-50.354 79.785 25.015 63.967 28.352-5.642 55.643-23.091 78.883-40.153 22.624-16.61 44.555-37.268 62.923-48.523 13.932-8.538 38.516-9.899 41.159 10.416-22.034-21.234-56.892 22.252-97.396 46.382 72.351 1.837 101.332-14.35 97.477-45.855-6.913-18.765-25.124-12.836-41.127-10.81-10.844-35.83-11.859-79.5-12.557-120.866-58.519-4.546-122.602 4.648-180.106 24.657 15.166 41.778 26.831 82.75 25.729 120.781z" fill="#FFE12B"/>
    <path d="M66.603 698.084c-68.585-1.289-50.354 79.785 25.015 63.967 28.352-5.642 55.643-23.091 78.883-40.153 22.624-16.61 44.555-37.268 62.923-48.523 13.932-8.538 38.516-9.899 41.159 10.416-22.034-21.234-56.892 22.252-97.396 46.382 72.351 1.837 101.332-14.35 97.477-45.855-6.913-18.765-25.124-12.836-41.127-10.81-10.844-35.83-11.859-79.5-12.557-120.866-58.519-4.546-122.602 4.648-180.106 24.657 15.166 41.778 26.831 82.75 25.729 120.781z" stroke="#000" stroke-width="8" stroke-linejoin="round" fill="none"/>
    <path d="M103.229 706.845c10.233 2.963 45.223-3.976 94.969-16.818-8.739-45.342 18.643-14.229-27.333-134.046-40.282 1.9-66.48 7.77-92.582 14.021z" fill="url(#i)"/>
    <path d="M64.274 732.421c43.028 4.402 81.564 0 106.227-10.523l52.618-42.722c-56.574 18.904-81.221 23.504-156.703 24.478-.378 5.251-2.142 28.767-2.142 28.767z" fill="url(#j)"/>
    <path d="M64.274 732.421c43.028 4.402 81.564 0 106.227-10.523l52.618-42.722c-56.574 18.904-81.221 23.504-156.703 24.478-.378 5.251-2.142 28.767-2.142 28.767z" stroke="#151515" stroke-width="8" fill="none"/>
    <g>
      <path d="M103.595 758.92c21.418-6.819 47.315-22.901 74.156-41.973 18.986-13.489 37.947-40.514 69.505-48.745 11.306-2.717 28.725-.31 27.714 22.563-4.888-17.005-21.687-13.043-36.501-4.649-42.246 26.256-50.527 51.152-134.87 72.804z" fill="#C4A800"/>
      <path d="M103.595 758.92c21.418-6.819 47.315-22.901 74.156-41.973 18.986-13.489 37.947-40.514 69.505-48.745 11.306-2.717 28.725-.31 27.714 22.563-4.888-17.005-21.687-13.043-36.501-4.649-42.246 26.256-50.527 51.152-134.87 72.804z" stroke="#000" stroke-width="8" stroke-linecap="round" fill="none"/>
    </g>
    <path d="M66.603 698.08c.081 4.069-2.075 31.884-2.329 34.341" stroke="#000" stroke-width="8" stroke-linecap="round" stroke-linejoin="round" fill="none"/>
  </g>
  <g>
    <path d="M372.181 698.084c-68.585-1.289-50.354 79.785 25.015 63.967 28.352-5.642 55.643-23.091 78.883-40.153 22.624-16.61 44.555-37.268 62.923-48.523 13.932-8.538 38.516-9.899 41.159 10.416-22.034-21.234-56.892 22.252-97.397 46.382 72.352 1.837 101.333-14.35 97.478-45.855-6.913-18.765-25.124-12.836-41.127-10.81-10.844-35.83-11.859-79.5-12.557-120.866-58.519-4.546-122.602 4.648-180.106 24.657 15.166 41.778 26.831 82.75 25.729 120.781z" fill="#206F00"/>
    <path d="M372.181 698.084c-68.585-1.289-50.354 79.785 25.015 63.967 28.352-5.642 55.643-23.091 78.883-40.153 22.624-16.61 44.555-37.268 62.923-48.523 13.932-8.538 38.516-9.899 41.159 10.416-22.034-21.234-56.892 22.252-97.397 46.382 72.352 1.837 101.333-14.35 97.478-45.855-6.913-18.765-25.124-12.836-41.127-10.81-10.844-35.83-11.859-79.5-12.557-120.866-58.519-4.546-122.602 4.648-180.106 24.657 15.166 41.778 26.831 82.75 25.729 120.781z" stroke="#000" stroke-width="8" stroke-linejoin="round" fill="none"/>
    <path d="M408.661 706.842c10.277 2.975 45.411-3.993 95.361-16.887-8.774-45.529 18.72-14.288-27.445-134.599-40.448 1.908-66.755 7.802-92.964 14.079z" fill="url(#k)"/>
    <path d="M369.852 732.421c43.028 4.402 81.564 0 106.227-10.523l52.618-42.722c-56.574 18.904-81.221 23.504-156.703 24.478a21009.17 21009.17 0 01-2.142 28.767z" fill="url(#l)"/>
    <path d="M369.852 732.421c43.028 4.402 81.564 0 106.227-10.523l52.618-42.722c-56.574 18.904-81.221 23.504-156.703 24.478a21009.17 21009.17 0 01-2.142 28.767z" stroke="#151515" stroke-width="8" fill="none"/>
    <g>
      <path d="M409.173 758.92c21.418-6.819 47.315-22.901 74.156-41.973 18.986-13.489 37.946-40.514 69.505-48.745 11.306-2.717 28.725-.31 27.714 22.563-4.888-17.005-21.687-13.043-36.501-4.649-42.246 26.256-50.527 51.152-134.87 72.804z" fill="#00440A"/>
      <path d="M409.173 758.92c21.418-6.819 47.315-22.901 74.156-41.973 18.986-13.489 37.946-40.514 69.505-48.745 11.306-2.717 28.725-.31 27.714 22.563-4.888-17.005-21.687-13.043-36.501-4.649-42.246 26.256-50.527 51.152-134.87 72.804z" stroke="#000" stroke-width="8" stroke-linecap="round" fill="none"/>
    </g>
    <path d="M372.181 698.08c.081 4.069-2.075 31.884-2.329 34.341" stroke="#000" stroke-width="8" stroke-linecap="round" stroke-linejoin="round" fill="none"/>
  </g>
</svg>
