<svg version="1.1" id="Layer_1" xmlns="http://www.w3.org/2000/svg" xmlns:xlink="http://www.w3.org/1999/xlink" x="0px" y="0px"
	 width="100%" viewBox="0 0 253 258" enable-background="new 0 0 253 258" xml:space="preserve">
<path fill="#FFFFFF" opacity="1.000000" stroke="none" 
	d="
M138.000000,259.000000 
	C93.166672,259.000000 48.833237,258.962555 4.500236,259.083527 
	C1.517078,259.091644 0.914437,258.482147 0.918072,255.499908 
	C1.020051,171.833389 1.020047,88.166664 0.918078,4.500123 
	C0.914444,1.517965 1.517768,0.914303 4.500079,0.918029 
	C86.499947,1.020456 168.499985,1.020451 250.499847,0.918044 
	C253.481979,0.914319 254.085587,1.517715 254.081955,4.500061 
	C253.979965,88.166595 253.979950,171.833313 254.081909,255.499832 
	C254.085541,258.481873 253.483582,259.094360 250.499771,259.084106 
	C213.166855,258.955719 175.833359,259.000000 138.000000,259.000000 
z"/>
<path fill="#D9E7ED" opacity="1.000000" stroke="none" 
	d="
M90.194260,243.920258 
	C71.918617,237.630325 56.099243,227.940155 43.018375,214.335495 
	C24.768270,195.354568 14.093666,172.662918 10.887656,146.332077 
	C6.912995,113.688339 15.617460,84.518951 35.757263,59.242054 
	C54.272121,36.004585 78.754173,21.444054 108.515999,17.056074 
	C142.342621,12.068794 173.380890,19.590141 200.087708,40.975166 
	C224.611084,60.611847 239.281845,86.391701 243.080582,117.998367 
	C247.118454,151.594772 238.503082,181.470245 216.974792,207.495697 
	C198.451859,229.887985 174.622223,243.044617 145.995148,248.153824 
	C127.046852,251.535629 108.745049,249.499680 90.194260,243.920258 
z"/>
<path fill="#6BA2B8" opacity="1.000000" stroke="none" 
	d="
M86.050140,72.014969 
	C113.824318,53.312477 150.068924,55.431541 175.041702,77.603584 
	C197.689941,97.711761 205.306427,123.314308 197.438507,152.137421 
	C189.530502,181.107407 169.444138,198.905853 139.883408,204.688721 
	C100.102638,212.470901 60.446007,183.998764 54.932446,144.288849 
	C50.743641,114.120148 61.415398,90.218887 86.050140,72.014969 
z"/>
<path fill="#FAFCFD" opacity="1.000000" stroke="none" 
	d="
M128.756332,150.756439 
	C125.562019,153.949661 122.560791,156.838699 119.690826,159.852707 
	C117.249001,162.417114 115.036560,162.556244 112.478874,159.949158 
	C105.948463,153.292618 99.293564,146.758377 92.726761,140.137222 
	C90.900131,138.295456 89.082855,136.150345 91.769363,133.796402 
	C94.212463,131.655731 96.327347,133.121918 98.242012,135.063263 
	C102.919273,139.805771 107.831757,144.330902 112.295769,149.263687 
	C115.045151,152.301788 116.752640,152.413315 119.730659,149.364670 
	C133.577103,135.189819 147.677002,121.262444 161.701859,107.262199 
	C162.874939,106.091187 164.086044,104.929375 165.420074,103.955986 
	C167.004349,102.800018 168.630081,103.171410 169.904007,104.541504 
	C171.171799,105.905014 171.417465,107.528419 170.225555,109.079170 
	C169.418869,110.128708 168.449432,111.058983 167.509644,111.999496 
	C154.679611,124.839539 141.842041,137.672058 128.756332,150.756439 
z"/>
</svg>